<svg width="25" height="23" viewBox="0 0 25 23" fill="none" xmlns="http://www.w3.org/2000/svg">
<path d="M7.67546 21.129H21.0088C21.5982 21.129 22.1634 20.8949 22.5801 20.4782C22.9969 20.0614 23.231 19.4962 23.231 18.9068V16.6846H9.89768V18.9068C9.89768 19.4962 9.66355 20.0614 9.2468 20.4782C8.83006 20.8949 8.26483 21.129 7.67546 21.129ZM7.67546 21.129C7.08609 21.129 6.52085 20.8949 6.10411 20.4782C5.68736 20.0614 5.45323 19.4962 5.45323 18.9068V3.35125C5.45323 2.76188 5.21911 2.19665 4.80236 1.7799C4.38561 1.36315 3.82038 1.12903 3.23101 1.12903M3.23101 1.12903C2.64164 1.12903 2.07641 1.36315 1.65966 1.7799C1.24292 2.19665 1.00879 2.76188 1.00879 3.35125V6.68458H5.45323M3.23101 1.12903H17.6755C18.2648 1.12903 18.8301 1.36315 19.2468 1.7799C19.6636 2.19665 19.8977 2.76188 19.8977 3.35125V16.6846M15.4532 6.68458H9.89768M15.4532 11.129H9.89768" stroke="#B69797" stroke-width="2" stroke-linecap="round" stroke-linejoin="round"/>
</svg>
