<svg width="23" height="23" viewBox="0 0 23 23" fill="none" xmlns="http://www.w3.org/2000/svg">
<path fill-rule="evenodd" clip-rule="evenodd" d="M11.231 22.129C5.15582 22.129 0.230957 17.2042 0.230957 11.129C0.230957 5.0539 5.15582 0.129028 11.231 0.129028C17.3061 0.129028 22.231 5.0539 22.231 11.129C22.231 17.2042 17.3061 22.129 11.231 22.129ZM18.6305 16.2537C19.6396 14.7994 20.231 13.0333 20.231 11.1291C20.231 6.15849 16.2015 2.12905 11.231 2.12905C6.26042 2.12905 2.23098 6.15849 2.23098 11.1291C2.23098 13.0332 2.82235 14.7993 3.83144 16.2536C4.95508 14.7695 7.59302 14.1311 11.2134 14.129C8.9826 14.1208 7.23093 12.5474 7.23093 9.12903C7.23093 6.88479 8.81003 5.12903 11.2309 5.12903C13.6451 5.12903 15.2309 7.05061 15.2309 9.32903C15.2309 12.5999 13.4585 14.1209 11.2486 14.129C14.869 14.1311 17.5069 14.7695 18.6305 16.2537ZM17.1956 17.8688C16.903 16.8164 14.8004 16.129 11.2309 16.129C7.66154 16.129 5.55892 16.8164 5.26625 17.8688C6.85424 19.2752 8.9429 20.1291 11.231 20.1291C13.519 20.1291 15.6077 19.2752 17.1956 17.8688ZM9.23095 9.12902C9.23095 11.3983 10.0492 12.129 11.2309 12.129C12.4087 12.129 13.2309 11.4274 13.2309 9.32902C13.2309 8.07944 12.4466 7.12902 11.2309 7.12902C9.96469 7.12902 9.23095 7.94485 9.23095 9.12902Z" fill="#B69797"/>
</svg>
