<svg width="39" height="38" viewBox="0 0 39 38" fill="none" xmlns="http://www.w3.org/2000/svg">
<path d="M18.331 20.2745C18.1394 20.5515 17.2666 20.6968 17.0786 20.7776C16.89 20.8567 15.7758 21.8771 15.6288 22.1548C15.4823 22.4342 15.3857 23.0499 14.7864 23.3322C14.6019 23.4183 13.8504 23.1922 13.7596 23.2016C13.7344 23.2033 13.6161 23.2238 13.4561 23.249C13.0572 23.3111 12.3918 23.406 12.2483 23.3346C11.4089 23.2461 11.1142 23.1354 11.2648 22.3985C11.4241 21.627 11.608 21.6089 12.0948 21.4044C12.1809 21.3687 12.5423 21.5907 12.7901 21.7453C12.8229 21.7664 12.8546 21.7852 12.8815 21.8022L12.8827 21.8033C12.8956 21.811 12.9079 21.8192 12.9184 21.8256C13.1439 21.9656 14.3518 22.0763 14.3518 22.0763C14.3518 22.0763 14.2651 21.6153 14.4432 21.3968C14.6213 21.1789 15.4677 20.7115 15.7805 18.5675C15.811 18.3578 15.9639 17.5524 15.8045 16.8647C15.6458 16.177 14.2587 15.081 13.4913 12.6957C12.7233 10.3093 12.6255 10.3022 12.5816 9.18164C12.5816 9.18164 12.7714 8.22039 13.3261 7.71369C13.882 7.20817 15.3681 7.6516 16.1618 8.96784C16.9567 10.2841 17.3668 11.9781 17.4347 12.3472C17.5033 12.7168 17.8823 14.2867 17.9274 14.8068C17.9736 15.327 18.1535 16.0065 18.1716 16.1887C18.1898 16.372 18.5225 19.9962 18.331 20.2745Z" fill="#8A7E72"/>
<path d="M35.3165 36.6375C35.3071 36.1964 35.4026 35.4952 35.4026 35.4952C35.4026 35.4952 35.0072 32.4129 34.6499 31.8019C34.3125 31.2261 32.2031 28.1701 31.3051 26.9283C27.1894 21.231 28.757 21.3277 28.3569 19.2739C27.3851 14.2773 30.0873 14.0547 30.0873 14.0547C30.0873 14.0547 31.7532 14.5198 32.4315 16.618C33.1093 18.7163 31.7573 21.1068 32.2195 22.7353C32.5411 23.8693 33.4918 26.4555 34.982 29.2643C35.3997 30.0528 36.0217 30.5583 36.1875 30.9344C36.2789 31.14 36.3029 31.2589 36.3 31.2929C36.266 31.659 36.6602 33.1697 36.9613 34.7074C36.9807 34.8069 37.1763 35.012 37.2003 35.1092C37.3515 35.7266 37.4704 36.3335 37.4991 36.8425C37.519 37.7001 35.3247 37.0786 35.3159 36.6381L35.3165 36.6375Z" fill="#E3C2A8"/>
<path d="M36.2024 35.2603C35.6846 34.3641 35.8246 32.9266 35.7432 32.2085C35.6618 31.4903 34.9594 31.5336 35.0139 30.9432C35.0684 30.3533 33.9027 29.4799 33.4804 28.1572C33.0586 26.8346 30.142 25.8569 31.0605 23.5038C31.979 21.1508 30.8203 22.0494 32.0862 19.3085C32.0862 19.3085 31.9737 14.3429 28.2154 16.3679C28.1018 17.089 28.117 18.0339 28.3577 19.2728C28.7578 21.3265 27.1897 21.2299 31.306 26.9271C32.2039 28.169 34.3127 31.2255 34.6507 31.8008C35.0081 32.4117 35.4035 35.4941 35.4035 35.4941C35.4035 35.4941 35.308 36.1958 35.3173 36.6363C35.3267 37.0774 37.521 37.6983 37.5005 36.8408C37.4882 36.6205 37.4578 36.3809 37.4162 36.1314C36.8896 35.8977 36.401 35.6024 36.203 35.2592L36.2024 35.2603Z" fill="#BF9D82"/>
<path d="M37.4999 36.842C37.4712 36.3335 37.3523 35.7267 37.2012 35.1087C37.1771 35.0108 36.9815 34.8064 36.9622 34.7068C36.6611 33.1686 36.2668 31.6579 36.3008 31.2923C36.3043 31.259 36.2797 31.14 36.1884 30.9338C36.0226 30.5578 35.4005 30.0523 34.9828 29.2638C34.7655 28.8543 34.5599 28.4502 34.366 28.0536C34.2629 28.3424 33.0726 28.3746 32.5659 28.7149C33.4627 30.0054 34.4304 31.4271 34.6495 31.8014C35.0068 32.4123 35.4022 35.4947 35.4022 35.4947C35.4022 35.4947 35.3068 36.1964 35.3161 36.637C35.3255 37.078 37.5198 37.699 37.4999 36.8414V36.842Z" fill="#A69889"/>
<path d="M37.4376 37.0634C37.4634 37.0259 37.4821 36.9837 37.4915 36.9345C37.4927 36.9275 37.495 36.921 37.4956 36.9134C37.4985 36.8905 37.5003 36.8671 37.4997 36.8419C37.4997 36.8408 37.4997 36.8396 37.4997 36.8378C37.4968 36.781 37.4921 36.7224 37.4862 36.6633C37.4827 36.6258 37.4786 36.5877 37.4739 36.5496C37.4716 36.5285 37.4692 36.5069 37.4669 36.4852C37.4605 36.4348 37.454 36.3833 37.4464 36.3311C37.4452 36.3235 37.4446 36.3165 37.4435 36.3089C37.4347 36.2503 37.4259 36.1911 37.4159 36.1314C36.8893 35.8977 36.4008 35.6024 36.2028 35.2592C35.685 34.3629 35.825 32.9254 35.7436 32.2073C35.6621 31.4891 34.9598 31.5319 35.0143 30.942C35.0658 30.3855 34.0319 29.5771 33.5598 28.3769C33.2013 28.4601 32.8071 28.552 32.5669 28.7137C32.5962 28.7559 32.6255 28.7987 32.6553 28.8408C32.6729 28.866 32.6905 28.8918 32.7087 28.9176C32.7251 28.9416 32.742 28.9656 32.7584 28.989C32.7994 29.0482 32.8405 29.1074 32.8815 29.1671C32.8897 29.1788 32.8979 29.1911 32.9061 29.2028C32.9289 29.2362 32.9517 29.2696 32.9752 29.3024C32.9869 29.3188 32.998 29.3358 33.0097 29.3522C33.0531 29.4155 33.0964 29.4782 33.1398 29.5408L33.1591 29.5689C33.1831 29.6035 33.2066 29.6381 33.23 29.672C33.24 29.6861 33.2493 29.7007 33.2593 29.7148C33.3015 29.7763 33.3436 29.8378 33.3852 29.8982C33.3928 29.9093 33.4005 29.9204 33.4081 29.9315C33.4321 29.9661 33.4555 30.0007 33.4789 30.0346C33.4854 30.0446 33.4924 30.054 33.4989 30.0639C33.5387 30.1219 33.5779 30.1799 33.6166 30.2367C33.6277 30.2531 33.6389 30.2695 33.65 30.2859C33.6699 30.3146 33.6892 30.3439 33.7086 30.372C33.7209 30.3902 33.7332 30.4084 33.7455 30.4265C33.7765 30.4722 33.807 30.5173 33.8369 30.5612C33.8503 30.5812 33.8638 30.6011 33.8773 30.621C33.8937 30.645 33.9101 30.669 33.9259 30.693C33.9452 30.7218 33.9646 30.7505 33.9833 30.7786C34.002 30.8067 34.0208 30.8342 34.0395 30.8617C34.0565 30.8875 34.0735 30.9127 34.0905 30.9373C34.1016 30.9537 34.1128 30.9701 34.1233 30.9865C34.1485 31.024 34.1725 31.0603 34.1959 31.0955C34.2059 31.1101 34.2153 31.1242 34.2246 31.1382C34.2422 31.1646 34.2592 31.1904 34.2762 31.2156C34.2844 31.2284 34.2932 31.2413 34.3014 31.2536C34.3236 31.2876 34.3453 31.3204 34.3658 31.352C34.3728 31.3626 34.3793 31.372 34.3857 31.3825C34.4033 31.4094 34.4209 31.4358 34.4373 31.461C34.4414 31.4674 34.4461 31.4739 34.4502 31.4803C34.4695 31.5102 34.4882 31.5389 34.5058 31.5664C34.5099 31.5735 34.5146 31.5799 34.5187 31.5864C34.5351 31.6121 34.5509 31.6361 34.565 31.659C34.5661 31.6607 34.5673 31.6631 34.5685 31.6648C34.5837 31.6889 34.5972 31.7111 34.6101 31.7316C34.613 31.7357 34.6153 31.7404 34.6183 31.7445C34.6306 31.7644 34.6417 31.7832 34.6511 31.7996C34.7067 31.8951 34.7635 32.0509 34.8198 32.2459C34.842 32.3238 34.8643 32.4082 34.8866 32.4972C34.9088 32.5863 34.9305 32.6806 34.9522 32.7778C34.9627 32.8264 34.9738 32.8762 34.9844 32.9266C35.2175 34.0361 35.4044 35.4929 35.4044 35.4929C35.4044 35.4929 35.3804 35.6686 35.3575 35.8988C35.3487 35.9855 35.3405 36.0792 35.3335 36.1753C35.3218 36.3346 35.3148 36.4981 35.3177 36.6357C35.3189 36.6908 35.354 36.7488 35.4149 36.8062C35.4389 36.829 35.4682 36.8513 35.4993 36.8741C35.5274 36.8941 35.5579 36.914 35.5913 36.9339C35.6147 36.9474 35.6399 36.9614 35.6656 36.9743C35.7172 37.0013 35.7734 37.027 35.8326 37.0511C35.8619 37.0634 35.8923 37.0751 35.9234 37.0868C36.4705 37.29 37.2209 37.3744 37.4388 37.0616L37.4376 37.0634Z" fill="#8A7E72"/>
<path d="M38.5305 18.096C38.541 18.7561 38.0501 19.1545 37.9242 19.1469C37.7977 19.1404 37.4474 18.8112 37.4474 18.8112C37.4474 18.8112 37.4304 18.9026 37.298 18.8628C37.223 18.8393 37.1106 18.7743 36.943 18.6279C36.4785 18.2213 36.6724 17.8529 36.6062 17.7199C36.54 17.5881 36.1862 16.406 35.7826 15.9427C35.379 15.4781 34.7897 13.4807 34.6298 13.3699C34.4711 13.2581 34.1307 13.3981 33.7482 13.4596C33.4764 13.5035 33.0224 13.5796 32.5802 15.1267C32.5509 15.2298 32.521 15.3393 32.4917 15.4553C32.3623 15.9725 32.234 16.6274 32.1127 17.4563C31.9493 18.5822 31.387 21.0711 31.0999 21.5064C31.0419 21.5936 30.9828 21.6856 30.9178 21.7746C30.906 21.7905 30.8943 21.8074 30.882 21.8233C30.5095 22.3054 29.8985 22.6732 28.0463 21.7506C27.9104 21.6833 27.7768 21.6171 27.6439 21.555C27.2045 21.3435 26.7869 21.1567 26.3885 20.9862C25.7032 20.6933 25.0787 20.4514 24.5111 20.2247C23.1287 19.6741 22.0849 19.2177 21.3286 18.3619C20.0282 16.8887 17.7197 14.9978 17.1766 14.3681C16.9945 14.1572 16.568 13.8151 16.0766 13.3822C15.0942 12.5217 13.5237 11.7966 13.4072 10.5676C13.399 10.478 13.3902 10.3895 13.3832 10.3046C13.2367 8.63102 13.3222 7.75294 14.113 7.51746C14.9472 7.26909 16.4011 6.72022 19.4131 9.45521C19.4131 9.45521 20.5929 10.7568 21.4288 11.2653C22.5095 11.9213 23.7959 12.9394 26.7371 11.6097C27.3709 11.3209 32.2 8.82316 33.0008 8.70834C33.7998 8.59353 35.3638 8.84073 35.9566 9.2414C36.5506 9.64266 36.8212 10.0228 37.2055 11.4709C37.5897 12.9154 37.2025 14.6575 37.6184 15.6996C37.7848 16.1178 38.0806 16.6315 38.2358 16.9578C38.4666 17.4452 38.5252 17.7 38.5328 18.0971L38.5305 18.096Z" fill="#F5E9E0"/>
<path d="M23.0656 12.1562C22.5003 14.1121 21.0909 13.0419 23.8933 14.4736C25.1984 15.1402 25.8439 14.0975 25.971 13.7583C26.0981 13.4192 25.1158 12.8164 25.1158 12.8164L22.2888 11.5523L23.065 12.1562H23.0656Z" fill="#F5E9E0"/>
<path d="M24.859 14.1326C24.859 14.1326 25.9035 17.1201 26.3756 18.2817C26.8477 19.4432 28.3672 21.8924 28.3672 21.8924C28.3672 21.8924 27.7317 21.8209 27.5267 21.7014C27.3216 21.5819 27.3193 21.3183 27.3193 21.3183C27.3193 21.3183 25.0787 17.8781 24.7817 16.5765C24.4847 15.2749 24.333 13.8005 24.333 13.8005L24.859 14.132V14.1326Z" fill="#942F11"/>
<path d="M30.9166 21.7741C30.9049 21.7899 30.8932 21.8069 30.8809 21.8227C29.2454 24.0533 25.9967 25.1428 24.9599 25.4439C24.8913 25.4639 24.8333 25.4808 24.7853 25.4943C24.6886 25.5207 24.6336 25.5336 24.6336 25.5336C24.6336 25.5336 24.6137 25.5189 24.5791 25.4902C24.1181 25.1177 20.9631 22.4038 24.3337 20.3336C24.3934 20.2967 24.4526 20.261 24.5106 20.2241C25.5521 19.5838 26.4178 19.0449 27.1255 18.6109C27.8676 18.1563 28.4376 17.8171 28.8558 17.601C29.3813 17.3292 29.6689 17.2495 29.7626 17.3714C30.0081 17.6894 30.9178 21.7741 30.9178 21.7741H30.9166Z" fill="#F5E9E0"/>
<path d="M10.0086 4.91076C9.70102 4.79126 9.39525 4.68875 9.09357 4.56457C8.74972 4.42281 8.36604 4.41812 8.02629 4.25059C7.68595 4.08364 7.33859 3.8962 7.09139 3.60097C6.87231 3.33971 6.70478 3.02105 6.48512 2.75276C6.0206 2.18398 5.46294 1.68021 4.80218 1.351C4.97792 1.5572 5.11499 1.79678 5.20227 2.05335C4.56729 1.33343 3.80285 0.699036 2.86561 0.437781C2.39289 0.305981 1.90201 0.250918 1.41289 0.229831C1.17038 0.219287 0.927868 0.218115 0.685357 0.22163C0.505524 0.223973 0.164603 0.303052 0 0.239203C0.575231 0.461797 1.06435 0.8982 1.35197 1.44356C1.11942 1.32582 0.865776 1.25084 0.606863 1.22389C0.787868 1.24264 0.864018 1.82431 0.920838 1.95084C1.02921 2.19276 1.16862 2.48917 1.31682 2.70532C1.38126 2.79963 1.7995 3.24071 1.92193 3.19912C1.67942 3.2823 1.40352 3.26063 1.17682 3.14113C1.33322 3.22373 1.50661 3.48381 1.66887 3.60038C1.91197 3.77494 2.13281 3.94247 2.40929 4.06607C2.95758 4.3121 3.55683 4.42164 4.14494 4.52532C4.00377 4.59034 3.84386 4.6126 3.69038 4.58917C4.00084 4.90842 4.31423 5.23001 4.68503 5.4772C5.17005 5.80055 5.81616 5.95988 6.39022 6.0126C6.1934 6.11394 5.95733 6.15377 5.73708 6.15085C6.28888 6.57495 7.02461 6.66164 7.71993 6.67921C8.41583 6.69679 9.13165 6.66457 9.78537 6.90357C10.3132 7.09629 10.7554 7.45009 11.2082 7.77227C11.4853 7.96968 11.999 8.44181 12.2919 8.08566C12.6668 7.63051 12.296 6.83386 12.0125 6.43085C11.5245 5.73612 10.7976 5.21595 10.0103 4.91017L10.0086 4.91076Z" fill="#28304A"/>
<path d="M12.0851 6.57673C12.1325 6.58493 12.1542 6.63062 12.2204 6.72258C12.2977 6.83095 12.3739 6.93991 12.4465 7.0512C12.6463 7.35932 13.0663 7.97907 12.7681 8.34225C12.6715 8.45999 12.4975 8.45941 12.2971 8.3979C12.293 8.39673 12.2889 8.39556 12.2854 8.3938C12.272 8.3897 12.2591 8.3856 12.2468 8.38033C12.2333 8.37623 12.2216 8.37095 12.2087 8.36685C12.1823 8.35748 12.156 8.34694 12.1308 8.33639C12.0945 8.32058 12.0582 8.303 12.0213 8.28543C11.8086 8.18409 11.6083 8.05522 11.415 7.91991C11.3447 7.87129 11.275 7.82208 11.2064 7.77229C10.7548 7.45012 10.3125 7.09631 9.78359 6.90359C9.12986 6.66576 8.41463 6.69798 7.71873 6.68041C7.02283 6.66225 6.28768 6.57497 5.73588 6.15204C5.95613 6.15438 6.19279 6.11396 6.38961 6.01321C5.81496 5.96049 5.16885 5.80174 4.68383 5.4784C4.31421 5.2312 4.00023 4.90961 3.68977 4.59095C3.84324 4.61438 4.00375 4.59212 4.14492 4.52651C3.55739 4.42342 2.95697 4.3127 2.40927 4.06726C2.13337 3.94308 1.91253 3.77555 1.66885 3.60157C1.50542 3.48442 1.3332 3.22433 1.17621 3.14115C1.40349 3.26124 1.67939 3.28233 1.9219 3.20032C1.80006 3.24132 1.38182 2.80023 1.31738 2.70651C1.16918 2.48977 1.02977 2.19396 0.921397 1.95144C0.864577 1.82492 0.789012 1.24383 0.607422 1.2245C0.866334 1.25203 1.11998 1.32642 1.35311 1.44358C1.31504 1.42483 1.26583 1.29713 1.23772 1.2491C1.21136 1.20868 1.18441 1.16768 1.15512 1.12902C1.13286 1.09738 1.10885 1.06575 1.08366 1.03646C1.08073 1.03119 1.07604 1.02592 1.07194 1.02065C1.0655 1.01303 1.05905 1.006 1.0532 0.998389C1.01746 0.955041 0.979389 0.91228 0.940728 0.871275C0.881565 0.803911 0.827088 0.735376 0.78374 0.645752C0.981732 0.699643 1.17562 0.777551 1.34608 0.89002C1.48726 0.982573 1.61144 1.09738 1.7327 1.21337C1.89496 1.36801 2.0578 1.53262 2.16207 1.73354C2.25579 1.91454 2.17496 2.0645 2.22416 2.25078C2.26399 2.39722 2.34132 2.51086 2.41981 2.63622C2.48425 2.73755 2.51236 2.85002 2.5768 2.95136C2.72851 3.1927 2.99387 3.36492 3.25161 3.4727C3.57086 3.60509 3.91588 3.65722 4.25739 3.7076C4.13555 3.72224 4.02366 3.80132 3.97094 3.91203C4.48291 3.89388 4.99781 4.01396 5.44944 4.2553C5.27371 4.3912 5.07571 4.58685 5.14015 4.80007C5.16944 4.89555 5.24676 4.9676 5.3235 5.03145C5.67965 5.32844 6.11312 5.5358 6.56358 5.64124C6.79204 5.69513 7.03279 5.72911 7.26827 5.72266C7.51254 5.71622 7.75681 5.6061 7.98995 5.53463C7.83354 5.66174 7.67656 5.78886 7.52015 5.91597C7.5471 5.8943 7.81597 5.95346 7.86693 5.95405C8.00518 5.95639 8.14342 5.94409 8.28049 5.92593C8.53003 5.89313 8.76375 5.87731 9.01622 5.8779C9.50007 5.87848 10.0097 5.90836 10.4356 6.15614C10.9961 6.483 11.5321 7.24919 11.7594 7.36049C12.0177 7.48702 12.1308 7.50284 12.4032 7.41087C12.4729 7.38744 12.0558 6.57262 12.0863 6.5779L12.0851 6.57673Z" fill="#1C2134"/>
<path d="M37.2985 18.8065C37.2985 18.8258 37.2985 18.8446 37.2973 18.8627C37.2833 19.3917 36.9482 19.742 36.7707 19.8328C36.7385 19.8504 36.711 19.8586 36.6916 19.858C36.5657 19.8515 36.2148 19.5229 36.2148 19.5229C36.2148 19.5229 36.1756 19.7449 35.711 19.3384C35.2459 18.9319 34.8125 18.9254 34.7463 18.793C34.6801 18.6618 34.3257 17.4791 33.9227 17.0146C33.6626 16.7153 32.9819 15.9731 32.4922 15.4547C32.221 15.1694 32.0089 14.9539 31.9527 14.914C31.7945 14.8021 31.4542 14.9421 31.0717 15.0048C30.9493 15.0242 30.4666 15.2391 29.8545 15.6509C28.9875 16.235 27.8622 17.215 27.1265 18.6097C26.7961 19.2353 26.5425 19.9441 26.4277 20.7372C26.4171 20.814 26.4025 20.8954 26.3896 20.9844C26.3796 21.0407 26.3691 21.0981 26.358 21.1578C26.1424 22.3914 25.6697 24.4018 25.4137 24.7867C25.238 25.0532 25.1829 25.3297 24.9609 25.4433C24.9123 25.4691 24.8549 25.4855 24.7863 25.4931H24.7811C24.7237 25.4996 24.6563 25.4984 24.5807 25.489C24.2632 25.451 23.7729 25.2746 22.9775 24.8775C21.9793 24.3802 21.1739 23.9865 20.4996 23.6374C18.9649 22.846 18.1062 22.2848 17.2035 21.2615C15.9031 19.7883 13.581 17.3842 13.038 16.7557C13.0087 16.7235 12.9753 16.6872 12.9361 16.6485C12.7223 16.437 12.3538 16.136 11.9368 15.7704C10.9556 14.9088 9.70848 13.6956 9.59133 12.4667C9.41442 10.6221 9.4648 9.6649 10.2978 9.41653C10.9287 9.22908 11.7282 9.14766 13.3825 10.3022C13.9167 10.6742 14.5388 11.1739 15.2728 11.8411C15.2728 11.8411 16.8532 12.7308 17.6897 13.2393C18.5262 13.7478 20.4159 15.1765 21.0497 14.89C21.3215 14.7664 22.9118 13.9211 24.7055 12.9833C24.6545 12.9704 24.5995 12.954 24.5362 12.9347C24.47 12.9142 24.4026 12.8954 24.3359 12.8785C24.6047 12.848 24.8724 12.8058 25.139 12.7584C25.4043 12.7109 25.6703 12.6576 25.9321 12.6043C25.6644 12.7344 25.3991 12.8644 25.1319 12.9956H25.1296C25.1296 12.9956 25.1261 12.998 25.1243 12.9991C25.1267 12.998 25.1284 12.9968 25.1319 12.9956C25.2087 12.9839 25.2848 12.9716 25.3604 12.9575C25.6052 12.9511 25.9274 13.0073 26.1049 12.9909C26.4347 12.9616 26.7844 12.9001 27.0785 12.7385C27.6877 12.4022 28.3186 12.0449 28.8639 11.6015C28.5845 11.9418 28.2301 12.2095 27.8786 12.4749C28.4111 12.2698 28.9301 12.0285 29.4298 11.7532C29.8404 11.5277 30.3975 11.2699 30.7554 10.9313C30.7888 10.8991 30.8239 10.8663 30.8538 10.8318C30.9036 10.7755 30.9516 10.717 30.9979 10.6572C31.1051 10.5219 31.2105 10.3831 31.3382 10.2659C31.3435 10.2618 31.3482 10.2571 31.3535 10.253C31.4694 10.2647 31.5866 10.2788 31.7037 10.2964C31.6592 10.3321 31.6135 10.3667 31.5673 10.3995C31.6206 10.3819 31.6727 10.3614 31.7243 10.3397C31.7459 10.3298 31.7676 10.3204 31.7893 10.3093C32.3856 10.4059 32.9655 10.5734 33.2777 10.7837C33.8717 11.185 34.2847 11.523 34.6695 12.9698C35.052 14.4155 35.7966 15.5027 36.213 16.5454C36.6301 17.5893 37.2862 18.1428 37.2991 18.8042L37.2985 18.8065Z" fill="#F5E9E0"/>
<path d="M25.1324 12.9974C25.1287 12.9986 25.1269 12.9998 25.1245 13.001C25.1269 12.9998 25.1281 12.9986 25.13 12.9974H25.1324Z" fill="#F5E9E0"/>
<path d="M31.3534 10.2548C31.3481 10.2589 31.3434 10.2635 31.3381 10.2676C31.2104 10.3848 31.105 10.5236 30.9978 10.6589C30.9509 10.7187 30.9035 10.7773 30.8537 10.8335C30.8232 10.8681 30.7887 10.9009 30.7553 10.9331C30.3974 11.2711 29.8403 11.5294 29.4297 11.7549C28.93 12.0302 28.411 12.2722 27.8785 12.4766C28.23 12.2112 28.5844 11.9436 28.8638 11.6032C28.3185 12.0466 27.6876 12.404 27.0784 12.7402C26.7849 12.9019 26.4346 12.9634 26.1048 12.9927C25.9273 13.0091 25.6051 12.9528 25.3603 12.9593C25.2841 12.9733 25.2086 12.9851 25.1318 12.9974C25.3984 12.8661 25.6643 12.7361 25.932 12.6061C25.6696 12.6594 25.4042 12.7121 25.1389 12.7601C25.6526 12.4913 26.1763 12.2206 26.6836 11.9611C28.4309 11.0649 29.9873 10.3005 30.3212 10.253C30.5989 10.2132 30.9662 10.2161 31.3539 10.2553L31.3534 10.2548Z" fill="#F5E9E0"/>
<path d="M31.7894 10.311C31.7677 10.3216 31.746 10.3315 31.7244 10.3415C31.6722 10.3632 31.6201 10.3837 31.5674 10.4013C31.6142 10.3684 31.6593 10.3339 31.7039 10.2982C31.732 10.3023 31.7613 10.3069 31.7894 10.311Z" fill="#F5E9E0"/>
<path d="M36.771 19.8334C36.7382 19.8504 36.7112 19.8586 36.6919 19.8574C36.5654 19.851 36.2151 19.5223 36.2151 19.5223C36.2151 19.5223 36.1758 19.7443 35.7107 19.3378C35.2462 18.9313 34.8127 18.9248 34.746 18.7936C34.6798 18.6618 34.326 17.4792 33.9224 17.0152C33.6623 16.7153 32.9822 15.9725 32.4913 15.4547C32.3619 15.972 32.2336 16.6268 32.1123 17.4557C31.9489 18.5816 31.3865 21.0705 31.0995 21.5058C31.0415 21.593 30.9824 21.685 30.9173 21.7741C30.9056 21.7899 30.8939 21.8069 30.8816 21.8227C29.2461 24.0533 25.9974 25.1428 24.9606 25.4439C24.9108 25.4703 24.854 25.4873 24.786 25.4943H24.7808L26.0484 20.8989C26.1538 20.9979 26.6406 19.3976 26.7419 19.4725C27.2387 19.8451 27.2861 21.63 27.644 21.5538C28.6211 21.3494 29.054 19.8603 28.7863 19.1474C28.6316 18.7356 28.6486 18.4304 28.8818 17.8476C29.119 17.2589 29.6157 17.0316 30.1289 16.3966C30.372 16.0932 30.9911 15.1038 31.0327 14.6914C31.2313 12.7426 31.8411 14.1449 32.5804 15.1261C32.6489 15.2175 32.7239 15.3094 32.8076 15.3996C33.7882 16.457 34.1989 16.792 34.7061 18.028C35.0019 18.7497 35.9948 19.4087 36.771 19.8328V19.8334Z" fill="#E3C2A8"/>
<path d="M31.0823 33.6917C30.8936 33.8399 30.5498 34.3401 30.2569 34.4496C29.9968 34.7888 29.3964 35.0173 29.1398 35.1028C29.0649 35.128 29.0198 35.1409 29.0198 35.1409C29.0198 35.1409 27.9864 35.2744 27.7644 34.6143C27.5254 33.9037 27.7076 33.6014 27.8435 33.4562C28.3057 33.2078 28.7345 33.2435 28.8809 33.2664C28.9155 33.2717 28.9348 33.2758 28.9348 33.2758C28.9348 33.2758 30.3846 32.8768 30.4221 32.4053C30.3003 31.9777 30.2376 31.2015 29.8176 30.2321C29.4813 29.4583 28.7749 28.4326 28.6613 28.2984C28.4041 27.995 27.1962 27.476 27.1962 27.476C27.1962 27.476 25.0945 27.1181 23.7642 25.3742C23.012 24.3878 22.4228 22.2081 22.1129 20.3483C21.8756 18.9213 21.803 17.683 21.9465 17.3157C22.2769 16.4681 24.6973 15.3024 26.3492 17.8476C28.0017 20.394 26.5302 22.8103 27.2841 23.6591C28.038 24.5067 29.7584 26.602 30.3624 27.4678C30.5814 27.848 30.5024 28.2199 30.6465 28.6903C31.05 30.0024 31.5181 31.3105 31.7998 32.1171C32.0787 32.9161 31.7659 33.1522 31.0817 33.6922L31.0823 33.6917Z" fill="#F5E9E0"/>
<path d="M30.5667 33.2851C29.6535 33.4937 28.8879 34.3671 29.1398 35.1022C29.0648 35.1274 29.0197 35.1403 29.0197 35.1403C29.0197 35.1403 27.9864 35.2739 27.7644 34.6137C27.5254 33.9031 27.7075 33.6009 27.8434 33.4556C28.3056 33.2072 28.7344 33.243 28.8808 33.2658C28.9154 33.2711 28.9347 33.2752 28.9347 33.2752C28.9347 33.2752 30.3845 32.8763 30.422 32.4047C30.3002 31.9771 30.2375 31.201 29.8175 30.2315C29.4813 29.4577 28.7748 28.432 28.6612 28.2979C28.404 27.9944 27.1961 27.4754 27.1961 27.4754C27.1961 27.4754 25.0944 27.1175 23.7641 25.3737C23.012 24.3872 22.4227 22.2076 22.1128 20.3477C22.8702 22.4917 23.4021 21.893 23.63 23.4394C23.7858 24.4962 25.0821 25.2899 26.389 26.2693C27.6958 27.2487 28.7444 26.94 28.9951 27.3753C29.2458 27.8099 28.8896 27.7443 29.6394 28.4812C30.3904 29.2181 30.76 30.9374 31.0218 31.4511C31.2843 31.9636 31.0968 31.85 30.9252 32.4428C30.7536 33.0356 30.8725 33.2149 30.5655 33.2851H30.5667Z" fill="#E3C2A8"/>
<path d="M30.6472 28.6897C30.5031 28.2188 30.5816 27.8474 30.3631 27.4672C30.3333 27.4245 30.2999 27.3776 30.2647 27.329C29.833 27.1275 29.3287 27.3987 29.0493 27.7496C28.8952 27.9429 28.73 28.094 28.5654 28.2076C28.6047 28.2393 28.6375 28.2697 28.6615 28.2984C28.7751 28.432 29.4816 29.4577 29.8178 30.2321C30.2378 31.2021 30.2999 31.9783 30.4223 32.4053C30.3842 32.8769 28.935 33.2758 28.935 33.2758C28.935 33.2758 28.9163 33.2717 28.8811 33.2664C28.7347 33.2436 28.3059 33.2072 27.8437 33.4562C27.7078 33.6015 27.5257 33.9037 27.7647 34.6143C27.9867 35.2744 29.02 35.1409 29.02 35.1409C29.02 35.1409 29.0651 35.128 29.1401 35.1028C29.3972 35.0173 29.997 34.7888 30.2571 34.4497C30.55 34.3401 30.8939 33.8405 31.0825 33.6917C31.7673 33.1516 32.0795 32.9155 31.8006 32.1165C31.5195 31.3099 31.0508 30.0019 30.6478 28.6897H30.6472Z" fill="#BDAD9D"/>
<path d="M31.0233 31.4511C30.7609 30.9373 30.3912 29.2181 29.6408 28.4812C29.1318 27.9809 29.1324 27.8503 29.1072 27.6822C29.0873 27.7044 29.068 27.7267 29.0498 27.7496C28.8957 27.9429 28.7306 28.094 28.566 28.2076C28.5835 28.2217 28.5988 28.2352 28.6134 28.2486C28.6169 28.2521 28.6204 28.2557 28.6245 28.2592C28.638 28.2727 28.6509 28.2855 28.6614 28.2978C28.7751 28.4314 29.4815 29.4571 29.8178 30.2315C30.2378 31.2015 30.2998 31.9777 30.4223 32.4047C30.4111 32.5441 30.2764 32.6765 30.0931 32.7948C30.0743 32.8071 30.055 32.8189 30.0351 32.8306C29.594 33.0936 28.9344 33.2752 28.9344 33.2752C28.9344 33.2752 28.9157 33.2711 28.8805 33.2658C28.7341 33.243 28.3053 33.2066 27.8431 33.4556C27.8091 33.4919 27.7722 33.5382 27.74 33.5979C27.6428 33.7778 27.5848 34.0806 27.764 34.6137C27.986 35.2738 29.0193 35.1403 29.0193 35.1403C29.0193 35.1403 29.0644 35.1274 29.1394 35.1022C28.8875 34.3671 29.6532 33.4937 30.5664 33.2851C30.8733 33.2148 30.7544 33.0356 30.926 32.4428C31.0977 31.85 31.2851 31.9642 31.0227 31.4511H31.0233Z" fill="#A69889"/>
<path d="M20.498 23.6392C18.9639 22.8472 18.1057 22.286 17.2019 21.2627C15.9014 19.7906 13.5794 17.3866 13.0364 16.7581C13.0083 16.7253 12.9743 16.6896 12.9351 16.6509C12.658 14.309 12.081 12.725 13.3223 13.6289C15.3244 15.0863 14.5512 16.5425 16.0613 18.912C17.0091 20.3999 18.7085 22.2966 20.498 23.6398V23.6392Z" fill="#E3C2A8"/>
<path d="M36.9115 9.92497C36.9115 9.92497 38.1838 9.30698 37.97 9.03869C37.7275 8.73409 36.4844 9.32338 36.2706 9.38957C36.1259 9.43468 36.0246 9.43526 35.7786 9.65024C35.662 9.75217 35.638 9.9238 35.7212 10.055C35.7751 10.1399 35.8155 10.2536 35.8852 10.2952C36.1857 10.4738 36.4024 10.4961 36.5758 10.3684C36.7246 10.2589 36.8927 9.9771 36.9109 9.92438L36.9115 9.92497Z" fill="#BF9D82"/>
<path d="M37.7692 18.9043C37.768 18.9424 37.7651 18.9793 37.761 19.0156C37.7528 19.0842 37.737 19.1515 37.7176 19.2177C37.5934 19.3085 37.4482 19.4011 37.283 19.4801C37.1231 19.5592 36.945 19.6242 36.7534 19.6635C36.6257 19.578 36.501 19.4719 36.501 19.4719C36.501 19.4719 36.4775 19.7068 36.006 19.336C35.5333 18.9641 35.0922 18.9652 35.0196 18.8346C34.9481 18.7063 34.5322 17.5201 34.1151 17.0831C34.0706 17.0357 34.0138 16.9806 33.9499 16.9221C34.1016 16.9338 34.251 16.918 34.3787 16.8389C34.6335 16.679 34.8315 16.0926 34.7483 15.8021C34.664 15.5127 34.4525 15.2801 34.2504 15.0575C34.1157 14.9117 33.9821 14.7652 33.8474 14.6194C33.8328 14.6041 33.8187 14.5883 33.8041 14.5719C33.5703 14.3177 33.1861 12.9816 33.4737 12.7894C33.6617 12.6652 33.9078 12.6559 34.1227 12.7215C34.1245 12.7226 34.1292 12.7232 34.1321 12.7244C34.35 12.7929 34.5392 12.9312 34.7114 13.08C34.8878 13.2334 35.1191 13.4537 35.2709 13.6898C35.3616 13.8303 35.4243 13.9756 35.4314 14.115C35.4325 14.1267 35.4325 14.1373 35.4325 14.149C35.4308 14.2808 35.5444 14.8771 35.6024 15.0511C35.7453 15.4822 35.8104 15.8823 36.0593 16.3146C36.1952 16.5513 36.3375 16.8512 36.5063 17.0656C36.6322 17.2255 36.9702 17.6607 37.1272 17.7849C37.1494 17.8019 37.1705 17.8189 37.1893 17.8376C37.2051 17.8523 37.2197 17.8669 37.2338 17.8821C37.3884 18.0509 37.4253 17.9413 37.5372 18.1446C37.6655 18.3795 37.7762 18.6319 37.7709 18.9049L37.7692 18.9043Z" fill="#E3C2A8"/>
<path d="M35.0412 14.3277C35.0412 14.3277 34.6546 14.5497 34.4561 14.3704C34.0589 14.0119 34.1948 13.688 34.1948 13.688C34.1948 13.688 34.5023 13.7126 34.6605 13.8385C34.8233 13.9686 34.9751 14.1613 35.0412 14.3277Z" fill="#22222C"/>
<path d="M19.6422 20.244C20.2303 20.4994 20.8852 20.0759 20.9133 19.4356C21.0018 17.3872 21.4757 16.0774 21.8928 14.9164C22.3872 13.5416 24.5914 12.0402 25.9762 11.9945L27.361 11.9488C27.361 11.9488 25.1456 12.609 22.9413 12.0068C21.7229 11.6741 20.3891 10.2366 19.7154 9.79083C18.7712 9.83769 16.5071 10.5313 15.1177 12.5697C14.9232 12.8556 14.7774 13.1895 14.669 13.5269C14.3445 14.5333 14.6221 15.6351 15.3719 16.3808C15.9108 16.9168 16.5991 17.6461 17.2763 18.4867C17.9997 19.3847 18.9123 19.9265 19.6422 20.2434V20.244Z" fill="#1C2134"/>
<path d="M22.1923 9.35618C23.3644 9.48739 23.6274 9.69593 25.1387 10.6595C25.458 10.8634 25.7714 11.0766 26.0731 11.3056C26.1568 11.3695 26.3654 11.4802 26.4011 11.5786C26.4521 11.7198 26.2851 11.8973 26.2002 11.9863C26.1246 12.0654 26.0485 12.1451 25.9729 12.2241C25.9167 12.2827 25.8592 12.3425 25.7866 12.3794C25.7345 12.4057 25.6765 12.4192 25.6191 12.4321C25.3473 12.4924 25.0737 12.544 24.7984 12.5861C24.5676 12.6213 24.4516 12.5873 24.2343 12.5211C23.8032 12.3893 23.3562 12.312 22.9081 12.2692C21.2433 12.1087 19.6658 11.6981 19.8996 10.8593C20.1333 10.0204 22.1923 9.35559 22.1923 9.35559V9.35618Z" fill="#1842B9"/>
<path d="M18.9019 16.7709C18.4017 18.4556 18.4761 19.7402 18.6471 20.7197C18.8176 21.6991 19.2844 22.8829 19.9223 23.3346C20.5608 23.7868 20.7424 23.7645 20.7424 23.7645C20.7424 23.7645 19.6306 23.0663 19.1585 20.575C18.8123 18.7462 19.1913 17.4288 19.3758 16.9291C19.5603 16.4289 18.9019 16.7709 18.9019 16.7709Z" fill="#1E1D1B"/>
<path d="M37.0801 18.4486C37.0801 18.4486 37.2927 18.9085 37.1071 19.0947C36.9214 19.281 36.7117 19.3818 36.7117 19.3818C36.7117 19.3818 36.3614 18.7603 36.4135 18.6818C36.4656 18.6033 36.7995 18.2278 37.0801 18.4486Z" fill="#050507"/>
<path d="M35.3883 17.9706C35.3883 17.9706 36.2617 19.2277 36.2921 19.3577C36.3226 19.4878 36.2142 19.5223 36.2142 19.5223L35.9266 18.7638L35.376 18.0403L35.3883 17.97V17.9706Z" fill="#050507"/>
<path d="M16.7326 12.1187C16.7326 12.1187 16.1076 12.5036 16.3976 12.9294C16.6875 13.3553 16.8386 14.5063 17.2176 14.695C17.5966 14.8836 19.9386 15.9081 20.3521 15.9391C20.7663 15.9702 20.7247 15.46 20.7247 15.46C20.7247 15.46 20.9338 14.8121 20.9473 14.5391C20.9607 14.2662 20.778 13.9129 20.778 13.9129C20.778 13.9129 19.8577 13.2803 19.2011 13.1286C18.5444 12.9769 17.4379 11.8399 17.3032 11.8077C17.169 11.776 16.7326 12.1181 16.7326 12.1181V12.1187Z" fill="#560607"/>
<path d="M17.3787 15.4395C17.3787 15.4395 16.9013 17.0902 18.2064 17.7568C19.5115 18.4234 20.157 17.3807 20.2841 17.0422C20.4112 16.7036 20.2027 15.6539 20.2027 15.6539L17.3757 14.3898L17.3787 15.4401V15.4395Z" fill="#560607"/>
<path d="M32.8246 12.0297C33.09 12.1228 33.6266 12.2605 34.4777 12.2651C34.4847 12.2651 34.4923 12.2651 34.4994 12.2651C35.569 12.2651 36.7224 11.8229 37.1336 11.4058C37.2548 11.2828 37.3152 11.161 37.3128 11.0432L37.102 11.0473C37.1031 11.1053 37.0621 11.1785 36.9836 11.2582C36.6099 11.6366 35.5016 12.0548 34.4988 12.0548C34.4923 12.0548 34.4853 12.0548 34.4789 12.0548C33.278 12.0478 32.7286 11.7643 32.7233 11.7614L32.5259 11.6565L32.5704 11.875C32.5786 11.9154 32.9166 12.3864 32.824 12.0297H32.8246Z" fill="#F4A42F"/>
<path d="M34.0669 17.618H34.2778C34.2778 17.4621 34.7159 16.9279 35.4763 16.8494C36.1979 16.775 37.6712 16.2742 37.7977 15.6193L37.5909 15.5795C37.4989 16.0528 36.2325 16.5601 35.4546 16.6397C34.6076 16.727 34.0669 17.3309 34.0669 17.6174V17.618Z" fill="#F4A42F"/>
<path d="M32.5352 15.7581L32.6354 15.573C32.5985 15.5531 31.7421 15.0734 31.9049 14.0816C32.0771 13.0349 32.7549 11.9688 32.7619 11.9582L32.8006 11.8979L32.7584 11.8399C32.3747 11.3086 32.6342 10.748 32.6371 10.7421C32.7437 10.461 32.8914 10.2923 33.0952 10.0591C33.1813 9.96072 33.2662 9.86407 33.3664 9.79846C33.5585 9.6731 33.7987 9.65787 34.0922 9.65084L34.0875 9.44055C33.8298 9.44641 33.5093 9.45402 33.251 9.62214C33.1268 9.70298 33.0284 9.81545 32.9417 9.91444C32.7267 10.1605 32.5604 10.3508 32.4438 10.6595C32.4344 10.6783 32.1503 11.291 32.5475 11.9037C32.3987 12.148 31.8545 13.0888 31.6975 14.0471C31.5095 15.1893 32.5247 15.7523 32.5352 15.7581Z" fill="#F4A42F"/>
<path d="M34.3574 17.2548L34.6685 16.9707C34.6608 16.9625 33.911 16.1295 33.5016 14.8841C33.0845 13.6159 32.9597 11.9588 32.9586 11.9424L32.5386 11.9728C32.5438 12.0425 32.6686 13.6985 33.1015 15.0159C33.5408 16.3509 34.324 17.2185 34.3574 17.2548Z" fill="#F4A42F"/>
<path d="M32.3991 11.6161C32.3686 11.7895 32.4788 12.0361 32.6451 12.1673C32.8115 12.2985 32.9714 12.264 33.0019 12.0906C33.0323 11.9172 32.9222 11.6706 32.7558 11.5394C32.5895 11.4082 32.4296 11.4427 32.3991 11.6161Z" fill="#C03700"/>
<path d="M14.2415 18.3584C14.0423 20.1263 12.9662 20.592 12.8409 20.657C12.7167 20.722 11.4204 21.2644 11.1474 21.4244C10.8744 21.5843 9.32681 23.02 9.10245 23.0165C8.8781 23.0136 8.32337 23.3375 8.13358 23.5654C7.94379 23.7921 7.87584 24.3649 7.19224 24.6373C7.00186 24.7123 6.16948 24.3983 6.07165 24.389C6.04412 24.3872 5.91701 24.3808 5.74538 24.372C5.46303 24.3585 5.04713 24.3591 4.74839 24.3603C4.58906 24.3614 4.46429 24.3614 4.40805 24.3603C3.735 24.3444 3.55634 23.8676 3.57391 23.5167C3.58972 23.2051 3.64654 22.7324 4.41625 22.3458C4.50353 22.3018 4.89776 22.6808 5.17776 22.7341C5.22111 22.7423 5.26211 22.7423 5.29784 22.733C5.53567 22.75 6.38563 23.3018 6.38563 23.3018C6.38563 23.3018 6.3499 22.8607 6.56488 22.6955C6.77986 22.5303 8.08672 22.5367 8.91325 20.862C8.99408 20.698 9.91551 19.2582 10.8117 18.8868C10.8873 18.3127 8.84471 15.3147 8.89216 13.2106C8.94078 11.1065 9.15635 11.2541 9.39534 10.3304C9.39534 10.3304 9.85049 9.63446 10.5927 9.46048C11.336 9.28651 12.862 10.2741 13.4009 11.6741C13.941 13.0724 14.2567 13.698 14.201 16.1125C14.1928 16.464 14.2854 17.9583 14.2409 18.3578L14.2415 18.3584Z" fill="#F5E9E0"/>
<path d="M10.3928 16.8928C9.14684 15.2784 8.91897 13.0296 9.02382 11.54C8.9588 11.8745 8.91136 12.3571 8.89144 13.2112C8.84399 15.3153 10.8872 18.3133 10.811 18.8874C11.7084 18.5605 11.6381 18.5078 10.3922 16.8934L10.3928 16.8928Z" fill="#E3C2A8"/>
<path d="M4.40747 24.3602C4.46312 24.3614 4.58847 24.3614 4.7478 24.3602C5.04655 24.3591 5.46303 24.3579 5.74479 24.372C5.91642 24.3802 6.04354 24.3866 6.07107 24.3889C6.16889 24.3983 7.00069 24.7123 7.19166 24.6373C7.87526 24.3643 7.9432 23.7915 8.133 23.5653C8.32279 23.3381 8.87752 23.0135 9.10187 23.0165C9.32622 23.0194 10.8738 21.5843 11.1468 21.4243C11.4198 21.2644 12.7161 20.722 12.8403 20.657C12.9656 20.5914 14.0417 20.1263 14.2409 18.3584C14.2848 17.9595 14.1923 16.4652 14.201 16.1131C14.2327 14.7424 14.1448 13.9487 13.9638 13.2621C13.7447 14.6985 13.8343 17.328 13.9907 18.3051C14.1471 19.2827 12.3277 20.319 11.1738 20.6084C10.0198 20.8983 10.1774 20.8585 9.15986 22.0564C8.14178 23.2537 7.79969 22.7183 7.39609 23.2543C6.99249 23.7903 6.39793 23.9367 5.78345 23.4652C5.67977 23.3855 6.20521 23.5718 6.23391 23.2063C5.9791 23.0475 5.47299 22.7458 5.29785 22.7335C5.26211 22.7429 5.22111 22.7429 5.17776 22.7347C4.89776 22.6808 4.50353 22.3018 4.41625 22.3463C3.64654 22.733 3.58972 23.2057 3.57391 23.5173C3.55634 23.8682 3.735 24.345 4.40805 24.3608L4.40747 24.3602Z" fill="#E3C2A8"/>
<path d="M9.72191 20.4086C9.65572 20.1696 9.76994 19.9107 9.85957 19.609C9.35287 20.1415 8.96333 20.7583 8.91178 20.8626C8.08525 22.5367 6.77839 22.5303 6.56341 22.696C6.34843 22.8612 6.38416 23.3023 6.38416 23.3023C6.38416 23.3023 5.5342 22.7505 5.29638 22.7335C5.26065 22.7429 5.21964 22.7429 5.1763 22.7347C4.8963 22.6808 4.50207 22.3018 4.41479 22.3463C3.64508 22.7329 3.58826 23.2057 3.57244 23.5173C3.55487 23.8682 3.73353 24.345 4.40659 24.3608C4.46224 24.362 4.58759 24.362 4.74692 24.3608C5.04625 24.3596 5.46215 24.3585 5.74391 24.3725C5.91554 24.3807 6.04266 24.3872 6.07019 24.3895C6.16801 24.3989 6.99981 24.7129 7.19078 24.6379C7.87438 24.3649 7.94233 23.792 8.13212 23.5659C8.32191 23.3386 8.87664 23.0141 9.10099 23.017C9.29429 23.02 10.4729 21.9521 10.9679 21.5561C11.0247 21.4718 11.0551 21.4249 11.0551 21.4249C10.3182 21.7073 9.80919 20.7243 9.72132 20.4086H9.72191Z" fill="#BDAD9D"/>
<path d="M9.15937 22.057C8.14129 23.2543 7.7992 22.7189 7.3956 23.2549C6.992 23.7909 6.39744 23.9373 5.78296 23.4658C5.67928 23.3861 6.20472 23.5724 6.23343 23.2069C6.22405 23.201 6.21351 23.1946 6.20355 23.1881C6.19066 23.1799 6.17719 23.1717 6.16313 23.1629C6.14849 23.1536 6.13326 23.1448 6.11744 23.1348C6.10807 23.1289 6.0987 23.1231 6.08874 23.1178C6.07175 23.1073 6.05418 23.0973 6.0366 23.0868C6.02899 23.0821 6.02137 23.0774 6.01317 23.0733C5.9874 23.0581 5.96104 23.0428 5.93409 23.027C5.92941 23.0241 5.92414 23.0212 5.91886 23.0182C5.89602 23.0054 5.87317 22.9919 5.85033 22.979C5.84271 22.9749 5.8351 22.9702 5.82748 22.9661C5.80347 22.9526 5.77945 22.9397 5.75543 22.9263C5.75133 22.9239 5.74723 22.9216 5.74313 22.9192C5.71501 22.904 5.6869 22.8894 5.65937 22.8753C5.65468 22.873 5.64999 22.8706 5.64531 22.8683C5.62305 22.8571 5.60137 22.846 5.5797 22.8355C5.57267 22.832 5.56623 22.829 5.5592 22.8255C5.53577 22.8144 5.51351 22.8038 5.49183 22.7945C5.48949 22.7933 5.48715 22.7927 5.48539 22.7915C5.46196 22.7816 5.4397 22.7728 5.41861 22.7652C5.41334 22.7634 5.40865 22.7617 5.40338 22.7599C5.38757 22.7546 5.37292 22.75 5.35886 22.7459C5.35359 22.7447 5.3489 22.7429 5.34363 22.7418C5.32665 22.7377 5.31083 22.7347 5.29736 22.7336C5.26162 22.7429 5.22062 22.7429 5.17727 22.7347C4.89727 22.6808 4.50363 22.3018 4.41576 22.3464C3.64606 22.733 3.58924 23.2057 3.57342 23.5173C3.55585 23.8682 3.73451 24.345 4.40756 24.3608C4.46321 24.362 4.58857 24.362 4.7479 24.3608C5.04723 24.3597 5.46313 24.3585 5.74489 24.3725C5.91652 24.3808 6.04363 24.3872 6.07117 24.3895C6.16899 24.3989 7.00079 24.7129 7.19175 24.6379C7.87535 24.3649 7.9433 23.792 8.13309 23.5659C8.28715 23.3814 8.68255 23.1325 8.94556 23.0475C9.00648 23.0276 9.05979 23.0171 9.10197 23.0177C9.10841 23.0177 9.11661 23.0165 9.1254 23.0141C9.12832 23.0136 9.13184 23.0118 9.13477 23.0112C9.14121 23.0089 9.14766 23.0071 9.15527 23.0036C9.15937 23.0018 9.16406 22.9995 9.16874 22.9977C9.17577 22.9942 9.18339 22.9907 9.19159 22.9866C9.19686 22.9837 9.20213 22.9813 9.2074 22.9778C9.21561 22.9731 9.22439 22.9679 9.23377 22.9626C9.23962 22.9591 9.24489 22.9561 9.25134 22.952C9.2613 22.9456 9.27184 22.9392 9.28297 22.9321C9.28883 22.9286 9.2941 22.9251 9.29996 22.921C9.3146 22.911 9.32983 22.9011 9.34565 22.89C9.34799 22.8882 9.35033 22.887 9.35268 22.8853C9.37142 22.8724 9.39075 22.8583 9.41067 22.8437C9.41535 22.8402 9.42121 22.8361 9.4259 22.832C9.44113 22.8208 9.45636 22.8091 9.47218 22.7974C9.4792 22.7921 9.48682 22.7863 9.49385 22.781C9.50849 22.7699 9.52314 22.7587 9.53778 22.747C9.54598 22.7412 9.5536 22.7347 9.5618 22.7283C9.57703 22.7166 9.59226 22.7043 9.60808 22.692C9.61569 22.6861 9.62331 22.6797 9.63092 22.6738C9.64849 22.6597 9.66665 22.6451 9.6854 22.6305C9.69125 22.6258 9.69653 22.6217 9.70238 22.617C9.72523 22.5982 9.74866 22.5795 9.77209 22.5607C9.77385 22.5596 9.77502 22.5584 9.77678 22.5572C9.8295 22.5145 9.88339 22.47 9.93787 22.4243C9.93904 22.4231 9.9408 22.4219 9.94197 22.4207C9.96833 22.3985 9.99527 22.3762 10.0216 22.354C10.0216 22.354 10.0228 22.3528 10.0234 22.3528C10.3737 22.0593 10.7398 21.7407 10.9659 21.5597C10.9671 21.5591 10.9682 21.5579 10.9694 21.5567C11.0262 21.4724 11.0567 21.4255 11.0567 21.4255C10.6396 21.5854 10.2952 21.34 10.0591 21.0395C9.84649 21.2193 9.62741 21.5081 9.15996 22.0582L9.15937 22.057Z" fill="#A69889"/>
<path d="M35.6742 18.1487C35.2003 18.5786 34.6391 18.3139 34.6948 18.6642C34.7504 19.0145 35.2354 19.3015 35.5512 19.4473C36.0168 19.6623 36.4111 20.1843 37.271 19.6758C38.1309 19.1668 35.6742 18.1487 35.6742 18.1487Z" fill="#22222C"/>
<path d="M38.0909 16.6737C38.1577 17.0275 38.2215 17.27 37.9849 17.3884C37.7476 17.5067 37.5256 17.6555 37.1044 17.7615C36.6833 17.8675 36.736 17.4891 36.0776 17.5401C35.4192 17.591 35.4748 17.6414 35.3946 18.11C35.3143 18.5786 35.7607 19.5264 36.4525 19.7894C37.1443 20.0525 38.0499 19.4245 38.3744 19.1047C38.5308 18.9506 38.8454 17.7099 38.0915 16.6737H38.0909Z" fill="#22222C"/>
<path d="M36.42 18.0075C36.4956 18.0479 36.5694 18.1095 36.6573 18.1212C36.7188 18.1294 36.7809 18.1054 36.8318 18.1522C36.9484 18.26 36.8711 18.4791 36.8582 18.6109C36.8529 18.6659 36.8488 18.7274 36.8822 18.7714C36.9197 18.8212 36.9947 18.8352 37.0246 18.8897C37.0585 18.9524 37.0087 19.0338 36.942 19.0584C36.8752 19.083 36.8008 19.0672 36.7323 19.0485C36.6339 19.0209 36.5325 18.9858 36.4605 18.9137C36.3966 18.8499 36.3603 18.7638 36.3328 18.6777C36.2701 18.4843 36.2414 18.2729 36.3 18.0784C36.3123 18.0374 36.3398 17.9894 36.3826 17.9935C36.396 17.9946 36.4077 18.0011 36.4195 18.0075H36.42Z" fill="#050507"/>
<path d="M15.4931 7.30485C13.2139 7.22342 11.0986 8.6779 10.7126 9.8887C10.3266 11.0995 12.0224 12.0666 13.2871 12.909C14.5518 13.7513 15.4925 7.30485 15.4925 7.30485H15.4931Z" fill="#F5E9E0"/>
<path d="M9.02402 11.5382C9.08553 11.0222 9.60804 8.3692 12.7882 8.06518C14.4424 7.90702 13.4302 12.6108 11.8674 12.7865C10.3045 12.9623 9.02344 11.5388 9.02344 11.5388L9.02402 11.5382Z" fill="#F5E9E0"/>
<path d="M30.2571 34.449C29.9221 34.8872 29.02 35.1397 29.02 35.1397C29.02 35.1397 27.9867 35.2732 27.7647 34.6131C27.5257 33.9025 27.7078 33.6002 27.8437 33.455C28.3059 33.2066 28.7347 33.2423 28.8811 33.2652C28.6187 33.2839 28.5636 33.5387 28.5748 33.7906C28.5941 34.2346 29.174 34.7408 29.7112 34.7056C29.8957 34.6933 30.1687 34.5486 30.2571 34.449Z" fill="#1C2134"/>
<path d="M35.3166 36.6375C35.3072 36.1965 35.4027 35.4953 35.4027 35.4953C36.33 36.197 36.8759 35.8157 37.02 35.7636C37.1653 35.7126 37.2637 35.6751 37.201 35.1093C37.3521 35.7267 37.471 36.3335 37.4997 36.8426C37.5197 37.7001 35.3254 37.0786 35.3166 36.6381V36.6375Z" fill="#1C2134"/>
<path d="M4.53936 23.7991C4.51828 24.0498 4.61083 24.2489 4.7479 24.3602C4.58857 24.3614 4.4638 24.3614 4.40756 24.3602C3.73451 24.3444 3.55585 23.8676 3.57342 23.5167C3.58924 23.2051 3.64606 22.7324 4.41577 22.3458C4.50305 22.3018 4.89727 22.6808 5.17727 22.7341C4.73618 22.7845 4.57392 23.382 4.53936 23.7985V23.7991Z" fill="#1C2134"/>
<path d="M12.7896 21.7459C12.5706 21.6867 12.2882 22.0757 12.2343 22.4828C12.1734 22.9514 12.1394 23.1734 12.2478 23.3345C11.4084 23.2461 11.1137 23.1354 11.2643 22.3985C11.4236 21.627 11.6075 21.6088 12.0943 21.4044C12.1804 21.3687 12.5419 21.5907 12.7896 21.7453V21.7459Z" fill="#1C2134"/>
<path d="M12.8838 21.804C12.8838 21.804 12.8826 21.804 12.8813 21.8027C12.8813 21.8027 12.8822 21.8031 12.8838 21.804Z" fill="#1C2134"/>
<path d="M20.0157 20.4016C20.6039 20.657 21.2588 20.2335 21.2869 19.5932C21.3753 17.5448 21.8492 16.235 22.2663 15.074C22.7607 13.6986 24.965 12.1978 26.3497 12.1521L27.7345 12.1064C27.7345 12.1064 25.5191 12.7666 23.3148 12.1644C22.0964 11.8317 20.7626 10.3942 20.089 9.94843C19.1447 9.99529 16.8807 10.6888 15.4912 12.7273C15.2967 13.0132 15.1509 13.3477 15.0425 13.6845C14.718 14.6909 14.9957 15.7927 15.7454 16.5384C16.2844 17.0744 16.9726 17.8031 17.6498 18.6443C18.3732 19.5422 19.2859 20.0841 20.0157 20.401V20.4016Z" fill="#E3C2A8"/>
<path d="M19.6422 20.244C20.2303 20.4994 20.8852 20.0759 20.9133 19.4356C21.0018 17.3872 21.4757 16.0774 21.8928 14.9164C22.3872 13.5416 24.5914 12.0402 25.9762 11.9945L27.361 11.9488C27.361 11.9488 25.1456 12.609 22.9413 12.0068C21.7229 11.6741 20.3891 10.2366 19.7154 9.79083C18.7712 9.83769 16.5071 10.5313 15.1177 12.5697C14.9232 12.8556 14.7774 13.1895 14.669 13.5269C14.3445 14.5333 14.6221 15.6351 15.3719 16.3808C15.9108 16.9168 16.5991 17.6461 17.2763 18.4867C17.9997 19.3847 18.9123 19.9265 19.6422 20.2434V20.244Z" fill="#C03700"/>
<path d="M17.8831 9.79144C16.9751 10.1066 16.5223 10.6859 16.4456 11.6993C16.3688 12.7127 17.0929 13.9727 17.5996 14.7975C18.1062 15.6222 18.5467 16.4646 20.0247 15.9772C21.5026 15.4904 21.6736 14.4899 21.9765 14.2398C22.2793 13.9897 24.4367 13.0214 24.4637 12.8012C24.4906 12.5815 22.8059 12.2564 22.1346 12.2476C21.4633 12.2388 21.4059 11.9143 20.9478 12.2476C20.4898 12.5809 19.597 13.1222 19.597 13.1222L17.8831 9.79144Z" fill="#121621"/>
<path d="M19.3665 17.1734L17.3433 18.8581C17.3433 18.8581 17.5764 18.9079 17.7076 18.8991C17.8394 18.8903 19.3835 17.5723 19.4187 17.4581C19.4538 17.3439 19.3659 17.1734 19.3659 17.1734H19.3665Z" fill="#121621"/>
<path d="M26.5012 12.4023C26.4251 12.4813 26.3495 12.5616 26.2745 12.6395C26.2183 12.6992 26.1609 12.759 26.0894 12.7953C26.0361 12.8223 25.9787 12.8352 25.9201 12.8486C25.735 12.8896 25.5482 12.9265 25.3607 12.9593C25.2846 12.9734 25.209 12.9851 25.1323 12.9974C25.3988 12.8662 25.6647 12.7362 25.9324 12.6061C25.67 12.6594 25.4046 12.7121 25.1393 12.7602C24.8728 12.8076 24.6051 12.8504 24.3362 12.8803C24.0784 12.8117 23.8148 12.7619 23.5512 12.725C23.4376 12.7086 23.3234 12.6957 23.2097 12.6852C22.4998 12.6167 21.8039 12.5018 21.2597 12.3296C20.8924 12.2113 20.5931 12.0684 20.4033 11.8926H20.4021C20.2147 11.7181 20.1344 11.5142 20.2018 11.2746C20.4349 10.4358 22.4939 9.77155 22.4939 9.77155C22.7669 9.80201 22.9912 9.83657 23.1939 9.88519C23.857 10.041 24.2811 10.3362 25.4398 11.0755C25.6032 11.1797 25.7661 11.2858 25.9266 11.3965C26.0783 11.5013 26.2277 11.6091 26.3753 11.7204C26.4491 11.7778 26.6213 11.871 26.6834 11.9612C26.6922 11.9717 26.6986 11.984 26.7027 11.9946C26.7548 12.1357 26.5867 12.3121 26.5012 12.4023Z" fill="#395FFF"/>
<path d="M24.0658 7.7371C24.2919 7.76171 24.4875 7.37451 24.6369 7.6551C24.7857 7.93568 26.4499 10.8892 26.5794 11.0204C26.7088 11.1516 27.3174 11.4187 27.3485 11.4849C27.3795 11.5511 27.5482 12.2868 27.5482 12.2868C27.5482 12.2868 27.3309 12.5451 27.2266 12.5809C27.1224 12.6166 26.6543 12.4626 26.6543 12.4626C26.6543 12.4626 26.3579 12.4883 26.1406 12.4585C25.9233 12.4286 25.7786 11.9365 25.7786 11.9365L25.7089 11.6237L25.5923 11.2494C25.5923 11.2494 23.2428 8.631 23.3131 8.21334C23.3828 7.79568 24.0658 7.73769 24.0658 7.73769V7.7371Z" fill="#FF9670"/>
<path d="M24.2959 6.05656C24.3434 6.42852 24.7153 7.54794 24.7007 7.79045C24.686 8.03296 23.5824 8.7148 23.3464 8.24794C23.1103 7.78108 22.8537 6.57204 22.9281 6.41153C23.0025 6.25162 24.2959 6.05597 24.2959 6.05597V6.05656Z" fill="#FF9670"/>
<path d="M26.0653 10.9823C25.8128 11.1018 25.5451 11.2336 25.418 11.2231C25.0601 11.1926 23.7357 9.35679 23.533 9.08265C23.3901 8.89051 23.1938 7.85779 23.1938 7.51101C23.1938 6.98206 23.5113 3.59921 23.5113 3.59921C23.6349 3.59804 23.7597 3.63611 23.8774 3.70758C23.8013 4.53586 23.5869 6.89771 23.5869 7.33235C23.5869 7.67913 23.7831 8.71185 23.9261 8.90399C24.1287 9.17813 25.4532 11.0145 25.8111 11.0444C25.8708 11.0497 25.9593 11.0227 26.0647 10.9829L26.0653 10.9823Z" fill="#374ED1"/>
<path d="M26.5725 10.799C26.5215 10.7955 26.446 10.8171 26.3546 10.8523L26.3482 10.8558C26.265 10.888 26.1707 10.9325 26.0728 10.9794C26.0705 10.9806 26.0676 10.9817 26.0652 10.9829C25.9604 11.0227 25.8713 11.0503 25.8116 11.0444C25.4537 11.014 24.1292 9.17813 23.9266 8.90399C23.7836 8.71186 23.5874 7.67914 23.5874 7.33236C23.5874 6.89771 23.8018 4.53587 23.8779 3.70758C24.1966 3.89854 24.476 4.3285 24.6043 4.87152C24.78 5.61721 24.9001 6.56792 24.9599 6.87662C24.9979 7.34583 25.0477 7.77403 25.1831 8.1337C25.234 8.26784 25.4086 8.96725 25.6675 9.30759C25.8854 9.59462 26.579 10.4686 26.6246 10.7263C26.6334 10.775 26.6182 10.8025 26.5725 10.799Z" fill="#395FFF"/>
<path d="M16.7805 17.3099C16.5105 17.1324 16.4326 17.1183 16.0624 17.2741C15.6922 17.4294 15.7027 17.7439 15.7367 17.9285C15.7701 18.113 16.0788 18.8868 16.087 18.9231C16.0952 18.9594 16.2135 19.6975 16.4385 20.0449C16.6634 20.3922 16.8889 21.0272 17.5872 20.9112C18.2854 20.7946 18.5297 20.4075 18.4424 20.1907C18.3551 19.974 17.7652 19.3085 17.658 19.2359C17.5508 19.1633 16.5984 17.7832 16.7811 17.3099H16.7805Z" fill="#080A0F"/>
<path d="M17.4755 17.7996C17.6014 18.0316 17.6922 18.598 17.677 18.8358C17.6624 19.0737 18.3143 20.063 18.3583 20.1632C18.4022 20.2634 18.1304 20.551 17.8744 20.64C17.6184 20.7291 17.0959 20.8474 16.8762 20.5299C16.656 20.2118 16.328 19.431 16.3057 19.0016C16.284 18.5722 15.9332 17.8125 15.9519 17.6748C15.9712 17.5372 16.1452 17.3169 16.3901 17.2566C16.6349 17.1963 16.8575 17.1939 16.8575 17.1939L17.4755 17.799V17.7996Z" fill="#6E320E"/>
<path d="M23.1936 9.88518C23.2171 9.93908 22.1217 10.7351 21.895 11.1879C21.796 11.3848 21.7473 11.5734 21.7099 11.7321C21.6612 11.9407 21.6319 12.1029 21.537 12.1808C21.4855 12.223 21.3842 12.2763 21.2588 12.329C20.9747 12.4491 20.567 12.5639 20.3397 12.5387C20.2647 12.5305 20.1511 12.4315 20.0246 12.281C19.5905 11.7673 19.0094 10.6443 19.3316 10.3843C19.7475 10.0486 22.4204 9.50092 22.4204 9.50092C23.0554 9.7938 23.1702 9.83071 23.193 9.88518H23.1936Z" fill="#1842B9"/>
<path d="M25.0905 12.7683C24.9734 12.8855 24.8673 12.9904 24.8597 13.012C24.7578 13.0044 24.6635 12.9751 24.5358 12.9359C24.4696 12.9154 24.4022 12.8966 24.3354 12.8796C24.5879 12.8515 24.8404 12.8123 25.0911 12.7678L25.0905 12.7683Z" fill="#F5E9E0"/>
<path d="M25.4177 12.4227C25.4283 12.438 25.2485 12.6125 25.0903 12.7683C24.8402 12.8129 24.5871 12.8515 24.3346 12.8802C24.0769 12.8117 23.8145 12.7619 23.5509 12.725H23.5497C23.4361 12.7086 23.3218 12.6957 23.2082 12.6852C22.4982 12.6166 21.8023 12.5018 21.2582 12.3296C20.9741 12.4497 20.5664 12.5651 20.3391 12.5387C20.2641 12.5299 20.1505 12.4315 20.0239 12.281C20.0251 12.2681 20.0263 12.254 20.028 12.2388C20.144 12.1088 20.27 11.9893 20.4012 11.8932H20.4023C20.7848 11.6073 21.6951 11.4902 22.1755 11.7286C22.196 11.7386 22.1755 11.7286 22.1983 11.7374C22.6353 11.9073 23.6721 12.0396 24.4541 12.1685H24.4553C24.9573 12.2517 25.3539 12.3331 25.4177 12.4233V12.4227Z" fill="#1842B9"/>
<path d="M34.0781 10.1002C34.0851 10.1066 34.0915 10.113 34.098 10.1195C34.2087 10.2355 34.2796 10.4452 34.337 10.5928C34.3534 10.4206 34.3768 10.2489 34.4084 10.0785C34.4055 10.0949 34.4951 10.1757 34.5086 10.191C34.5461 10.2337 34.583 10.2771 34.6187 10.3216C34.6896 10.4094 34.757 10.5008 34.815 10.5981C34.8724 10.6941 34.914 10.7937 34.9503 10.8992C34.9878 11.0081 34.9919 11.1323 35.0071 11.2471C35.1114 11.0573 35.1758 10.8453 35.194 10.6291C35.2912 10.8359 35.4517 11.0064 35.5665 11.2043C35.703 11.4398 35.7698 11.7081 35.8354 11.9729C35.8295 11.9489 35.8535 11.8944 35.8594 11.8698C35.8682 11.8282 35.8764 11.7872 35.884 11.7456C35.8992 11.6624 35.9115 11.5787 35.9209 11.4949C35.9385 11.3438 35.9631 11.1827 35.9385 11.0315C36.0779 11.2032 36.2044 11.3853 36.3163 11.5757C36.314 11.2307 36.2044 10.8956 36.0773 10.5746C36.0182 10.4258 35.9549 10.2771 35.8647 10.1441C35.7879 10.031 35.693 9.93145 35.5847 9.84827C35.6485 9.8512 35.7083 9.843 35.7698 9.86585C35.8828 9.90744 35.9912 9.9625 36.0914 10.0293C36.1043 10.0381 36.1177 10.0492 36.123 10.0627C36.1248 10.0679 36.1253 10.0732 36.1248 10.0785C36.1289 10.0551 36.0832 9.98886 36.072 9.9666C36.0521 9.92677 36.031 9.88694 36.0094 9.84827C35.9666 9.77154 35.9162 9.70359 35.8682 9.63037C35.7487 9.44819 35.6409 9.23965 35.4992 9.07446C34.5736 7.99371 32.7208 7.96149 31.4772 8.38852C31.7121 8.35748 31.9529 8.37329 32.1813 8.43421C31.1316 8.6076 30.0233 8.80794 29.2191 9.50442C29.5553 9.42066 29.8827 9.30057 30.1932 9.1471C29.3315 9.99237 28.0903 10.4352 26.8883 10.3263C27.1899 10.5389 27.5976 10.4833 27.9614 10.4188C27.6281 10.5354 27.2889 10.635 26.9463 10.7176C26.716 10.7726 26.4841 10.8201 26.2509 10.8599C26.4249 10.994 26.6522 11.0567 26.8707 11.0304C26.5737 11.154 26.2427 11.2383 25.9563 11.3812C25.7126 11.5025 25.4906 11.6835 25.2469 11.8124C24.701 12.1018 24.1158 12.3161 23.5119 12.4468C23.8428 12.5177 24.1937 12.4954 24.5129 12.3818C24.288 12.6184 23.9377 12.6746 23.6144 12.7174C23.274 12.7625 22.9331 12.8076 22.5928 12.8521C23.6975 13.0542 24.831 12.8299 25.9323 12.6061C25.6634 12.7373 25.3945 12.8685 25.1251 12.9997C25.3336 12.8978 25.8602 13.015 26.1063 12.9927C26.436 12.9634 26.7858 12.9013 27.0786 12.7397C27.6884 12.404 28.3187 12.0461 28.8641 11.6027C28.5847 11.9424 28.2303 12.2113 27.8794 12.4766C28.4119 12.2716 28.9303 12.0297 29.4299 11.755C29.8804 11.5072 30.5089 11.2207 30.8545 10.833C31.0191 10.6484 31.1545 10.4346 31.339 10.2683C31.554 10.0744 31.8468 9.99706 32.1128 9.88986C31.9564 10.0849 31.7719 10.2577 31.5668 10.4007C31.9962 10.2607 32.3348 9.94844 32.7771 9.87053C33.0858 9.81606 33.4085 9.83656 33.7073 9.93145C33.8256 9.96894 33.982 10.0152 34.0781 10.1002Z" fill="#28304A"/>
<path d="M34.0733 11.2577C34.0733 11.2577 34.6368 10.6531 34.7874 10.1248C34.8928 9.75632 34.2543 9.95373 33.675 10.263C33.4776 10.3685 32.5849 11.0257 32.5433 11.3736C32.5146 11.6132 32.975 11.533 33.1724 11.557C33.3915 11.5839 33.5824 11.6923 33.7236 11.5746C33.9046 11.4234 34.0511 11.3215 34.0727 11.2577H34.0733Z" fill="#BF9D82"/>
<path d="M21.1248 15.1577C21.1248 15.9128 20.5396 16.2625 20.5396 16.2625C20.5396 16.2637 20.5372 16.2637 20.5372 16.2637C20.0434 16.4921 18.9018 16.3217 18.825 15.938C18.8116 15.8683 18.7852 15.7769 18.7495 15.6674C18.6944 15.4998 18.6177 15.2936 18.528 15.0669C18.3552 14.6323 18.1373 14.1285 17.9487 13.7033C17.5978 12.9142 17.0126 12.0836 17.0894 11.021V11.0169C17.1462 10.2495 17.524 9.62509 17.8099 9.26366C17.9171 9.12542 18.0108 9.02584 18.0688 8.97195C18.1385 8.90634 18.3734 9.05103 18.6552 9.27421C19.0078 9.55128 19.4342 9.95019 19.7084 10.2126C19.8759 10.3737 19.9854 10.4832 19.9854 10.4832C20.0487 10.772 20.2901 11.5037 20.4265 12.23C20.457 12.387 20.4822 12.544 20.5003 12.6957C20.5993 13.5498 21.1236 14.7301 21.1248 15.1577Z" fill="#395FFF"/>
<path d="M20.5378 16.2625L20.5366 16.2637C20.526 16.2766 20.5143 16.2871 20.5009 16.2977C20.0246 16.6538 17.9545 18.2647 17.8965 18.2793C17.8373 18.294 17.2803 18.8352 16.6295 18.1183C16.3337 17.7908 16.483 17.0885 16.483 17.0885C16.483 17.0885 16.7167 16.9139 16.9071 16.7651C17.0758 16.6333 17.5286 16.0891 17.842 15.7183C17.8807 15.6732 17.917 15.6299 17.9504 15.5906C18.0939 15.4231 18.3054 15.2239 18.5262 15.0675C18.6674 14.9674 18.8127 14.8854 18.9474 14.8379C19.0528 14.8022 19.1518 14.7875 19.2368 14.8039C19.2368 14.8039 20.8722 15.8747 20.536 16.2625H20.5378Z" fill="#374ED1"/>
<path d="M20.5733 12.4795L20.428 12.2353C20.428 12.2353 20.4268 12.2323 20.4257 12.23C20.3085 11.8352 19.7907 11.5411 19.2506 11.4855C18.7873 11.438 18.1734 11.5288 17.6585 12.0162C17.57 12.0994 17.4845 12.1943 17.4037 12.3015C17.1816 12.1538 17.0932 11.6518 17.0891 11.021V11.0169C17.0879 10.8845 17.0914 10.7451 17.0973 10.6033C17.1342 9.78615 17.71 9.21619 17.71 9.21619C17.71 9.21619 17.7457 9.23317 17.809 9.26363C17.9355 9.3228 18.1745 9.43644 18.4598 9.57644C18.8429 9.76389 19.3115 9.99878 19.7075 10.2126C20.1685 10.4621 20.5329 10.6841 20.5522 10.7738C20.6061 11.0256 20.5733 12.4795 20.5733 12.4795Z" fill="#1842B9"/>
<path d="M19.1473 15.8015C19.1198 15.5666 18.8896 15.6264 18.749 15.6674C18.6488 15.6961 18.575 15.7845 18.5434 16.0475C18.5434 16.0475 18.2757 15.9304 17.8434 15.7177C17.882 15.6726 17.9183 15.6293 17.9517 15.59C18.0953 15.4225 18.3067 15.2233 18.5276 15.0669C18.3547 14.6323 18.1368 14.1285 17.9482 13.7033C17.5973 12.9142 17.0122 12.0836 17.0889 11.021V11.0169C17.0877 10.8845 17.0912 10.7451 17.0971 10.6033C17.134 9.78617 17.7098 9.21621 17.7098 9.21621C17.7098 9.21621 17.7455 9.2332 17.8088 9.26366C17.916 9.12542 18.0097 9.02584 18.0677 8.97195C18.1374 8.90634 18.3723 9.05103 18.6541 9.27421C18.5932 9.38492 18.5264 9.48801 18.459 9.57647C18.2968 9.79262 18.1345 9.92735 18.0484 9.90392C17.6629 9.79848 17.4257 10.7293 17.445 11.1856C17.4503 11.3238 17.5323 11.632 17.6577 12.0162C17.9494 12.9101 18.476 14.2099 18.8351 14.692C18.8743 14.7448 18.9118 14.7934 18.9476 14.8373C19.3869 15.3774 19.1631 15.9503 19.1455 15.8009L19.1473 15.8015Z" fill="#1842B9"/>
<path d="M21.5058 10.0791C21.572 10.1289 21.6394 10.1798 21.7073 10.2308C21.2475 10.4944 20.7156 10.7381 20.4163 10.7316C20.23 10.7281 19.9488 10.7568 19.6378 10.7773H19.6366C19.0491 10.8172 18.3508 10.8318 17.9578 10.5594C17.6491 10.4024 17.4903 9.98185 17.4546 9.74988C17.4915 9.78152 17.5313 9.80846 17.5747 9.83013C17.9466 10.0873 18.5892 10.0879 19.1539 10.0533C19.5054 10.0328 19.827 9.99708 20.0332 10.0012C20.2382 10.0053 20.551 9.89398 20.8767 9.73758C20.9148 9.71942 20.9534 9.69951 20.9927 9.68018C21.142 9.8026 21.3189 9.93792 21.5052 10.0791H21.5058Z" fill="#F4A42F"/>
<path d="M23.452 5.88904C23.3999 5.98746 23.3307 6.08001 23.2417 6.15909C23.3829 5.83281 23.4842 5.53992 23.5539 5.27457C23.5721 5.20603 23.5873 5.14042 23.6008 5.07599C23.6225 5.2236 23.6184 5.5821 23.4526 5.88904H23.452Z" fill="#F4A42F"/>
<path d="M23.0748 6.52224C22.557 7.59011 22.3994 8.67731 22.1264 8.95028C21.8523 9.22442 20.5712 10.0135 20.0346 10.0017C19.4969 9.99061 18.1789 10.2466 17.5761 9.8307C17.5328 9.80902 17.493 9.78208 17.4561 9.75045C17.4496 9.71237 17.4473 9.67898 17.4473 9.65262C17.4496 9.46752 17.729 8.88409 18.0682 8.25965C18.4085 7.63521 19.153 5.08299 19.3393 4.65596C19.5256 4.22893 20.5437 3.56115 21.519 3.25479C22.4931 2.94784 23.0508 3.38717 23.0508 3.38717C23.0508 3.38717 23.3185 3.29169 23.5669 3.46625C23.7566 4.21839 23.79 5.05077 23.0748 6.52283V6.52224Z" fill="#FFCC00"/>
<path d="M20.3736 7.61116C20.3736 7.61116 20.3648 9.64731 20.3203 9.98414C20.2758 10.321 19.2202 10.6343 19.1845 10.5143C19.1487 10.3942 18.7393 7.82263 18.8354 7.37627C18.9314 6.9299 20.3736 7.61057 20.3736 7.61057V7.61116Z" fill="#FF9670"/>
<path d="M22.9826 4.11879C22.7823 4.50247 23.0576 4.80356 22.9 5.08766C22.6183 4.91544 21.9083 4.22247 21.8673 4.02858C21.824 3.81594 22.1069 2.88514 22.1069 2.64439C22.1069 2.64439 22.0671 2.28472 22.2697 1.85769L22.2709 1.85652C22.391 1.81552 22.4964 1.80146 22.5374 1.84774C22.6546 1.98012 23.033 3.02046 23.0488 3.20556C23.0652 3.39184 22.9826 4.1182 22.9826 4.1182V4.11879Z" fill="#FF9670"/>
<path d="M24.5907 3.16517L23.9879 4.36483L23.719 4.9014C23.6962 4.93831 23.6605 4.97053 23.6148 4.99923C23.4672 5.09471 23.2258 5.1445 23.0682 5.13806C23.0261 5.13689 22.9892 5.13161 22.9622 5.12166C22.9446 5.11521 22.9241 5.10408 22.8995 5.08827C22.6178 4.91605 21.9078 4.22308 21.8668 4.02918C21.8235 3.81655 22.1064 2.88575 22.1064 2.645C22.1064 2.645 22.0666 2.28533 22.2692 1.8583L22.2704 1.85713C22.2956 1.805 22.3483 1.76282 22.4233 1.72826C22.9599 1.47872 24.5901 1.65152 24.6949 1.8583C24.815 2.09378 24.7664 2.62977 24.5907 3.16575V3.16517Z" fill="#FF9670"/>
<path d="M22.9 5.08824C22.8731 5.13569 22.8268 5.15678 22.7178 5.18079C22.5919 5.20247 22.4788 5.16263 22.415 5.13862C22.1994 5.05719 21.568 4.29334 21.5246 4.08188C21.493 3.93368 21.449 4.19552 21.6037 3.02631C21.7747 2.66665 21.7783 2.26539 21.7783 2.17694C21.7783 2.10664 22.0483 1.93443 22.2691 1.85828C22.0665 2.28531 22.1063 2.64497 22.1063 2.64497C22.1063 2.88573 21.8234 3.81652 21.8667 4.02916C21.9077 4.22305 22.6177 4.91602 22.8994 5.08824H22.9Z" fill="#E87F59"/>
<path d="M22.2035 3.02164C22.4846 2.52431 22.2515 2.72055 22.0166 2.66783C21.7729 2.61335 21.7266 2.71996 21.6927 2.86875L21.6587 3.01812C21.6587 3.01812 21.5679 2.62917 21.5948 2.0926C21.6224 1.55603 21.5515 1.05285 22.1162 0.656863C22.7746 0.194686 23.0792 0.164226 23.6591 0.239205C24.2396 0.31477 24.7873 1.32816 24.8201 1.60348C24.8529 1.87879 24.8658 2.19921 24.7557 2.249C24.6239 2.22733 24.0645 2.49444 24.0645 2.49444C23.0968 2.61628 22.8197 2.6321 22.781 2.76331C22.743 2.89452 22.7763 3.07729 22.6727 3.22959" fill="#24272C"/>
<path d="M21.4939 2.21915C21.4452 2.3656 21.4874 3.26066 21.5478 3.45338L21.7393 3.69648L21.9408 3.49146C21.9408 3.49146 21.7838 3.19974 21.7575 3.0902C21.7311 2.98066 21.9109 2.53723 21.9109 2.53723L21.4939 2.21857V2.21915Z" fill="#121621"/>
<path d="M21.9897 3.47619C21.8075 3.50665 21.6992 3.37368 21.6775 3.18858C21.6558 3.00347 21.5187 2.74515 21.7513 2.62155C21.9838 2.49853 22.0694 2.62096 22.0963 2.81017C22.1233 2.99937 22.118 3.23192 22.1098 3.30339C22.1016 3.37485 22.0412 3.46741 21.9891 3.47619H21.9897Z" fill="#FF9670"/>
<path d="M22.9813 11.8241C22.8536 12.0244 22.6445 12.2318 22.289 12.2915C22.1999 12.3068 22.1015 12.3132 21.9931 12.3068C21.3242 12.2687 19.1428 10.9835 19.1035 10.9788C18.8241 10.9472 18.7351 9.50031 18.6654 8.84365C18.6425 8.6398 18.5763 6.25453 18.6109 5.80641C18.6607 5.17026 19.0479 4.76373 19.2751 4.57745C19.1082 4.79653 18.953 5.09762 18.9231 5.48482C18.8885 5.93235 18.9547 8.31821 18.9776 8.52206C19.0467 9.17872 19.1357 10.6262 19.4157 10.6572C19.455 10.6613 21.6364 11.9471 22.3054 11.9852C22.4137 11.9916 22.5121 11.9852 22.6012 11.9699C22.7529 11.9447 22.8788 11.892 22.9813 11.8247V11.8241Z" fill="#374ED1"/>
<path d="M23.1936 11.3941C23.186 11.3941 23.1783 11.4058 23.1678 11.4287C23.1362 11.4972 23.0876 11.6571 22.9815 11.8241C22.8784 11.8914 22.7531 11.9442 22.6014 11.9694C22.5123 11.9846 22.4139 11.991 22.3055 11.9846C21.7625 11.9541 20.2202 11.0989 19.6391 10.7773H19.6379C19.5055 10.7035 19.4235 10.6578 19.4159 10.6572C19.3011 10.6443 19.2185 10.3919 19.1558 10.0533C19.0668 9.56885 19.0193 8.90868 18.9783 8.52148C18.9555 8.31763 18.8893 5.93236 18.9239 5.48424C18.9543 5.09704 19.109 4.79595 19.2759 4.57687C19.3726 4.49779 19.4405 4.45737 19.4405 4.45737C19.6994 4.42516 20.4703 4.82348 20.6882 5.67344C20.9061 6.5234 20.6027 8.25437 20.5839 8.40725C20.5511 8.665 20.5447 8.87412 20.5441 9.06274C20.5429 9.11487 20.5429 9.16583 20.5429 9.21562C20.5429 9.28709 20.7251 9.46048 20.994 9.67956C21.1434 9.80199 21.3203 9.9373 21.5065 10.0785C21.5727 10.1283 21.6401 10.1792 21.7081 10.2302C22.4795 10.8037 23.3265 11.3976 23.1942 11.393L23.1936 11.3941Z" fill="#395FFF"/>
<path d="M24.9988 2.41185C24.8342 3.14465 23.5964 3.25302 23.1747 3.23252C22.7236 3.21085 22.1777 3.29754 21.3265 2.0762C21.3013 1.08448 21.8379 0.252096 22.7552 0.105652C22.5514 0.440715 22.4471 0.857787 22.4583 1.30883C22.7218 2.4675 23.8542 2.44348 24.3064 2.46515C24.4593 2.4716 24.7205 2.46164 24.9988 2.41185Z" fill="#F4A42F"/>
<path d="M25.0175 2.24198C25.0175 2.3029 25.011 2.35914 24.9993 2.41244C24.7205 2.46223 24.4598 2.47219 24.3069 2.46575C23.8547 2.44407 22.7224 2.46809 22.4588 1.30943C22.4477 0.85838 22.552 0.441308 22.7558 0.106245C22.8858 0.0857424 23.0235 0.0781273 23.1676 0.086914C24.7902 0.243902 25.0157 1.35629 25.0181 2.24257L25.0175 2.24198Z" fill="#FFCC00"/>
<path d="M21.1249 1.85827C21.1126 2.34388 21.1431 3.10304 22.8325 3.59861C23.2742 3.72865 23.9788 3.84874 24.7075 3.45334C25.3255 3.11827 25.2558 2.81367 25.2945 2.29995C25.38 1.17409 24.8839 1.28128 24.8839 1.28128C24.8839 1.28128 24.9916 1.53434 24.8212 1.78036C24.4855 2.26539 23.5834 2.21911 22.9004 2.09317C22.2209 1.96781 21.5157 1.43944 21.6041 0.905216C21.1238 0.752914 21.1249 1.85827 21.1249 1.85827Z" fill="#231F1E"/>
<path d="M17.5674 18.697C17.0935 19.035 16.3625 18.6126 16.0719 18.0591C16.0075 17.9361 15.9647 17.8054 15.9519 17.676C15.8804 16.9631 16.4509 17.3392 17.1568 16.3984C17.7683 15.5842 18.3617 15.1735 18.5099 15.0781C18.4742 15.115 18.4268 15.214 18.4596 15.477C18.473 15.5906 18.5785 15.7306 18.7407 15.8653C19.1543 16.2115 19.9422 16.5243 20.5391 16.2625C20.6591 16.5202 18.1468 18.2852 17.5674 18.697Z" fill="#6E320E"/>
<path d="M18.7407 15.8654C18.531 16.2866 18.0993 16.7153 17.6465 17.0445C16.9559 17.5489 16.3965 17.4604 16.0719 18.0585C16.0075 17.9355 15.9647 17.8049 15.9519 17.6754C15.8804 16.9625 16.4509 17.3386 17.1568 16.3979C17.7683 15.5836 18.3617 15.173 18.5099 15.0775C18.4742 15.1144 18.4268 15.2134 18.4596 15.4764C18.473 15.5901 18.5785 15.7301 18.7407 15.8648V15.8654Z" fill="#56241B"/>
<path d="M17.6782 18.7585C17.2863 18.7409 16.7099 18.7204 16.4463 19.0455C16.1827 19.3706 16.0585 19.889 16.0673 20.0126C16.0761 20.1362 16.5617 20.2522 16.5617 20.2522L16.3918 19.8908C16.3918 19.8908 16.6549 19.1363 16.6988 19.1012C16.7427 19.066 17.7339 19.0455 17.7339 19.0455C17.7339 19.0455 18.0062 19.2324 18.0326 19.3378C18.059 19.4432 18.0326 19.715 18.0326 19.715L18.1937 19.8849C18.1937 19.8849 18.2142 19.4163 18.1937 19.3372C18.1732 19.2581 17.6782 18.7579 17.6782 18.7579V18.7585Z" fill="#A1A1A1"/>
<path d="M27.6665 23.0915C29.756 23.0915 31.337 21.2 32.4008 19.9271C32.6778 19.5956 32.9174 19.3091 33.1301 19.0935C33.6883 18.5289 34.0685 18.2494 34.3467 18.045C34.7644 17.7381 34.9946 17.5688 35.2652 16.8471L35.0678 16.7733C34.8194 17.4364 34.632 17.574 34.2219 17.8757C33.9384 18.0843 33.5501 18.3695 32.9801 18.9459C32.761 19.1674 32.5191 19.4573 32.2391 19.7924C30.7202 21.61 28.4239 24.3561 25.1471 21.934C23.3968 20.6406 21.5505 18.137 22.6921 13.5556L22.708 13.4924C22.8339 12.9827 23.0342 12.5955 23.3207 12.3085C23.4987 12.1299 23.63 12.0426 23.8936 12.0262C24.1232 12.0121 24.3604 12.0262 24.59 12.0385C24.6803 12.0437 24.7699 12.049 24.8601 12.0525C25.2561 12.0683 25.7142 12.0578 26.1189 11.8586L26.0264 11.6694C25.6638 11.8475 25.2373 11.8563 24.8689 11.8417C24.7798 11.8381 24.6914 11.8329 24.6029 11.8282C24.3675 11.8147 24.1238 11.8006 23.8818 11.8159C23.5544 11.8358 23.3798 11.9524 23.1731 12.1597C22.8591 12.4743 22.6406 12.8937 22.5053 13.4414L22.4895 13.5047C21.3197 18.1991 23.2217 20.7718 25.0235 22.1033C25.9801 22.8103 26.8617 23.092 27.6677 23.092L27.6665 23.0915Z" fill="#F4A42F"/>
<path d="M25.1324 12.9974C25.1287 12.9986 25.1269 12.9998 25.1245 13.001C25.1269 12.9998 25.1281 12.9986 25.13 12.9974H25.1324Z" fill="#1C2134"/>
<path d="M35.5717 11.2155C35.5717 11.2155 35.5694 11.2114 35.5676 11.209C35.5676 11.2078 35.5664 11.2055 35.5664 11.2049C35.5014 11.093 35.4235 10.9905 35.3485 10.8851C35.2911 10.8025 35.236 10.7205 35.1933 10.6291C35.1868 10.707 35.1728 10.7832 35.154 10.8587C35.1212 10.994 35.0738 11.1253 35.0064 11.2477C34.99 11.1329 34.9859 11.0081 34.949 10.8997C34.9402 10.8745 34.9309 10.8529 34.9221 10.8294C34.9045 10.7849 34.8863 10.7404 34.8647 10.6971C34.8483 10.6648 34.833 10.6309 34.8137 10.5986C34.7856 10.55 34.754 10.5032 34.7206 10.4569C34.6878 10.4112 34.6532 10.3661 34.6175 10.3227C34.5923 10.2911 34.5665 10.2618 34.5413 10.2319C34.5296 10.2191 34.5185 10.205 34.5079 10.1921C34.5056 10.1898 34.5027 10.188 34.4991 10.1833C34.4915 10.1757 34.481 10.1658 34.4687 10.154C34.4634 10.1488 34.457 10.1423 34.4505 10.1359C34.4329 10.1177 34.4171 10.1001 34.4107 10.089C34.4083 10.0849 34.4072 10.0814 34.4072 10.0791C34.3755 10.2495 34.3527 10.4217 34.3369 10.594C34.29 10.4739 34.2338 10.3145 34.1559 10.195C34.1377 10.1681 34.1178 10.1417 34.0973 10.1201L34.078 10.1007C34.0651 10.0902 34.0487 10.0814 34.0334 10.0703C33.938 10.0053 33.8091 9.96483 33.706 9.93262C33.5197 9.87287 33.3235 9.84241 33.1273 9.84182C33.0851 9.84182 33.0429 9.84416 33.0007 9.84592C32.9246 9.85002 32.8502 9.85881 32.7764 9.8717C32.7213 9.88165 32.668 9.89454 32.6147 9.91094C32.323 10.0017 32.0693 10.1822 31.7888 10.3122C31.7671 10.3227 31.7454 10.3327 31.7237 10.3427C31.6716 10.3643 31.6195 10.3848 31.5668 10.4024C31.6136 10.3696 31.6587 10.335 31.7032 10.2993C31.7565 10.2571 31.8075 10.2126 31.8573 10.1658C31.9481 10.0802 32.0342 9.98826 32.1121 9.89161C31.8532 9.99588 31.5667 10.0714 31.3535 10.256C31.3483 10.2601 31.3436 10.2648 31.3383 10.2689C31.2106 10.386 31.1052 10.5248 30.998 10.6601C30.9511 10.7199 30.9037 10.7785 30.8539 10.8347C30.8234 10.8693 30.7888 10.9021 30.7555 10.9343C30.3975 11.2723 29.8405 11.5306 29.4298 11.7561C28.9302 12.0314 28.4112 12.2734 27.8787 12.4778C28.2302 12.2125 28.5846 11.9448 28.864 11.6044C28.3186 12.0479 27.6877 12.4052 27.0785 12.7414C26.7851 12.9031 26.4348 12.9646 26.105 12.9939C25.9275 13.0103 25.6053 12.954 25.3605 12.9605C25.2697 12.9617 25.1894 12.9722 25.132 12.9986C25.3985 12.8673 25.6645 12.7373 25.9322 12.6073C25.6698 12.6606 25.4044 12.7133 25.139 12.7613C25.1226 12.7648 25.1074 12.7666 25.0916 12.7701C24.8415 12.8146 24.5884 12.8533 24.3359 12.882C23.7531 12.9482 23.1685 12.9587 22.5933 12.8539C22.9131 12.8117 23.2318 12.7695 23.5516 12.7273H23.5528C23.5733 12.7238 23.5938 12.7221 23.6143 12.7186C23.9382 12.6764 24.2885 12.6202 24.5128 12.3835C24.1942 12.496 23.8433 12.5188 23.5123 12.4485C23.8333 12.3794 24.1485 12.2857 24.4554 12.1697H24.4566C24.7278 12.0678 24.992 11.9489 25.2468 11.813C25.4811 11.6894 25.6944 11.5183 25.9275 11.3976C25.9375 11.3924 25.9468 11.3877 25.9568 11.3824C26.2438 11.2395 26.5748 11.1545 26.8718 11.0309C26.6539 11.0567 26.426 10.994 26.252 10.8605C26.4852 10.8207 26.7171 10.7726 26.9479 10.7187C27.2906 10.6355 27.6298 10.5366 27.9625 10.4194C27.5993 10.4844 27.1916 10.5395 26.8893 10.3274C27.7955 10.41 28.7234 10.1781 29.4937 9.69772C29.6325 9.67253 29.7702 9.64793 29.909 9.62157C29.2893 9.93379 28.731 10.3696 28.2776 10.895C28.6654 10.4715 29.2336 10.2976 29.7526 10.096C30.0021 9.99822 30.2564 9.89337 30.4883 9.76216C30.7689 9.604 31.0214 9.40425 31.3119 9.25722C31.7864 9.01763 32.2937 8.8419 32.815 8.73822C32.6891 8.77922 32.5766 8.86065 32.4999 8.96784C32.668 8.98952 32.8531 9.03931 33.0224 9.02232C33.1677 9.00826 33.2989 8.98542 33.4494 8.98952C33.3961 9.01998 33.3627 9.08031 33.3663 9.14123C33.3663 9.07211 34.447 9.26366 34.512 9.28241C34.4329 9.3527 34.3539 9.42358 34.2748 9.49387C34.6175 9.47747 35.0129 9.48391 35.2308 9.74985C35.3356 9.87872 35.3772 10.0457 35.4153 10.2085C35.4914 10.5401 35.5594 10.8775 35.5735 11.2166L35.5717 11.2155Z" fill="#1C2134"/>
<path d="M24.4897 12.8931C24.4352 12.9617 24.1593 12.8463 24.1593 12.8463L23.7282 13.0097C23.7282 13.0097 22.9187 13.309 22.7277 13.1157C22.5725 12.9587 22.3733 12.4807 22.2896 12.2909C22.9398 12.1826 23.1003 11.5786 23.1688 11.4281C23.2274 11.455 23.2748 11.4832 23.3088 11.5107C23.4898 11.656 23.9578 11.8534 23.9578 11.8534C23.9578 11.8534 24.3163 12.264 24.3667 12.3694C24.4165 12.4737 24.5436 12.8246 24.4903 12.8931H24.4897Z" fill="#FF9670"/>
<path d="M23.7016 0.250478C23.7183 0.158819 23.6282 0.0655911 23.5002 0.042248C23.3723 0.018905 23.255 0.0742863 23.2383 0.165945C23.2216 0.257605 23.3117 0.350832 23.4397 0.374176C23.5676 0.397519 23.6849 0.342137 23.7016 0.250478Z" fill="#231F1E"/>
<path d="M23.425 7.27496C22.9137 8.3399 22.7584 9.42358 22.489 9.69714C22.3689 9.8184 22.0567 10.0386 21.6982 10.2466C21.6308 10.1956 21.5646 10.1447 21.499 10.0955C21.3151 9.95488 21.1405 9.81957 20.9929 9.69773C20.7275 9.47923 20.5577 9.29881 20.5442 9.22911C20.5336 9.17463 20.5424 9.13421 20.5436 9.08208C21.3994 8.60526 21.5593 8.40024 21.772 7.89823C21.8716 7.59772 21.8675 7.43019 21.7579 7.18358C21.687 7.04182 21.5945 6.94107 21.4123 6.9973C21.2946 7.084 21.3362 7.29781 21.5236 7.50224C21.1897 7.61061 21.0562 7.50107 20.949 7.35931C20.8453 7.17538 20.8154 6.84149 20.8986 6.62709C21.0526 6.34709 21.1874 6.32542 21.4229 6.21647C21.2026 5.88785 21.2559 5.61077 21.3643 5.4204C21.6583 5.42801 21.9208 5.55454 21.9717 5.77831C22.1281 5.39111 22.264 5.33487 22.5194 5.34893C22.6296 5.36651 22.9101 5.56508 22.8188 5.9763C22.7268 5.78944 22.4275 5.79588 22.3777 6.07881C22.3373 6.36115 22.7625 6.46483 22.9183 6.425C23.0923 6.37287 23.1351 6.28969 23.1925 6.21002C23.3009 6.06006 23.3132 5.98626 23.3536 5.88316C23.5041 5.49596 23.5029 5.50006 23.575 5.18667C23.5803 5.1609 23.6043 5.02793 23.6084 5.00274C23.6535 4.97462 23.6957 4.93245 23.7179 4.89613L23.9657 4.40759C24.1157 5.11697 24.0764 5.91596 23.4239 7.27496H23.425Z" fill="#F4A42F"/>
</svg>
