<svg width="26" height="37" viewBox="0 0 26 37" fill="none" xmlns="http://www.w3.org/2000/svg">
<path d="M10.1228 29.1157L9.42498 28.7131C9.09326 28.5216 8.51395 28.5454 8.13039 28.7666L5.43539 30.3225C5.38778 30.35 5.34545 30.3791 5.30842 30.4098L5.12061 30.3299V30.769H5.12325C5.13224 30.8817 5.20155 30.9891 5.34228 31.0701L6.0401 31.4727C6.37182 31.6642 6.95113 31.6404 7.33469 31.4192L10.0297 29.8633C10.4127 29.6421 10.4545 29.3078 10.1228 29.1157Z" fill="url(#paint0_linear_33_4921)"/>
<path d="M10.3456 29.4136V28.9835L9.99219 29.2977L10.2583 29.5273L10.3456 29.4136Z" fill="#4D4D4D"/>
<path d="M6.04033 31.0436L5.34251 30.641C5.01079 30.4495 5.05259 30.1151 5.43562 29.8935L8.13062 28.3375C8.51365 28.1164 9.09297 28.092 9.42521 28.2841L10.123 28.6867C10.4547 28.8782 10.413 29.2126 10.0299 29.4342L7.33492 30.9902C6.95189 31.2113 6.37258 31.2357 6.04033 31.0436Z" fill="#808080"/>
<path d="M10.0298 29.3295L7.33485 30.8854C6.95181 31.1066 6.3725 31.1309 6.04026 30.9389L5.34244 30.5363C5.2144 30.4622 5.14298 30.367 5.12447 30.2649C5.10119 30.4045 5.17102 30.5416 5.34244 30.6405L6.04026 31.0431C6.37197 31.2346 6.95129 31.2108 7.33485 30.9897L10.0298 29.4337C10.2647 29.2978 10.37 29.1195 10.3404 28.9576C10.3187 29.0888 10.215 29.2221 10.0298 29.329V29.3295Z" fill="#B3B3B3"/>
<g style="mix-blend-mode:multiply">
<path d="M10.2522 28.7862H9.80299L9.70459 28.4444L10.1236 28.6862C10.1754 28.7163 10.2183 28.7486 10.2527 28.7862H10.2522Z" fill="#999999"/>
</g>
<g style="mix-blend-mode:multiply">
<path d="M8.62864 30.2183V30.2431L7.57636 30.85H6.04739L5.85059 30.2183H8.62864Z" fill="#999999"/>
</g>
<path d="M5.61567 28.1354C5.62043 28.0735 5.62625 28.0121 5.63472 27.9518C5.69503 27.5101 5.78232 27.071 5.91882 26.6461C6.07859 26.1483 6.29815 25.6626 6.61717 25.2457C6.92032 24.8495 7.37054 24.459 7.87102 24.3511C7.94932 24.3342 8.02868 24.3231 8.10857 24.3183C8.35775 24.3035 8.59318 24.3982 8.78311 24.5548C9.25979 24.9473 9.46242 25.579 9.58304 26.1848C9.70261 26.7884 9.76398 27.4043 9.76609 28.0195C9.76609 28.1814 9.81 28.3343 9.8846 28.4782C9.91052 28.5285 9.9629 28.5957 9.96766 28.6528C9.97136 28.702 9.92692 28.7496 9.88513 28.7682C9.84122 28.7877 9.79149 28.7877 9.74334 28.7835C9.55976 28.7666 9.38306 28.6809 9.25556 28.5475C9.21006 28.4999 9.13705 28.4095 9.17937 28.3412C9.22381 28.2698 9.31058 28.2433 9.34285 28.1603C9.37036 28.0904 9.36507 28.018 9.35872 27.9455C9.35026 27.8497 9.34232 27.7534 9.33068 27.6582C9.29047 27.3275 9.25027 26.9974 9.21006 26.6668C9.17197 26.3541 9.13334 26.0382 9.02542 25.742C8.94606 25.5251 8.82173 25.3261 8.66249 25.159C8.49584 24.9833 8.31173 24.9659 8.07312 24.9907C7.64142 25.0352 7.26526 25.2928 6.98856 25.6155C6.70182 25.9499 6.50818 26.3557 6.36746 26.7736C6.15584 27.4021 6.05796 28.0635 6.03045 28.7242C6.01035 29.1999 6.03891 29.676 6.04103 30.1516C6.04156 30.3103 6.07754 30.4405 6.1442 30.5844C6.177 30.6548 6.1971 30.7458 6.14578 30.8045C6.09447 30.8627 6.00241 30.8553 5.92728 30.8341C5.80825 30.8008 5.69609 30.7458 5.59187 30.6796C5.54531 30.65 5.49928 30.6172 5.46807 30.5717C5.43632 30.5262 5.42151 30.4659 5.44214 30.4151C5.45643 30.3802 5.485 30.3675 5.50775 30.3405C5.53579 30.3066 5.54531 30.2717 5.5543 30.2278C5.57546 30.1283 5.57546 30.0262 5.57546 29.9252C5.57546 29.6321 5.57599 29.3295 5.57282 29.0327C5.56964 28.7311 5.59451 28.4364 5.61673 28.1354H5.61567Z" fill="#999999"/>
<path d="M5.79303 30.6802C5.74647 30.6505 5.70044 30.6177 5.6687 30.5722C5.63749 30.5267 5.62267 30.4664 5.64278 30.4156C5.65706 30.3807 5.68563 30.368 5.70838 30.341C5.73642 30.3072 5.74594 30.2723 5.75494 30.2283C5.7761 30.1289 5.7761 30.0268 5.7761 29.9257C5.7761 29.6326 5.7761 29.33 5.77345 29.0332C5.77028 28.7317 5.79514 28.437 5.81736 28.1359C5.82213 28.074 5.82794 28.0127 5.83641 27.9524C5.89672 27.5106 5.98402 27.0715 6.12051 26.6467C6.28029 26.1488 6.49984 25.6632 6.81886 25.2463C7.12201 24.85 7.57223 24.4596 8.07219 24.3516C8.13567 24.3379 8.20075 24.331 8.26582 24.3252C8.21397 24.3188 8.1616 24.3162 8.10816 24.3188C8.02828 24.3236 7.94892 24.3347 7.87062 24.3516C7.37066 24.4596 6.91991 24.85 6.61676 25.2463C6.29774 25.6632 6.07819 26.1488 5.91841 26.6467C5.78192 27.0715 5.69462 27.5106 5.63431 27.9524C5.62585 28.0127 5.62003 28.074 5.61527 28.1359C5.59305 28.437 5.56818 28.7317 5.57135 29.0332C5.57453 29.33 5.57453 29.6326 5.574 29.9257C5.574 30.0268 5.574 30.1289 5.55284 30.2283C5.54331 30.2728 5.53432 30.3077 5.50628 30.341C5.48353 30.368 5.45496 30.3807 5.44068 30.4156C5.42005 30.4669 5.43486 30.5273 5.4666 30.5722C5.49834 30.6177 5.54437 30.6505 5.5904 30.6802C5.69462 30.7463 5.80678 30.8013 5.92582 30.8346C5.98719 30.8521 6.05861 30.8579 6.11099 30.8283C5.9983 30.7944 5.89143 30.7431 5.7925 30.6802H5.79303Z" fill="#CCCCCC"/>
<path d="M9.45676 28.5475C9.41126 28.4999 9.33825 28.4095 9.38058 28.3412C9.42502 28.2698 9.51178 28.2433 9.54405 28.1603C9.57156 28.0904 9.56627 28.018 9.55992 27.9455C9.55146 27.8497 9.54352 27.7534 9.53188 27.6582C9.49168 27.3275 9.45147 26.9974 9.41126 26.6668C9.37317 26.3541 9.33455 26.0382 9.22609 25.742C9.14673 25.5251 9.02241 25.3261 8.86316 25.159C8.70709 24.995 8.53568 24.9696 8.31982 24.987C8.44627 25.0018 8.55737 25.0494 8.66106 25.159C8.81978 25.3261 8.94464 25.5251 9.02399 25.742C9.13192 26.0377 9.17107 26.3536 9.20863 26.6668C9.24884 26.9974 9.28905 27.3275 9.32926 27.6582C9.3409 27.754 9.34936 27.8497 9.3573 27.9455C9.36365 28.018 9.36841 28.0904 9.34142 28.1603C9.30915 28.2433 9.22239 28.2693 9.17795 28.3412C9.13562 28.4095 9.20863 28.4999 9.25413 28.5475C9.38163 28.6809 9.55834 28.7666 9.74192 28.7835C9.78636 28.7877 9.83239 28.7861 9.87418 28.7703C9.71652 28.7401 9.56733 28.6634 9.45623 28.5475H9.45676Z" fill="#CCCCCC"/>
<path d="M8.09518 24.2273C8.09888 24.3098 8.09041 24.3844 8.10999 24.4674C8.1174 24.4976 8.12745 24.5447 8.15866 24.568C8.18406 24.5865 8.22955 24.5918 8.26236 24.6002C8.34171 24.6203 8.41896 24.6447 8.49302 24.6733C8.52424 24.6849 8.55968 24.7076 8.5454 24.7309C8.53588 24.7463 8.50942 24.751 8.48667 24.7537C8.27876 24.7775 8.06608 24.7875 7.86662 24.8367C7.67722 24.8833 7.50634 24.9626 7.34075 25.0452C7.27938 25.0759 7.21219 25.1081 7.13865 25.1028C7.13177 25.1028 7.12383 25.1013 7.1196 25.097C7.11537 25.0933 7.1159 25.0875 7.11696 25.0827C7.12278 25.0478 7.14182 25.0145 7.1651 24.9838C7.19155 24.9478 7.22383 24.9145 7.26139 24.8838C7.29419 24.8568 7.33122 24.832 7.35821 24.8013C7.43174 24.7182 7.41005 24.5934 7.40317 24.4981C7.39735 24.4145 7.38413 24.3315 7.38043 24.2479C7.37143 24.0574 7.36244 23.8664 7.35344 23.676C7.21219 20.7133 7.06564 17.6495 7.8407 14.6731L8.54381 14.772C7.78356 17.6903 7.92852 20.7239 8.06872 23.658C8.07772 23.8479 8.08671 24.0379 8.0957 24.2278L8.09518 24.2273Z" fill="#58595E"/>
<path d="M14.0037 15.808C13.8551 16.2592 13.6831 16.7084 13.4451 17.1216C13.4038 17.193 13.3609 17.2629 13.316 17.3311C12.9202 17.9305 12.3727 18.4141 11.8018 18.8474C11.2505 19.2643 10.6686 19.6441 10.0369 19.9176C9.02746 20.3546 7.89952 20.5118 6.81126 20.3668C6.68217 20.3488 6.55361 20.3277 6.42664 20.3007C5.02677 20.0145 3.72212 19.196 2.9915 17.9718C2.19686 16.6365 2.18046 14.825 3.0989 13.5717C3.9311 12.4368 5.31669 11.9443 6.36368 11.0512C6.37268 11.0423 6.38167 11.0354 6.39066 11.0264C6.84353 10.6396 7.27842 10.1995 7.65616 9.74131C8.07517 9.2366 8.3471 8.53507 8.6603 7.95682C8.83224 7.63991 9.00736 7.31772 9.27612 7.07806C9.58932 6.79713 10.0062 6.65376 10.4215 6.59133C11.2881 6.46066 12.1886 6.65746 12.9578 7.07489C13.9514 7.61346 14.4598 8.70913 14.6603 9.78522C15.0275 11.7581 14.619 13.9256 14.0032 15.809L14.0037 15.808Z" fill="#4D4D4D"/>
<path d="M9.7939 7.3394C9.86373 7.21825 9.92246 7.09445 9.9796 6.96695C10.0267 6.86114 10.0817 6.76803 10.0944 6.64846C10.097 6.62201 10.1277 6.37177 10.1489 6.37177C9.86691 6.37177 9.59392 6.48763 9.3659 6.65375C9.13787 6.81987 8.95059 7.0352 8.776 7.25634C8.60935 7.4669 8.45116 7.68593 8.32208 7.92136C8.20568 8.13351 8.11363 8.35836 8.04697 8.59061C8.0057 8.73451 7.97766 8.89588 7.97607 9.0456C7.97607 9.0911 7.97872 9.13924 8.00464 9.1768C8.02686 9.20855 8.06284 9.22812 8.09776 9.24505C8.26123 9.32494 8.44852 9.12231 8.55274 9.01227C9.02995 8.50544 9.4479 7.94305 9.79443 7.33993L9.7939 7.3394Z" fill="#4D4D4D"/>
<path d="M9.8166 6.73097C9.38807 7.03041 9.0955 7.50021 8.87436 7.979C8.47016 8.853 8.12787 9.75662 7.66283 10.6015C6.75233 12.2564 5.33077 13.7774 5.13396 15.7328C5.03291 16.7375 5.12761 18.9494 6.65498 18.7807C7.87868 18.6458 8.45271 17.1528 8.92832 16.1994C9.40817 15.2371 9.84094 14.2483 10.3975 13.3256C10.6689 12.8759 10.9604 12.5923 11.3651 12.2622C11.736 11.9601 12.1143 11.649 12.3709 11.239C12.5201 11.0004 12.6148 10.7322 12.6872 10.4608C12.947 9.48469 12.901 8.43663 12.5936 7.47693C12.3968 6.8627 12.2079 6.47279 11.5133 6.39449C10.9826 6.33471 10.4218 6.37703 9.95839 6.64156C9.90972 6.6696 9.86263 6.69923 9.81713 6.73097H9.8166Z" fill="#333333"/>
<path d="M5.65474 10.6735C5.52301 10.8544 5.39868 11.0401 5.28176 11.2311C4.69398 12.1919 4.28555 13.2992 4.28132 14.4361C4.27973 14.9133 4.29984 16.1079 4.87756 16.2539C5.0786 16.3047 5.29604 16.237 5.46428 16.1159C5.63305 15.9952 5.76055 15.8259 5.87747 15.6545C6.44832 14.8197 6.83083 13.8721 7.18 12.9225C7.48685 12.0887 7.77095 11.2443 7.97041 10.3777C8.02225 10.1534 8.06775 9.92805 8.1069 9.70162C8.12806 9.57941 8.22382 9.35403 8.20425 9.23552C8.1561 8.94137 7.74767 8.83556 7.50378 8.91598C7.03716 9.07046 6.63137 9.53179 6.30706 9.88097C6.07375 10.1317 5.85525 10.3963 5.65368 10.673L5.65474 10.6735Z" fill="#4D4D4D"/>
<path d="M7.44885 11.9512C7.08222 12.4225 6.71347 12.8982 6.44524 13.432C6.17754 13.9658 6.01459 14.5684 6.08707 15.1614C6.23626 14.9763 6.31139 14.744 6.39762 14.5223C6.85102 13.3553 7.67158 12.3633 8.16889 11.2142C7.89008 11.1782 7.59699 11.7602 7.44832 11.9512H7.44885Z" fill="#666666"/>
<g style="mix-blend-mode:multiply">
<path d="M13.4452 17.1216C13.4039 17.193 13.3611 17.2629 13.3161 17.3311C12.9204 17.9305 12.3728 18.4141 11.8019 18.8474C11.2507 19.2643 10.6687 19.6441 10.037 19.9176C9.02758 20.3546 7.89964 20.5118 6.81138 20.3668C6.68229 20.3488 6.55373 20.3277 6.42676 20.3007C6.65425 20.0875 6.87434 19.8674 7.08173 19.6367C7.75468 18.8923 8.31336 18.0242 8.58159 17.0555C8.94293 15.7503 8.75512 14.3652 8.64772 13.0135C8.53662 11.6242 8.39695 8.01766 10.701 8.49011C11.2845 8.6102 11.7802 9.01281 12.1204 9.50324C12.4606 9.99209 12.6627 10.5645 12.8294 11.1359C13.3912 13.0728 13.6007 15.1117 13.4452 17.1216Z" fill="#999999"/>
</g>
<path d="M24.9549 21.4339C24.6078 22.3703 24.1423 23.274 23.4762 24.0189C22.9408 24.6167 22.2784 25.086 21.5483 25.4134C21.4393 25.4616 21.3282 25.5066 21.2171 25.5494C20.3579 25.8753 19.4252 26.0097 18.5126 25.9287C17.9486 25.8822 17.3937 25.7531 16.8673 25.5367C15.2134 24.8563 16.0626 18.5268 15.0473 17.0533C13.1644 14.3181 14.6077 13.6261 11.6429 10.4661C11.5704 10.3889 9.17324 9.15724 9.67954 8.08855C9.84937 7.73038 10.0642 7.40501 10.3366 7.12938C11.6524 5.79034 13.8755 7.21508 15.2288 7.76318C17.2138 8.56893 19.2438 8.12453 21.2452 8.60279C21.4869 8.66204 21.7176 8.74246 21.9361 8.84245C23.2482 9.44028 24.1433 10.7365 24.7073 12.0432C25.9802 14.9879 26.0712 18.4247 24.9544 21.4339H24.9549Z" fill="#666666"/>
<path d="M24.955 21.4339C24.6079 22.3703 24.1423 23.2739 23.4763 24.0188C22.9409 24.6167 22.2785 25.0859 21.5484 25.4134C21.4394 25.4616 21.3283 25.5065 21.2172 25.5494C20.358 25.8753 19.4253 26.0097 18.5127 25.9287C18.8941 25.7192 19.2608 25.4848 19.61 25.2235C21.6759 23.6734 22.9356 21.2085 23.3673 18.6627C23.6503 16.9925 23.6678 15.263 23.3842 13.5917C23.2398 12.7421 22.861 12.0115 22.5097 11.2285C22.1272 10.3756 21.7441 9.5228 21.3616 8.67049C21.3511 8.64722 22.2372 8.99322 22.3198 9.04348C22.6885 9.26727 23.0208 9.53973 23.3176 9.8524C23.9164 10.483 24.3645 11.2486 24.7079 12.0437C25.9808 14.9884 26.0718 18.4252 24.955 21.4344V21.4339Z" fill="#4D4D4D"/>
<path d="M20.2291 21.6794C20.7042 21.5873 21.119 21.2387 21.3645 20.8139C21.6449 20.3292 21.7359 19.7584 21.7655 19.1992C21.8353 17.8787 21.5909 16.5624 21.2957 15.2731C21.101 14.4218 20.882 13.4997 20.3032 12.8172C19.7456 12.1601 18.9102 11.8173 18.0653 11.7353C17.3394 11.6649 16.6025 11.7242 15.8824 11.611C15.4132 11.5374 15.1248 11.4777 14.682 11.7306C14.3381 11.9268 14.0551 12.2374 13.9138 12.6093C13.6239 13.3743 13.9096 14.2769 14.1482 15.016C14.4387 15.9143 14.8645 16.7624 15.3423 17.5745C15.9348 18.5807 16.6046 19.5563 17.4394 20.379C18.1198 21.0493 19.0076 21.736 20.0233 21.7027C20.0926 21.7006 20.1609 21.6926 20.2281 21.6794H20.2291Z" fill="#808080"/>
<path d="M21.7609 5.30627C22.0657 4.96556 22.3603 4.61638 22.6444 4.25874C22.8402 4.01273 23.0058 3.7281 23.1703 3.46093C23.3428 3.18106 23.4105 2.82395 23.6322 2.57688C23.6581 2.54778 23.6888 2.51869 23.7269 2.51181C23.7999 2.49858 23.8597 2.56895 23.8951 2.63455C24.0972 3.01335 24.1681 3.61171 24.1501 4.03495C24.1269 4.5857 24.1364 5.15549 24.3475 5.6729C24.4596 5.94801 24.6115 6.19137 24.7014 6.476C24.786 6.74476 24.8331 7.02357 24.8337 7.30556C24.8347 7.84784 24.6644 8.388 24.3263 8.81494C23.9062 9.344 23.3634 9.77623 22.7529 10.0656C22.3138 10.2735 21.8392 10.4079 21.3551 10.4502C19.6564 10.5979 17.9465 9.72015 16.281 10.0863C15.8916 10.172 15.5192 10.3233 15.1277 10.3995C14.8028 10.4624 14.4489 10.4698 14.1389 10.3397C13.8003 10.1974 13.4463 10.1 13.0998 9.97357C11.8327 9.51118 10.636 8.80701 9.72656 7.8108C10.8164 8.01078 11.9205 8.1367 13.0273 8.18643C13.5172 8.20865 14.0092 8.22823 14.4949 8.25679C14.8875 8.27954 15.3102 8.15522 15.7027 8.11765C16.4958 8.04147 17.2904 7.94254 18.065 7.75155C19.6775 7.35423 20.6716 6.52415 21.7609 5.30732V5.30627Z" fill="#333333"/>
<path d="M22.4114 34.3259L21.7136 33.9233C21.3818 33.7318 20.8025 33.7556 20.419 33.9767L17.724 35.5326C17.6764 35.5602 17.634 35.5893 17.597 35.6199L17.4092 35.5401V35.9792H17.4118C17.4208 36.0919 17.4901 36.1993 17.6309 36.2802L18.3287 36.6828C18.6604 36.8743 19.2397 36.8505 19.6233 36.6294L22.3183 35.0734C22.7013 34.8523 22.7431 34.5179 22.4114 34.3259Z" fill="url(#paint1_linear_33_4921)"/>
<path d="M22.6341 34.6232V34.1936L22.2812 34.5079L22.5468 34.7375L22.6341 34.6232Z" fill="#4D4D4D"/>
<path d="M18.3294 36.2532L17.6316 35.8506C17.2999 35.6591 17.3417 35.3247 17.7247 35.1031L20.4197 33.5471C20.8027 33.326 21.382 33.3016 21.7143 33.4937L22.4121 33.8963C22.7438 34.0878 22.702 34.4222 22.319 34.6438L19.624 36.1998C19.241 36.4209 18.6616 36.4447 18.3294 36.2532Z" fill="#808080"/>
<path d="M22.3189 34.5391L19.6239 36.095C19.2409 36.3162 18.6616 36.34 18.3293 36.1485L17.6315 35.7459C17.5035 35.6718 17.432 35.5766 17.4135 35.4745C17.3902 35.6141 17.4601 35.7512 17.6315 35.8501L18.3293 36.2527C18.661 36.4442 19.2403 36.4204 19.6239 36.1993L22.3189 34.6433C22.5538 34.5074 22.6591 34.3291 22.6295 34.1672C22.6078 34.2984 22.5041 34.4317 22.3189 34.5386V34.5391Z" fill="#B3B3B3"/>
<g style="mix-blend-mode:multiply">
<path d="M22.5407 33.9962H22.0916L21.9932 33.6545L22.4122 33.8963C22.464 33.9264 22.5069 33.9587 22.5413 33.9962H22.5407Z" fill="#999999"/>
</g>
<g style="mix-blend-mode:multiply">
<path d="M20.9177 35.4279V35.4533L19.8649 36.0601H18.3365L18.1392 35.4279H20.9177Z" fill="#999999"/>
</g>
<path d="M17.9047 33.3455C17.9095 33.2836 17.9153 33.2223 17.9238 33.162C17.9841 32.7202 18.0714 32.2811 18.2079 31.8563C18.3677 31.3584 18.5872 30.8728 18.9062 30.4559C19.2094 30.0596 19.6596 29.6692 20.1601 29.5612C20.2384 29.5443 20.3177 29.5332 20.3976 29.5284C20.6468 29.5136 20.8822 29.6083 21.0722 29.7649C21.5489 30.158 21.7515 30.7892 21.8721 31.3949C21.9917 31.9986 22.053 32.6144 22.0552 33.2297C22.0552 33.3916 22.0991 33.5445 22.1737 33.6884C22.1996 33.7386 22.252 33.8058 22.2567 33.863C22.2604 33.9122 22.216 33.9598 22.1742 33.9783C22.1303 33.9979 22.0805 33.9979 22.0324 33.9936C21.8488 33.9767 21.6721 33.891 21.5446 33.7577C21.4991 33.7101 21.4261 33.6196 21.4684 33.5514C21.5129 33.4799 21.5996 33.4535 21.6319 33.3704C21.6594 33.3006 21.6541 33.2281 21.6478 33.1556C21.6393 33.0599 21.6314 32.9636 21.6197 32.8683C21.5795 32.5377 21.5393 32.2076 21.4991 31.8769C21.461 31.5642 21.4224 31.2484 21.3145 30.9521C21.2351 30.7352 21.1108 30.5363 20.9515 30.3691C20.7849 30.1935 20.6008 30.176 20.3622 30.2009C19.9305 30.2453 19.5543 30.5029 19.2776 30.8257C18.9909 31.16 18.7972 31.5658 18.6565 31.9838C18.4449 32.6123 18.347 33.2736 18.3195 33.9344C18.2994 34.41 18.328 34.8862 18.3301 35.3618C18.3306 35.5205 18.3666 35.6506 18.4333 35.794C18.4661 35.8644 18.4862 35.9554 18.4348 36.0141C18.3835 36.0723 18.2915 36.0649 18.2163 36.0437C18.0973 36.0104 17.9852 35.9554 17.8809 35.8892C17.8344 35.8596 17.7883 35.8268 17.7571 35.7813C17.7254 35.7358 17.7106 35.6755 17.7312 35.6247C17.7455 35.5898 17.7741 35.5771 17.7968 35.5501C17.8248 35.5163 17.8344 35.4813 17.8434 35.4374C17.8645 35.338 17.8645 35.2359 17.8645 35.1348C17.8645 34.8417 17.8651 34.5391 17.8619 34.2423C17.8587 33.9407 17.8836 33.6461 17.9058 33.345L17.9047 33.3455Z" fill="#999999"/>
<path d="M18.0816 35.8903C18.035 35.8607 17.989 35.8279 17.9573 35.7824C17.9261 35.7369 17.9112 35.6766 17.9314 35.6258C17.9456 35.5909 17.9742 35.5782 17.997 35.5512C18.025 35.5173 18.0345 35.4824 18.0435 35.4385C18.0647 35.339 18.0647 35.2369 18.0647 35.1359C18.0647 34.8428 18.0647 34.5402 18.062 34.2434C18.0589 33.9418 18.0837 33.6471 18.1059 33.3461C18.1107 33.2842 18.1165 33.2228 18.125 33.1625C18.1853 32.7207 18.2726 32.2816 18.4091 31.8568C18.5689 31.359 18.7884 30.8733 19.1074 30.4564C19.4106 30.0601 19.8608 29.6697 20.3608 29.5618C20.4242 29.548 20.4893 29.5411 20.5544 29.5353C20.5025 29.529 20.4502 29.5263 20.3967 29.529C20.3168 29.5337 20.2375 29.5448 20.1592 29.5618C19.6592 29.6697 19.2085 30.0601 18.9053 30.4564C18.5863 30.8733 18.3668 31.359 18.207 31.8568C18.0705 32.2816 17.9832 32.7207 17.9229 33.1625C17.9144 33.2228 17.9086 33.2842 17.9038 33.3461C17.8816 33.6471 17.8568 33.9418 17.8599 34.2434C17.8631 34.5402 17.8631 34.8428 17.8626 35.1359C17.8626 35.2369 17.8626 35.339 17.8414 35.4385C17.8319 35.4829 17.8229 35.5178 17.7949 35.5512C17.7721 35.5782 17.7435 35.5909 17.7293 35.6258C17.7086 35.6771 17.7234 35.7374 17.7552 35.7824C17.7869 35.8279 17.8324 35.8607 17.879 35.8903C17.9832 35.9564 18.0954 36.0115 18.2144 36.0448C18.2758 36.0622 18.3472 36.0681 18.3996 36.0384C18.2869 36.0046 18.18 35.9533 18.0811 35.8903H18.0816Z" fill="#CCCCCC"/>
<path d="M21.7453 33.7577C21.6998 33.7101 21.6268 33.6196 21.6692 33.5513C21.7136 33.4799 21.8004 33.4535 21.8326 33.3704C21.8601 33.3006 21.8548 33.2281 21.8485 33.1551C21.84 33.0593 21.8321 32.963 21.8205 32.8678C21.7803 32.5371 21.74 32.207 21.6998 31.8764C21.6617 31.5637 21.6231 31.2478 21.5147 30.9516C21.4353 30.7347 21.311 30.5357 21.1517 30.3686C20.9957 30.2045 20.8243 30.1792 20.6084 30.1966C20.7348 30.2114 20.8459 30.259 20.9496 30.3686C21.1084 30.5357 21.2332 30.7347 21.3126 30.9516C21.4205 31.2473 21.4596 31.5632 21.4972 31.8764C21.5374 32.207 21.5776 32.5371 21.6178 32.8678C21.6295 32.9636 21.6379 33.0593 21.6459 33.1551C21.6522 33.2276 21.657 33.3 21.63 33.3704C21.5977 33.4535 21.511 33.4794 21.4665 33.5513C21.4242 33.6196 21.4972 33.7101 21.5427 33.7577C21.6702 33.891 21.8469 33.9767 22.0305 33.9936C22.0749 33.9979 22.121 33.9963 22.1628 33.9804C22.0051 33.9502 21.8559 33.8735 21.7448 33.7577H21.7453Z" fill="#CCCCCC"/>
<path d="M19.7852 27.1921C19.8254 28.1143 19.845 29.0374 19.8519 29.9601C20.0815 29.9099 20.3206 29.8892 20.5656 29.903C20.5523 28.2418 20.4984 26.58 20.3619 24.9241C20.272 23.8347 20.1471 22.7481 19.9773 21.6688C19.2906 17.3105 17.6971 11.4327 14.0037 8.1806L13.5308 8.71812C17.0632 11.829 18.6017 17.5385 19.2699 21.7804C19.5519 23.5718 19.7069 25.3817 19.7852 27.1926V27.1921Z" fill="#4D4D4D"/>
<path d="M23.453 5.42741C23.0467 5.91943 22.5256 6.30511 21.977 6.63048C20.5496 7.47749 18.8587 7.94729 17.215 7.71927C16.3605 7.60076 15.541 7.29973 14.6914 7.15318C14.0909 7.04949 13.4772 7.02568 12.8704 7.07859C12.3466 7.12462 11.7625 6.95955 11.2589 6.813C10.9383 6.71936 10.6187 6.6035 10.2812 6.5908C9.88758 6.57599 9.69607 6.4797 9.4453 6.85162C9.14268 7.30079 9.10247 7.80339 9.06967 8.32556C9.00565 9.34928 9.31197 10.7624 10.2378 11.3629C10.8044 11.73 11.6467 11.8602 12.3064 11.7634C13.1846 11.6343 14.0285 11.265 14.712 10.6968C15.285 10.2206 15.7648 9.72226 16.4383 9.37626C17.0938 9.03926 17.8144 8.82764 18.5487 8.76203C18.8889 8.73188 19.2307 8.73188 19.5708 8.70119C19.9047 8.67104 20.2353 8.61125 20.5618 8.53507C21.1871 8.38852 21.8029 8.17902 22.3542 7.84942C22.9055 7.51982 23.3917 7.06536 23.6985 6.50086C24.2223 5.5364 24.1741 4.37301 24.0747 3.28052C24.1471 4.07621 23.9572 4.81795 23.453 5.42847V5.42741Z" fill="#4D4D4D"/>
<path d="M24.0908 3.87198C24.0765 4.0672 24.0262 4.25872 23.9797 4.44812C23.7612 5.33587 23.2437 6.1432 22.5459 6.73045C22.3063 6.93096 22.0449 7.10291 21.7693 7.24945C21.1323 7.59334 20.4234 7.81501 19.7377 8.01393C18.1643 8.46839 16.5391 8.77101 14.9011 8.79429C13.2632 8.81757 11.6093 8.55621 10.1021 7.91712C9.52012 7.67005 9.00852 6.98651 9.69418 6.50137C9.89998 6.35641 10.1523 6.29187 10.401 6.2543C10.7465 6.19875 11.0993 6.18976 11.448 6.22203C12.4236 6.31515 13.2954 6.786 14.2747 6.8934C14.7741 6.94736 15.2894 6.94366 15.7714 6.80029C17.1998 6.37757 17.4972 4.8867 18.2611 3.80532C18.5156 3.44556 18.8145 3.11067 19.1383 2.81176C19.7901 2.21234 20.5794 1.76476 21.4508 1.57483C22.2671 1.39601 22.985 1.58541 23.4665 2.04199C23.9051 2.45729 24.1468 3.0911 24.0913 3.87145L24.0908 3.87198Z" fill="url(#paint2_linear_33_4921)"/>
<path d="M24.0906 3.61855C24.0763 3.81377 24.026 4.00528 23.9795 4.19468C23.761 5.08243 23.2436 5.88977 22.5457 6.47702C22.3061 6.67753 22.0447 6.84947 21.7691 6.99602C21.1321 7.3399 20.4232 7.56158 19.7375 7.7605C18.1641 8.21496 16.5389 8.51757 14.9009 8.54085C13.263 8.56413 11.6092 8.30278 10.1019 7.66368C9.76436 7.52031 9.45222 7.23039 9.38186 6.91719C9.2861 7.31821 9.67442 7.73563 10.1019 7.9171C11.6092 8.55619 13.263 8.81755 14.9009 8.79427C16.5389 8.77099 18.1641 8.46837 19.7375 8.01392C20.4232 7.81499 21.1321 7.59332 21.7691 7.24943C22.0447 7.10289 22.3061 6.93094 22.5457 6.73043C23.2441 6.14319 23.761 5.33585 23.9795 4.4481C24.026 4.25817 24.0763 4.06665 24.0906 3.87196C24.099 3.75134 24.0985 3.63495 24.0927 3.52173C24.0916 3.554 24.0927 3.58521 24.0906 3.61855Z" fill="#999999"/>
<path d="M18.8418 25.5192C18.8116 25.8795 18.6243 26.2054 18.3328 26.4191C18.3302 26.4212 18.3275 26.4228 18.3249 26.4249C17.8196 26.7974 16.1457 26.7604 14.7554 26.189C15.8283 26.462 16.8906 26.4212 17.2668 26.1334C17.5138 25.9456 17.4699 25.8134 17.5218 25.7763C17.489 25.6282 17.6022 25.7763 17.6022 25.7763C17.6022 25.7763 17.7318 25.6002 17.6503 25.6557C17.7022 25.3901 18.3947 21.8857 15.5442 15.746C12.5794 9.3704 11.0784 8.84664 10.6695 6.10721C10.2902 3.57357 11.0605 0.173351 8.21045 0.0077572C11.8387 -0.191167 10.906 3.47781 11.334 6.17704C11.7689 8.9424 13.3581 9.47357 16.4965 15.9233C18.9042 20.8588 18.9518 24.2177 18.8423 25.5197L18.8418 25.5192Z" fill="#333333"/>
<path d="M17.7227 25.566C17.7026 25.7252 17.6206 25.8654 17.492 25.9622C17.4328 26.0072 17.3587 26.0633 17.2667 26.1336C16.8905 26.4214 15.8287 26.4617 14.7552 26.1892C14.2944 26.0014 13.8627 25.7506 13.5162 25.4406C12.1258 24.1867 11.61 23.0508 11.4106 21.0045C11.2116 18.9544 13.5162 19.1459 13.3982 18.5005C13.3247 18.0984 12.8819 16.9334 12.3549 15.7166C12.3475 15.7018 12.3401 15.6833 12.3327 15.6647C12.0893 15.1045 11.8312 14.5363 11.5804 14.031C11.5619 13.9866 11.5397 13.9427 11.518 13.8982C11.4698 13.8025 11.4222 13.7067 11.3741 13.6141C10.8688 12.6333 9.75886 11.881 8.61241 11.7006C7.8638 11.5789 7.10037 11.7043 6.48456 12.1688C4.93602 13.3411 6.16765 13.6845 6.04967 16.0737C5.9317 18.4634 4.43765 18.8412 2.03364 19.0703C0.919979 19.1734 0.616832 18.5936 0.14333 17.7402C-0.128075 17.2508 0.0391061 16.7191 0.208932 16.4536C0.525835 15.9594 2.11511 15.2367 2.55422 14.8976C2.9891 14.5548 3.58693 11.0297 3.91865 10.3472C4.24666 9.66528 7.28184 6.70788 7.79766 6.32802C8.23995 6.00001 8.8891 5.16992 7.62043 5.18474C7.4141 5.18844 7.15963 5.21436 6.8422 5.26568C6.41419 5.33552 6.04915 5.32494 5.73965 5.24716C4.39744 4.92286 4.0398 3.44415 3.94404 2.61037C3.82607 1.58876 3.94404 0.449714 7.91564 0.0328206C8.0114 0.0217105 8.10716 0.0143037 8.19974 0.00689697H8.21086C11.0614 0.17302 10.2906 3.57271 10.6704 6.10582C11.0799 8.84578 12.5803 9.36901 15.5451 15.7446C18.0417 21.1225 17.8454 24.6047 17.7232 25.5644L17.7227 25.566Z" fill="url(#paint3_linear_33_4921)"/>
<path d="M13.867 15.9504C14.238 15.7137 14.2237 15.0278 13.8349 14.4184C13.4462 13.8089 12.8303 13.5067 12.4593 13.7433C12.0884 13.9799 12.1027 14.6658 12.4914 15.2753C12.8802 15.8847 13.496 16.187 13.867 15.9504Z" fill="#999999"/>
<path d="M13.5034 15.8417C13.7652 15.6774 13.7308 15.1511 13.4264 14.6663C13.1221 14.1816 12.6631 13.9218 12.4013 14.0862C12.1395 14.2505 12.174 14.7768 12.4783 15.2616C12.7826 15.7463 13.2416 16.0061 13.5034 15.8417Z" fill="#EF4136" stroke="#EF4136" stroke-width="0.0666606" stroke-miterlimit="10"/>
<path d="M5.751 11.8986C6.13652 11.62 6.17277 11.0119 5.83198 10.5404C5.49119 10.0689 4.9024 9.91259 4.51689 10.1912C4.13137 10.4699 4.09511 11.078 4.4359 11.5495C4.77669 12.021 5.36548 12.1773 5.751 11.8986Z" fill="#999999"/>
<path d="M5.36866 11.8651C5.64658 11.6794 5.6645 11.2185 5.40866 10.8356C5.15283 10.4527 4.72013 10.2929 4.4422 10.4786C4.16427 10.6643 4.14636 11.1252 4.40219 11.5081C4.65803 11.891 5.09073 12.0508 5.36866 11.8651Z" fill="#EF4136" stroke="#EF4136" stroke-width="0.0666606" stroke-miterlimit="10"/>
<path d="M9.48989 10.1086C9.90328 9.79977 9.9403 9.15035 9.57256 8.65807C9.20482 8.16579 8.57158 8.01705 8.15819 8.32586C7.74479 8.63467 7.70778 9.28408 8.07552 9.77637C8.44326 10.2687 9.07649 10.4174 9.48989 10.1086Z" fill="#999999"/>
<path d="M9.06941 10.0844C9.36998 9.88108 9.39278 9.38978 9.12034 8.98708C8.8479 8.58438 8.38338 8.42278 8.08281 8.62613C7.78224 8.82948 7.75943 9.32078 8.03188 9.72347C8.30432 10.1262 8.76884 10.2878 9.06941 10.0844Z" fill="#18631E"/>
<path d="M8.13468 4.36926C8.70795 4.36926 9.17268 3.92585 9.17268 3.37888C9.17268 2.8319 8.70795 2.38849 8.13468 2.38849C7.56141 2.38849 7.09668 2.8319 7.09668 3.37888C7.09668 3.92585 7.56141 4.36926 8.13468 4.36926Z" fill="#999999"/>
<path d="M8.30413 4.24915C8.7725 4.24915 9.1522 3.88675 9.1522 3.4397C9.1522 2.99265 8.7725 2.63025 8.30413 2.63025C7.83575 2.63025 7.45605 2.99265 7.45605 3.4397C7.45605 3.88675 7.83575 4.24915 8.30413 4.24915Z" fill="#18631E"/>
<path d="M15.3393 24.8214C15.5456 24.7812 15.726 24.6299 15.8329 24.4452C15.9545 24.2347 15.9942 23.9866 16.0069 23.7437C16.0371 23.1702 15.9307 22.5983 15.8027 22.0381C15.7181 21.6682 15.6228 21.2678 15.3715 20.971C15.1292 20.6853 14.7663 20.5366 14.3991 20.5006C14.0838 20.4699 13.7637 20.4959 13.4505 20.4467C13.2469 20.4144 13.1215 20.3885 12.9289 20.4985C12.7797 20.5837 12.6564 20.7186 12.5951 20.8805C12.4691 21.2127 12.5935 21.6048 12.6972 21.9259C12.8231 22.3163 13.0083 22.6846 13.2162 23.0374C13.4738 23.4744 13.7648 23.8987 14.1272 24.2558C14.4229 24.5468 14.8086 24.8457 15.2499 24.8309C15.28 24.8299 15.3096 24.8267 15.3387 24.8209L15.3393 24.8214Z" fill="#808080"/>
<path d="M1.10205 18.176C1.02851 18.0469 1.02693 17.8808 1.07613 17.739C1.13274 17.5771 1.24701 17.4416 1.37134 17.3231C1.66443 17.0433 2.01943 16.8369 2.37813 16.6481C2.61514 16.5232 2.87332 16.3899 3.14737 16.3878C3.41137 16.3862 3.65843 16.5121 3.84625 16.692C4.00761 16.8465 4.14093 17.03 4.31129 17.175C4.42239 17.2692 4.49381 17.3247 4.52344 17.4781C4.54671 17.5972 4.53084 17.7252 4.47265 17.8321C4.35255 18.0522 4.08591 18.1664 3.86635 18.2585C3.59971 18.3707 3.3172 18.441 3.03309 18.4918C2.68075 18.5553 2.31993 18.5944 1.96229 18.5648C1.67078 18.5405 1.33325 18.4712 1.13803 18.2283C1.1248 18.2119 1.11263 18.1945 1.10258 18.176H1.10205Z" fill="#999999"/>
<defs>
<linearGradient id="paint0_linear_33_4921" x1="5.12113" y1="30.0929" x2="10.3466" y2="30.0929" gradientUnits="userSpaceOnUse">
<stop stop-color="#999999"/>
<stop offset="0.5" stop-color="#4D4D4D"/>
<stop offset="1" stop-color="#4D4D4D"/>
</linearGradient>
<linearGradient id="paint1_linear_33_4921" x1="17.4097" y1="35.303" x2="22.6357" y2="35.303" gradientUnits="userSpaceOnUse">
<stop stop-color="#999999"/>
<stop offset="0.5" stop-color="#4D4D4D"/>
<stop offset="1" stop-color="#4D4D4D"/>
</linearGradient>
<linearGradient id="paint2_linear_33_4921" x1="21.2148" y1="2.41761" x2="11.5787" y2="10.3534" gradientUnits="userSpaceOnUse">
<stop stop-color="#7F7F7F"/>
<stop offset="0.11" stop-color="#7F7F7F"/>
<stop offset="0.29" stop-color="#717171"/>
<stop offset="0.51" stop-color="#666666"/>
<stop offset="0.73" stop-color="#6E6E6E"/>
<stop offset="1" stop-color="#7F7F7F"/>
</linearGradient>
<linearGradient id="paint3_linear_33_4921" x1="-0.000572839" y1="13.1904" x2="17.7851" y2="13.1904" gradientUnits="userSpaceOnUse">
<stop stop-color="#7F7F7F"/>
<stop offset="0.11" stop-color="#7F7F7F"/>
<stop offset="0.29" stop-color="#717171"/>
<stop offset="0.51" stop-color="#666666"/>
<stop offset="0.73" stop-color="#6E6E6E"/>
<stop offset="1" stop-color="#7F7F7F"/>
</linearGradient>
</defs>
</svg>
