<svg width="270" height="434" viewBox="0 0 270 434" fill="none" xmlns="http://www.w3.org/2000/svg">
<path d="M166.492 87.9586C166.492 87.9586 152.206 97.1903 136.943 97.1903C121.68 97.1903 107.114 99.6278 102.448 101.684C97.7814 103.74 94.9922 112.137 94.9922 112.137L94.2949 99.2464C95.3379 97.9889 96.5954 96.9102 97.99 96.3201C102.972 94.264 118.617 91.8265 134.893 91.8265C149.667 91.8265 163.607 84.2635 166.116 82.8689L166.498 87.9586H166.492Z" fill="#247227"/>
<path d="M166.11 82.8677C163.6 84.2623 149.661 91.8253 134.886 91.8253C118.616 91.8253 107.304 94.4595 102.316 96.5156C100.921 97.1057 98.8534 97.7136 97.8105 98.9651L92.3394 63.8083C92.3394 63.8083 122.657 78.237 135.411 76.3537C148.165 74.5062 165.901 80.0845 165.901 80.0845L166.11 82.8737V82.8677Z" fill="#2F8E36"/>
<path d="M-19.322 112.527C-21.2471 111.8 -23.482 111.484 -26.3188 111.668C-33.1309 112.109 -39.5317 113.82 -45.2948 117.604C-48.4356 119.666 -51.3261 122.229 -53.8232 125.036C-55.1999 126.586 -56.4813 128.225 -57.6435 129.947C-58.3884 131.05 -59.3241 133.785 -60.3552 134.506C-57.6017 132.581 -54.8483 130.662 -52.0889 128.737C-58.2454 135.853 -61.9881 144.847 -63.7284 154.096C-64.5747 158.584 -63.943 163.316 -65.9514 167.404C-67.8943 171.356 -70.2842 175.015 -72.3701 178.877C-74.164 182.185 -76.673 185.021 -78.5861 188.287C-75.9579 186.154 -73.6455 183.627 -71.7503 180.82C-72.0304 185.135 -74.6884 188.865 -76.7803 192.65C-80.9939 200.278 -83.1633 209.021 -82.9904 217.735C-81.4647 213.634 -80.1655 209.457 -79.0927 205.213C-79.0987 211.972 -80.5946 219.028 -79.3967 225.661C-78.2762 231.877 -77.9782 238.564 -80.5946 244.464C-79.7245 242.498 -77.8829 241.329 -76.7744 239.553C-75.6658 237.777 -74.6229 235.715 -73.8004 233.778C-73.1627 235.525 -72.7813 237.36 -72.6681 239.22C-72.5966 240.406 -72.3224 243.064 -72.8945 244.107C-71.1185 240.871 -70.159 237.187 -70.1232 233.492C-68.6273 237.664 -68.2698 242.79 -67.9837 247.194C-67.6559 252.17 -68.228 257.182 -69.3306 262.034C-69.0207 260.663 -67.3817 258.947 -66.7381 257.624C-65.9752 256.05 -65.4567 254.393 -64.7654 252.802C-63.3768 249.608 -62.0716 246.133 -61.6484 242.629C-61.4339 240.877 -60.6412 239.351 -60.23 237.628C-59.5446 234.78 -57.5302 215.13 -57.125 212.228C-56.1714 205.398 -54.7291 198.574 -52.2141 192.131C-50.9864 188.985 -49.4964 170.789 -47.6668 167.947C-46.0398 165.426 -43.2923 163.113 -43.0479 159.925C-43.3102 163.286 -43.3281 166.665 -43.1016 170.027C-40.9084 164.889 -39.2873 159.502 -38.2861 154.007C-37.3444 148.851 -36.8974 143.446 -34.3049 138.893C-31.5932 134.131 -26.8314 129.864 -21.396 128.38C-18.8155 127.676 -15.7402 127.563 -13.1716 128.713C-10.1857 130.048 -8.77919 133.255 -5.89465 134.721C0.0353317 137.737 3.25362 129.351 -0.715599 125.394C-2.73596 123.379 -5.56091 122.444 -8.16533 121.282C-8.96394 120.924 -9.76852 120.531 -10.3526 119.881C-13.4636 116.418 -15.9131 113.82 -19.328 112.527H-19.322Z" fill="#282726"/>
<path d="M61.3615 324.154C60.2053 329.863 43.6251 325.954 42.5822 321.096C41.6227 316.632 43.2139 313.76 41.7717 309.654H41.7597C41.6465 309.296 41.4975 308.92 41.3127 308.545C39.1136 303.819 35.6033 279.878 34.2087 271.499C32.826 263.12 20.7277 238.917 24.3095 231.425C27.9032 223.928 20.531 200.417 21.3356 194.761C22.1222 189.111 3.56348 173.121 3.56348 131.742C3.56348 125.228 16.8836 108.147 32.1704 130.52C47.4454 152.893 48.6016 156.529 49.871 175.207C51.1524 193.873 50.6517 214.38 44.8588 238.398C44.8588 238.398 45.5561 257.797 47.8685 265.509C50.1928 273.233 46.0865 290.356 52.2192 301.477C53.727 304.212 55.1275 306.638 56.3493 308.813L56.3612 308.825C60.0801 315.476 62.2316 319.857 61.3615 324.16V324.154Z" fill="#A1A1A1"/>
<path d="M209.801 327.483C206.565 335.975 203.49 371.537 201.404 380.691C199.324 389.846 197.149 383.761 194.115 392.176C193.519 393.833 185.569 399.959 185.569 399.959C185.569 399.959 175.372 400.365 175.05 392.575C174.615 381.955 179.007 381.407 179.007 381.407C179.007 381.407 182.142 381.156 184.526 381.27C185.706 381.329 186.767 381.222 187.5 380.697C187.512 380.697 188.209 381.883 188.209 381.883C188.668 381.55 190.027 380.453 190.152 379.696C190.188 379.47 188.245 377.801 190.307 378.325C191.785 378.701 190.313 376.782 190.152 376.043C188.299 367.8 198.245 341.762 197.316 337.769C196.386 333.788 190.825 322.607 190.825 322.607C190.825 322.607 172.368 304.126 160.508 284.536C153.619 273.171 151.366 261.418 148.571 252.687C148.088 251.173 147.599 249.761 147.057 248.456C144.47 242.174 142.718 233.395 141.675 223.931C139.089 200.354 140.906 172.48 145.209 167.951C151.229 161.586 177.791 185.097 191.225 214.908C204.646 244.719 194.223 270.287 197.232 281.854C200.242 293.422 208.621 317.524 209.778 327.494L209.801 327.483Z" fill="#591C0A"/>
<path d="M185.574 399.953C185.574 399.953 194.853 395.078 195.449 393.421C198.483 385.012 201.469 391.043 203.549 381.883C205.634 372.729 207.178 339.682 210.414 331.195C210.265 329.89 209.973 328.269 209.586 326.427C205.932 330.188 200.444 332.184 195.443 332.566C196.313 334.622 197.04 336.535 197.327 337.763C198.25 341.756 186.396 368.158 188.25 376.4C188.411 377.145 188.488 377.783 188.488 378.325C188.488 378.599 188.464 378.849 188.429 379.082C188.303 379.839 187.97 380.351 187.511 380.685C187.511 380.685 187.511 380.697 187.499 380.697C186.766 381.222 185.699 381.329 184.525 381.269C182.147 381.156 179.006 381.406 179.006 381.406C179.006 381.406 174.614 381.955 175.049 392.575C175.371 400.37 185.568 399.959 185.568 399.959L185.574 399.953Z" fill="#D9D9D9"/>
<path d="M198.388 320.691C198.865 320.011 199.616 319.302 199.371 318.509C199.264 318.17 198.984 317.913 198.716 317.681C194.788 314.344 190.318 312.055 186.659 308.318C183.012 304.593 179.966 300.273 177.713 295.564C177.058 294.199 176.456 292.674 176.802 291.202C177.38 288.711 180.133 287.095 181.647 285.2C186.081 279.658 190.533 274.085 194.013 267.899C194.544 266.957 195.044 265.992 195.527 265.02C195.742 257.213 195.742 247.874 193.596 237.379C186.975 238.481 180.33 240.996 175.884 246.003C173.214 249.012 171.521 251.951 167.91 253.887C164.274 255.836 161.08 258.62 158.428 261.76C156.538 263.995 154.917 266.427 153.481 268.978C155.191 274.026 157.367 279.312 160.525 284.521C172.379 304.111 190.843 322.592 190.843 322.592C190.843 322.592 197.762 333.379 198.692 337.36C199.616 341.353 188.31 367.791 190.169 376.027C190.33 376.772 188.882 378.31 189.424 378.31C190.324 378.31 190.205 379.448 190.169 379.681C190.044 380.438 188.685 381.534 188.227 381.868C187.493 382.392 185.717 381.308 184.543 381.254C182.165 381.141 179.025 381.391 179.025 381.391C179.025 381.391 174.632 381.939 175.067 392.56C175.389 400.355 185.586 399.944 185.586 399.944C185.586 399.944 192.458 396.332 194.747 394.27C193.608 393.281 192.512 392.256 191.6 391.058C190.551 389.687 187.791 388.906 187.815 387.148C187.845 384.776 189.305 384.073 191.099 383.411C192.231 382.994 192.363 384.013 192.69 382.41C193.042 380.67 191.415 379.931 192.428 378.101C193.745 375.729 194.109 375.288 193.763 372.475C193.394 369.483 193.501 366.432 194.067 363.47C194.633 360.526 195.64 357.695 196.517 354.834C197.44 351.801 198.203 348.708 198.996 345.65C199.681 342.998 201.189 340.191 201.392 337.456C201.636 334.035 200.724 330.876 199.127 327.872C197.935 325.637 196.952 322.771 198.412 320.697L198.388 320.691Z" fill="#471505"/>
<path d="M185.575 399.952C185.575 399.952 192.447 396.341 194.735 394.279C193.597 393.289 192.5 392.264 191.589 391.066C190.54 389.696 188.609 389.064 188.627 387.3C188.656 384.928 190.945 384.421 192.745 383.754C193.877 383.337 194.008 384.356 194.336 382.753C194.688 381.012 193.061 380.273 194.074 378.444C195.391 376.072 195.755 375.631 195.409 372.818C195.039 369.826 195.147 366.774 195.713 363.812C196.279 360.868 197.286 358.037 198.162 355.177C199.086 352.143 199.42 348.645 200.212 345.587C200.898 342.935 202.298 340.253 202.495 337.518C202.644 335.48 201.249 333.471 200.671 331.594C198.937 332.112 197.167 332.428 195.451 332.559C196.321 334.615 197.048 336.528 197.334 337.756C198.258 341.749 186.404 368.151 188.257 376.393C188.418 377.138 188.495 377.776 188.495 378.318C188.495 378.593 188.472 378.843 188.436 379.075C188.311 379.832 187.977 380.345 187.518 380.679C187.518 380.679 187.518 380.69 187.506 380.69C186.773 381.215 185.706 381.322 184.532 381.263C182.154 381.149 179.013 381.4 179.013 381.4C179.013 381.4 174.621 381.948 175.056 392.568C175.378 400.364 185.575 399.952 185.575 399.952Z" fill="#BDBDBD"/>
<path d="M265.668 231.666C264.434 231.952 260.459 229.103 260.459 229.103C260.459 229.103 260.459 231.32 256.579 229.169C256.18 228.948 255.745 228.686 255.262 228.37C250.053 224.937 251.978 221.117 251.108 219.752C250.25 218.399 244.791 205.598 240.088 201.318C235.386 197.027 228.175 180.489 226.435 179.631C224.706 178.785 221.238 181.598 219.867 186.073C219.193 188.302 215.391 193.708 211.088 199.691C210.117 201.062 209.109 202.469 208.102 203.869C204.693 208.667 201.35 213.459 199.371 217.017C195.104 224.705 194.609 227.351 194.568 230.271C194.544 230.831 194.556 231.392 194.556 232.011C194.556 232.983 194.466 235.122 194.258 237.846C193.638 245.832 197.291 263.652 193.775 267.883C189.287 273.295 181.063 274.475 149.375 258.193C147.879 257.424 146.317 256.613 144.72 255.767C144.523 255.666 144.333 255.558 144.148 255.469C135.703 251.005 127.955 247.274 120.857 243.943C98.3468 233.346 82.4521 226.767 72.1417 214.043C58.5116 197.218 53.9226 185.901 47.6171 179.976C45.5014 177.998 40.7872 175.101 35.2685 171.347C31.2277 168.599 26.7639 165.387 22.592 161.71C15.4045 155.416 9.04542 147.806 7.10849 138.973C2.51946 117.983 1.53609 124.896 9.32553 119.872C17.1388 114.872 28.1644 111.266 61.9802 135.344C61.9802 135.344 75.3897 154.367 84.4426 160.583C93.4956 166.811 140.888 157.019 148.189 154.719C155.501 152.383 195.098 133.389 202.661 129.795C210.224 126.201 225.821 124.694 232.263 127.691C238.706 130.713 243.295 133.49 249.487 149.307C255.679 165.101 248.915 174.136 254.738 185.138C260.56 196.145 266.639 212.326 267.897 220.02C269.118 227.696 266.901 231.397 265.668 231.672V231.666Z" fill="#72301B"/>
<path d="M33.4933 163.432C33.4933 163.432 34.1786 166.489 35.2752 171.341C40.788 175.101 45.5022 177.998 47.612 179.976C53.9234 185.895 58.5124 197.224 72.1425 214.037C85.7665 230.867 109.171 236.94 144.721 255.761C180.271 274.582 189.067 273.539 193.776 267.877C197.286 263.646 193.639 245.826 194.252 237.834C194.252 237.834 188.853 256.905 177.809 259.718C166.772 262.519 151.527 250.88 151.527 250.88L138.475 217.982C138.475 217.982 139.715 236.869 140.924 239.866C142.122 242.858 135.155 241.845 135.155 241.845C135.155 241.845 107.323 239.896 86.7559 220.914C66.1946 201.932 56.2835 180.572 51.5752 177.855C46.867 175.137 33.4873 163.42 33.4873 163.42L33.4933 163.432Z" fill="#942F11"/>
<path d="M238.598 133.072C238.598 133.072 244.504 118.226 244.367 117.672C243.318 113.572 235.35 120.252 233.449 121.772C232.162 122.803 227.793 126.6 225.117 128.936C223.848 130.044 223.591 131.91 224.497 133.334C225.081 134.258 225.522 135.492 226.279 135.945C229.545 137.887 231.899 138.132 233.783 136.743C235.398 135.551 238.401 133.638 238.598 133.072Z" fill="#591C0A"/>
<path d="M194.579 266.702C190.896 275.522 162.444 295.827 137.282 304.087C133.814 305.232 130.405 306.137 127.145 306.751C127.133 306.751 127.121 306.763 127.097 306.763C126.447 306.888 125.804 306.99 125.178 307.097L120.863 243.941L117.466 194.254C117.466 194.254 153.022 207.873 175.735 217.426C176.396 217.7 177.052 217.974 177.689 218.248C187.416 222.379 194.341 225.597 194.258 226.384C194.198 226.878 194.335 228.261 194.568 230.263C195.509 238.78 198.066 258.37 194.579 266.702Z" fill="#72301B"/>
<path d="M125.482 179.078C125.482 179.078 130.625 212.185 135.155 224.843C139.684 237.502 148.237 257.604 148.237 257.604C148.237 257.604 141.15 256.168 138.927 254.696C136.704 253.224 136.853 250.464 136.853 250.464C136.853 250.464 125.476 218.496 122.997 204.556C120.518 190.616 119.791 175.031 119.791 175.031L125.476 179.072L125.482 179.078Z" fill="#942F11"/>
<path d="M61.3603 324.156C60.2041 329.865 43.624 325.955 42.581 321.098C41.6215 316.634 43.2128 313.762 41.7705 309.655C50.7638 314.828 56.6938 315.746 56.3481 308.809L56.3601 308.821C60.079 315.472 62.2304 319.853 61.3603 324.156Z" fill="#222021"/>
<path d="M21.1073 116.218C-29.4376 112.726 -32.203 148.967 -32.203 148.967C-32.203 148.967 -47.6805 202.277 -11.8086 195.698C24.0633 189.118 37.6219 157.65 34.9936 149.349C32.3594 141.052 21.1133 116.218 21.1133 116.218H21.1073Z" fill="#72301B"/>
<path d="M5.00525 123.336C-39.7229 118.681 -44.5921 153.594 -44.4252 172.695C-44.3239 184.394 -16.9566 211.416 -10.7763 210.701C25.4533 206.523 10.1605 173.506 7.52624 165.209C4.89201 156.913 5.00525 123.336 5.00525 123.336Z" fill="#72301B"/>
<path d="M256.588 229.17C256.302 234.981 253.304 239.171 252.285 239.403C251.052 239.689 247.076 236.828 247.076 236.828C247.076 236.828 247.076 238.593 244.341 237.472C243.691 237.198 242.887 236.763 241.879 236.101C236.671 232.668 235.187 230.815 234.316 229.462C233.458 228.115 224.59 217.262 219.888 212.995C217.635 210.933 212.772 207.25 208.111 203.877C203.051 200.194 198.26 196.886 197.354 196.439C195.626 195.581 192.157 198.406 190.786 202.881C190.303 204.473 184.826 210.593 177.693 218.264C176.62 219.432 175.493 220.636 174.337 221.857C165.505 231.333 155.111 242.288 148.656 249.874C148.591 249.946 148.531 250.011 148.472 250.083C148.347 250.22 148.221 250.369 148.102 250.506C146.475 252.431 145.116 254.124 144.145 255.483C143.609 256.228 143.185 256.865 142.887 257.408C137.798 266.562 138.06 268.564 138.06 272.396C138.06 273.38 137.971 275.507 137.762 278.231C137.142 286.217 135.497 299.347 131.981 303.578C130.765 305.032 129.293 306.188 127.142 306.772C127.13 306.772 127.118 306.784 127.094 306.784C123.089 307.851 116.795 306.957 105.704 302.404C104.065 301.742 102.337 300.997 100.484 300.151C95.4952 297.922 89.6903 295.05 82.92 291.468C67.0253 283.058 56.9175 275.251 49.3903 267.676C49.3903 267.676 49.3784 267.664 49.3664 267.664C40.0751 258.313 34.6815 249.332 27.1543 240.029C13.5362 223.216 8.94719 211.887 2.62981 205.975C0.526009 203.996 -4.20009 201.1 -9.70693 197.333C-20.6908 189.847 -34.8274 197.083 -37.8669 183.107C-42.4559 162.117 -43.4512 150.882 -35.6439 145.87C-27.8426 140.858 -16.817 137.264 17.0108 161.342C17.0108 161.342 19.2397 161.431 22.5951 161.729C30.0329 162.415 42.9776 164.179 49.2115 168.47C58.2644 174.698 79.0879 192.72 86.3946 190.408C93.7072 188.071 166.005 150.203 173.574 146.615C181.137 143.021 196.734 141.502 203.177 144.511C209.619 147.521 214.208 150.316 220.4 166.116C226.593 181.909 235.496 190.104 241.307 201.1C247.13 212.107 255.134 217.751 256.38 225.439C256.582 226.744 256.642 228.002 256.582 229.194L256.588 229.17Z" fill="#72301B"/>
<path d="M232.76 171.154C234.768 172.852 236.443 174.974 237.671 177.721C238.863 180.367 239.524 183.216 240.305 186.011C242.081 192.37 244.489 198.557 247.48 204.439C248.976 207.383 250.615 210.25 252.397 213.033C253.172 214.249 253.893 215.608 255.008 216.49C256.241 217.461 257.833 217.944 259.072 218.933C261.599 220.948 264.609 227.313 262.761 230.459C261.021 233.421 256.063 233.684 253.071 234.184C248.696 234.917 242.784 233.976 238.523 232.772C235.293 231.86 231.306 225.388 229.041 222.956C225.489 219.148 221.943 215.339 218.391 211.537C216.001 208.974 213.516 206.227 212.818 202.794C212.657 202.013 218.224 203.622 218.581 203.771C219.511 204.165 220.238 204.558 220.965 205.16C223.826 207.52 227.468 209.338 230.638 211.34C230.787 211.436 230.942 211.531 231.121 211.567C231.592 211.668 232.045 211.299 232.295 210.887C232.98 209.785 232.831 208.384 232.659 207.103C231.812 200.756 230.304 194.802 225.96 189.939C222.217 185.749 218.087 181.756 215.655 176.696C214.725 174.759 214.046 172.614 214.29 170.48C214.535 168.341 215.864 166.231 217.908 165.557C219.642 164.985 221.526 165.504 223.248 166.112C226.848 167.381 230.096 168.901 232.76 171.154Z" fill="#6B220C"/>
<path d="M133.321 293.418C114.232 294.694 93.4915 294.592 78.0676 283.275C73.8779 280.199 58.3288 278.34 51.6657 268.822C43.2624 256.825 33.3096 237.742 26.2771 224.893C23.0826 219.058 21.8311 211.763 20.7404 205.166C19.5246 197.788 14.9237 190.135 12.9689 182.9C11.2822 176.636 8.82085 166.594 1.57376 159.824C2.67036 165.211 4.1901 177.101 2.05054 182.042C1.36517 183.621 -5.00585 181.458 -5.55415 183.091C-5.99517 184.408 -6.03093 185.832 -5.95941 187.221C-5.6495 193.234 -2.43718 197.49 -1.02471 203.139C0.530794 204.218 1.80022 205.16 2.64055 205.946C8.95793 211.865 13.547 223.194 27.1651 240.001C40.7951 256.837 47.3866 272.613 82.9308 291.44C109.261 305.368 120.912 308.413 127.105 306.762C127.129 306.762 127.14 306.75 127.152 306.75C128.446 306.399 129.471 305.827 130.365 305.123C132.951 301.643 134.429 297.501 133.333 293.406L133.321 293.418Z" fill="#591C0A"/>
<path d="M247.403 234.435C246.92 235.83 245.699 236.873 244.334 237.469C243.678 237.195 242.88 236.76 241.872 236.098C236.664 232.665 235.18 230.812 234.309 229.459C233.451 228.106 224.583 217.259 219.881 212.992C217.628 210.93 212.765 207.247 208.104 203.874C204.695 208.671 201.352 213.463 199.373 217.021C195.106 224.709 194.611 227.355 194.57 230.275C195.511 238.792 198.068 258.382 194.582 266.714C190.898 275.534 162.446 295.839 137.284 304.099C138.816 296.214 140.967 288.443 143.095 280.683C143.619 278.806 144.15 276.905 145.008 275.159C148.03 268.996 149.919 262.208 149.502 255.223C151.123 257.202 153.227 258.775 155.587 259.764C158.227 260.873 161.338 261.219 163.912 259.973C165.069 259.413 166.064 258.566 166.898 257.589C169.354 254.728 170.397 250.712 169.652 247.01C168.591 241.736 164.33 237.785 160.313 234.203C159.794 233.744 159.234 233.154 159.341 232.475C159.455 231.777 160.194 231.396 160.843 231.122C163.948 229.805 167.029 228.356 169.699 226.306C171.815 224.685 173.687 222.659 174.884 220.257C176.088 217.843 177.763 215.745 179.062 213.338C181.887 208.117 183.675 202.407 186.524 197.199C188.818 193.009 193.545 187.103 198.92 188.861C203.986 190.518 207.8 195.798 211.09 199.696C212.568 201.448 213.867 202.98 214.922 203.903C216.442 205.244 218.206 206.341 219.547 207.873C221.299 209.887 222.169 212.497 223.528 214.798C224.5 216.437 225.715 217.921 226.919 219.387C229.232 222.2 231.61 225.084 234.792 226.884C238.112 228.75 242.021 229.262 245.848 229.358C245.275 230.639 247.189 231.67 247.522 233.029C247.647 233.488 247.564 233.976 247.409 234.435H247.403Z" fill="#591C0A"/>
<path d="M70.9106 246.676C84.5465 256.658 91.9248 245.597 92.1751 238.636C92.9618 216.37 90.8341 201.393 95.3636 188.782C100.733 173.841 124.692 157.529 139.74 157.029L154.789 156.534C154.789 156.534 127.928 163.62 103.975 157.082C90.7328 153.465 79.0278 137.933 71.7032 133.088C61.4404 133.595 36.8325 141.134 21.7423 163.286C19.6266 166.391 18.0473 170.027 16.8613 173.686C13.3331 184.622 16.3547 196.596 24.5017 204.701C30.3602 210.53 37.8397 218.45 45.1941 227.586C53.055 237.349 63.9316 241.568 70.9046 246.676H70.9106Z" fill="#282726"/>
<path d="M101.096 163.161C100.977 163.298 100.852 163.429 100.733 163.549C98.778 165.503 96.245 166.749 93.8671 168.161C92.2997 169.097 90.7799 170.116 89.1708 170.986C87.4782 171.904 85.6903 172.649 83.8368 173.18C82.0965 173.68 79.2299 174.479 77.5373 173.561C76.2142 172.84 74.8375 171.547 73.6694 170.569C73.1568 170.146 72.6622 169.377 72.2092 168.382C69.5929 162.732 68.0374 149.489 69.7419 146.2C70.6061 144.519 71.655 142.91 72.978 141.557C73.6038 140.913 74.3726 140.49 75.0342 139.906C75.8447 139.185 75.9758 138.661 77.1976 138.589C78.9795 138.488 80.7258 138.094 82.466 137.701C83.0143 137.576 83.5745 137.451 84.1228 137.331C84.3374 137.278 84.5877 137.23 84.7784 137.349C84.9512 137.457 85.0287 137.659 85.0943 137.844C85.7856 139.692 86.4233 141.76 88.1219 142.874C89.4986 143.78 90.7501 144.93 92.0136 145.991C95.3809 148.834 98.468 152.279 102.032 154.835C104.809 156.832 103.033 160.956 101.096 163.155V163.161Z" fill="#263542"/>
<path d="M83.1274 139.625C89.4686 140.793 95.7502 144.571 101.263 147.855C107.408 151.515 113.224 155.686 119.029 159.846C120.811 161.128 119.095 161.926 117.938 162.564C115.99 163.643 114.142 164.942 112.42 166.348C111.198 167.344 110.149 168.53 108.951 169.537C107.884 170.431 106.353 170.753 105.024 171.212C101.269 172.511 97.6216 173.941 93.7894 175.02C91.8108 175.58 89.7845 176.361 87.7998 176.826C85.9583 177.255 83.4254 176.42 81.5838 176.099C75.9101 175.109 69.8967 173.846 64.8487 170.961C61.6662 169.144 58.7042 166.182 59.8067 162.218C60.516 159.673 62.59 157.492 64.6401 155.925C65.8559 154.995 66.2254 154.387 66.7261 152.861C67.2267 151.33 67.5723 149.744 67.7511 148.141C67.924 146.592 67.9776 144.923 68.9073 143.671C69.5331 142.831 70.4807 142.301 71.4104 141.83C72.8706 141.091 74.3665 140.435 75.9041 139.875C78.1808 139.041 80.66 139.166 83.1333 139.619L83.1274 139.625Z" fill="#CECECE"/>
<path d="M59.8726 210.383C49.7171 245.278 52.0832 267.615 59.0084 276.185C65.3139 280.84 67.4535 282.294 67.4535 282.294C67.4535 282.294 59.3958 274.093 58.7581 259.098C58.1264 244.104 59.6342 226.558 65.1649 212.839C63.8299 204.841 59.8726 210.383 59.8726 210.383Z" fill="#1E1D1B"/>
<path d="M148.662 249.859C148.638 250.777 148.614 251.724 148.596 252.672C148.399 259.388 147.911 266.749 146.82 273.489C143.411 294.67 129.561 322.705 124.995 333.534C120.186 344.947 105.119 386.618 104.148 390.313C103.6 392.429 105.596 405.719 108.409 412.561C108.821 413.58 110.841 413.979 111.353 414.957C113.433 418.884 116.115 422.579 117.462 427.204C118.386 436.495 95.0117 433.533 94.5528 428.748C94.5051 428.277 94.4753 427.776 94.4515 427.258C94.1773 422.52 94.5528 416.262 94.5528 416.262C94.5528 416.262 94.4396 415.767 94.2429 414.945C94.231 414.945 94.231 414.933 94.231 414.933C93.5694 412.132 92.0199 405.433 91.3107 400.516C90.381 394.145 96.6685 391.934 99.4518 379.985C99.5531 379.538 102.962 354.667 103.081 354.101C104.214 348.618 99.714 336.532 101.466 324.708C102.521 317.58 101.83 308.652 100.495 300.129C98.0929 284.735 93.6171 270.629 93.6171 270.629C93.6171 270.629 94.6362 261.278 96.901 250.532C99.708 237.152 104.44 221.627 111.526 219.291C124.96 214.875 135.443 219.488 141.701 223.916C145.926 226.902 148.233 229.822 148.233 229.822C148.233 229.822 148.84 238.63 148.656 249.859H148.662Z" fill="#72301B"/>
<path d="M120.853 344.047C114.434 347.224 104.195 343.779 100.983 336.484C101.281 343.886 102.342 350.383 101.591 354.018C101.478 354.578 97.5143 378.155 97.413 378.602C94.6298 390.552 90.3864 394.151 91.3162 400.528C92.0254 405.451 93.569 412.144 94.2365 414.945C94.2365 414.945 94.2365 414.957 94.2484 414.957C94.445 415.779 94.5583 416.274 94.5583 416.274C94.5583 416.274 94.1828 422.532 94.457 427.27C94.4808 427.782 94.5166 428.289 94.5583 428.76C95.0172 433.545 118.397 436.507 117.468 427.216C116.115 422.591 113.439 418.896 111.359 414.969C110.846 413.997 110.364 413.026 109.952 412.007C107.139 405.165 106.186 398.114 106.74 395.999C107.497 393.126 114.869 361.974 120.865 344.059L120.853 344.047Z" fill="#D9D9D9"/>
<path d="M102.211 426.381C99.5654 426.703 96.9788 426.989 94.4519 427.263C94.1777 422.525 94.5532 416.268 94.5532 416.268C94.5532 416.268 94.4399 415.773 94.2433 414.95C94.2313 414.95 94.2314 414.938 94.2314 414.938C93.5698 412.137 93.8916 404.872 93.1824 399.956C92.2527 393.585 95.5783 391.022 98.3615 379.072C98.4628 378.626 102.355 355.126 102.474 354.566C103.606 349.083 99.7143 336.538 101.467 324.719C102.521 317.591 101.83 308.664 100.495 300.141C95.5068 297.912 89.7019 295.04 82.9316 291.458C67.0369 283.048 56.9291 275.241 49.4019 267.666C60.6182 275.897 87.6935 282.774 88.7126 269.752C89.684 257.243 97.6165 240.722 100.078 235.859C99.1959 237.873 97.7119 242.313 96.9073 250.55C96.657 253.101 96.4722 256.009 96.3948 259.329C96.0729 273.048 102.909 289.199 105.722 302.4C106.866 307.734 107.349 312.585 106.443 316.614C103.284 330.619 106.294 329.052 107.611 346.788C108.916 364.525 99.3627 388.274 99.2793 391.993C99.2078 395.712 96.7821 396.505 96.4186 402.226C96.061 407.948 99.9289 412.239 102.223 426.393L102.211 426.381Z" fill="#591C0A"/>
<path d="M97.4498 401.756C97.8134 396.035 99.8636 395.582 99.9291 391.863C100.007 388.144 109.864 365.604 108.559 347.868C108.475 346.705 107.421 344.542 107.319 343.535C104.596 341.854 102.271 339.411 100.978 336.484C101.187 341.747 101.783 346.539 101.842 350.18C101.842 350.251 101.842 350.317 101.842 350.389C101.854 351.259 101.83 352.057 101.759 352.778C101.753 352.862 101.741 352.945 101.735 353.029C101.693 353.374 101.651 353.708 101.586 354.018C101.473 354.578 97.5094 378.155 97.4081 378.602C94.6249 390.552 90.3815 394.151 91.3113 400.528C92.0205 405.451 93.5641 412.144 94.2316 414.945C94.2316 414.945 94.2316 414.957 94.2435 414.957C94.4401 415.779 94.5534 416.274 94.5534 416.274C94.5534 416.274 94.1779 422.532 94.4521 427.27C96.979 426.996 99.5656 426.71 102.212 426.388C99.9231 412.233 97.0923 407.489 97.4498 401.768V401.756Z" fill="#C4C4C4"/>
<path d="M142.029 150.472C145.17 151.002 148.448 150.686 151.428 149.56C150.677 149.846 149.729 151.079 148.919 151.52C147.989 152.027 147.011 152.486 146.058 152.945C143.793 154.03 141.433 154.9 139.007 155.555C134.061 156.89 128.864 157.307 123.774 156.741C125.067 157.403 126.355 158.07 127.648 158.732C127.356 159.56 126.277 159.727 125.395 159.757C122.201 159.864 119.012 159.971 115.818 160.079C116.104 160.329 116.402 160.567 116.7 160.806C123.452 166.062 133.012 167.111 141.207 164.513C139.127 166.426 136.606 167.862 133.9 168.685C136.397 169.155 138.936 168.41 141.421 167.886C144.842 167.165 148.597 167.076 151.898 165.895C154.396 165.002 156.97 163.565 159.426 162.451C165.35 159.751 170.773 155.966 175.326 151.318C172.758 154.816 169.957 158.142 166.947 161.265C173.509 158.118 179.23 153.249 183.384 147.271C184.266 145.996 185.094 144.667 186.185 143.57C191.4 138.349 200.477 136.585 207.545 136.293C209.118 136.228 210.596 136.502 212.122 136.836C213.451 137.128 214.726 136.782 215.972 137.581C216.943 138.206 217.653 139.16 218.284 140.131C219.387 141.83 220.317 143.648 221.05 145.537C221.229 143.665 221.485 141.8 221.825 139.947C221.795 140.125 222.766 141.001 222.909 141.168C223.314 141.633 223.72 142.104 224.107 142.587C224.882 143.54 225.609 144.536 226.241 145.59C226.861 146.633 227.319 147.718 227.707 148.862C228.112 150.048 228.16 151.395 228.327 152.641C229.465 150.579 230.162 148.272 230.359 145.924C231.414 148.171 233.16 150.025 234.406 152.176C235.884 154.739 236.617 157.653 237.332 160.526C237.266 160.269 237.535 159.673 237.588 159.405C237.684 158.958 237.773 158.505 237.856 158.052C238.023 157.147 238.154 156.241 238.262 155.323C238.452 153.684 238.715 151.926 238.452 150.287C239.966 152.152 241.343 154.131 242.559 156.199C242.535 152.45 241.343 148.809 239.96 145.322C239.317 143.701 238.625 142.086 237.648 140.644C236.813 139.416 235.782 138.331 234.608 137.432C235.3 137.461 235.955 137.378 236.623 137.622C237.856 138.069 239.03 138.671 240.121 139.404C240.258 139.5 240.413 139.619 240.467 139.768C240.485 139.821 240.497 139.881 240.485 139.941C240.532 139.684 240.032 138.963 239.912 138.725C239.698 138.29 239.465 137.861 239.233 137.438C238.768 136.603 238.22 135.864 237.695 135.071C236.396 133.093 235.222 130.828 233.685 129.028C229.751 124.433 224.936 122.014 219.012 120.947C212.944 119.85 206.651 119.88 200.483 120.345C203.695 121.281 206.901 122.216 210.114 123.152C199.97 123.283 189.6 123.45 180.07 126.924C183.247 126.686 186.423 126.442 189.6 126.203C182.55 129.076 175.755 132.527 168.335 134.201C164.772 135.006 161.309 136.287 158.079 138.004C160.165 138.26 162.304 138.093 164.319 137.509C163.127 137.855 161.762 139.106 160.635 139.708C159.366 140.388 157.983 140.936 156.821 141.782C152.107 145.203 147.846 149.178 142.041 150.466L142.029 150.472Z" fill="#282726"/>
<path d="M231.324 144.409C230.835 137.805 224.089 133.747 218.153 130.82C220.912 130.892 223.654 131.673 226.044 133.061C217.289 126.184 204.767 128.097 193.867 130.35C195.297 127.906 198.14 126.368 200.971 126.5C197.961 125.326 194.946 124.652 191.858 124.134C187.836 124.676 183.872 125.528 180.046 126.923C183.223 126.684 186.399 126.44 189.576 126.202C182.525 129.074 175.731 132.525 168.311 134.2C164.747 135.004 161.285 136.286 158.055 138.002C160.141 138.258 162.28 138.091 164.294 137.507C163.103 137.853 161.738 139.105 160.611 139.706C159.342 140.386 157.959 140.934 156.797 141.775C152.083 145.195 147.822 149.171 142.017 150.458C145.158 150.988 148.435 150.672 151.415 149.546C150.664 149.832 149.717 151.066 148.906 151.507C147.977 152.013 146.999 152.472 146.046 152.931C143.781 154.016 141.421 154.886 138.995 155.542C134.049 156.877 128.852 157.294 123.762 156.728C125.055 157.389 126.343 158.057 127.636 158.718C127.344 159.547 126.265 159.713 125.383 159.743C122.189 159.851 119 159.958 115.806 160.065C116.092 160.315 116.39 160.554 116.688 160.792C123.44 166.049 133 167.098 141.194 164.499C139.108 166.412 136.593 167.849 133.888 168.671C136.385 169.136 138.924 168.397 141.409 167.872C144.83 167.151 148.584 167.062 151.886 165.882C154.389 164.988 156.958 163.552 159.413 162.437C165.331 159.737 170.761 155.953 175.314 151.304C172.745 154.803 169.944 158.128 166.935 161.251C173.496 158.104 179.218 153.235 183.372 147.258C184.254 145.982 185.082 144.653 186.173 143.556C191.388 138.336 200.464 136.572 207.533 136.28C209.106 136.214 210.584 136.488 212.11 136.822C213.439 137.114 214.714 136.768 215.96 137.567C216.931 138.193 217.641 139.146 218.272 140.118C219.381 141.816 220.305 143.634 221.038 145.523C221.216 143.652 221.473 141.786 221.812 139.933C221.783 140.112 222.754 140.988 222.897 141.155C223.302 141.62 223.708 142.09 224.095 142.573C224.87 143.527 225.597 144.522 226.229 145.583C226.848 146.626 227.307 147.71 227.695 148.855C228.1 150.041 228.148 151.388 228.314 152.633C229.453 150.571 230.15 148.265 230.347 145.917C230.573 146.405 230.847 146.864 231.128 147.323C231.306 146.358 231.39 145.38 231.318 144.397L231.324 144.409Z" fill="#191918"/>
<path d="M210.687 149.26C210.687 149.26 217.743 134.467 215.401 131.207C213.887 129.098 205.692 136.202 204.268 138.168C202.838 140.135 194.512 146.733 194.065 150.517C193.755 153.122 199.214 155.452 201.36 155.714C203.738 156.006 204.018 152.704 205.555 151.423C207.522 149.778 210.448 149.951 210.687 149.26Z" fill="#591C0A"/>
<path d="M222.104 176.356C222.104 176.356 225.579 172.977 228.153 174.336C233.296 177.047 232.736 180.826 232.736 180.826C232.736 180.826 229.435 181.392 227.432 180.486C225.37 179.556 223.26 177.935 222.11 176.356H222.104Z" fill="#1E1D1B"/>
<path d="M239.15 218.033C239.15 218.033 247.035 233.249 247.553 234.685C248.072 236.121 247.082 236.831 247.082 236.831L242.994 228.785L239.156 218.892V218.039L239.15 218.033Z" fill="#050507"/>
<path d="M39.2228 155.664C39.2228 155.664 31.9578 159.013 34.9258 163.781C37.8998 168.549 47.8109 176.923 51.941 179.306C56.0711 181.69 73.2651 199.808 77.8899 200.583C82.5147 201.358 82.3895 195.976 82.3895 195.976C82.3895 195.976 85.1608 189.426 85.4886 186.583C85.8164 183.741 84.0046 179.849 84.0046 179.849C84.0046 179.849 74.0935 172.232 66.8285 169.932C59.5636 167.631 47.3222 153.513 45.8322 153.03C44.3482 152.553 39.2228 155.658 39.2228 155.658V155.664Z" fill="#560607"/>
<path d="M44.8541 192.123C44.8541 192.123 38.4116 208.876 52.6197 217.267C66.8219 225.658 74.7544 215.449 76.4052 212.046C78.0561 208.643 76.4052 197.433 76.4052 197.433L53.9249 176.281L44.8541 192.129V192.123Z" fill="#1E1D1B"/>
<path d="M208.021 206.637C202.675 205.63 192.758 199.033 192.907 187.661C193.056 176.755 198.104 159.942 198.319 159.233L198.539 158.506L199.29 158.423C199.41 158.411 202.282 158.113 213.671 158.399C223.267 158.643 242.844 156.271 248.19 145.585L250.241 146.61C244.4 158.297 224.488 160.967 213.618 160.687C205.471 160.485 201.722 160.586 200.292 160.652C199.296 164.084 195.321 178.388 195.196 187.691C195.065 197.578 203.909 203.532 208.445 204.384L208.021 206.631V206.637Z" fill="#1E1D1B"/>
<path d="M228.779 211.111C219.249 199.508 211.204 183.22 205.876 172.438C203.372 167.372 200.786 162.128 199.934 161.526C199.302 161.103 198.366 160.751 197.365 160.382C195.732 159.774 193.884 159.088 192.669 157.759C191.203 156.156 190.976 153.963 191.989 151.233L194.135 152.032C193.199 154.541 193.813 155.62 194.361 156.216C195.202 157.134 196.709 157.694 198.164 158.236C199.29 158.659 200.357 159.053 201.215 159.637C202.484 160.501 204.189 163.874 207.926 171.431C213.206 182.117 221.18 198.262 230.543 209.663L228.773 211.117L228.779 211.111Z" fill="#1E1D1B"/>
<path d="M225.597 216.829C225.209 216.46 216.002 207.58 210.262 195.219C204.642 183.121 197.538 161.201 197.24 160.271L201.597 158.865C201.668 159.091 208.909 181.446 214.416 193.288C219.78 204.838 228.678 213.432 228.767 213.516L225.603 216.823L225.597 216.829Z" fill="#1E1D1B"/>
<path d="M226.277 220.42L224.144 219.592L224.525 218.608C229.072 206.838 229.573 206.438 242.369 204.376C251.463 202.91 257.512 198.84 258.788 195.58C259.127 194.709 259.08 194.018 258.639 193.458L260.439 192.045C261.38 193.243 261.553 194.799 260.915 196.414C259.449 200.163 253.132 204.96 242.726 206.635C234.812 207.91 229.454 212.176 226.653 219.431L226.271 220.414L226.277 220.42Z" fill="#1E1D1B"/>
<path d="M168.796 244.846C159.111 244.846 148.372 242.557 136.75 236.395C110.736 222.604 100.205 200.398 91.7417 182.548L93.8097 181.571C102.124 199.11 112.476 220.941 137.823 234.374C171.311 252.122 197.397 236.556 211.414 228.188C215.193 225.935 217.916 224.302 219.853 223.903C227.38 222.335 227.482 218.748 227.672 211.608V211.483L229.967 211.548V211.673C229.764 218.95 229.621 224.207 220.324 226.15C218.763 226.478 216.039 228.105 212.588 230.161C203.017 235.87 187.974 244.858 168.796 244.858V244.846Z" fill="#1E1D1B"/>
<path d="M196.06 156.656C196.06 158.766 197.55 161.34 199.391 162.401C201.233 163.462 202.723 162.616 202.723 160.5C202.723 158.384 201.233 155.816 199.391 154.755C197.55 153.694 196.06 154.546 196.06 156.656Z" fill="#C0BFBD"/>
<path d="M-43.5413 254.851C-43.5413 261.615 -37.3849 295.234 -37.3849 297.725C-37.3849 300.217 -38.6543 317.715 -38.398 321.982C-38.1418 326.249 -35.442 329.998 -35.442 329.998C-35.442 329.998 -33.8686 338.413 -34.1308 341.059C-34.3752 343.705 -32.0807 349.075 -30.9304 350.762C-29.7802 352.46 -27.1281 359.785 -27.1281 359.785C-27.1281 359.785 -13.6888 357.693 -13.6888 355.196C-13.6888 353.408 -16.0429 345.368 -18.5043 338.747C-19.4876 336.106 -21.5021 335.075 -21.6451 334.664C-22.1576 333.192 -22.6106 327.667 -22.3543 324.717C-22.098 321.779 -24.1244 316.433 -24.8932 311.725C-25.662 307.023 -24.8097 288.065 -23.9038 285.639C-23.0099 283.213 -19.0883 275.466 -19.0883 270.62C-19.0883 265.775 -13.069 252.032 -12.0439 251.15C-11.0188 250.274 -3.44987 238.753 -1.3997 235.076C0.650463 231.411 5.98447 222.167 6.67581 218.55C7.36714 214.944 7.33139 183.703 -0.100464 168.821C-7.53828 153.934 -29.2677 143.707 -36.3181 147.581C-43.3745 151.449 -43.6188 158.368 -43.6188 158.368C-44.5724 169.68 -45.5975 180.759 -41.4018 205.134C-40.0072 213.251 -36.9856 229.963 -37.8676 235.046C-39.6317 245.232 -43.5294 250.327 -43.5294 254.839L-43.5413 254.851Z" fill="#72301B"/>
<path d="M1.97898 174.126C1.90151 174.395 1.81807 174.657 1.76443 174.967C1.39492 177.088 2.40809 179.776 2.46172 181.94C2.54516 185.605 2.28293 189.318 2.19353 192.989C2.04454 199.235 0.0301361 211.745 -1.13798 217.883C-3.2537 229.028 -13.0278 240.197 -19.3034 249.655C-23.2547 255.609 -28.3146 261.002 -30.1145 268.094C-30.9905 271.539 -25.6327 269.012 -25.8532 272.439C-26.0737 275.937 -27.5756 279.358 -29.1788 282.428C-31.6163 287.1 -32.0156 289.567 -32.1229 294.901C-32.1944 298.376 -32.5282 302.095 -31.9739 305.48C-31.2409 309.98 -29.6436 314.247 -28.7973 318.687C-27.957 323.103 -28.2848 327.603 -28.41 332.061C-28.4755 334.361 -25.3883 351.502 -32.3196 346.865C-32.8679 348.873 -33.4817 350.87 -34.1313 352.86C-32.8858 355.632 -27.1286 359.804 -27.1286 359.804C-27.1286 359.804 -13.6893 357.712 -13.6893 355.214C-13.6893 353.427 -16.0434 345.387 -18.5048 338.765C-19.4882 336.125 -21.5026 335.094 -21.6456 334.683C-22.1581 333.211 -22.6111 327.686 -22.3548 324.736C-22.0985 321.798 -23.1355 316.351 -23.9044 311.643C-24.6732 306.94 -25.4599 290.825 -24.5599 288.399C-23.666 285.974 -19.0889 275.49 -19.0889 270.639C-19.0889 265.788 -13.0695 252.051 -12.0444 251.169C-11.0193 250.287 -3.45038 238.772 -1.40021 235.095C0.649952 231.43 5.85285 222.162 6.6753 218.569C10.3525 202.453 7.00308 190.045 1.97898 174.132V174.126Z" fill="#591C0A"/>
<path d="M244.248 218.032C239.6 216.608 238.741 221.763 237.24 227.056C235.738 232.348 236.84 232.777 239.147 235.209C241.459 237.64 243.938 239.112 250.399 238.641C256.859 238.171 263.272 229.13 263.272 229.13L244.248 218.032Z" fill="#471505"/>
<path d="M251.628 239.393C259.567 238.541 265.401 232.73 267.595 230.489C269.788 228.249 270.461 226.479 269.698 219.088C268.936 211.698 264.597 207.64 263.876 206.102C264.871 209.255 264.311 210.435 262.368 211.722C254.227 217.11 249.179 215.149 245.055 214.482C240.931 213.814 238.189 213.325 236.318 217.581C234.44 221.836 240.698 225.108 241.795 228.541C242.891 231.973 245.484 238.678 251.628 239.399V239.393Z" fill="#471505"/>
<path d="M254.167 223.958C255.382 223.117 256.991 224.226 256.616 225.65C256.431 226.347 256.223 227.212 255.978 228.255C255.722 229.369 257.581 231.127 257.623 231.914C257.736 234.042 256.795 234.328 255.376 234.399C253.106 234.512 248.934 230.907 249.452 229.548C249.804 228.624 251.884 225.537 254.167 223.958Z" fill="#1E1D1B"/>
<path d="M117.461 427.199C118.384 436.491 95.01 433.529 94.5511 428.743C94.0922 423.957 94.5511 416.257 94.5511 416.257C94.5511 416.257 94.4379 415.762 94.2412 414.94C96.9887 419.553 109.218 417.848 111.352 414.952C113.432 418.879 116.114 422.574 117.461 427.199Z" fill="#222021"/>
<path d="M188.436 379.067C188.472 378.84 188.496 378.584 188.496 378.31C188.698 378.37 188.668 378.584 188.436 379.067Z" fill="#222021"/>
<path d="M195.451 393.412C194.855 395.069 185.576 399.944 185.576 399.944C185.576 399.944 175.379 400.349 175.057 392.559C174.622 381.939 179.014 381.391 179.014 381.391C179.014 381.391 182.149 381.141 184.533 381.254C185.713 381.313 186.774 381.206 187.507 380.682C184.67 385.557 189.146 393.793 195.451 393.412Z" fill="#222021"/>
<path d="M47.5771 266.18C46.856 265.531 46.2481 264.875 45.7832 264.238C46.5163 264.81 47.1242 265.453 47.5771 266.18Z" fill="#9A4025"/>
<path d="M100.743 234.515C100.677 234.652 100.48 235.028 100.194 235.594C100.457 234.998 100.665 234.652 100.743 234.515Z" fill="#9A4025"/>
<path d="M81.6193 199.166C83.8185 196.592 86.0117 194.017 88.2109 191.442C90.9404 188.242 94.5819 186.096 97.1446 182.896C100.345 178.897 104.302 175.333 107.842 171.632C108.528 170.917 109.237 170.184 110.131 169.761C110.429 169.618 110.775 169.486 110.906 169.182C111.102 168.718 110.655 168.235 110.232 167.961C106.239 165.338 102.318 167.174 98.4021 168.712C95.4818 169.862 92.5556 171.006 89.6353 172.156C88.5148 172.597 87.2871 173.128 86.7686 174.218C83.6457 171.358 70.9275 161.995 67.8284 159.11C64.4433 155.958 62.6255 151.136 58.5729 148.901C57.5001 148.311 56.2724 147.9 55.4857 146.964C54.9314 146.309 54.6632 145.468 54.252 144.718C53.4832 143.305 51.9277 141.559 50.1994 142.113C48.4591 142.673 46.5758 144.443 44.9607 145.367C42.2431 146.923 39.3526 148.085 36.7422 149.706C34.394 151.166 31.438 151.47 29.2448 153.192C25.9609 155.773 25.8894 160.66 26.39 164.808C27.0277 170.059 28.1124 175.261 29.6322 180.327C30.687 183.844 32.7968 186.74 34.0007 190.131C35.4489 194.208 44.8296 206.443 46.3076 210.502C46.8083 211.884 47.4281 213.255 48.4174 214.352C50.4974 216.664 54.0315 218.083 57.0054 217.32C60.8495 216.336 64.6936 215.347 68.5376 214.364C69.4972 214.119 70.4686 213.869 71.3089 213.35C72.042 212.903 72.6439 212.272 73.222 211.634C74.8908 209.792 75.3556 207.79 76.3509 205.662C77.4177 203.38 79.8254 201.282 81.4644 199.369C81.518 199.309 81.5717 199.244 81.6253 199.184L81.6193 199.166Z" fill="#191918"/>
<path d="M52.8996 270.857C52.8579 270.869 52.8102 270.875 52.7685 270.887C52.1963 271.024 51.0699 271.352 50.9805 272.043C50.9031 272.633 51.499 273.706 51.6898 274.266C51.9579 275.059 52.244 275.846 52.5658 276.626C52.7685 277.121 52.9651 277.967 53.3764 278.343C53.883 278.814 54.8306 278.629 55.4623 278.617C56.392 278.599 57.3217 278.539 58.2515 278.45C60.0573 278.271 61.8512 277.961 63.6153 277.514C64.0623 277.401 64.539 277.252 64.7894 276.871C65.6237 275.589 63.6689 274.236 62.912 273.497C62.0777 272.675 60.9691 271.072 59.8606 270.774C58.6389 270.452 57.0834 270.649 55.8258 270.649C54.8425 270.649 53.8532 270.649 52.8936 270.857H52.8996Z" fill="#B1B1B1"/>
<path d="M70.6362 278.092C71.4109 277.323 75.8808 268.157 75.8808 268.157L74.069 262.555L73.2585 263.604V268.276L67.4238 276.25L70.6421 278.098L70.6362 278.092Z" fill="#B1B1B1"/>
<path d="M51.0752 255.456C51.0752 255.456 48.8998 255.73 48.3277 256.684C47.7615 257.637 46.9391 259.604 46.9987 260.176C47.0583 260.748 48.2025 263.532 49.2395 264.616C50.2765 265.701 51.844 269.193 51.9989 269.873C52.1539 270.552 53.6736 276.166 55.6821 278.866C57.6905 281.566 61.2902 284.248 65.7601 285.744C70.2299 287.24 72.5006 285.69 72.5006 285.69C72.5006 285.69 74.3302 284.594 73.8117 282.257C73.2932 279.921 49.323 259.884 51.0871 255.45L51.0752 255.456Z" fill="#000002"/>
<path d="M68.7942 261.662C68.7942 261.662 70.0815 268.433 70.6596 270.167C71.2377 271.907 74.3666 278.546 74.0448 280.841C73.723 283.135 73.1449 285.192 69.3962 285.072C65.6475 284.953 60.7604 282.194 58.2216 279.089C55.6767 275.984 53.8173 270.37 53.7458 269.654C53.6742 268.939 50.45 260.739 50.3129 260.548C50.1759 260.357 48.6978 257.175 48.9541 256.513C49.2044 255.852 52.0472 250.929 54.306 251.513C56.5647 252.097 68.7942 261.656 68.7942 261.656V261.662Z" fill="#2D1610"/>
<path d="M77.0309 242.578C72.3643 251.565 69.5037 262.341 69.5037 262.341C69.5037 262.341 66.0351 265.297 59.5925 262.984C57.6139 262.269 56.1597 261.244 55.0929 260.171C52.6911 257.758 52.256 255.082 52.256 255.082C52.256 255.082 59.2588 238.15 61.7142 230.259C64.1756 222.362 67.2389 214.025 67.2389 214.025C67.2389 214.025 63.8717 209.722 53.5493 195.144C43.2329 180.572 32.9285 170.065 31.7663 162.389C30.8545 156.388 35.658 141.226 37.4996 138.782C37.9287 138.21 42.6787 139.784 42.6787 139.784L71.7386 142.329C71.7386 142.329 74.0569 148.39 77.156 151.745C80.2492 155.094 80.5054 161.03 80.2492 162.699C79.9929 164.38 76.2084 166.931 76.2084 168.218C76.2084 169.505 81.8881 182.623 84.0872 187.653C86.2745 192.683 90.2616 205.973 90.6728 209.042C91.6979 216.778 81.6974 233.591 77.0309 242.578Z" fill="#F0F0F0"/>
<path d="M72.1079 211.23C63.7166 207.987 43.501 177.092 39.8774 170.876C36.2539 164.666 36.4446 154.582 42.7381 141.989C42.7381 141.989 40.0502 141.947 35.7711 142.472C33.6733 148.014 31.0748 157.836 31.7662 162.389C32.9283 170.065 43.2328 180.572 53.5492 195.144C63.8715 209.722 67.2388 214.025 67.2388 214.025C67.2388 214.025 64.1755 222.362 61.7141 230.259C61.4936 230.962 61.2373 231.743 60.9512 232.578C62.6855 232.017 63.8238 230.915 63.9073 228.99C64.2887 219.859 73.8244 216.951 72.1079 211.23Z" fill="#B8B8B8"/>
<path d="M64.0267 223.16C64.0267 223.16 62.1374 223.619 61.4938 224.465C60.8501 225.311 53.4004 250.318 53.0607 252.13C52.7269 253.936 50.7304 256.29 50.9748 257.756C51.2191 259.222 58.6331 265.575 61.0885 265.981C63.544 266.386 69.5872 265.647 69.5872 265.647C69.5872 265.647 74.1226 252.231 76.7985 244.883C79.4804 237.535 82.1146 234.567 82.1921 234.179C82.2696 233.792 82.6212 232.087 82.6212 232.087C82.6212 232.087 77.4958 236.569 70.0938 231.634C62.6977 226.706 64.0267 223.166 64.0267 223.166V223.16Z" fill="#2D1610"/>
<path d="M68.6752 258.67C64.4199 258.479 58.1502 258.258 55.2836 261.787C52.4169 265.315 51.07 270.953 51.1654 272.3C51.2607 273.641 54.7532 277.383 54.7532 277.383L54.6936 270.977C54.6936 270.977 57.5543 262.776 58.031 262.395C58.5078 262.013 69.2772 261.793 69.2772 261.793C69.2772 261.793 72.2392 263.825 72.5252 264.969C72.8113 266.113 72.5252 269.07 72.5252 269.07L74.2774 270.917C74.2774 270.917 74.2893 263.414 74.0688 262.556C73.8423 261.697 68.6812 258.67 68.6812 258.67H68.6752Z" fill="#A1A1A1"/>
<path d="M97.8114 98.9667C97.2213 102.662 96.524 106.494 95.7195 110.255V110.326C92.829 123.95 88.9611 136.841 87.7035 140.888C87.4592 141.722 87.3221 142.175 87.3221 142.175C87.3221 142.175 85.856 143.397 84.4674 144.511C83.4542 145.346 82.5185 146.115 82.2384 146.216C79.8366 147.402 77.4646 148.308 75.0926 149.005C74.3953 149.214 73.7338 149.386 73.0723 149.529C71.7134 149.875 70.3904 150.119 69.0673 150.298C68.5071 150.406 67.9171 150.471 67.3628 150.543C65.2054 150.787 63.0777 150.859 61.0574 150.787H61.0216C53.8103 150.65 47.4988 148.904 42.8681 147.163C42.588 147.056 42.3436 146.991 42.0993 146.883H42.0635C41.6106 146.71 41.1934 146.502 40.7762 146.323C40.2219 146.115 39.7332 145.87 39.2445 145.662H39.2088C37.3612 144.827 36.0382 144.094 35.3409 143.677C34.9952 143.504 34.7866 143.361 34.7866 143.361C34.7866 143.361 34.9952 141.722 35.3409 138.695C35.478 138.802 35.621 138.832 35.7938 138.903C36.211 139.076 36.6282 139.285 37.0811 139.463H37.1169C37.3613 139.571 37.6056 139.636 37.8857 139.744C42.5224 141.484 48.8279 143.23 56.0392 143.367H56.075C58.0953 143.439 60.223 143.367 62.3804 143.123C62.9406 143.051 63.5307 142.986 64.0849 142.878C65.408 142.706 66.7311 142.461 68.0899 142.11C68.7514 141.972 69.413 141.794 70.1103 141.585C72.4823 140.888 74.8483 139.982 77.256 138.796C77.5362 138.689 78.4778 137.926 79.485 137.091C80.8796 135.977 81.8093 134.886 81.8093 134.886C81.8093 134.886 82.4828 134.308 82.7271 133.468C83.9787 129.427 87.8466 116.53 90.743 102.906V102.835C91.5416 99.0739 92.2389 95.2359 92.8349 91.5467C94.2653 82.172 94.7182 73.5661 92.9422 68.5479C92.4893 67.2904 92.1078 65.4489 91.6191 63.6013C91.8992 63.6371 92.1078 63.7086 92.3522 63.8099C92.376 63.8337 92.3999 63.8457 92.4237 63.8457C96.1843 65.5204 96.7445 72.6244 97.9305 75.9738C99.7066 80.992 99.2536 89.5979 97.8233 98.9726L97.8114 98.9667Z" fill="#2F8E36"/>
<path d="M92.829 91.5455C92.2389 95.2406 91.5416 99.0727 90.7371 102.833V102.905C87.8466 116.529 83.9787 129.42 82.7212 133.467C82.4768 134.301 81.8034 134.885 81.8034 134.885C81.8034 134.885 80.8736 135.976 79.479 137.09C78.4659 137.925 77.2262 138.842 76.9461 138.944C74.5443 140.13 72.4763 140.887 70.1043 141.584C69.407 141.792 68.7455 141.965 68.0839 142.108C66.7251 142.454 65.402 142.698 64.079 142.877C63.5247 142.984 62.9287 143.05 62.3745 143.122C60.217 143.366 58.0894 143.437 56.069 143.366H56.0332C48.8219 143.229 42.5105 141.483 37.8798 139.742C37.5996 139.635 37.3553 139.569 37.1109 139.462H37.0752C36.6222 139.289 36.2051 139.081 35.7879 138.902C35.615 138.83 35.472 138.795 35.3349 138.693C35.4422 137.823 35.5435 136.81 35.6865 135.696C36.1037 131.965 36.6282 126.982 37.2182 120.993C37.2182 120.82 37.254 120.647 37.254 120.468C37.7784 115.033 38.3327 108.793 38.8929 101.898C38.9644 101.063 38.6843 99.3171 38.2671 97.1597L47.8505 95.9379L48.8636 94.0188C48.8636 94.0188 50.3595 92.2786 49.1795 86.2115C48.8994 84.8527 48.1008 83.5654 47.0221 82.3794L46.0804 82.0635L44.6501 83.3866L38.4102 89.0663L36.7712 90.5622C36.664 90.145 36.5626 89.7278 36.4911 89.3106C35.621 85.5798 34.8522 82.0635 34.7866 80.3888C34.7866 79.9716 34.7866 79.6915 34.8581 79.5187C35.2038 78.6128 36.2527 77.5698 37.8201 76.4494C38.0287 76.3421 38.136 76.2766 38.136 76.2766C43.0171 72.8974 52.2488 69.0652 59.4244 66.5204C60.8905 65.9959 62.2493 65.543 63.4651 65.1616H63.5009C63.6737 65.0901 63.8465 65.0543 63.9896 64.9887C64.5498 64.8159 65.0683 64.6729 65.557 64.5C65.8013 64.4643 66.0457 64.3928 66.29 64.3272C66.6357 64.2199 66.9516 64.1544 67.2674 64.1186C67.929 63.91 68.5548 63.7729 69.1865 63.6657C69.848 63.4928 70.5096 63.3498 71.1353 63.2842C77.5838 62.134 83.6449 62.3426 91.1721 63.4928C91.2437 63.4928 91.3092 63.5286 91.3807 63.5286C91.488 63.5643 91.5536 63.5643 91.6251 63.6001C92.1138 65.4476 92.4952 67.2952 92.9482 68.5467C94.7242 73.5649 94.2712 82.1708 92.8409 91.5455H92.829Z" fill="#44B74F"/>
<path d="M47.2838 119.173C43.8688 119.871 40.8055 120.425 38.0521 120.848C37.772 120.884 37.4978 120.955 37.2177 120.985C31.7466 121.784 27.5629 122.064 24.1479 121.963H23.695C19.3026 121.79 16.275 120.985 13.5872 119.769H13.5514C12.7826 119.453 12.0555 119.072 11.3225 118.691C9.96363 117.993 8.64055 117.195 7.17444 116.39C7.13868 116.354 7.10293 116.354 7.06717 116.319C-1.19309 111.652 3.75949 104.852 7.17444 98.9637C10.3808 93.4569 34.7742 78.3369 37.8018 76.4536C38.0104 76.3463 38.1176 76.2808 38.1176 76.2808C38.1176 76.2808 43.7258 78.7898 47.0037 82.3776L46.062 82.0618L36.7588 90.5664L28.1886 98.4094L38.2607 97.1579L47.844 95.9361C47.844 95.9361 48.7141 95.9004 50.7703 95.7633C51.4318 95.6918 52.2364 95.6262 53.2078 95.5547C64.3228 94.6131 68.8522 97.9267 69.3052 98.3081L69.3409 98.3439L68.7867 106.813L68.7509 107.373C68.7509 107.373 74.9551 113.613 47.2838 119.185V119.173Z" fill="#2F8E36"/>
<path d="M42.4389 59.6966C42.4389 59.6966 42.2839 52.235 45.24 51.9251C48.196 51.6152 52.5407 55.346 54.1022 54.4103L55.6637 53.4746C55.6637 53.4746 57.6781 55.9658 54.8829 58.2961C52.0818 60.6264 47.7312 60.7932 46.6405 60.7098C45.5499 60.6264 42.4449 59.6907 42.4449 59.6907L42.4389 59.6966Z" fill="#BC2C0F"/>
<path d="M49.9771 70.0682C49.9771 70.0682 44.5894 64.9011 46.4608 62.5946C48.3322 60.2882 54.0416 59.8531 54.4886 58.089L54.9297 56.325C54.9297 56.325 58.1122 56.6587 57.7844 60.2882C57.4566 63.9177 54.4946 67.1122 53.6662 67.8214C52.8378 68.5306 49.9771 70.0742 49.9771 70.0742V70.0682Z" fill="#BC2C0F"/>
<path d="M117.461 17.2744L81.3086 100.64L134.13 160.113" stroke="#FF6D00" stroke-width="2.97989" stroke-miterlimit="10"/>
<path d="M69.2639 108.175C69.2639 108.175 84.2945 112.073 85.1467 109.826C85.999 107.579 89.253 95.886 85.1467 94.2411C81.0404 92.5903 69.2281 98.3534 69.2281 98.3534C68.8109 99.3904 68.1852 101.321 68.2924 103.789C68.3759 105.714 68.8705 107.233 69.2639 108.181V108.175Z" fill="#FF9670"/>
<path d="M61.9531 68.7124V73.3789C61.9531 73.3789 71.0478 81.1922 75.011 80.3757C78.9743 79.5592 81.3105 73.2597 81.3105 73.2597L69.7664 66.4954L64.051 63.8135L61.9531 68.7124Z" fill="#FF9670"/>
<path d="M94.838 50.4064V54.7153C94.838 54.7153 93.211 54.8345 91.4589 62.4154C89.7126 69.9962 83.1688 75.95 81.3034 75.95C81.0888 75.95 80.7312 75.7891 80.2604 75.5209C76.7501 73.4648 69.1573 67.3143 69.1573 67.3143L69.1216 48.8986L73.7941 47.3371L76.315 46.4849L94.838 50.4064Z" fill="#FF9670"/>
<path d="M80.2594 75.5232C79.3118 76.2443 78.5251 76.6317 78.0424 76.6317C76.1889 76.6317 63.9355 65.326 63.9355 65.326L65.8546 49.5803L73.0481 47.1785L73.7811 47.3394L69.1086 48.9008L67.1896 64.6347C67.1896 64.6347 76.7431 73.4671 80.2534 75.5232H80.2594Z" fill="#D87F64"/>
<path d="M56.1768 59.3496L60.5512 69.07C60.5512 69.07 61.0042 70.2023 63.1139 70.0712C70.6948 69.5944 71.3921 61.8408 71.3921 61.8408C71.3921 61.8408 68.4778 58.5748 70.1107 56.8286C71.7437 55.0824 73.8416 56.322 73.8416 56.322L76.3029 51.2204L75.558 49.5994H61.481L56.1768 59.3555V59.3496Z" fill="#1E1D1B"/>
<path d="M95.4398 53.1744C95.4398 53.1744 93.2824 52.0957 89.1999 51.4342V51.3984C86.5836 50.9812 83.1746 50.7011 79.0623 50.9454H79.0266C74.9143 51.2256 70.1048 52.0599 64.6695 53.8002C56.3437 56.4463 56.1291 59.3785 56.1291 59.6527C56.0576 59.3368 55.7834 57.4595 55.7119 54.8074V54.3187C56.7906 53.0671 58.9898 51.4639 63.5192 49.8906C69.1632 47.9715 74.1455 47.0358 78.4008 46.72H78.4366C82.5488 46.4399 85.9995 46.72 88.6457 47.1729C88.753 47.1729 88.8543 47.1729 88.9616 47.2087V47.2444C92.3408 47.8344 94.4326 48.7403 95.1657 49.0562C95.5114 51.4937 95.4458 53.1684 95.4458 53.1684L95.4398 53.1744Z" fill="#BC2C0F"/>
<path d="M88.9602 47.25V47.2143C88.8529 47.1785 88.7516 47.1785 88.6443 47.1785C88.5728 46.7971 88.4715 46.4097 88.3642 46.0283C88.2569 45.6469 88.1556 45.2595 88.0185 44.8423C87.7742 43.9722 87.4285 43.102 87.0411 42.1961C86.904 41.9518 86.7968 41.6717 86.6597 41.4273C86.2067 40.5214 85.6465 39.5798 85.0207 38.7097C84.7406 38.3282 84.4665 37.9409 84.1149 37.5952C83.799 37.2138 83.4533 36.8621 83.0719 36.4807C82.4104 35.8192 81.7131 35.2292 80.9145 34.7047C80.39 34.359 79.8715 34.0074 79.3113 33.7273C78.7511 33.4114 78.161 33.1373 77.4995 32.8929C76.975 32.6843 76.4565 32.4757 75.8606 32.3327C75.2705 32.1241 74.603 31.987 73.9415 31.844C73.28 31.701 72.5827 31.5997 71.8496 31.5281C72.4754 31.4566 73.1369 31.4209 73.8342 31.3911C78.3994 31.254 81.9872 32.0168 84.8121 33.3399C92.3036 36.8919 94.5326 44.3834 95.1643 49.0559C94.4312 48.74 92.3394 47.8341 88.9602 47.2441V47.25Z" fill="#BC2C0F"/>
<path d="M88.6463 47.1869C86.0002 46.734 82.5494 46.4539 78.4372 46.734H78.4014C74.1521 47.0498 69.1697 47.9855 63.5198 49.9046C58.9904 51.472 56.7972 53.0752 55.7125 54.3327C55.5397 46.5969 57.3872 33.1457 71.8457 31.5425C72.5787 31.614 73.276 31.7153 73.9375 31.8584C74.5991 32.0014 75.2606 32.1385 75.8566 32.3471C76.4466 32.4841 76.9711 32.6927 77.4955 32.9073C78.1571 33.1516 78.7471 33.4317 79.3073 33.7416C79.8616 34.0218 80.386 34.3674 80.9105 34.719C81.7091 35.2793 82.4422 35.8693 83.0679 36.4951C83.4494 36.8765 83.801 37.2281 84.1109 37.6095C84.4268 37.9552 84.7367 38.3426 85.0168 38.724C85.6426 39.5942 86.2028 40.5358 86.6557 41.4417C86.7928 41.7218 86.9001 41.9661 87.0371 42.2105C87.4186 43.1164 87.7702 43.9865 88.0146 44.8566C88.1516 45.2381 88.2589 45.6612 88.3602 46.0426C88.4615 46.4241 88.5688 46.8115 88.6403 47.1929L88.6463 47.1869Z" fill="#E5461C"/>
<path d="M48.8526 94.0173L47.8394 95.9364L38.2561 97.1581L28.1841 98.4097L36.7543 90.5666L46.0575 82.062L46.9991 82.3779C48.0778 83.5639 48.8824 84.8512 49.1566 86.21C50.3426 92.2711 48.8407 94.0173 48.8407 94.0173H48.8526Z" fill="#247227"/>
<path d="M161.873 36.2186C149.882 24.8891 134.094 17.8923 118.116 16.6646C116.358 15.1031 114.207 12.6715 115.977 11.3365C123.23 5.85352 112.27 -4.03972 108.944 3.26697C101.459 19.71 111.668 19.7517 117.026 18.822C132.336 22.6184 146.133 30.5449 156.509 41.6182C191.791 78.694 178.4 137.553 134.136 160.105C129.213 159.044 117.067 157.929 125.048 175.469C128.373 182.776 139.333 172.882 132.08 167.399C130.584 166.267 131.901 164.354 133.409 162.84C148.988 158.186 163.107 147.81 172.511 133.965C193.585 104.583 188.889 60.4273 161.879 36.2127L161.873 36.2186Z" fill="#FFCB00"/>
<path d="M112.7 18.1401C113.082 18.2474 113.433 18.313 113.815 18.456C113.016 18.4918 112.247 18.4202 111.479 18.2832C111.896 18.2832 112.313 18.2117 112.7 18.1461V18.1401Z" fill="#FFCB00"/>
<path d="M129.809 159.431C129.184 159.294 128.451 159.151 127.616 159.085C128.629 158.913 129.708 158.877 130.751 158.948C130.435 159.121 130.125 159.264 129.809 159.437V159.431Z" fill="#FFCB00"/>
<path d="M172.493 133.299C163.118 147.132 148.97 157.52 133.397 162.151C131.901 163.682 130.572 165.601 132.074 166.716C138.415 171.525 130.822 179.714 126.567 176.752C129.809 175.048 132.175 170.059 127.753 166.716C126.257 165.601 127.58 163.682 129.076 162.151C144.655 157.514 158.762 147.132 168.172 133.299C189.252 103.924 184.55 59.7378 157.546 35.5231C145.561 24.1996 129.773 17.2266 113.777 15.9751C112.037 14.4076 109.874 11.9999 111.65 10.6411C116.042 7.33337 113.742 2.38079 110.5 0.604774C114.749 -2.28572 122.312 5.86726 115.971 10.6411C114.195 11.9999 116.352 14.4017 118.098 15.9751C134.094 17.2266 149.876 24.1996 161.867 35.5231C188.871 59.7437 193.579 103.924 172.493 133.299Z" fill="#FFCB00"/>
<path d="M168.174 133.3C158.763 147.132 144.651 157.52 129.078 162.151C127.582 163.683 126.253 165.602 127.755 166.716C132.183 170.06 129.811 175.042 126.569 176.752C125.979 176.335 125.454 175.709 125.037 174.804C119.81 163.307 123.225 159.821 127.618 159.088C128.452 159.159 129.185 159.296 129.811 159.433C130.127 159.26 130.437 159.117 130.752 158.945C132.004 159.016 133.19 159.225 134.132 159.433C178.383 136.887 191.799 78.0345 156.505 40.9587C146.123 29.8794 132.32 21.935 117.027 18.1327C116.05 18.3055 114.971 18.4128 113.821 18.4486C113.439 18.3115 113.088 18.24 112.706 18.1327C112.325 18.2042 111.908 18.2698 111.484 18.2698C107.128 17.5725 103.713 14.086 108.94 2.58959C109.357 1.64794 109.917 1.02217 110.507 0.60498C113.749 2.381 116.05 7.32762 111.657 10.6413C109.881 12.0001 112.039 14.4019 113.785 15.9753C129.781 17.2268 145.563 24.1998 157.554 35.5234C184.557 59.7439 189.266 103.924 168.18 133.3H168.174Z" fill="#EDB70A"/>
<path d="M165.676 87.8032C165.676 87.8032 175.963 92.2969 176.458 90.1514C176.952 88.0058 175.391 76.6525 174.676 74.8049L165.676 80.0853C165.462 80.6932 165.349 81.7838 165.349 83.8221C165.349 85.9378 165.462 87.2013 165.676 87.8092V87.8032Z" fill="#FF9670"/>
<path d="M182.399 74.804C182.399 74.804 184.229 72.8313 185.242 73.7134C186.255 74.5954 185.85 76.9316 186.154 77.6051C186.458 78.2785 187.22 79.0056 187.119 80.3585C187.018 81.7054 186.577 82.069 186.899 82.5934C187.22 83.1179 188.031 85.7581 187.727 87.4209C187.423 89.0836 187.119 91.2113 185.242 90.8477C183.364 90.4842 185.164 85.6806 183.466 80.7757C182.447 77.8256 182.399 74.804 182.399 74.804Z" fill="#FF9670"/>
<path d="M200.158 80.2327C200.158 80.34 200.194 80.4055 200.158 80.5128C199.878 80.2327 199.461 80.0956 199.043 80.1314L84.6097 99.6437C83.9839 99.751 83.5667 100.27 83.5309 100.865C83.3223 100.693 83.1793 100.448 83.1495 100.132C83.0124 99.4351 83.5011 98.7736 84.2282 98.6365L198.662 79.1599C199.359 79.0527 200.021 79.5056 200.158 80.2387V80.2327Z" fill="#515150"/>
<path d="M200.159 80.5052C200.123 81.0953 199.706 81.584 199.081 81.727L84.6467 101.204C84.5752 101.239 84.5096 101.239 84.4381 101.239C84.0865 101.239 83.7766 101.102 83.5322 100.858C83.568 100.268 83.9852 99.7434 84.6109 99.6362L199.045 80.1238C199.462 80.0881 199.879 80.2311 200.159 80.5052Z" fill="#191918"/>
<path d="M209.986 78.66L206.887 80.7519L197.619 77.9269L191.35 76.0079C190.235 74.6491 189.156 73.2902 188.072 71.9314L199.014 75.3106L209.992 78.654L209.986 78.66Z" fill="#B7341A"/>
<path d="M206.888 80.7532L200.511 85.074L191 91.5225C192.394 87.9705 193.824 84.4125 195.219 80.8604C193.932 79.2573 192.638 77.6541 191.351 76.0151L197.621 77.9342L206.888 80.7591V80.7532Z" fill="#E5461C"/>
<path d="M174.675 74.8006C174.675 74.8006 179.299 73.8291 180.211 75.9508C181.123 78.0725 183.054 80.0631 181.63 80.4385C180.205 80.814 179.234 77.9712 178.405 78.0725C177.577 78.1738 174.675 81.3921 174.675 81.3921L173.208 77.9891L174.675 74.8065V74.8006Z" fill="#FF9670"/>
<path d="M98.0383 96.2577L91.7687 97.3364L85.1831 91.3826L91.6614 90.4409L98.0383 96.2577Z" fill="#FFCB00"/>
<path d="M108.735 94.4457L98.0376 96.2575L91.6606 90.4407L101.733 88.9746L108.735 94.4457Z" fill="#FF6D00"/>
<path d="M98.5877 98.8394L94.0583 106.188L87.2939 107.308L91.8294 99.9896L98.5877 98.8394Z" fill="#FFCB00"/>
<path d="M108.968 97.0632L103.777 104.62L94.0566 106.188L98.5861 98.8392L108.968 97.0632Z" fill="#FF6D00"/>
</svg>
