<svg width="284" height="433" viewBox="0 0 284 433" fill="none" xmlns="http://www.w3.org/2000/svg">
<path d="M49.193 235.136C46.9714 238.35 36.8486 240.035 34.6678 240.972C32.4802 241.889 19.5583 253.724 17.8531 256.944C16.1546 260.185 15.0337 267.325 8.08358 270.6C5.94353 271.599 -2.77294 268.976 -3.82598 269.085C-4.11812 269.105 -5.49046 269.343 -7.34517 269.635C-11.9718 270.355 -19.6895 271.456 -21.354 270.627C-31.0896 269.601 -34.5069 268.317 -32.7609 259.771C-30.9129 250.823 -28.7797 250.613 -23.134 248.242C-22.1353 247.827 -17.9435 250.402 -15.0698 252.196C-14.6893 252.44 -14.3224 252.658 -14.0099 252.855L-13.9963 252.868C-13.8469 252.956 -13.7042 253.052 -13.5819 253.126C-10.9663 254.75 3.04257 256.034 3.04257 256.034C3.04257 256.034 2.03708 250.687 4.1024 248.153C6.16772 245.626 15.9848 240.204 19.6127 215.339C19.966 212.907 21.7392 203.565 19.8912 195.589C18.0501 187.613 1.96235 174.902 -6.93755 147.238C-15.8442 119.56 -16.9788 119.478 -17.4884 106.482C-17.4884 106.482 -15.2871 95.3331 -8.8534 89.4564C-2.40607 83.5933 14.8298 88.7363 24.0355 104.002C33.2547 119.268 38.0104 138.915 38.7984 143.195C39.5933 147.482 43.9889 165.69 44.512 171.723C45.0488 177.756 47.1344 185.637 47.3451 187.749C47.5557 189.876 51.4146 231.909 49.193 235.136Z" fill="#8A7E72"/>
<path d="M246.185 424.914C246.076 419.799 247.183 411.666 247.183 411.666C247.183 411.666 242.598 375.917 238.453 368.831C234.54 362.153 210.076 326.71 199.661 312.307C151.927 246.23 170.107 247.351 165.467 223.532C154.196 165.581 185.536 162.999 185.536 162.999C185.536 162.999 204.858 168.393 212.725 192.729C220.586 217.064 204.905 244.79 210.266 263.677C213.996 276.829 225.022 306.824 242.305 339.401C247.149 348.545 254.364 354.408 256.287 358.77C257.347 361.154 257.625 362.534 257.591 362.928C257.197 367.174 261.77 384.695 265.262 402.529C265.486 403.684 267.755 406.061 268.034 407.189C269.786 414.35 271.166 421.388 271.498 427.292C271.729 437.238 246.28 430.03 246.178 424.921L246.185 424.914Z" fill="#E3C2A8"/>
<path d="M256.463 408.946C250.457 398.551 252.081 381.879 251.137 373.55C250.192 365.221 242.047 365.724 242.678 358.875C243.31 352.034 229.791 341.904 224.892 326.564C220.001 311.224 186.174 299.885 196.827 272.594C207.48 245.303 194.041 255.725 208.723 223.937C208.723 223.937 207.418 166.345 163.829 189.832C162.511 198.195 162.688 209.153 165.48 223.522C170.12 247.341 151.933 246.22 199.674 312.297C210.088 326.7 234.546 362.15 238.466 368.822C242.61 375.907 247.196 411.657 247.196 411.657C247.196 411.657 246.089 419.796 246.198 424.904C246.306 430.02 271.756 437.222 271.518 427.276C271.375 424.721 271.022 421.942 270.54 419.048C264.432 416.337 258.766 412.913 256.47 408.932L256.463 408.946Z" fill="#BF9D82"/>
<path d="M271.514 427.287C271.181 421.39 269.802 414.352 268.049 407.184C267.77 406.05 265.501 403.679 265.277 402.524C261.785 384.683 257.213 367.162 257.607 362.922C257.648 362.535 257.362 361.156 256.303 358.765C254.38 354.403 247.165 348.54 242.321 339.395C239.8 334.647 237.416 329.959 235.167 325.359C233.971 328.709 220.166 329.082 214.29 333.03C224.691 347.996 235.914 364.485 238.455 368.826C242.599 375.912 247.185 411.661 247.185 411.661C247.185 411.661 246.078 419.8 246.187 424.909C246.295 430.025 271.745 437.226 271.514 427.28V427.287Z" fill="#A69889"/>
<path d="M270.786 429.854C271.085 429.419 271.302 428.93 271.411 428.359C271.425 428.278 271.452 428.203 271.459 428.115C271.493 427.85 271.513 427.578 271.506 427.286C271.506 427.272 271.506 427.259 271.506 427.238C271.472 426.579 271.418 425.9 271.35 425.214C271.309 424.779 271.262 424.337 271.207 423.896C271.18 423.651 271.153 423.4 271.126 423.148C271.051 422.564 270.976 421.966 270.888 421.362C270.874 421.273 270.868 421.192 270.854 421.104C270.752 420.424 270.65 419.738 270.535 419.045C264.427 416.334 258.761 412.91 256.465 408.929C250.459 398.534 252.083 381.862 251.138 373.533C250.194 365.204 242.048 365.7 242.68 358.859C243.278 352.404 231.287 343.029 225.811 329.108C221.653 330.073 217.081 331.14 214.295 333.015C214.635 333.504 214.975 334 215.321 334.489C215.525 334.781 215.729 335.08 215.94 335.379C216.13 335.658 216.327 335.936 216.517 336.208C216.993 336.894 217.468 337.58 217.944 338.273C218.039 338.409 218.134 338.552 218.229 338.688C218.494 339.075 218.759 339.462 219.031 339.843C219.167 340.033 219.296 340.23 219.432 340.42C219.934 341.154 220.437 341.881 220.94 342.608L221.164 342.934C221.442 343.335 221.714 343.736 221.986 344.13C222.102 344.293 222.21 344.462 222.326 344.625C222.815 345.339 223.304 346.052 223.786 346.752C223.875 346.881 223.963 347.01 224.051 347.139C224.33 347.54 224.602 347.941 224.873 348.335C224.948 348.45 225.03 348.559 225.104 348.675C225.566 349.347 226.022 350.02 226.47 350.679C226.599 350.869 226.728 351.059 226.857 351.249C227.088 351.582 227.312 351.922 227.537 352.248C227.679 352.459 227.822 352.669 227.965 352.88C228.325 353.41 228.678 353.933 229.024 354.443C229.181 354.674 229.337 354.905 229.493 355.136C229.683 355.414 229.874 355.693 230.057 355.971C230.281 356.304 230.505 356.637 230.723 356.963C230.94 357.289 231.158 357.608 231.375 357.928C231.572 358.227 231.769 358.519 231.966 358.804C232.095 358.994 232.224 359.185 232.347 359.375C232.639 359.81 232.917 360.231 233.189 360.639C233.305 360.808 233.413 360.971 233.522 361.134C233.726 361.44 233.923 361.739 234.12 362.031C234.215 362.181 234.317 362.33 234.412 362.473C234.67 362.867 234.921 363.247 235.159 363.614C235.241 363.737 235.315 363.845 235.39 363.967C235.594 364.28 235.798 364.586 235.988 364.878C236.036 364.953 236.09 365.027 236.138 365.102C236.362 365.449 236.579 365.781 236.783 366.101C236.83 366.182 236.885 366.257 236.932 366.332C237.123 366.631 237.306 366.909 237.469 367.174C237.483 367.195 237.496 367.222 237.51 367.242C237.687 367.521 237.843 367.779 237.992 368.017C238.026 368.064 238.053 368.118 238.087 368.166C238.23 368.397 238.359 368.614 238.468 368.805C239.113 369.912 239.772 371.719 240.424 373.982C240.683 374.885 240.941 375.863 241.199 376.896C241.457 377.929 241.708 379.023 241.96 380.15C242.082 380.714 242.211 381.292 242.333 381.876C245.037 394.743 247.205 411.64 247.205 411.64C247.205 411.64 246.926 413.678 246.661 416.348C246.559 417.353 246.464 418.44 246.383 419.555C246.247 421.402 246.165 423.298 246.199 424.894C246.213 425.533 246.62 426.206 247.327 426.871C247.605 427.136 247.945 427.395 248.305 427.66C248.631 427.891 248.985 428.122 249.372 428.353C249.644 428.509 249.936 428.672 250.235 428.821C250.833 429.134 251.485 429.433 252.171 429.711C252.511 429.854 252.864 429.99 253.224 430.126C259.569 432.483 268.272 433.461 270.8 429.834L270.786 429.854Z" fill="#8A7E72"/>
<path d="M283.464 209.872C283.586 217.529 277.893 222.149 276.432 222.06C274.965 221.985 270.902 218.167 270.902 218.167C270.902 218.167 270.705 219.227 269.17 218.765C268.3 218.493 266.996 217.739 265.053 216.041C259.665 211.326 261.914 207.053 261.146 205.51C260.378 203.982 256.275 190.272 251.594 184.898C246.913 179.511 240.079 156.344 238.224 155.06C236.383 153.762 232.436 155.386 227.999 156.099C224.847 156.609 219.582 157.492 214.452 175.434C214.113 176.63 213.766 177.9 213.426 179.246C211.925 185.244 210.437 192.84 209.031 202.453C207.135 215.511 200.613 244.378 197.284 249.426C196.612 250.438 195.926 251.505 195.171 252.537C195.036 252.721 194.9 252.918 194.757 253.101C190.436 258.692 183.35 262.959 161.868 252.259C160.292 251.477 158.743 250.71 157.201 249.99C152.105 247.537 147.261 245.37 142.642 243.393C134.693 239.996 127.451 237.19 120.867 234.561C104.834 228.175 92.7274 222.882 83.9566 212.956C68.8743 195.87 42.0999 173.94 35.802 166.636C33.6891 164.19 28.7432 160.223 23.0432 155.202C11.65 145.222 -6.56426 136.811 -7.91623 122.558C-8.01134 121.518 -8.11324 120.493 -8.19477 119.508C-9.89322 100.098 -8.90133 89.9136 0.270323 87.1825C9.94472 84.302 26.807 77.9362 61.7408 109.656C61.7408 109.656 75.4236 124.752 85.1183 130.649C97.6529 138.258 112.572 150.066 146.684 134.644C154.035 131.295 210.043 102.326 219.33 100.994C228.597 99.6628 246.736 102.53 253.612 107.177C260.501 111.831 263.64 116.24 268.096 133.034C272.553 149.788 268.062 169.992 272.886 182.079C274.815 186.929 278.246 192.888 280.047 196.672C282.723 202.324 283.403 205.279 283.491 209.886L283.464 209.872Z" fill="#F5E9E0"/>
<path d="M104.099 140.98C97.5427 163.664 81.1967 151.252 113.698 167.856C128.835 175.587 136.322 163.494 137.796 159.561C139.27 155.627 127.877 148.636 127.877 148.636L95.0901 133.975L104.092 140.98H104.099Z" fill="#F5E9E0"/>
<path d="M124.902 163.906C124.902 163.906 137.015 198.555 142.491 212.027C147.967 225.499 165.59 253.904 165.59 253.904C165.59 253.904 158.219 253.075 155.841 251.689C153.463 250.303 153.436 247.246 153.436 247.246C153.436 247.246 127.45 207.346 124.005 192.25C120.561 177.154 118.801 160.054 118.801 160.054L124.902 163.899V163.906Z" fill="#942F11"/>
<path d="M195.158 252.535C195.022 252.718 194.886 252.915 194.744 253.099C175.775 278.97 138.097 291.606 126.072 295.098C125.277 295.329 124.604 295.526 124.047 295.682C122.926 295.988 122.288 296.138 122.288 296.138C122.288 296.138 122.057 295.968 121.656 295.635C116.309 291.314 79.7176 259.838 118.809 235.829C119.502 235.401 120.188 234.986 120.861 234.558C132.94 227.133 142.982 220.882 151.189 215.848C159.796 210.576 166.407 206.643 171.258 204.136C177.352 200.983 180.687 200.059 181.774 201.472C184.621 205.162 195.172 252.535 195.172 252.535H195.158Z" fill="#F5E9E0"/>
<path d="M269.175 218.116C269.175 218.341 269.175 218.558 269.162 218.769C268.999 224.903 265.113 228.966 263.054 230.019C262.68 230.223 262.361 230.318 262.137 230.311C260.676 230.237 256.607 226.425 256.607 226.425C256.607 226.425 256.152 229 250.764 224.285C245.37 219.57 240.342 219.496 239.575 217.96C238.807 216.438 234.697 202.722 230.022 197.334C227.006 193.863 219.112 185.255 213.432 179.242C210.286 175.934 207.827 173.434 207.175 172.972C205.341 171.674 201.393 173.298 196.957 174.025C195.537 174.249 189.939 176.742 182.839 181.518C172.785 188.292 159.734 199.658 151.201 215.834C147.369 223.09 144.427 231.31 143.096 240.509C142.973 241.399 142.803 242.343 142.654 243.376C142.538 244.028 142.416 244.694 142.287 245.387C139.787 259.695 134.304 283.011 131.335 287.475C129.297 290.566 128.659 293.772 126.084 295.09C125.52 295.389 124.854 295.58 124.059 295.668H123.998C123.332 295.743 122.551 295.729 121.675 295.62C117.992 295.179 112.306 293.134 103.08 288.528C91.5033 282.76 82.1619 278.194 74.3422 274.145C56.5424 264.967 46.5826 258.458 36.1133 246.589C21.0311 229.503 -5.89962 201.621 -12.1975 194.331C-12.5372 193.958 -12.9244 193.536 -13.3796 193.088C-15.8594 190.635 -20.1327 187.143 -24.9699 182.904C-36.3495 172.91 -50.8136 158.84 -52.1723 144.587C-54.2241 123.193 -53.6398 112.092 -43.979 109.212C-36.662 107.038 -27.3885 106.093 -8.20273 119.484C-2.00677 123.798 5.20827 129.593 13.7209 137.331C13.7209 137.331 32.0507 147.651 41.7522 153.548C51.4538 159.445 73.3706 176.015 80.7216 172.693C83.8739 171.259 102.319 161.456 123.122 150.579C122.531 150.43 121.892 150.239 121.158 150.015C120.391 149.777 119.609 149.56 118.835 149.363C121.953 149.01 125.058 148.521 128.149 147.97C131.227 147.42 134.311 146.802 137.348 146.184C134.243 147.692 131.166 149.2 128.068 150.722H128.04C128.04 150.722 128 150.749 127.979 150.763C128.007 150.749 128.027 150.735 128.068 150.722C128.958 150.586 129.841 150.443 130.717 150.28C133.557 150.205 137.294 150.858 139.352 150.667C143.177 150.328 147.233 149.614 150.644 147.739C157.709 143.84 165.026 139.695 171.351 134.552C168.11 138.5 164 141.604 159.924 144.682C166.099 142.304 172.119 139.505 177.914 136.312C182.676 133.696 189.137 130.707 193.288 126.78C193.676 126.407 194.083 126.026 194.43 125.625C195.007 124.973 195.564 124.294 196.101 123.601C197.344 122.031 198.567 120.421 200.048 119.063C200.109 119.015 200.164 118.961 200.225 118.913C201.57 119.049 202.929 119.212 204.288 119.416C203.771 119.83 203.241 120.231 202.705 120.612C203.323 120.408 203.927 120.17 204.525 119.919C204.777 119.803 205.028 119.694 205.279 119.565C212.196 120.686 218.921 122.629 222.543 125.068C229.431 129.722 234.221 133.642 238.685 150.423C243.121 167.19 251.756 179.799 256.586 191.892C261.424 203.999 269.033 210.419 269.182 218.089L269.175 218.116Z" fill="#F5E9E0"/>
<path d="M128.073 150.739C128.031 150.753 128.009 150.767 127.981 150.781C128.009 150.767 128.024 150.753 128.045 150.739H128.073Z" fill="#F5E9E0"/>
<path d="M200.226 118.935C200.165 118.982 200.111 119.037 200.05 119.084C198.569 120.443 197.346 122.053 196.103 123.623C195.559 124.316 195.009 124.995 194.431 125.647C194.078 126.048 193.677 126.428 193.29 126.802C189.139 130.722 182.678 133.718 177.916 136.334C172.12 139.527 166.101 142.333 159.926 144.704C164.002 141.626 168.112 138.521 171.353 134.574C165.028 139.717 157.711 143.861 150.645 147.761C147.241 149.636 143.179 150.349 139.354 150.689C137.295 150.879 133.559 150.227 130.719 150.302C129.836 150.465 128.959 150.601 128.069 150.744C131.161 149.222 134.245 147.713 137.35 146.205C134.306 146.823 131.228 147.435 128.151 147.992C134.109 144.874 140.183 141.735 146.066 138.725C166.332 128.331 184.383 119.465 188.256 118.914C191.476 118.452 195.736 118.486 200.233 118.942L200.226 118.935Z" fill="#F5E9E0"/>
<path d="M205.281 119.583C205.03 119.705 204.778 119.82 204.527 119.936C203.922 120.187 203.317 120.425 202.706 120.629C203.25 120.248 203.773 119.848 204.289 119.433C204.615 119.481 204.955 119.535 205.281 119.583Z" fill="#F5E9E0"/>
<path d="M263.054 230.027C262.674 230.224 262.361 230.319 262.137 230.305C260.67 230.23 256.607 226.419 256.607 226.419C256.607 226.419 256.152 228.994 250.758 224.279C245.37 219.564 240.343 219.489 239.568 217.968C238.8 216.439 234.697 202.722 230.016 197.342C227 193.863 219.112 185.249 213.419 179.243C211.917 185.242 210.429 192.837 209.023 202.451C207.128 215.508 200.606 244.375 197.277 249.423C196.604 250.435 195.918 251.502 195.164 252.535C195.028 252.718 194.892 252.915 194.749 253.098C175.781 278.969 138.102 291.606 126.077 295.098C125.5 295.404 124.841 295.601 124.053 295.682H123.992L138.694 242.385C139.916 243.533 145.562 224.972 146.737 225.842C152.499 230.163 153.049 250.863 157.2 249.98C168.532 247.609 173.553 230.339 170.448 222.071C168.654 217.295 168.851 213.755 171.555 206.996C174.307 200.168 180.068 197.532 186.019 190.167C188.839 186.648 196.02 175.173 196.502 170.391C198.805 147.787 205.878 164.052 214.451 175.432C215.246 176.491 216.116 177.558 217.087 178.604C228.46 190.867 233.223 194.753 239.106 209.088C242.537 217.458 254.053 225.101 263.054 230.02V230.027Z" fill="#E3C2A8"/>
<path d="M197.08 390.751C194.892 392.47 190.904 398.272 187.507 399.542C184.491 403.476 177.527 406.126 174.551 407.118C173.682 407.41 173.159 407.559 173.159 407.559C173.159 407.559 161.174 409.108 158.599 401.452C155.827 393.211 157.94 389.705 159.517 388.02C164.877 385.14 169.85 385.554 171.548 385.819C171.949 385.88 172.173 385.928 172.173 385.928C172.173 385.928 188.988 381.301 189.423 375.832C188.01 370.873 187.283 361.871 182.412 350.627C178.512 341.652 170.319 329.756 169.001 328.201C166.018 324.681 152.009 318.662 152.009 318.662C152.009 318.662 127.633 314.511 112.204 294.286C103.481 282.845 96.6465 257.565 93.0526 235.995C90.3011 219.445 89.4587 205.083 91.1231 200.823C94.9549 190.993 123.027 177.473 142.185 206.992C161.351 236.525 144.285 264.549 153.028 274.393C161.772 284.224 181.726 308.526 188.73 318.567C191.271 322.976 190.354 327.29 192.025 332.746C196.706 347.964 202.134 363.134 205.402 372.489C208.636 381.756 205.008 384.494 197.073 390.758L197.08 390.751Z" fill="#F5E9E0"/>
<path d="M191.103 386.039C180.512 388.458 171.632 398.587 174.553 407.113C173.684 407.406 173.161 407.555 173.161 407.555C173.161 407.555 161.176 409.104 158.601 401.447C155.83 393.206 157.942 389.701 159.519 388.016C164.879 385.135 169.852 385.55 171.55 385.815C171.951 385.876 172.176 385.923 172.176 385.923C172.176 385.923 188.99 381.297 189.425 375.828C188.012 370.868 187.285 361.867 182.414 350.623C178.514 341.648 170.321 329.752 169.003 328.196C166.02 324.677 152.011 318.658 152.011 318.658C152.011 318.658 127.635 314.507 112.206 294.282C103.483 282.841 96.6486 257.561 93.0547 235.991C101.839 260.856 108.008 253.913 110.651 271.848C112.458 284.105 127.493 293.31 142.65 304.669C157.807 316.029 169.968 312.448 172.875 317.496C175.783 322.537 171.652 321.776 180.348 330.323C189.058 338.87 193.345 358.809 196.382 364.768C199.426 370.712 197.251 369.394 195.261 376.27C193.27 383.145 194.649 385.224 191.089 386.039H191.103Z" fill="#E3C2A8"/>
<path d="M192.034 332.738C190.363 327.276 191.273 322.969 188.739 318.56C188.393 318.064 188.005 317.52 187.598 316.956C182.591 314.619 176.741 317.765 173.501 321.834C171.714 324.076 169.798 325.829 167.889 327.147C168.344 327.514 168.725 327.867 169.003 328.2C170.321 329.749 178.514 341.645 182.414 350.626C187.285 361.877 188.005 370.879 189.425 375.831C188.984 381.3 172.176 385.927 172.176 385.927C172.176 385.927 171.958 385.88 171.551 385.818C169.852 385.553 164.879 385.132 159.519 388.02C157.943 389.704 155.83 393.21 158.602 401.451C161.177 409.108 173.161 407.559 173.161 407.559C173.161 407.559 173.684 407.409 174.554 407.117C177.536 406.125 184.493 403.475 187.509 399.542C190.906 398.271 194.894 392.476 197.082 390.751C205.024 384.487 208.645 381.749 205.411 372.482C202.15 363.127 196.715 347.956 192.041 332.738H192.034Z" fill="#BDAD9D"/>
<path d="M196.396 364.768C193.352 358.809 189.065 338.87 180.362 330.323C174.458 324.521 174.465 323.006 174.173 321.056C173.942 321.314 173.718 321.572 173.507 321.837C171.72 324.079 169.805 325.832 167.896 327.15C168.099 327.313 168.276 327.47 168.446 327.626C168.487 327.667 168.527 327.707 168.575 327.748C168.731 327.904 168.881 328.054 169.003 328.196C170.321 329.745 178.514 341.641 182.414 350.623C187.285 361.873 188.005 370.875 189.425 375.828C189.296 377.445 187.733 378.98 185.607 380.353C185.39 380.495 185.165 380.631 184.934 380.767C179.819 383.817 172.169 385.924 172.169 385.924C172.169 385.924 171.951 385.876 171.544 385.815C169.845 385.55 164.872 385.129 159.512 388.016C159.118 388.437 158.69 388.974 158.316 389.667C157.188 391.753 156.516 395.265 158.595 401.447C161.17 409.104 173.154 407.555 173.154 407.555C173.154 407.555 173.677 407.406 174.547 407.113C171.625 398.587 180.505 388.458 191.096 386.039C194.656 385.224 193.277 383.145 195.268 376.27C197.258 369.394 199.432 370.719 196.389 364.768H196.396Z" fill="#A69889"/>
<path d="M74.3234 274.166C56.5304 264.981 46.5775 258.472 36.0946 246.604C21.0123 229.531 -5.91838 201.649 -12.2162 194.359C-12.5424 193.979 -12.9364 193.564 -13.3916 193.116C-16.6051 165.954 -23.297 147.584 -8.90086 158.066C14.3204 174.969 5.35256 191.859 22.867 219.34C33.8594 236.596 53.5683 258.595 74.3234 274.173V274.166Z" fill="#E3C2A8"/>
<path d="M264.686 115.107C264.686 115.107 279.443 107.939 276.963 104.828C274.15 101.295 259.734 108.129 257.254 108.897C255.576 109.42 254.401 109.427 251.547 111.92C250.195 113.102 249.917 115.093 250.881 116.615C251.506 117.6 251.975 118.918 252.784 119.4C256.269 121.472 258.783 121.731 260.794 120.25C262.519 118.979 264.469 115.711 264.68 115.1L264.686 115.107Z" fill="#BF9D82"/>
<path d="M274.632 219.25C274.618 219.691 274.584 220.119 274.536 220.541C274.441 221.336 274.258 222.117 274.034 222.885C272.593 223.938 270.909 225.011 268.993 225.928C267.138 226.845 265.073 227.599 262.851 228.055C261.37 227.063 259.923 225.833 259.923 225.833C259.923 225.833 259.651 228.557 254.182 224.257C248.7 219.943 243.584 219.956 242.741 218.441C241.913 216.954 237.089 203.196 232.252 198.128C231.735 197.578 231.076 196.939 230.336 196.26C232.095 196.395 233.828 196.212 235.309 195.295C238.264 193.44 240.561 186.64 239.596 183.27C238.618 179.914 236.165 177.217 233.821 174.635C232.259 172.943 230.71 171.245 229.147 169.553C228.977 169.376 228.814 169.193 228.644 169.003C225.933 166.054 221.477 150.558 224.813 148.329C226.993 146.889 229.847 146.78 232.34 147.541C232.36 147.555 232.415 147.561 232.449 147.575C234.976 148.37 237.17 149.973 239.168 151.699C241.213 153.479 243.896 156.033 245.656 158.771C246.709 160.402 247.436 162.087 247.517 163.704C247.531 163.839 247.531 163.962 247.531 164.098C247.511 165.626 248.829 172.542 249.501 174.56C251.159 179.56 251.913 184.201 254.8 189.214C256.377 191.959 258.027 195.438 259.984 197.924C261.445 199.779 265.365 204.827 267.186 206.267C267.444 206.464 267.688 206.661 267.906 206.878C268.089 207.048 268.259 207.218 268.422 207.395C270.216 209.351 270.644 208.081 271.941 210.438C273.429 213.163 274.713 216.091 274.652 219.257L274.632 219.25Z" fill="#E3C2A8"/>
<path d="M242.993 166.171C242.993 166.171 238.509 168.746 236.206 166.667C231.6 162.509 233.176 158.752 233.176 158.752C233.176 158.752 236.742 159.037 238.577 160.498C240.465 162.006 242.225 164.241 242.993 166.171Z" fill="#22222C"/>
<path d="M64.3982 234.785C71.2191 237.747 78.8146 232.835 79.1407 225.409C80.1666 201.651 85.6628 186.46 90.5 172.995C96.234 157.05 121.799 139.637 137.86 139.107L153.92 138.578C153.92 138.578 128.226 146.234 102.661 139.25C88.5298 135.391 73.0603 118.719 65.2474 113.549C54.2957 114.093 28.0376 122.136 11.9227 145.779C9.66715 149.094 7.97549 152.967 6.71863 156.88C2.95486 168.552 6.17513 181.331 14.8712 189.98C21.1215 196.196 29.1043 204.654 36.9579 214.403C45.3483 224.818 55.9331 231.103 64.3982 234.778V234.785Z" fill="#1C2134"/>
<path d="M93.9708 108.51C107.565 110.032 110.616 112.451 128.144 123.626C131.846 125.991 135.481 128.464 138.98 131.12C139.951 131.861 142.37 133.145 142.784 134.286C143.375 135.923 141.439 137.982 140.454 139.014C139.578 139.932 138.695 140.856 137.818 141.773C137.166 142.452 136.5 143.145 135.658 143.573C135.053 143.879 134.38 144.035 133.715 144.185C130.562 144.884 127.39 145.482 124.196 145.971C121.52 146.379 120.175 145.985 117.654 145.217C112.654 143.689 107.47 142.792 102.273 142.296C82.9648 140.434 64.6691 135.672 67.3798 125.943C70.0905 116.214 93.9708 108.503 93.9708 108.503V108.51Z" fill="#1842B9"/>
<path d="M55.8088 194.507C50.0069 214.047 50.8697 228.945 52.8535 240.305C54.8305 251.664 60.2451 265.394 67.6436 270.632C75.0489 275.877 77.1549 275.619 77.1549 275.619C77.1549 275.619 64.2603 267.521 58.7844 238.627C54.7693 217.416 59.1649 202.137 61.305 196.342C63.445 190.54 55.8088 194.507 55.8088 194.507Z" fill="#1E1D1B"/>
<path d="M266.643 213.965C266.643 213.965 269.109 219.298 266.955 221.459C264.802 223.619 262.37 224.788 262.37 224.788C262.37 224.788 258.307 217.58 258.911 216.669C259.516 215.759 263.389 211.404 266.643 213.965Z" fill="#050507"/>
<path d="M247.021 208.419C247.021 208.419 257.15 222.998 257.503 224.506C257.857 226.015 256.6 226.415 256.6 226.415L253.264 217.617L246.878 209.227L247.021 208.412V208.419Z" fill="#050507"/>
<path d="M30.6522 140.552C30.6522 140.552 23.4032 145.016 26.7662 149.955C30.1291 154.894 31.8819 168.244 36.2775 170.432C40.6731 172.619 67.8348 184.502 72.6312 184.862C77.4344 185.222 76.9521 179.304 76.9521 179.304C76.9521 179.304 79.3775 171.79 79.5337 168.624C79.69 165.459 77.5703 161.362 77.5703 161.362C77.5703 161.362 66.8972 154.025 59.2814 152.265C51.6655 150.505 38.832 137.319 37.2694 136.945C35.7136 136.578 30.6522 140.546 30.6522 140.546V140.552Z" fill="#560607"/>
<path d="M38.1451 179.065C38.1451 179.065 32.6081 198.21 47.7448 205.941C62.8814 213.672 70.3682 201.579 71.8424 197.653C73.3167 193.726 70.8981 181.551 70.8981 181.551L38.1111 166.89L38.1451 179.071V179.065Z" fill="#560607"/>
<path d="M217.285 139.516C220.362 140.596 226.585 142.193 236.457 142.247C236.538 142.247 236.627 142.247 236.708 142.247C249.114 142.247 262.491 137.118 267.26 132.28C268.666 130.854 269.366 129.441 269.339 128.075L266.893 128.123C266.907 128.795 266.431 129.644 265.521 130.568C261.186 134.957 248.332 139.808 236.701 139.808C236.627 139.808 236.545 139.808 236.47 139.808C222.543 139.726 216.17 136.438 216.109 136.404L213.82 135.188L214.336 137.722C214.431 138.191 218.351 143.653 217.278 139.516H217.285Z" fill="#F4A42F"/>
<path d="M231.695 204.333H234.141C234.141 202.526 239.223 196.33 248.041 195.42C256.411 194.557 273.498 188.748 274.965 181.153L272.567 180.691C271.5 186.18 256.812 192.064 247.79 192.988C237.966 194 231.695 201.004 231.695 204.327V204.333Z" fill="#F4A42F"/>
<path d="M213.931 182.76L215.093 180.613C214.665 180.382 204.732 174.818 206.621 163.316C208.618 151.176 216.479 138.811 216.56 138.689L217.008 137.989L216.519 137.316C212.069 131.154 215.079 124.653 215.113 124.585C216.349 121.324 218.061 119.367 220.426 116.663C221.424 115.522 222.41 114.401 223.571 113.64C225.8 112.186 228.585 112.009 231.989 111.928L231.934 109.489C228.945 109.557 225.229 109.645 222.233 111.595C220.793 112.532 219.651 113.837 218.646 114.985C216.152 117.838 214.223 120.046 212.871 123.627C212.762 123.844 209.467 130.95 214.073 138.057C212.348 140.89 206.036 151.801 204.216 162.915C202.035 176.163 213.809 182.692 213.931 182.76Z" fill="#F4A42F"/>
<path d="M235.065 200.12L238.672 196.825C238.584 196.73 229.888 187.069 225.139 172.625C220.302 157.917 218.855 138.697 218.841 138.507L213.97 138.86C214.031 139.668 215.478 158.874 220.499 174.154C225.594 189.637 234.677 199.699 235.065 200.12Z" fill="#F4A42F"/>
<path d="M212.352 134.72C211.999 136.731 213.276 139.591 215.206 141.113C217.135 142.634 218.99 142.234 219.343 140.223C219.696 138.212 218.419 135.351 216.49 133.83C214.56 132.308 212.705 132.709 212.352 134.72Z" fill="#C03700"/>
<path d="M1.76003 212.917C-0.549866 233.421 -13.0301 238.822 -14.484 239.576C-15.9243 240.33 -30.959 246.621 -34.1249 248.476C-37.2908 250.331 -55.2401 266.983 -57.8421 266.942C-60.4442 266.908 -66.8779 270.665 -69.0791 273.308C-71.2803 275.937 -72.0684 282.581 -79.9968 285.74C-82.2048 286.61 -91.8588 282.968 -92.9934 282.86C-93.3127 282.839 -94.7869 282.765 -96.7775 282.663C-100.052 282.506 -104.876 282.513 -108.341 282.527C-110.189 282.54 -111.636 282.54 -112.288 282.527C-120.094 282.343 -122.166 276.813 -121.962 272.744C-121.779 269.129 -121.12 263.647 -112.193 259.163C-111.18 258.653 -106.608 263.049 -103.361 263.667C-102.858 263.762 -102.382 263.762 -101.968 263.654C-99.2097 263.851 -89.3519 270.25 -89.3519 270.25C-89.3519 270.25 -89.7663 265.135 -87.273 263.219C-84.7796 261.303 -69.6226 261.378 -60.0365 241.954C-59.099 240.052 -48.4123 223.353 -38.0178 219.045C-37.1414 212.387 -60.8314 177.617 -60.2811 153.213C-59.7172 128.81 -57.2171 130.522 -54.4452 119.808C-54.4452 119.808 -49.1664 111.737 -40.5587 109.719C-31.9373 107.701 -14.2394 119.156 -7.9891 135.393C-1.7252 151.61 1.93668 158.866 1.29126 186.87C1.19614 190.946 2.26958 208.277 1.75324 212.911L1.76003 212.917Z" fill="#F5E9E0"/>
<path d="M-112.289 282.53C-111.644 282.543 -110.19 282.543 -108.342 282.53C-104.877 282.516 -100.047 282.503 -96.7789 282.666C-94.7883 282.761 -93.3141 282.836 -92.9948 282.863C-91.8602 282.971 -82.213 286.613 -79.9982 285.743C-72.0698 282.577 -71.2817 275.933 -69.0805 273.311C-66.8793 270.675 -60.4456 266.911 -57.8436 266.945C-55.2415 266.979 -37.2923 250.334 -34.1263 248.479C-30.9604 246.625 -15.9257 240.333 -14.4854 239.579C-13.0315 238.818 -0.55127 233.424 1.75863 212.92C2.26817 208.294 1.19473 190.963 1.29665 186.88C1.66351 170.982 0.644447 161.777 -1.45484 153.814C-3.99574 170.473 -2.95628 200.97 -1.14233 212.302C0.671616 223.641 -20.43 235.659 -33.8138 239.015C-47.1976 242.378 -45.3701 241.916 -57.171 255.81C-68.9786 269.696 -72.9462 263.487 -77.6272 269.703C-82.3081 275.92 -89.2038 277.618 -96.3305 272.149C-97.533 271.225 -91.439 273.385 -91.1061 269.146C-94.0614 267.305 -99.9313 263.806 -101.963 263.663C-102.377 263.772 -102.853 263.772 -103.355 263.677C-106.603 263.052 -111.175 258.656 -112.187 259.173C-121.114 263.657 -121.773 269.139 -121.957 272.754C-122.161 276.823 -120.089 282.353 -112.282 282.537L-112.289 282.53Z" fill="#E3C2A8"/>
<path d="M250.336 210.485C244.84 215.471 238.332 212.4 238.977 216.463C239.622 220.526 245.248 223.855 248.91 225.547C254.311 228.04 258.883 234.093 268.856 228.196C278.83 222.292 250.336 210.485 250.336 210.485Z" fill="#22222C"/>
<path d="M278.369 193.382C279.143 197.486 279.884 200.298 277.139 201.671C274.387 203.043 271.813 204.769 266.928 205.998C262.043 207.228 262.655 202.839 255.018 203.43C247.382 204.021 248.027 204.605 247.097 210.041C246.166 215.476 251.343 226.468 259.366 229.518C267.39 232.569 277.893 225.286 281.657 221.576C283.471 219.79 287.119 205.4 278.375 193.382H278.369Z" fill="#22222C"/>
<path d="M258.987 208.849C259.864 209.318 260.72 210.032 261.739 210.167C262.452 210.263 263.172 209.984 263.763 210.528C265.115 211.778 264.219 214.319 264.069 215.847C264.008 216.486 263.96 217.199 264.348 217.709C264.782 218.286 265.652 218.449 265.998 219.081C266.393 219.808 265.815 220.752 265.041 221.038C264.266 221.323 263.403 221.139 262.608 220.922C261.467 220.603 260.292 220.195 259.456 219.36C258.715 218.619 258.294 217.62 257.975 216.622C257.248 214.38 256.915 211.927 257.595 209.672C257.737 209.196 258.057 208.639 258.552 208.686C258.709 208.7 258.845 208.775 258.98 208.849H258.987Z" fill="#050507"/>
<path d="M16.277 84.7169C-10.1578 83.7726 -34.6902 100.642 -39.1674 114.684C-43.6445 128.727 -23.9764 139.944 -9.30853 149.713C5.35933 159.483 16.2702 84.7169 16.2702 84.7169H16.277Z" fill="#F5E9E0"/>
<path d="M-58.7544 133.817C-58.0411 127.831 -51.981 97.0619 -15.0974 93.536C4.08839 91.7016 -7.65133 146.256 -25.7772 148.294C-43.9031 150.332 -58.7612 133.823 -58.7612 133.823L-58.7544 133.817Z" fill="#F5E9E0"/>
<path d="M187.509 399.539C183.623 404.621 173.161 407.549 173.161 407.549C173.161 407.549 161.177 409.098 158.602 401.441C155.83 393.2 157.943 389.695 159.519 388.01C164.879 385.129 169.852 385.544 171.551 385.809C168.507 386.026 167.869 388.981 167.998 391.903C168.222 397.052 174.948 402.922 181.178 402.515C183.318 402.372 186.484 400.694 187.509 399.539Z" fill="#1C2134"/>
<path d="M246.186 424.916C246.078 419.801 247.185 411.669 247.185 411.669C257.94 419.808 264.271 415.385 265.943 414.78C267.627 414.189 268.769 413.754 268.042 407.191C269.795 414.352 271.174 421.391 271.507 427.294C271.738 437.24 246.288 430.032 246.186 424.923V424.916Z" fill="#1C2134"/>
<path d="M68.7326 236.62C75.5536 239.582 83.1491 234.67 83.4752 227.245C84.5011 203.487 89.9973 188.296 94.8345 174.83C100.568 158.879 126.134 141.473 142.194 140.943L158.255 140.413C158.255 140.413 132.561 148.07 106.995 141.086C92.8643 137.227 77.3947 120.555 69.5819 115.385C58.6302 115.928 32.3721 123.972 16.2572 147.614C14.0016 150.93 12.31 154.809 11.0531 158.715C7.28933 170.387 10.5096 183.166 19.2057 191.815C25.456 198.031 33.4387 206.483 41.2924 216.239C49.6827 226.654 60.2675 232.938 68.7326 236.613V236.62Z" fill="#E3C2A8"/>
<path d="M64.3977 234.791C71.2187 237.753 78.8142 232.841 79.1403 225.415C80.1661 201.657 85.6623 186.466 90.4995 173.001C96.2335 157.056 121.799 139.643 137.859 139.114L153.92 138.584C153.92 138.584 128.226 146.24 102.66 139.256C88.5293 135.397 73.0598 118.725 65.2469 113.555C54.2953 114.099 28.0372 122.143 11.9222 145.785C9.66666 149.1 7.975 152.973 6.71814 156.886C2.95437 168.558 6.17464 181.337 14.8707 189.986C21.121 196.202 29.1038 204.66 36.9574 214.409C45.3478 224.824 55.9326 231.109 64.3977 234.784V234.791Z" fill="#C03700"/>
<path d="M43.9952 113.561C33.4648 117.216 28.2131 123.935 27.3231 135.689C26.4332 147.442 34.8303 162.055 40.707 171.621C46.5836 181.187 51.6926 190.956 68.8334 185.304C85.9742 179.658 87.958 168.054 91.4704 165.153C94.9828 162.252 120.004 151.022 120.317 148.468C120.629 145.92 101.09 142.149 93.3047 142.048C85.519 141.946 84.8532 138.182 79.5405 142.048C74.2277 145.913 63.8739 152.191 63.8739 152.191L43.9952 113.561Z" fill="#121621"/>
<path d="M61.1973 199.176L37.7314 218.715C37.7314 218.715 40.4354 219.292 41.9572 219.19C43.4858 219.088 61.3943 203.802 61.8019 202.477C62.2096 201.153 61.1905 199.176 61.1905 199.176H61.1973Z" fill="#121621"/>
<path d="M143.945 143.84C143.062 144.757 142.186 145.688 141.316 146.591C140.664 147.284 139.998 147.977 139.169 148.399C138.551 148.711 137.885 148.861 137.206 149.017C135.059 149.492 132.892 149.92 130.718 150.301C129.835 150.464 128.958 150.6 128.068 150.742C131.159 149.221 134.244 147.712 137.349 146.204C134.305 146.822 131.227 147.434 128.15 147.991C125.058 148.541 121.954 149.037 118.835 149.384C115.846 148.589 112.789 148.011 109.732 147.583C108.414 147.393 107.089 147.244 105.771 147.121C97.5367 146.326 89.4657 144.995 83.1542 142.997C78.8945 141.625 75.4229 139.967 73.2217 137.929H73.2081C71.0341 135.905 70.1033 133.54 70.8846 130.762C73.5885 121.033 97.4688 113.329 97.4688 113.329C100.635 113.682 103.237 114.083 105.587 114.647C113.278 116.454 118.197 119.878 131.635 128.452C133.53 129.661 135.419 130.891 137.281 132.175C139.04 133.391 140.773 134.641 142.485 135.932C143.341 136.598 145.338 137.678 146.058 138.724C146.16 138.846 146.235 138.989 146.282 139.111C146.887 140.749 144.937 142.794 143.945 143.84Z" fill="#395FFF"/>
<path d="M115.705 89.7354C118.327 90.0208 120.597 85.5301 122.329 88.7843C124.055 92.0385 143.356 126.293 144.857 127.815C146.359 129.337 153.418 132.435 153.778 133.202C154.138 133.97 156.094 142.503 156.094 142.503C156.094 142.503 153.574 145.499 152.364 145.914C151.155 146.328 145.727 144.541 145.727 144.541C145.727 144.541 142.289 144.84 139.769 144.494C137.248 144.147 135.57 138.44 135.57 138.44L134.762 134.812L133.41 130.471C133.41 130.471 106.16 100.103 106.975 95.2588C107.783 90.4148 115.705 89.7422 115.705 89.7422V89.7354Z" fill="#FF9670"/>
<path d="M118.377 70.2451C118.927 74.5592 123.241 87.5421 123.071 90.3548C122.901 93.1674 110.102 101.075 107.364 95.6608C104.626 90.2461 101.65 76.2236 102.513 74.3621C103.376 72.5074 118.377 70.2383 118.377 70.2383V70.2451Z" fill="#FF9670"/>
<path d="M138.893 127.377C135.965 128.763 132.86 130.291 131.385 130.169C127.234 129.816 111.874 108.524 109.523 105.344C107.865 103.116 105.589 91.1384 105.589 87.1165C105.589 80.9817 109.272 41.7474 109.272 41.7474C110.705 41.7338 112.152 42.1754 113.518 43.0042C112.635 52.6107 110.148 80.0034 110.148 85.0444C110.148 89.0663 112.424 101.044 114.082 103.272C116.432 106.452 131.793 127.75 135.944 128.097C136.637 128.158 137.663 127.845 138.886 127.383L138.893 127.377Z" fill="#374ED1"/>
<path d="M144.775 125.251C144.184 125.21 143.308 125.461 142.248 125.869L142.173 125.91C141.208 126.283 140.115 126.8 138.98 127.343C138.953 127.357 138.919 127.37 138.892 127.384C137.676 127.846 136.643 128.165 135.95 128.097C131.799 127.744 116.438 106.452 114.087 103.273C112.43 101.044 110.154 89.0667 110.154 85.0448C110.154 80.0038 112.64 52.6111 113.524 43.0046C117.219 45.2194 120.46 50.2061 121.948 56.504C123.986 65.1525 125.379 76.1789 126.072 79.7592C126.513 85.2011 127.091 90.1673 128.66 94.3387C129.251 95.8945 131.276 104.006 134.279 107.954C136.806 111.283 144.85 121.419 145.38 124.408C145.482 124.972 145.305 125.291 144.775 125.251Z" fill="#395FFF"/>
<path d="M31.2107 200.761C28.0788 198.702 27.1752 198.539 22.8815 200.346C18.5878 202.147 18.7101 205.795 19.1041 207.935C19.4914 210.075 23.0717 219.05 23.1668 219.471C23.2619 219.892 24.6343 228.452 27.2431 232.481C29.8519 236.51 32.4676 243.874 40.5658 242.529C48.664 241.177 51.4971 236.687 50.4848 234.173C49.4725 231.659 42.6311 223.941 41.3879 223.099C40.1446 222.257 29.0978 206.25 31.2175 200.761H31.2107Z" fill="#080A0F"/>
<path d="M39.268 206.438C40.7287 209.128 41.7817 215.698 41.6051 218.456C41.4352 221.214 48.9968 232.689 49.5063 233.851C50.0158 235.013 46.8635 238.348 43.8946 239.381C40.9257 240.414 34.8656 241.786 32.3179 238.104C29.7634 234.415 25.9589 225.359 25.7007 220.379C25.4494 215.399 21.3799 206.587 21.5973 204.991C21.8215 203.394 23.8392 200.84 26.6791 200.14C29.5189 199.44 32.1005 199.413 32.1005 199.413L39.268 206.431V206.438Z" fill="#6E320E"/>
<path d="M105.589 114.648C105.861 115.273 93.1567 124.506 90.5275 129.757C89.3793 132.04 88.8154 134.228 88.3806 136.069C87.8167 138.487 87.477 140.369 86.3764 141.273C85.7786 141.762 84.6033 142.38 83.1494 142.992C79.8544 144.384 75.1259 145.716 72.4899 145.424C71.6203 145.329 70.3023 144.181 68.8348 142.435C63.8006 136.476 57.0611 123.453 60.7977 120.436C65.6213 116.543 96.6215 110.191 96.6215 110.191C103.986 113.588 105.318 114.016 105.583 114.648H105.589Z" fill="#1842B9"/>
<path d="M127.587 148.09C126.229 149.449 124.999 150.665 124.911 150.916C123.728 150.828 122.635 150.488 121.154 150.033C120.386 149.795 119.605 149.578 118.83 149.381C121.758 149.055 124.686 148.599 127.594 148.083L127.587 148.09Z" fill="#F5E9E0"/>
<path d="M131.385 144.079C131.507 144.255 129.422 146.28 127.587 148.087C124.686 148.603 121.752 149.052 118.823 149.385C115.834 148.59 112.79 148.012 109.733 147.584H109.72C108.402 147.394 107.077 147.244 105.759 147.122C97.5247 146.327 89.4537 144.996 83.1422 142.998C79.8472 144.391 75.1187 145.729 72.4827 145.424C71.6131 145.322 70.2951 144.18 68.8276 142.434C68.8412 142.285 68.8548 142.122 68.8752 141.945C70.2204 140.437 71.681 139.051 73.2029 137.937H73.2165C77.6528 134.622 88.2104 133.263 93.7813 136.028C94.0191 136.143 93.7814 136.028 94.0463 136.13C99.1145 138.1 111.14 139.635 120.209 141.13H120.223C126.045 142.095 130.645 143.039 131.385 144.085V144.079Z" fill="#1842B9"/>
<path d="M231.825 117.145C231.906 117.219 231.981 117.294 232.056 117.369C233.34 118.714 234.162 121.146 234.827 122.858C235.018 120.861 235.289 118.87 235.656 116.893C235.622 117.084 236.662 118.021 236.818 118.198C237.253 118.694 237.681 119.196 238.095 119.713C238.917 120.732 239.699 121.792 240.371 122.919C241.037 124.034 241.519 125.189 241.941 126.411C242.375 127.675 242.423 129.115 242.6 130.447C243.809 128.246 244.556 125.786 244.767 123.28C245.895 125.678 247.756 127.655 249.088 129.951C250.671 132.682 251.445 135.794 252.206 138.865C252.138 138.586 252.417 137.954 252.485 137.669C252.586 137.186 252.682 136.711 252.77 136.229C252.947 135.264 253.089 134.292 253.198 133.321C253.402 131.568 253.687 129.7 253.402 127.947C255.019 129.937 256.486 132.05 257.784 134.258C257.757 130.257 256.486 126.371 255.012 122.648C254.326 120.922 253.592 119.196 252.546 117.654C251.656 116.343 250.555 115.188 249.298 114.223C250.039 114.257 250.732 114.162 251.445 114.427C252.756 114.91 254.013 115.548 255.175 116.323C255.324 116.425 255.481 116.554 255.542 116.71C255.562 116.771 255.569 116.832 255.562 116.893C255.61 116.622 255.08 115.854 254.951 115.596C254.72 115.134 254.475 114.672 254.224 114.223C253.728 113.333 253.144 112.545 252.586 111.696C251.201 109.583 249.95 107.165 248.306 105.249C237.572 92.7141 216.083 92.3405 201.66 97.2932C204.384 96.9331 207.177 97.1165 209.826 97.8231C197.652 99.8341 184.798 102.158 175.47 110.235C179.369 109.264 183.167 107.871 186.768 106.091C176.774 115.895 162.378 121.031 148.437 119.767C151.936 122.233 156.665 121.588 160.884 120.841C157.018 122.193 153.084 123.347 149.11 124.305C146.44 124.944 143.75 125.494 141.046 125.956C143.063 127.512 145.699 128.239 148.233 127.933C144.789 129.367 140.95 130.345 137.628 132.003C134.802 133.409 132.227 135.508 129.401 137.003C123.069 140.359 116.282 142.846 109.278 144.361C113.116 145.183 117.186 144.925 120.888 143.607C118.279 146.351 114.217 147.004 110.467 147.499C106.519 148.023 102.565 148.546 98.6182 149.062C111.431 151.406 124.577 148.804 137.35 146.209C134.231 147.73 131.113 149.252 127.988 150.774C130.406 149.592 136.514 150.951 139.367 150.693C143.192 150.353 147.248 149.633 150.645 147.758C157.718 143.865 165.028 139.714 171.353 134.571C168.112 138.511 164.002 141.63 159.932 144.707C166.108 142.329 172.12 139.524 177.916 136.337C183.14 133.463 190.43 130.141 194.438 125.644C196.347 123.504 197.917 121.024 200.057 119.095C202.55 116.846 205.947 115.949 209.031 114.706C207.217 116.968 205.077 118.972 202.699 120.63C207.679 119.006 211.606 115.385 216.735 114.482C220.316 113.85 224.059 114.087 227.524 115.188C228.896 115.623 230.71 116.16 231.825 117.145Z" fill="#28304A"/>
<path d="M231.773 130.569C231.773 130.569 238.308 123.558 240.054 117.43C241.277 113.157 233.872 115.446 227.153 119.033C224.863 120.256 214.509 127.879 214.027 131.915C213.694 134.693 219.034 133.762 221.324 134.041C223.865 134.354 226.079 135.61 227.717 134.245C229.816 132.492 231.514 131.31 231.766 130.569H231.773Z" fill="#BF9D82"/>
<path d="M81.5955 175.798C81.5955 184.556 74.8085 188.612 74.8085 188.612C74.8085 188.625 74.7813 188.625 74.7813 188.625C69.0541 191.275 55.813 189.298 54.923 184.848C54.7667 184.039 54.461 182.979 54.0466 181.709C53.408 179.766 52.518 177.375 51.4785 174.745C49.4744 169.704 46.947 163.862 44.7594 158.929C40.6899 149.778 33.9029 140.144 34.7929 127.82V127.773C35.4519 118.873 39.8339 111.631 43.1493 107.439C44.3926 105.836 45.4796 104.681 46.1522 104.056C46.9606 103.295 49.685 104.973 52.9528 107.561C57.0427 110.775 61.9886 115.401 65.1681 118.445C67.1111 120.313 68.3816 121.584 68.3816 121.584C69.1153 124.933 71.9143 133.419 73.4973 141.843C73.8506 143.664 74.1427 145.484 74.3533 147.244C75.5015 157.149 81.5819 170.839 81.5955 175.798Z" fill="#395FFF"/>
<path d="M74.787 188.613L74.7734 188.627C74.6511 188.776 74.5152 188.898 74.3589 189.021C68.8356 193.151 44.8262 211.834 44.1536 212.004C43.4675 212.174 37.0065 218.452 29.4586 210.136C26.0277 206.338 27.7601 198.192 27.7601 198.192C27.7601 198.192 30.4709 196.168 32.6789 194.442C34.6355 192.914 39.8871 186.602 43.5218 182.302C43.9702 181.779 44.3914 181.276 44.7786 180.821C46.4431 178.878 48.8957 176.568 51.457 174.754C53.0943 173.592 54.7792 172.641 56.3417 172.091C57.5646 171.676 58.7128 171.506 59.6979 171.697C59.6979 171.697 78.6662 184.116 74.7666 188.613H74.787Z" fill="#374ED1"/>
<path d="M75.2018 144.738L73.5169 141.905C73.5169 141.905 73.5033 141.871 73.4897 141.844C72.131 137.265 66.1252 133.854 59.8613 133.209C54.4874 132.659 47.3675 133.712 41.3957 139.364C40.3699 140.329 39.378 141.429 38.4404 142.673C35.8656 140.961 34.8397 135.138 34.7922 127.821V127.774C34.7786 126.238 34.8193 124.622 34.8873 122.977C35.3153 113.5 41.9936 106.89 41.9936 106.89C41.9936 106.89 42.408 107.087 43.1417 107.44C44.6092 108.126 47.3811 109.444 50.6897 111.068C55.1328 113.242 60.5679 115.966 65.1605 118.446C70.5072 121.34 74.733 123.915 74.9572 124.954C75.5822 127.876 75.2018 144.738 75.2018 144.738Z" fill="#1842B9"/>
<path d="M58.6576 183.265C58.3383 180.54 55.6683 181.233 54.0378 181.709C52.8761 182.042 52.02 183.068 51.6532 186.118C51.6532 186.118 48.5484 184.759 43.5346 182.293C43.983 181.77 44.4042 181.267 44.7914 180.812C46.4559 178.869 48.9085 176.559 51.4697 174.745C49.4656 169.704 46.9383 163.862 44.7507 158.929C40.6812 149.778 33.8941 140.144 34.7841 127.82V127.773C34.7705 126.237 34.8113 124.621 34.8792 122.976C35.3072 113.499 41.9856 106.889 41.9856 106.889C41.9856 106.889 42.4 107.086 43.1337 107.439C44.377 105.836 45.464 104.681 46.1366 104.056C46.9451 103.295 49.6694 104.973 52.9372 107.561C52.2307 108.845 51.4561 110.041 50.6749 111.067C48.793 113.574 46.9111 115.136 45.9124 114.865C41.4421 113.642 38.6906 124.437 38.9148 129.73C38.9759 131.333 39.927 134.906 41.3809 139.363C44.7642 149.731 50.8719 164.806 55.0365 170.397C55.4917 171.009 55.9265 171.573 56.3409 172.082C61.4363 178.346 58.841 184.99 58.6372 183.258L58.6576 183.265Z" fill="#1842B9"/>
<path d="M86.0173 116.896C86.785 117.474 87.5663 118.065 88.3544 118.656C83.0212 121.713 76.8524 124.539 73.3808 124.465C71.2204 124.424 67.9593 124.757 64.3518 124.995H64.3382C57.524 125.457 49.4258 125.626 44.8671 122.467C41.2868 120.647 39.4457 115.769 39.0312 113.078C39.4593 113.445 39.9212 113.758 40.424 114.009C44.738 116.991 52.1909 116.998 58.7401 116.597C62.8164 116.36 66.5462 115.945 68.9376 115.993C71.3155 116.04 74.9434 114.75 78.7207 112.936C79.1623 112.725 79.6107 112.494 80.0659 112.27C81.7983 113.69 83.8501 115.259 86.0105 116.896H86.0173Z" fill="#F4A42F"/>
<path d="M108.586 68.3021C107.981 69.4435 107.18 70.5169 106.147 71.4341C107.784 67.6499 108.96 64.253 109.768 61.1754C109.979 60.3805 110.155 59.6196 110.312 58.8723C110.563 60.5844 110.515 64.7422 108.593 68.3021H108.586Z" fill="#F4A42F"/>
<path d="M104.212 75.6452C98.2058 88.0303 96.3783 100.64 93.2124 103.806C90.0329 106.985 75.1748 116.136 68.9517 116C62.7149 115.871 47.4288 118.84 40.438 114.017C39.9353 113.765 39.4733 113.453 39.0453 113.086C38.9705 112.644 38.9434 112.257 38.9434 111.951C38.9705 109.804 42.2112 103.038 46.1448 95.7956C50.092 88.5534 58.727 58.9528 60.8874 54.0001C63.0478 49.0474 74.8555 41.3024 86.1672 37.7493C97.4653 34.1893 103.933 39.2847 103.933 39.2847C103.933 39.2847 107.038 38.1773 109.918 40.2018C112.12 48.9251 112.507 58.5791 104.212 75.652V75.6452Z" fill="#FFCC00"/>
<path d="M72.8859 88.274C72.8859 88.274 72.784 111.889 72.2677 115.796C71.7513 119.702 59.5089 123.337 59.0944 121.944C58.68 120.551 53.9311 90.7265 55.0453 85.5497C56.1595 80.3728 72.8859 88.2672 72.8859 88.2672V88.274Z" fill="#FF9670"/>
<path d="M103.143 47.7687C100.819 52.2186 104.012 55.7107 102.185 59.0057C98.9168 57.0083 90.6827 48.9712 90.2072 46.7224C89.7044 44.2563 92.9859 33.4609 92.9859 30.6686C92.9859 30.6686 92.5239 26.4972 94.8745 21.5445L94.8881 21.5309C96.2809 21.0554 97.5037 20.8923 97.9793 21.429C99.3381 22.9644 103.727 35.0303 103.91 37.1771C104.101 39.3375 103.143 47.7619 103.143 47.7619V47.7687Z" fill="#FF9670"/>
<path d="M121.793 36.7109L114.802 50.6247L111.683 56.8478C111.418 57.2758 111.004 57.6495 110.474 57.9824C108.762 59.0898 105.963 59.6672 104.135 59.5925C103.646 59.5789 103.218 59.5178 102.906 59.4023C102.702 59.3276 102.464 59.1985 102.179 59.015C98.911 57.0177 90.6769 48.9806 90.2013 46.7318C89.6986 44.2657 92.98 33.4703 92.98 30.678C92.98 30.678 92.518 26.5066 94.8687 21.5539L94.8822 21.5403C95.1744 20.9357 95.7858 20.4465 96.6554 20.0457C102.879 17.1515 121.786 19.1557 123.002 21.5539C124.395 24.285 123.831 30.5014 121.793 36.7177V36.7109Z" fill="#FF9670"/>
<path d="M102.187 59.0141C101.875 59.5644 101.338 59.809 100.075 60.0875C98.6139 60.3389 97.3027 59.8769 96.5621 59.5984C94.062 58.654 86.7383 49.7949 86.2355 47.3423C85.8687 45.6235 85.3591 48.6603 87.1527 35.0999C89.1365 30.9284 89.1773 26.2747 89.1773 25.2488C89.1773 24.4336 92.3092 22.4362 94.8705 21.553C92.5198 26.5057 92.9818 30.6771 92.9818 30.6771C92.9818 33.4693 89.7004 44.2647 90.2031 46.7309C90.6787 48.9796 98.9128 57.0167 102.181 59.0141H102.187Z" fill="#E87F59"/>
<path d="M94.1084 35.0462C97.3695 29.2783 94.6655 31.5542 91.9412 30.9427C89.115 30.3109 88.5783 31.5474 88.1842 33.273L87.7902 35.0054C87.7902 35.0054 86.7371 30.4944 87.0497 24.2712C87.369 18.0481 86.5469 12.2122 93.0962 7.61956C100.732 2.25924 104.265 1.90596 110.991 2.77557C117.724 3.65197 124.076 15.4053 124.456 18.5984C124.837 21.7915 124.986 25.5077 123.709 26.0852C122.18 25.8338 115.692 28.9318 115.692 28.9318C104.469 30.3449 101.256 30.5283 100.807 32.0501C100.366 33.572 100.753 35.6916 99.5503 37.458" fill="#24272C"/>
<path d="M85.8729 25.739C85.309 27.4374 85.7982 37.8184 86.498 40.0535L88.7195 42.873L91.0566 40.4951C91.0566 40.4951 89.2359 37.1118 88.9302 35.8414C88.6244 34.5709 90.7101 29.428 90.7101 29.428L85.8729 25.7322V25.739Z" fill="#121621"/>
<path d="M91.6297 40.3189C89.5168 40.6721 88.26 39.1299 88.0086 36.9831C87.7572 34.8362 86.1675 31.8402 88.8646 30.4067C91.5618 28.98 92.5536 30.3999 92.8662 32.5943C93.1787 34.7887 93.1175 37.4858 93.0224 38.3147C92.9273 39.1435 92.2275 40.217 91.6229 40.3189H91.6297Z" fill="#FF9670"/>
<path d="M103.13 137.137C101.649 139.46 99.224 141.865 95.1002 142.558C94.0675 142.735 92.9262 142.81 91.6693 142.735C83.9108 142.293 58.6106 127.388 58.1554 127.333C54.9147 126.967 53.8821 110.186 53.0736 102.57C52.8087 100.206 52.0409 72.5413 52.4418 67.344C53.0192 59.9659 57.51 55.251 60.146 53.0906C58.2097 55.6315 56.4094 59.1235 56.0629 63.6142C55.6621 68.8047 56.4297 96.4759 56.6947 98.8402C57.4964 106.456 58.529 123.244 61.7765 123.604C62.2317 123.651 87.5319 138.564 95.2904 139.005C96.5472 139.08 97.6886 139.005 98.7213 138.829C100.481 138.536 101.942 137.925 103.13 137.144V137.137Z" fill="#374ED1"/>
<path d="M105.589 132.148C105.501 132.148 105.412 132.284 105.29 132.549C104.923 133.344 104.359 135.199 103.13 137.135C101.934 137.916 100.48 138.528 98.7203 138.82C97.6877 138.996 96.5463 139.071 95.2894 138.996C88.9916 138.643 71.1035 128.724 64.364 124.994H64.3504C62.815 124.138 61.8639 123.608 61.7755 123.602C60.444 123.452 59.486 120.524 58.7591 116.597C57.7264 110.979 57.1761 103.322 56.7006 98.8313C56.4356 96.467 55.6679 68.8026 56.0687 63.6053C56.422 59.1146 58.2156 55.6226 60.1518 53.0817C61.2728 52.1645 62.0609 51.6958 62.0609 51.6958C65.0637 51.3221 74.0044 55.9419 76.5317 65.7997C79.059 75.6576 75.5398 95.7333 75.3224 97.5065C74.942 100.496 74.8672 102.921 74.8604 105.109C74.8468 105.713 74.8468 106.304 74.8468 106.882C74.8468 107.711 76.9597 109.722 80.0781 112.263C81.8105 113.683 83.8623 115.252 86.0227 116.889C86.7904 117.467 87.5717 118.058 88.3597 118.649C97.3072 125.3 107.131 132.189 105.596 132.135L105.589 132.148Z" fill="#395FFF"/>
<path d="M126.52 27.9753C124.611 36.4744 110.256 37.7312 105.364 37.4934C100.133 37.2421 93.8012 38.2476 83.9298 24.0824C83.6376 12.5805 89.8608 2.92648 100.5 1.22803C98.1357 5.11409 96.9264 9.95129 97.0554 15.1825C100.113 28.6207 113.245 28.3422 118.49 28.5935C120.263 28.6683 123.293 28.5528 126.52 27.9753Z" fill="#F4A42F"/>
<path d="M126.737 26.0035C126.737 26.7101 126.662 27.3623 126.526 27.9805C123.293 28.558 120.269 28.6735 118.496 28.5987C113.251 28.3474 100.119 28.6259 97.0616 15.1877C96.9325 9.95651 98.1418 5.11931 100.506 1.23325C102.014 0.995462 103.611 0.907142 105.282 1.00905C124.101 2.82979 126.717 15.7313 126.744 26.0103L126.737 26.0035Z" fill="#FFCC00"/>
<path d="M81.5945 21.5546C81.4518 27.1867 81.8051 35.9915 101.398 41.7391C106.521 43.2473 114.694 44.64 123.146 40.0542C130.313 36.1681 129.505 32.6354 129.953 26.6772C130.945 13.6195 125.19 14.8627 125.19 14.8627C125.19 14.8627 126.441 17.7976 124.464 20.6511C120.571 26.2763 110.108 25.7396 102.187 24.279C94.3057 22.8251 86.126 16.6971 87.1519 10.5011C81.5809 8.73469 81.5945 21.5546 81.5945 21.5546Z" fill="#231F1E"/>
<path d="M40.3345 216.847C34.8383 220.767 26.3596 215.869 22.9898 209.449C22.2425 208.022 21.7466 206.507 21.5971 205.006C20.7683 196.738 27.3854 201.099 35.572 190.189C42.6647 180.745 49.5469 175.983 51.2657 174.875C50.8513 175.303 50.301 176.451 50.6814 179.502C50.8377 180.82 52.0606 182.444 53.9425 184.006C58.7389 188.021 67.8766 191.649 74.7995 188.612C76.1922 191.602 47.0536 212.071 40.3345 216.847Z" fill="#6E320E"/>
<path d="M53.9425 184.007C51.5103 188.892 46.5032 193.865 41.2516 197.683C33.2417 203.532 26.7536 202.507 22.9898 209.443C22.2425 208.016 21.7466 206.501 21.5971 205C20.7683 196.732 27.3854 201.094 35.572 190.183C42.6647 180.739 49.5469 175.977 51.2657 174.869C50.8513 175.297 50.301 176.446 50.6814 179.496C50.8377 180.814 52.0606 182.438 53.9425 184V184.007Z" fill="#56241B"/>
<path d="M41.6192 217.564C37.0741 217.36 30.389 217.122 27.3318 220.893C24.2746 224.663 22.8343 230.676 22.9362 232.109C23.0381 233.543 28.6702 234.888 28.6702 234.888L26.7 230.696C26.7 230.696 29.7504 221.946 30.2599 221.538C30.7695 221.131 42.2646 220.893 42.2646 220.893C42.2646 220.893 45.4237 223.06 45.7295 224.283C46.0352 225.506 45.7295 228.658 45.7295 228.658L47.5978 230.628C47.5978 230.628 47.8355 225.193 47.5978 224.276C47.36 223.359 41.6192 217.557 41.6192 217.557V217.564Z" fill="#A1A1A1"/>
<path d="M157.467 267.814C181.7 267.814 200.037 245.877 212.375 231.114C215.588 227.268 218.367 223.946 220.833 221.446C227.307 214.897 231.717 211.656 234.944 209.285C239.788 205.725 242.458 203.762 245.596 195.392L243.307 194.536C240.426 202.226 238.252 203.823 233.497 207.322C230.208 209.74 225.704 213.049 219.094 219.734C216.553 222.302 213.747 225.665 210.499 229.551C192.883 250.632 166.251 282.482 128.247 254.389C107.947 239.389 86.5326 210.352 99.7738 157.217L99.9572 156.484C101.418 150.573 103.741 146.082 107.064 142.753C109.129 140.681 110.651 139.669 113.708 139.479C116.371 139.316 119.123 139.479 121.786 139.621C122.832 139.683 123.871 139.744 124.918 139.784C129.51 139.968 134.823 139.846 139.518 137.536L138.444 135.341C134.239 137.407 129.293 137.509 125.02 137.339C123.987 137.298 122.961 137.237 121.935 137.182C119.204 137.026 116.378 136.863 113.572 137.04C109.774 137.271 107.75 138.623 105.351 141.028C101.71 144.676 99.1759 149.54 97.6065 155.893L97.4231 156.626C83.8558 211.072 105.915 240.91 126.813 256.353C137.907 264.553 148.132 267.821 157.48 267.821L157.467 267.814Z" fill="#F4A42F"/>
<path d="M128.073 150.745C128.031 150.759 128.009 150.773 127.981 150.787C128.009 150.773 128.024 150.759 128.045 150.745H128.073Z" fill="#1C2134"/>
<path d="M249.148 130.077C249.148 130.077 249.121 130.029 249.1 130.002C249.1 129.988 249.087 129.961 249.087 129.954C248.333 128.657 247.429 127.468 246.559 126.245C245.894 125.287 245.255 124.336 244.759 123.276C244.684 124.18 244.521 125.063 244.304 125.939C243.923 127.509 243.373 129.031 242.592 130.45C242.402 129.119 242.354 127.672 241.926 126.415C241.824 126.123 241.715 125.871 241.614 125.6C241.41 125.083 241.199 124.567 240.948 124.064C240.758 123.691 240.581 123.297 240.357 122.923C240.031 122.359 239.664 121.815 239.276 121.279C238.896 120.749 238.495 120.226 238.081 119.723C237.789 119.356 237.49 119.016 237.198 118.67C237.062 118.52 236.933 118.357 236.81 118.208C236.783 118.181 236.749 118.16 236.708 118.106C236.62 118.018 236.498 117.902 236.355 117.766C236.294 117.705 236.219 117.63 236.145 117.556C235.941 117.345 235.757 117.141 235.683 117.012C235.655 116.965 235.642 116.924 235.642 116.897C235.275 118.874 235.01 120.871 234.826 122.869C234.283 121.476 233.631 119.628 232.727 118.242C232.517 117.929 232.286 117.624 232.048 117.372L231.824 117.148C231.674 117.026 231.484 116.924 231.307 116.795C230.2 116.041 228.705 115.572 227.51 115.198C225.349 114.505 223.073 114.152 220.797 114.145C220.308 114.145 219.819 114.172 219.33 114.193C218.447 114.24 217.584 114.342 216.728 114.492C216.089 114.607 215.471 114.757 214.853 114.947C211.469 116 208.528 118.092 205.273 119.601C205.022 119.723 204.771 119.838 204.519 119.954C203.915 120.205 203.31 120.443 202.699 120.647C203.242 120.266 203.765 119.866 204.282 119.451C204.9 118.962 205.491 118.446 206.068 117.902C207.121 116.91 208.12 115.844 209.024 114.723C206.021 115.932 202.699 116.808 200.226 118.948C200.164 118.996 200.11 119.05 200.049 119.098C198.568 120.457 197.345 122.067 196.102 123.636C195.558 124.329 195.008 125.009 194.43 125.661C194.077 126.062 193.676 126.442 193.289 126.816C189.138 130.736 182.677 133.732 177.915 136.347C172.12 139.541 166.1 142.346 159.925 144.717C164.001 141.64 168.111 138.535 171.352 134.588C165.027 139.731 157.71 143.875 150.644 147.775C147.241 149.65 143.178 150.363 139.353 150.703C137.294 150.893 133.558 150.241 130.718 150.316C129.665 150.329 128.734 150.451 128.068 150.757C131.16 149.235 134.244 147.727 137.349 146.219C134.305 146.837 131.228 147.449 128.15 148.006C127.96 148.046 127.783 148.067 127.6 148.108C124.699 148.624 121.764 149.072 118.836 149.405C112.076 150.173 105.296 150.295 98.624 149.079C102.333 148.59 106.029 148.101 109.739 147.612H109.752C109.99 147.571 110.228 147.55 110.466 147.51C114.223 147.021 118.285 146.368 120.887 143.624C117.192 144.928 113.122 145.193 109.284 144.378C113.007 143.576 116.662 142.489 120.222 141.144H120.235C123.381 139.962 126.445 138.583 129.4 137.006C132.118 135.573 134.59 133.589 137.294 132.19C137.41 132.129 137.519 132.074 137.634 132.013C140.963 130.355 144.802 129.37 148.246 127.937C145.719 128.236 143.076 127.509 141.058 125.96C143.762 125.498 146.453 124.941 149.129 124.316C153.104 123.351 157.037 122.203 160.896 120.844C156.684 121.598 151.956 122.237 148.45 119.777C158.96 120.735 169.721 118.045 178.655 112.474C180.265 112.182 181.862 111.897 183.472 111.591C176.284 115.212 169.81 120.266 164.551 126.361C169.049 121.449 175.639 119.431 181.658 117.094C184.552 115.959 187.501 114.743 190.191 113.221C193.445 111.387 196.374 109.07 199.743 107.365C205.246 104.586 211.13 102.548 217.176 101.346C215.715 101.821 214.411 102.766 213.521 104.009C215.471 104.26 217.618 104.838 219.581 104.641C221.266 104.478 222.788 104.213 224.534 104.26C223.916 104.614 223.528 105.313 223.569 106.02C223.569 105.218 236.104 107.44 236.858 107.657C235.941 108.472 235.024 109.294 234.106 110.11C238.081 109.92 242.667 109.994 245.194 113.079C246.41 114.573 246.892 116.51 247.334 118.398C248.217 122.243 249.005 126.157 249.168 130.09L249.148 130.077Z" fill="#1C2134"/>
<path d="M120.616 149.535C119.984 150.33 116.785 148.991 116.785 148.991L111.784 150.887C111.784 150.887 102.395 154.358 100.18 152.116C98.3801 150.296 96.0701 144.752 95.0986 142.551C102.64 141.294 104.501 134.289 105.296 132.543C105.976 132.856 106.526 133.182 106.92 133.501C109.019 135.186 114.447 137.476 114.447 137.476C114.447 137.476 118.605 142.238 119.19 143.461C119.767 144.67 121.241 148.74 120.623 149.535H120.616Z" fill="#FF9670"/>
<path d="M111.482 2.90493C111.676 1.84187 110.63 0.760608 109.146 0.489875C107.662 0.219143 106.302 0.861456 106.108 1.92452C105.914 2.98758 106.96 4.06884 108.444 4.33957C109.927 4.6103 111.288 3.96799 111.482 2.90493Z" fill="#231F1E"/>
<path d="M108.274 84.3754C102.343 96.7265 100.542 109.295 97.4172 112.468C96.0245 113.874 92.4034 116.429 88.2456 118.84C87.4643 118.249 86.6966 117.658 85.9357 117.088C83.8024 115.457 81.7779 113.888 80.0658 112.475C76.9882 109.941 75.018 107.848 74.8617 107.04C74.7395 106.408 74.8414 105.939 74.855 105.334C84.7807 99.8041 86.6354 97.4263 89.1016 91.604C90.2565 88.1188 90.209 86.1757 88.9385 83.3155C88.1165 81.6714 87.0431 80.5029 84.9302 81.1551C83.5646 82.1606 84.047 84.6403 86.221 87.0114C82.3485 88.2682 80.7995 86.9978 79.5563 85.3537C78.3538 83.2204 78.0073 79.3479 78.972 76.8614C80.7588 73.614 82.3214 73.3626 85.0525 72.0989C82.498 68.2876 83.1162 65.0741 84.3731 62.8661C87.7836 62.9545 90.8272 64.4219 91.4183 67.0172C93.2322 62.5265 94.8084 61.8742 97.7705 62.0373C99.0477 62.2411 102.302 64.5442 101.242 69.3135C100.176 67.1462 96.7039 67.221 96.1264 70.5024C95.6576 73.777 100.59 74.9795 102.397 74.5175C104.415 73.9129 104.911 72.9482 105.577 72.0242C106.833 70.285 106.976 69.429 107.445 68.2333C109.191 63.7425 109.177 63.7901 110.013 60.1554C110.074 59.8565 110.353 58.3143 110.4 58.0221C110.923 57.696 111.413 57.2069 111.671 56.7857L114.544 51.1196C116.284 59.3469 115.828 68.6137 108.26 84.3754H108.274Z" fill="#F4A42F"/>
</svg>
