<svg width="36" height="43" viewBox="0 0 36 43" fill="none" xmlns="http://www.w3.org/2000/svg">
<path d="M24.7602 8.72911C24.7602 8.72911 23.3425 9.64529 21.8277 9.64529C20.313 9.64529 18.8675 9.8872 18.4043 10.0913C17.9412 10.2953 17.6644 11.1287 17.6644 11.1287L17.5952 9.84934C17.6987 9.72454 17.8235 9.61749 17.9619 9.55893C18.4564 9.35488 20.009 9.11297 21.6243 9.11297C23.0905 9.11297 24.4739 8.3624 24.7229 8.224L24.7608 8.72911H24.7602Z" fill="#247227"/>
<path d="M24.7225 8.22402C24.4735 8.36242 23.0901 9.11299 21.6238 9.11299C20.0091 9.11299 18.8865 9.37442 18.3915 9.57847C18.2531 9.63703 18.0478 9.69736 17.9443 9.82157L17.4014 6.33252C17.4014 6.33252 20.4101 7.76445 21.6759 7.57755C22.9416 7.3942 24.7018 7.94781 24.7018 7.94781L24.7225 8.22461V8.22402Z" fill="#2F8E36"/>
<path d="M6.31956 11.1672C6.12852 11.095 5.90672 11.0637 5.62518 11.082C4.94914 11.1258 4.31391 11.2956 3.74196 11.6711C3.43026 11.8758 3.1434 12.1301 2.89558 12.4087C2.75895 12.5625 2.63178 12.7251 2.51645 12.8961C2.44251 13.0055 2.34965 13.277 2.24733 13.3485C2.52059 13.1575 2.79384 12.967 3.06769 12.776C2.45671 13.4822 2.08527 14.3747 1.91256 15.2927C1.82857 15.738 1.89127 16.2077 1.69195 16.6134C1.49913 17.0055 1.26195 17.3687 1.05494 17.752C0.876909 18.0802 0.627903 18.3618 0.438043 18.6859C0.698878 18.4742 0.928366 18.2234 1.11645 17.9448C1.08865 18.373 0.82486 18.7433 0.617256 19.1188C0.199091 19.8759 -0.0162017 20.7436 0.000950768 21.6083C0.152366 21.2014 0.281305 20.7868 0.387768 20.3657C0.387177 21.0364 0.238719 21.7367 0.357603 22.395C0.468799 23.0119 0.498372 23.6755 0.238719 24.261C0.325073 24.0659 0.507835 23.9499 0.617848 23.7737C0.72786 23.5974 0.831366 23.3928 0.912988 23.2005C0.976275 23.3738 1.01413 23.556 1.02537 23.7405C1.03246 23.8582 1.05967 24.122 1.00289 24.2255C1.17915 23.9044 1.27437 23.5389 1.27792 23.1721C1.42638 23.5862 1.46187 24.0948 1.49026 24.5319C1.52279 25.0258 1.46601 25.5232 1.35659 26.0047C1.38734 25.8686 1.54999 25.6983 1.61387 25.567C1.68958 25.4108 1.74104 25.2464 1.80965 25.0885C1.94746 24.7715 2.07699 24.4266 2.11898 24.0789C2.14028 23.905 2.21894 23.7536 2.25975 23.5826C2.32777 23.2999 2.52768 21.3498 2.5679 21.0618C2.66254 20.384 2.80567 19.7068 3.05527 19.0674C3.17711 18.7551 3.32498 16.9494 3.50656 16.6672C3.66803 16.417 3.94069 16.1876 3.96494 15.8711C3.93892 16.2047 3.93714 16.5401 3.95962 16.8737C4.17728 16.3638 4.33816 15.8291 4.43752 15.2838C4.53097 14.7722 4.57533 14.2357 4.83262 13.7838C5.10174 13.3113 5.57432 12.8878 6.11373 12.7405C6.36983 12.6707 6.67503 12.6595 6.92995 12.7736C7.22627 12.9061 7.36586 13.2243 7.65213 13.3698C8.24063 13.6691 8.56003 12.8369 8.16611 12.4442C7.9656 12.2443 7.68525 12.1514 7.42678 12.0361C7.34752 12.0006 7.26768 11.9615 7.20971 11.8971C6.90097 11.5534 6.65788 11.2956 6.31897 11.1672H6.31956Z" fill="#282726"/>
<path d="M8.19923 12.4796C8.18918 12.4678 8.17853 12.456 8.16729 12.4447C7.96679 12.2448 7.68643 12.152 7.42796 12.0366C7.34871 12.0011 7.26886 11.9621 7.2109 11.8976C6.99383 11.6563 6.8087 11.4576 6.59991 11.3162C6.51593 11.5706 6.30122 11.7847 6.03921 11.8474C5.92387 11.8752 5.80735 11.8894 5.68965 11.8988C5.32058 11.929 4.945 11.9095 4.59189 12.0839C4.34348 12.207 4.15184 12.4187 3.97855 12.6346C3.42671 13.3225 2.99317 14.1056 2.70394 14.9383C2.8524 14.9431 3.00026 14.9478 3.14872 14.9525C2.99317 15.906 2.54011 16.8086 1.86761 17.5023C2.05037 17.9873 1.66237 18.5143 1.20813 18.7639C1.0437 18.8544 0.868628 18.9236 0.691189 18.9881C0.666348 19.0319 0.640915 19.075 0.617256 19.1182C0.199091 19.8759 -0.0162017 20.7436 0.000950768 21.6083C0.152366 21.2014 0.281305 20.7867 0.387768 20.3656C0.387177 21.0363 0.239311 21.7366 0.357604 22.3949C0.468799 23.0118 0.498372 23.6755 0.238719 24.261C0.325073 24.0658 0.507835 23.9499 0.617848 23.7736C0.72786 23.598 0.831366 23.3927 0.912988 23.2005C0.976275 23.3738 1.01413 23.5566 1.02537 23.7405C1.03246 23.8582 1.05967 24.122 1.00289 24.2255C1.17915 23.9043 1.27437 23.5388 1.27792 23.1721C1.42638 23.5861 1.46187 24.0948 1.49026 24.5325C1.52279 25.0264 1.46601 25.5238 1.35659 26.0052C1.38734 25.8692 1.54999 25.6989 1.61387 25.5675C1.68958 25.4114 1.74104 25.247 1.80965 25.0885C1.94746 24.7714 2.07699 24.4266 2.11898 24.0788C2.14028 23.9049 2.21894 23.7535 2.25975 23.5826C2.32777 23.2999 2.52768 21.3498 2.5679 21.0618C2.66254 20.384 2.80567 19.7067 3.05527 19.0674C3.17711 18.7551 3.32498 16.9493 3.50656 16.6672C3.66803 16.417 3.94069 16.1875 3.96494 15.8711C3.93892 16.2047 3.93714 16.54 3.95962 16.8736C4.17728 16.3638 4.33816 15.8291 4.43752 15.2838C4.53097 14.7721 4.57533 14.2357 4.83262 13.7838C5.10174 13.3112 5.57432 12.8877 6.11373 12.7405C6.36983 12.6707 6.67503 12.6594 6.92995 12.7736C7.22627 12.9061 7.36586 13.2243 7.65213 13.3698C7.72488 13.407 7.79408 13.4266 7.85796 13.4319C8.04131 13.1433 8.17025 12.8168 8.19805 12.479L8.19923 12.4796Z" fill="#191918"/>
<path d="M3.96329 16.2976C4.05497 16.1597 4.1502 16.0184 4.18332 15.8563C4.19219 15.8114 4.20165 15.6883 4.1502 15.6629C4.13955 15.6576 4.12713 15.6564 4.1153 15.6558C4.04906 15.6511 3.97631 15.6463 3.91657 15.6795C3.86629 15.7073 3.83199 15.7404 3.77757 15.7629C3.63976 15.8191 3.54217 15.9444 3.44754 16.0545C3.24585 16.2899 3.06841 18.0501 2.91936 18.3221C2.61712 18.8716 2.42726 19.4832 2.37166 20.1084C2.3344 20.5289 2.3557 20.953 2.32908 21.3741C2.26343 22.4151 1.73348 25.0719 1.38037 26.0537C2.16938 24.9099 2.43081 23.4933 2.65024 22.1205C2.62599 22.2707 2.68869 22.4754 2.68928 22.6321C2.68928 22.8149 2.67627 22.9977 2.65438 23.1798C2.60943 23.5554 2.52249 23.9227 2.4456 24.293C2.74547 23.7334 3.04416 23.2396 3.18611 22.6055C3.32629 21.9774 3.34226 21.3214 3.22396 20.6886C3.39549 20.9985 3.5055 21.3421 3.54631 21.6941C3.58831 21.2079 3.55873 20.7152 3.45878 20.2379C3.34876 19.7133 3.28548 19.1727 3.31387 18.6362C3.33279 18.2807 3.41974 17.9341 3.52384 17.5952C3.59777 17.3539 3.64686 17.099 3.74327 16.8654C3.81839 16.6838 3.85387 16.4638 3.96389 16.2987L3.96329 16.2976Z" fill="#282726"/>
<path d="M14.3268 32.1695C14.2121 32.7361 12.5666 32.3481 12.4631 31.866C12.3679 31.423 12.5258 31.138 12.3827 30.7304H12.3815C12.3703 30.6949 12.3555 30.6577 12.3372 30.6204C12.1189 30.1514 11.7705 27.7755 11.6321 26.9439C11.4949 26.1123 10.2942 23.7103 10.6497 22.9669C11.0064 22.2228 10.2747 19.8895 10.3546 19.3282C10.4326 18.7675 8.59082 17.1806 8.59082 13.0741C8.59082 12.4276 9.91274 10.7324 11.4298 12.9528C12.9458 15.1732 13.0605 15.534 13.1865 17.3876C13.3137 19.2401 13.264 21.2753 12.6891 23.6589C12.6891 23.6589 12.7583 25.5841 12.9878 26.3495C13.2184 27.116 12.8109 28.8153 13.4195 29.9189C13.5692 30.1904 13.7082 30.4312 13.8294 30.647L13.8306 30.6482C14.1997 31.3083 14.4132 31.743 14.3268 32.1701V32.1695Z" fill="#A1A1A1"/>
<path d="M29.0582 32.4996C28.737 33.3424 28.4318 36.8717 28.2248 37.7801C28.0184 38.6886 27.8025 38.0847 27.5014 38.9199C27.4423 39.0843 26.6533 39.6923 26.6533 39.6923C26.6533 39.6923 25.6413 39.7326 25.6093 38.9595C25.5662 37.9055 26.0021 37.8511 26.0021 37.8511C26.0021 37.8511 26.3132 37.8263 26.5498 37.8375C26.6669 37.8434 26.7721 37.8328 26.8449 37.7807C26.8461 37.7807 26.9153 37.8984 26.9153 37.8984C26.9608 37.8653 27.0957 37.7565 27.1081 37.6814C27.1116 37.6589 26.9188 37.4933 27.1235 37.5453C27.2702 37.5826 27.1241 37.3921 27.1081 37.3188C26.9242 36.5008 27.9113 33.9167 27.819 33.5204C27.7268 33.1253 27.1749 32.0157 27.1749 32.0157C27.1749 32.0157 25.3432 30.1816 24.1662 28.2375C23.4824 27.1095 23.2588 25.9432 22.9815 25.0767C22.9335 24.9265 22.885 24.7863 22.8312 24.6567C22.5745 24.0333 22.4006 23.1621 22.2971 22.2229C22.0404 19.883 22.2208 17.1168 22.6479 16.6672C23.2452 16.0356 25.8814 18.3689 27.2146 21.3274C28.5465 24.2859 27.5121 26.8233 27.8108 27.9713C28.1094 29.1193 28.941 31.5112 29.0558 32.5007L29.0582 32.4996Z" fill="#591C0A"/>
<path d="M26.654 39.6917C26.654 39.6917 27.5749 39.2079 27.634 39.0435C27.9351 38.2089 28.2314 38.8075 28.4378 37.8984C28.6448 36.9899 28.798 33.7103 29.1192 32.868C29.1044 32.7385 29.0754 32.5776 29.037 32.3948C28.6744 32.7681 28.1297 32.9662 27.6334 33.004C27.7198 33.2081 27.792 33.398 27.8203 33.5198C27.912 33.9161 26.7356 36.5363 26.9195 37.3543C26.9355 37.4282 26.9432 37.4915 26.9432 37.5453C26.9432 37.5725 26.9408 37.5974 26.9373 37.6204C26.9249 37.6955 26.8917 37.7464 26.8462 37.7795C26.8462 37.7795 26.8462 37.7807 26.845 37.7807C26.7723 37.8328 26.6664 37.8434 26.5499 37.8375C26.3139 37.8262 26.0022 37.8511 26.0022 37.8511C26.0022 37.8511 25.5663 37.9055 25.6095 38.9595C25.6414 39.7331 26.6534 39.6923 26.6534 39.6923L26.654 39.6917Z" fill="#D9D9D9"/>
<path d="M27.9254 31.8259C27.9727 31.7584 28.0473 31.6881 28.023 31.6094C28.0124 31.5757 27.9846 31.5503 27.958 31.5272C27.5682 31.196 27.1246 30.9688 26.7614 30.598C26.3995 30.2283 26.0972 29.7995 25.8736 29.3323C25.8086 29.1968 25.7488 29.0454 25.7831 28.8993C25.8405 28.6521 26.1138 28.4918 26.264 28.3037C26.7041 27.7536 27.1459 27.2006 27.4913 26.5867C27.5439 26.4932 27.5936 26.3974 27.6415 26.301C27.6628 25.5262 27.6628 24.5994 27.4499 23.5578C26.7928 23.6672 26.1333 23.9168 25.6921 24.4136C25.4271 24.7123 25.2591 25.0039 24.9007 25.1962C24.5399 25.3896 24.2229 25.6658 23.9597 25.9775C23.7722 26.1993 23.6113 26.4406 23.4688 26.6937C23.6385 27.1947 23.8544 27.7193 24.1679 28.2363C25.3443 30.1804 27.1766 32.0146 27.1766 32.0146C27.1766 32.0146 27.8633 33.0851 27.9556 33.4802C28.0473 33.8765 26.9253 36.5002 27.1098 37.3176C27.1258 37.3915 26.982 37.5441 27.0359 37.5441C27.1252 37.5441 27.1134 37.6571 27.1098 37.6802C27.0974 37.7553 26.9625 37.8641 26.917 37.8972C26.8442 37.9493 26.668 37.8417 26.5515 37.8363C26.3155 37.8251 26.0038 37.8499 26.0038 37.8499C26.0038 37.8499 25.5679 37.9043 25.611 38.9583C25.643 39.732 26.655 39.6912 26.655 39.6912C26.655 39.6912 27.3369 39.3327 27.564 39.1281C27.4511 39.0299 27.3422 38.9282 27.2518 38.8093C27.1477 38.6733 26.8738 38.5958 26.8762 38.4213C26.8791 38.1859 27.024 38.1161 27.2021 38.0504C27.3144 38.009 27.3275 38.1102 27.36 37.9511C27.3949 37.7784 27.2334 37.705 27.334 37.5234C27.4647 37.288 27.5008 37.2443 27.4665 36.9651C27.4298 36.6682 27.4404 36.3654 27.4966 36.0714C27.5528 35.7792 27.6528 35.4983 27.7397 35.2144C27.8314 34.9133 27.9071 34.6063 27.9858 34.3029C28.0538 34.0397 28.2034 33.7611 28.2235 33.4897C28.2478 33.1502 28.1573 32.8367 27.9988 32.5386C27.8805 32.3168 27.7829 32.0323 27.9278 31.8265L27.9254 31.8259Z" fill="#471505"/>
<path d="M26.6539 39.6917C26.6539 39.6917 27.3358 39.3333 27.563 39.1287C27.45 39.0305 27.3412 38.9288 27.2507 38.8099C27.1466 38.6738 26.9549 38.6111 26.9567 38.4361C26.9597 38.2007 27.1868 38.1504 27.3654 38.0841C27.4778 38.0427 27.4908 38.1439 27.5233 37.9848C27.5582 37.8121 27.3968 37.7387 27.4973 37.5572C27.628 37.3217 27.6641 37.278 27.6298 36.9988C27.5931 36.7019 27.6038 36.3991 27.66 36.1051C27.7161 35.8129 27.8161 35.532 27.903 35.2481C27.9947 34.947 28.0278 34.5998 28.1065 34.2964C28.1745 34.0332 28.3135 33.7671 28.333 33.4956C28.3478 33.2933 28.2094 33.094 28.1521 32.9077C27.9799 32.9591 27.8043 32.9905 27.6339 33.0035C27.7203 33.2075 27.7924 33.3974 27.8208 33.5192C27.9125 33.9155 26.7361 36.5357 26.92 37.3537C26.936 37.4276 26.9437 37.4909 26.9437 37.5447C26.9437 37.5719 26.9413 37.5968 26.9378 37.6198C26.9254 37.695 26.8922 37.7458 26.8467 37.7789C26.8467 37.7789 26.8467 37.7801 26.8455 37.7801C26.7728 37.8322 26.6669 37.8428 26.5504 37.8369C26.3144 37.8257 26.0027 37.8505 26.0027 37.8505C26.0027 37.8505 25.5668 37.9049 25.6099 38.9589C25.6419 39.7326 26.6539 39.6917 26.6539 39.6917Z" fill="#BDBDBD"/>
<path d="M34.6027 22.9906C34.4803 23.0189 34.0858 22.7362 34.0858 22.7362C34.0858 22.7362 34.0858 22.9563 33.7007 22.7427C33.6611 22.7208 33.6179 22.6948 33.57 22.6635C33.0531 22.3228 33.2441 21.9437 33.1578 21.8082C33.0726 21.674 32.5308 20.4035 32.0641 19.9788C31.5975 19.553 30.8818 17.9117 30.7091 17.8265C30.5376 17.7425 30.1933 18.0217 30.0573 18.4659C29.9905 18.6871 29.6131 19.2235 29.1861 19.8174C29.0897 19.9534 28.9897 20.093 28.8898 20.232C28.5514 20.7081 28.2196 21.1836 28.0233 21.5367C27.5998 22.2997 27.5507 22.5623 27.5465 22.8522C27.5442 22.9078 27.5454 22.9633 27.5454 23.0249C27.5454 23.1213 27.5365 23.3336 27.5158 23.6039C27.4543 24.3965 27.8168 26.1649 27.4679 26.5849C27.0225 27.1219 26.2063 27.239 23.0615 25.6232C22.913 25.5469 22.7581 25.4664 22.5995 25.3824C22.58 25.3724 22.5611 25.3617 22.5428 25.3529C21.7047 24.9099 20.9358 24.5396 20.2313 24.209C17.9974 23.1573 16.4199 22.5044 15.3967 21.2416C14.044 19.5719 13.5886 18.4487 12.9628 17.8608C12.7528 17.6644 12.285 17.377 11.7373 17.0043C11.3363 16.7317 10.8933 16.4129 10.4793 16.048C9.76595 15.4234 9.13486 14.6681 8.94264 13.7915C8.48721 11.7084 8.38962 12.3945 9.16266 11.8959C9.93807 11.3996 11.0323 11.0418 14.3882 13.4313C14.3882 13.4313 15.719 15.3193 16.6175 15.9362C17.5159 16.5542 22.2192 15.5825 22.9438 15.3542C23.6695 15.1223 27.5992 13.2373 28.3498 12.8807C29.1003 12.524 30.6482 12.3744 31.2876 12.6719C31.9269 12.9717 32.3824 13.2474 32.9969 14.8171C33.6114 16.3845 32.9401 17.2812 33.518 18.373C34.0958 19.4654 34.6991 21.0713 34.8239 21.8348C34.9452 22.5966 34.7251 22.9639 34.6027 22.9911V22.9906Z" fill="#72301B"/>
<path d="M11.5611 16.2189C11.5611 16.2189 11.6292 16.5223 11.738 17.0038C12.2851 17.377 12.7529 17.6644 12.9623 17.8608C13.5887 18.4481 14.0441 19.5725 15.3968 21.241C16.7489 22.9113 19.0715 23.514 22.5996 25.3819C26.1277 27.2497 27.0007 27.1462 27.468 26.5843C27.8163 26.1644 27.4544 24.3959 27.5153 23.6027C27.5153 23.6027 26.9794 25.4954 25.8834 25.7746C24.788 26.0526 23.2751 24.8974 23.2751 24.8974L21.9798 21.6326C21.9798 21.6326 22.1028 23.5069 22.2229 23.8044C22.3418 24.1013 21.6503 24.0008 21.6503 24.0008C21.6503 24.0008 18.8882 23.8074 16.8471 21.9236C14.8065 20.0398 13.8229 17.9199 13.3556 17.6502C12.8884 17.3805 11.5605 16.2177 11.5605 16.2177L11.5611 16.2189Z" fill="#942F11"/>
<path d="M31.9162 13.206C31.9162 13.206 32.5024 11.7327 32.4888 11.6777C32.3847 11.2707 31.5939 11.9338 31.4052 12.0846C31.2775 12.1869 30.8439 12.5637 30.5784 12.7955C30.4524 12.9055 30.4269 13.0907 30.5168 13.232C30.5748 13.3237 30.6186 13.4461 30.6937 13.4911C31.0178 13.6839 31.2514 13.7082 31.4383 13.5703C31.5986 13.452 31.8967 13.2622 31.9162 13.206Z" fill="#591C0A"/>
<path d="M27.548 26.4678C27.1824 27.3432 24.3588 29.3583 21.8616 30.178C21.5174 30.2916 21.1791 30.3815 20.8556 30.4424C20.8544 30.4424 20.8532 30.4436 20.8508 30.4436C20.7864 30.456 20.7225 30.4661 20.6604 30.4767L20.2322 24.209L19.895 19.278C19.895 19.278 23.4237 20.6294 25.6778 21.5776C25.7434 21.6048 25.8085 21.632 25.8718 21.6592C26.837 22.0691 27.5243 22.3885 27.516 22.4665C27.5101 22.5156 27.5237 22.6528 27.5468 22.8516C27.6402 23.6968 27.894 25.6409 27.548 26.4678Z" fill="#72301B"/>
<path d="M20.6903 17.7715C20.6903 17.7715 21.2008 21.0571 21.6503 22.3133C22.0998 23.5696 22.9485 25.5646 22.9485 25.5646C22.9485 25.5646 22.2453 25.4221 22.0247 25.276C21.8041 25.1299 21.8188 24.856 21.8188 24.856C21.8188 24.856 20.6897 21.6834 20.4437 20.3C20.1976 18.9165 20.1255 17.3699 20.1255 17.3699L20.6897 17.7709L20.6903 17.7715Z" fill="#942F11"/>
<path d="M14.327 32.1694C14.2122 32.7361 12.5668 32.3481 12.4633 31.866C12.368 31.423 12.5259 31.1379 12.3828 30.7304C13.2753 31.2438 13.8638 31.3349 13.8295 30.6464L13.8307 30.6476C14.1998 31.3077 14.4133 31.7424 14.327 32.1694Z" fill="#222021"/>
<path d="M10.3321 11.5333C5.31593 11.1867 5.04149 14.7834 5.04149 14.7834C5.04149 14.7834 3.50546 20.074 7.06548 19.4211C10.6255 18.7681 11.9711 15.6452 11.7102 14.8212C11.4488 13.9979 10.3327 11.5333 10.3327 11.5333H10.3321Z" fill="#72301B"/>
<path d="M8.73412 12.2395C4.29519 11.7776 3.81196 15.2424 3.82852 17.138C3.83858 18.2991 6.55458 20.9808 7.16793 20.9098C10.7634 20.4952 9.24574 17.2185 8.98431 16.3951C8.72289 15.5718 8.73412 12.2395 8.73412 12.2395Z" fill="#72301B"/>
<path d="M33.7011 22.7434C33.6727 23.32 33.3752 23.7358 33.2741 23.7589C33.1516 23.7873 32.7571 23.5034 32.7571 23.5034C32.7571 23.5034 32.7571 23.6785 32.4856 23.5673C32.4212 23.5401 32.3413 23.4969 32.2414 23.4312C31.7244 23.0905 31.5772 22.9066 31.4908 22.7723C31.4056 22.6387 30.5255 21.5616 30.0589 21.1381C29.8353 20.9335 29.3527 20.568 28.8901 20.2332C28.388 19.8677 27.9124 19.5394 27.8225 19.495C27.651 19.4099 27.3068 19.6902 27.1707 20.1344C27.1228 20.2923 26.5793 20.8998 25.8713 21.661C25.7648 21.7769 25.653 21.8964 25.5383 22.0176C24.6618 22.9581 23.6302 24.0452 22.9897 24.7981C22.9832 24.8052 22.9773 24.8117 22.9714 24.8188C22.9589 24.8324 22.9465 24.8472 22.9347 24.8608C22.7732 25.0518 22.6384 25.2198 22.5419 25.3547C22.4887 25.4286 22.4467 25.4919 22.4171 25.5457C21.912 26.4542 21.9381 26.6529 21.9381 27.0332C21.9381 27.1308 21.9292 27.342 21.9085 27.6123C21.847 28.4049 21.6837 29.7078 21.3348 30.1278C21.2141 30.2721 21.068 30.3868 20.8545 30.4448C20.8533 30.4448 20.8521 30.446 20.8498 30.446C20.4523 30.5519 19.8277 30.4631 18.727 30.0113C18.5644 29.9456 18.3928 29.8717 18.2089 29.7877C17.7138 29.5665 17.1377 29.2814 16.4658 28.9259C14.8884 28.0914 13.8853 27.3166 13.1383 26.5648C13.1383 26.5648 13.1371 26.5636 13.1359 26.5636C12.2138 25.6356 11.6785 24.7443 10.9315 23.821C9.58001 22.1525 9.12459 21.0281 8.49763 20.4414C8.28885 20.245 7.81982 19.9576 7.2733 19.5838C6.18324 18.8409 4.78028 19.5589 4.47864 18.1719C4.02321 16.0888 3.92444 14.9739 4.69925 14.4765C5.47348 13.979 6.56769 13.6224 9.92484 16.0119C9.92484 16.0119 10.146 16.0208 10.479 16.0504C11.2172 16.1184 12.5018 16.2934 13.1205 16.7193C14.019 17.3374 16.0855 19.126 16.8107 18.8965C17.5364 18.6646 24.7114 14.9065 25.4626 14.5504C26.2132 14.1937 27.761 14.0429 28.4004 14.3416C29.0398 14.6403 29.4952 14.9177 30.1097 16.4857C30.7243 18.0531 31.6079 18.8663 32.1846 19.9576C32.7624 21.05 33.5568 21.6101 33.6804 22.3731C33.7005 22.5026 33.7064 22.6274 33.7005 22.7457L33.7011 22.7434Z" fill="#72301B"/>
<path d="M31.3363 16.9855C31.5356 17.154 31.7018 17.3646 31.8237 17.6373C31.942 17.8999 32.0076 18.1826 32.0851 18.46C32.2614 19.0911 32.5003 19.705 32.7972 20.2888C32.9457 20.581 33.1083 20.8655 33.2852 21.1417C33.3621 21.2623 33.4336 21.3972 33.5442 21.4847C33.6667 21.5811 33.8246 21.6291 33.9476 21.7272C34.1984 21.9271 34.4971 22.5588 34.3137 22.8711C34.141 23.1651 33.6489 23.1911 33.352 23.2408C32.9179 23.3135 32.3312 23.2201 31.9083 23.1006C31.5877 23.0101 31.192 22.3678 30.9672 22.1265C30.6147 21.7485 30.2628 21.3706 29.9103 20.9932C29.6731 20.7389 29.4265 20.4662 29.3573 20.1256C29.3413 20.0481 29.8937 20.2078 29.9292 20.2226C30.0215 20.2616 30.0936 20.3006 30.1658 20.3604C30.4497 20.5946 30.8111 20.775 31.1258 20.9737C31.1405 20.9832 31.1559 20.9926 31.1737 20.9962C31.2204 21.0062 31.2653 20.9696 31.2902 20.9288C31.3582 20.8193 31.3434 20.6803 31.3263 20.5532C31.2423 19.9233 31.0926 19.3324 30.6615 18.8498C30.29 18.434 29.8801 18.0377 29.6388 17.5355C29.5465 17.3433 29.4791 17.1304 29.5034 16.9186C29.5276 16.7063 29.6595 16.4969 29.8624 16.4301C30.0345 16.3733 30.2214 16.4248 30.3923 16.4851C30.7496 16.6111 31.0719 16.7619 31.3363 16.9855Z" fill="#6B220C"/>
<path d="M21.468 29.1193C19.5735 29.2459 17.5152 29.2359 15.9845 28.1127C15.5687 27.8075 14.0256 27.6229 13.3643 26.6784C12.5303 25.4877 11.5426 23.5939 10.8447 22.3187C10.5276 21.7396 10.4034 21.0157 10.2952 20.3609C10.1745 19.6287 9.71793 18.8693 9.52393 18.1512C9.35655 17.5296 9.11227 16.533 8.39305 15.8611C8.50188 16.3958 8.65271 17.5757 8.44037 18.0661C8.37235 18.2228 7.74008 18.0081 7.68566 18.1702C7.64189 18.3009 7.63835 18.4422 7.64544 18.58C7.6762 19.1768 7.995 19.5991 8.13518 20.1598C8.28955 20.2669 8.41553 20.3603 8.49893 20.4384C9.12588 21.0257 9.5813 22.1501 10.9328 23.818C12.2855 25.4889 12.9396 27.0545 16.4671 28.923C19.0802 30.3052 20.2365 30.6075 20.8511 30.4436C20.8534 30.4436 20.8546 30.4424 20.8558 30.4424C20.9841 30.4075 21.0859 30.3508 21.1746 30.281C21.4313 29.9356 21.578 29.5245 21.4691 29.1182L21.468 29.1193Z" fill="#591C0A"/>
<path d="M32.7898 23.2656C32.7419 23.404 32.6206 23.5075 32.4852 23.5666C32.4201 23.5394 32.3409 23.4963 32.2409 23.4306C31.724 23.0899 31.5767 22.906 31.4904 22.7717C31.4052 22.6374 30.5251 21.561 30.0584 21.1375C29.8349 20.9328 29.3522 20.5673 28.8897 20.2326C28.5514 20.7087 28.2196 21.1842 28.0232 21.5373C27.5997 22.3003 27.5506 22.5629 27.5465 22.8527C27.6399 23.6979 27.8937 25.6421 27.5477 26.4689C27.1821 27.3443 24.3585 29.3594 21.8613 30.1792C22.0133 29.3967 22.2269 28.6254 22.438 27.8553C22.4901 27.669 22.5427 27.4804 22.6279 27.3071C22.9277 26.6955 23.1152 26.0218 23.0738 25.3286C23.2347 25.525 23.4435 25.6811 23.6777 25.7793C23.9397 25.8893 24.2485 25.9236 24.504 25.8C24.6187 25.7444 24.7175 25.6604 24.8003 25.5634C25.044 25.2795 25.1475 24.8809 25.0736 24.5136C24.9683 23.9901 24.5454 23.598 24.1467 23.2425C24.0953 23.197 24.0397 23.1384 24.0503 23.071C24.0616 23.0018 24.1349 22.9639 24.1994 22.9367C24.5075 22.806 24.8133 22.6623 25.0783 22.4588C25.2883 22.2979 25.474 22.0968 25.5929 21.8585C25.7123 21.6189 25.8786 21.4107 26.0075 21.1718C26.2878 20.6537 26.4653 20.0871 26.748 19.5701C26.9757 19.1543 27.4447 18.5682 27.9782 18.7427C28.481 18.9071 28.8595 19.4311 29.186 19.8179C29.3327 19.9918 29.4616 20.1438 29.5663 20.2355C29.7172 20.3686 29.8922 20.4774 30.0253 20.6294C30.1992 20.8293 30.2856 21.0884 30.4204 21.3167C30.5168 21.4794 30.6375 21.6266 30.7569 21.7721C30.9864 22.0513 31.2224 22.3376 31.5383 22.5162C31.8677 22.7013 32.2557 22.7522 32.6354 22.7617C32.5787 22.8888 32.7685 22.9911 32.8016 23.126C32.8141 23.1715 32.8058 23.22 32.7904 23.2656H32.7898Z" fill="#591C0A"/>
<path d="M15.274 24.4805C16.6272 25.4712 17.3595 24.3734 17.3843 23.6826C17.4624 21.4729 17.2512 19.9865 17.7007 18.735C18.2336 17.2522 20.6113 15.6334 22.1048 15.5837L23.5982 15.5346C23.5982 15.5346 20.9325 16.2378 18.5554 15.589C17.2412 15.23 16.0795 13.6886 15.3526 13.2078C14.3341 13.258 11.892 14.0062 10.3944 16.2047C10.1844 16.5129 10.0277 16.8737 9.90998 17.2368C9.55983 18.3222 9.8597 19.5104 10.6682 20.3148C11.2496 20.8932 11.9919 21.6793 12.7218 22.586C13.5019 23.5548 14.5814 23.9736 15.2734 24.4805H15.274Z" fill="#282726"/>
<path d="M18.27 16.1923C18.2581 16.2059 18.2457 16.2189 18.2339 16.2307C18.0399 16.4247 17.7885 16.5483 17.5525 16.6885C17.397 16.7814 17.2461 16.8825 17.0864 16.9689C16.9185 17.06 16.741 17.1339 16.5571 17.1865C16.3844 17.2362 16.0999 17.3155 15.9319 17.2244C15.8006 17.1528 15.664 17.0245 15.548 16.9275C15.4972 16.8855 15.4481 16.8092 15.4031 16.7104C15.1435 16.1497 14.9891 14.8355 15.1583 14.509C15.244 14.3422 15.3481 14.1825 15.4794 14.0482C15.5415 13.9844 15.6178 13.9424 15.6835 13.8844C15.7639 13.8128 15.7769 13.7608 15.8982 13.7537C16.075 13.7436 16.2483 13.7046 16.421 13.6656C16.4755 13.6531 16.5311 13.6407 16.5855 13.6289C16.6068 13.6236 16.6316 13.6188 16.6505 13.6307C16.6677 13.6413 16.6754 13.6614 16.6819 13.6797C16.7505 13.8631 16.8138 14.0683 16.9823 14.1789C17.119 14.2688 17.2432 14.383 17.3686 14.4883C17.7027 14.7704 18.0091 15.1123 18.3628 15.366C18.6384 15.5642 18.4622 15.9734 18.27 16.1917V16.1923Z" fill="#263542"/>
<path d="M16.4866 13.8566C17.116 13.9725 17.7394 14.3475 18.2865 14.6734C18.8963 15.0366 19.4735 15.4506 20.0496 15.8634C20.2265 15.9906 20.0561 16.0698 19.9414 16.1331C19.748 16.2402 19.5646 16.3691 19.3937 16.5087C19.2724 16.6075 19.1683 16.7252 19.0495 16.8251C18.9436 16.9139 18.7916 16.9458 18.6597 16.9913C18.2871 17.1203 17.9251 17.2622 17.5448 17.3693C17.3484 17.4249 17.1473 17.5024 16.9504 17.5485C16.7676 17.5911 16.5162 17.5083 16.3335 17.4763C15.7704 17.3782 15.1736 17.2528 14.6726 16.9665C14.3568 16.7861 14.0628 16.4922 14.1722 16.0988C14.2426 15.8463 14.4485 15.6298 14.6519 15.4742C14.7726 15.382 14.8093 15.3216 14.8589 15.1702C14.9086 15.0182 14.9429 14.8609 14.9607 14.7018C14.9778 14.548 14.9831 14.3824 15.0754 14.2582C15.1375 14.1748 15.2316 14.1222 15.3238 14.0754C15.4687 14.0021 15.6172 13.937 15.7698 13.8814C15.9957 13.7986 16.2418 13.811 16.4872 13.856L16.4866 13.8566Z" fill="#CECECE"/>
<path d="M14.1788 20.879C13.1709 24.342 13.4058 26.5589 14.093 27.4094C14.7188 27.8713 14.9311 28.0156 14.9311 28.0156C14.9311 28.0156 14.1315 27.2018 14.0682 25.7137C14.0055 24.2255 14.1551 22.4843 14.704 21.1227C14.5715 20.329 14.1788 20.879 14.1788 20.879Z" fill="#1E1D1B"/>
<path d="M22.9904 24.7963C22.9881 24.8874 22.9857 24.9814 22.9839 25.0755C22.9644 25.7421 22.9159 26.4725 22.8077 27.1415C22.4693 29.2435 21.0948 32.0258 20.6417 33.1005C20.1644 34.2331 18.6692 38.3686 18.5728 38.7353C18.5184 38.9453 18.7165 40.2643 18.9957 40.9433C19.0365 41.0444 19.237 41.084 19.2879 41.181C19.4943 41.5708 19.7604 41.9375 19.8941 42.3965C19.9858 43.3186 17.6661 43.0246 17.6205 42.5497C17.6158 42.503 17.6128 42.4533 17.6105 42.4018C17.5833 41.9316 17.6205 41.3106 17.6205 41.3106C17.6205 41.3106 17.6093 41.2615 17.5898 41.1799C17.5886 41.1799 17.5886 41.1787 17.5886 41.1787C17.5229 40.9007 17.3692 40.2359 17.2988 39.7479C17.2065 39.1157 17.8305 38.8962 18.1067 37.7103C18.1168 37.666 18.4551 35.1978 18.4669 35.1416C18.5793 34.5975 18.1327 33.398 18.3066 32.2245C18.4113 31.5171 18.3427 30.6311 18.2102 29.7853C17.9719 28.2576 17.5277 26.8576 17.5277 26.8576C17.5277 26.8576 17.6288 25.9296 17.8536 24.8631C18.1321 23.5353 18.6018 21.9945 19.305 21.7627C20.6382 21.3244 21.6786 21.7822 22.2996 22.2217C22.7189 22.518 22.9478 22.8078 22.9478 22.8078C22.9478 22.8078 23.0082 23.682 22.9898 24.7963H22.9904Z" fill="#72301B"/>
<path d="M20.2304 34.1438C19.5934 34.4591 18.5772 34.1172 18.2584 33.3932C18.288 34.1278 18.3933 34.7725 18.3188 35.1333C18.3075 35.1889 17.9142 37.5288 17.9042 37.5731C17.6279 38.759 17.2068 39.1163 17.2991 39.7491C17.3695 40.2377 17.5227 40.9019 17.5889 41.1799C17.5889 41.1799 17.5889 41.1811 17.5901 41.1811C17.6096 41.2627 17.6209 41.3118 17.6209 41.3118C17.6209 41.3118 17.5836 41.9328 17.6108 42.403C17.6132 42.4539 17.6167 42.5042 17.6209 42.5509C17.6664 43.0258 19.9867 43.3198 19.8944 42.3977C19.7602 41.9387 19.4946 41.572 19.2882 41.1822C19.2373 41.0858 19.1894 40.9894 19.1486 40.8883C18.8694 40.2093 18.7748 39.5096 18.8298 39.2996C18.9049 39.0145 19.6366 35.9229 20.2316 34.145L20.2304 34.1438Z" fill="#D9D9D9"/>
<path d="M18.3806 42.3149C18.118 42.3468 17.8613 42.3752 17.6105 42.4024C17.5833 41.9322 17.6206 41.3112 17.6206 41.3112C17.6206 41.3112 17.6093 41.2621 17.5898 41.1805C17.5886 41.1805 17.5886 41.1793 17.5886 41.1793C17.523 40.9013 17.5549 40.1803 17.4845 39.6924C17.3923 39.0601 17.7223 38.8057 17.9985 37.6199C18.0086 37.5755 18.3948 35.2434 18.4066 35.1878C18.519 34.6436 18.1328 33.3986 18.3067 32.2257C18.4114 31.5183 18.3428 30.6323 18.2103 29.7865C17.7152 29.5653 17.1391 29.2802 16.4672 28.9248C14.8898 28.0902 13.8867 27.3154 13.1396 26.5636C14.2528 27.3804 16.9398 28.063 17.0409 26.7706C17.1374 25.5292 17.9246 23.8896 18.1689 23.407C18.0813 23.6069 17.9341 24.0475 17.8542 24.8649C17.8294 25.1181 17.811 25.4067 17.8033 25.7362C17.7714 27.0977 18.4498 28.7006 18.729 30.0107C18.8425 30.54 18.8905 31.0215 18.8005 31.4213C18.4871 32.8113 18.7858 32.6557 18.9165 34.4159C19.046 36.1761 18.0979 38.5331 18.0896 38.9022C18.0825 39.2712 17.8418 39.3499 17.8057 39.9177C17.7702 40.4855 18.1541 40.9114 18.3818 42.3161L18.3806 42.3149Z" fill="#591C0A"/>
<path d="M17.9078 39.871C17.9439 39.3032 18.1474 39.2582 18.1539 38.8891C18.1616 38.5201 19.1398 36.2831 19.0103 34.5229C19.002 34.4076 18.8973 34.1929 18.8873 34.0929C18.617 33.9262 18.3863 33.6837 18.258 33.3932C18.2787 33.9155 18.3378 34.391 18.3437 34.7524C18.3437 34.7595 18.3437 34.766 18.3437 34.7731C18.3449 34.8595 18.3425 34.9387 18.3354 35.0103C18.3349 35.0186 18.3337 35.0269 18.3331 35.0352C18.3289 35.0695 18.3248 35.1026 18.3183 35.1333C18.3071 35.1889 17.9137 37.5288 17.9037 37.5731C17.6275 38.759 17.2063 39.1163 17.2986 39.7491C17.369 40.2377 17.5222 40.9019 17.5884 41.1799C17.5884 41.1799 17.5884 41.1811 17.5896 41.1811C17.6091 41.2627 17.6204 41.3118 17.6204 41.3118C17.6204 41.3118 17.5831 41.9328 17.6103 42.403C17.8611 42.3758 18.1178 42.3474 18.3804 42.3155C18.1533 40.9108 17.8723 40.4399 17.9078 39.8721V39.871Z" fill="#C4C4C4"/>
<path d="M22.3317 14.9331C22.6434 14.9857 22.9687 14.9544 23.2645 14.8426C23.1899 14.871 23.0959 14.9934 23.0155 15.0372C22.9232 15.0874 22.8262 15.133 22.7316 15.1785C22.5068 15.2862 22.2726 15.3725 22.0319 15.4376C21.5409 15.5701 21.0252 15.6115 20.5201 15.5553C20.6484 15.6209 20.7762 15.6872 20.9045 15.7528C20.8755 15.835 20.7685 15.8516 20.681 15.8546C20.3639 15.8652 20.0475 15.8759 19.7305 15.8865C19.7589 15.9113 19.7884 15.935 19.818 15.9587C20.4881 16.4803 21.4368 16.5844 22.2501 16.3266C22.0437 16.5164 21.7935 16.659 21.525 16.7406C21.7728 16.7873 22.0248 16.7134 22.2714 16.6613C22.6109 16.5898 22.9835 16.5809 23.3112 16.4638C23.559 16.3751 23.8145 16.2325 24.0582 16.1219C24.6461 15.854 25.1844 15.4784 25.6362 15.0171C25.3813 15.3642 25.1033 15.6943 24.8046 16.0042C25.4558 15.6919 26.0236 15.2087 26.4359 14.6154C26.5234 14.4889 26.6056 14.357 26.7139 14.2481C27.2314 13.73 28.1322 13.555 28.8337 13.526C28.9898 13.5195 29.1365 13.5467 29.2879 13.5798C29.4198 13.6088 29.5464 13.5745 29.67 13.6537C29.7664 13.7158 29.8368 13.8105 29.8995 13.9069C30.0089 14.0754 30.1012 14.2558 30.1739 14.4433C30.1917 14.2576 30.2171 14.0725 30.2508 13.8885C30.2479 13.9063 30.3443 13.9932 30.3585 14.0098C30.3987 14.0559 30.4389 14.1026 30.4774 14.1506C30.5543 14.2452 30.6264 14.344 30.6891 14.4487C30.7506 14.5522 30.7962 14.6598 30.8346 14.7734C30.8748 14.8911 30.8796 15.0247 30.8961 15.1484C31.0091 14.9437 31.0783 14.7148 31.0978 14.4818C31.2025 14.7048 31.3758 14.8887 31.4994 15.1022C31.6461 15.3566 31.7188 15.6458 31.7898 15.9309C31.7833 15.9054 31.8099 15.8463 31.8153 15.8197C31.8247 15.7753 31.8336 15.7304 31.8419 15.6854C31.8584 15.5955 31.8714 15.5056 31.8821 15.4145C31.901 15.2519 31.927 15.0774 31.901 14.9147C32.0513 15.0999 32.1879 15.2962 32.3085 15.5015C32.3062 15.1294 32.1879 14.768 32.0507 14.422C31.9868 14.2612 31.9182 14.1009 31.8212 13.9577C31.7384 13.8359 31.636 13.7283 31.5195 13.6389C31.5881 13.6419 31.6532 13.6336 31.7194 13.6579C31.8419 13.7022 31.9584 13.762 32.0666 13.8347C32.0802 13.8442 32.0956 13.856 32.1009 13.8708C32.1027 13.8761 32.1039 13.882 32.1027 13.8879C32.1074 13.8625 32.0578 13.7909 32.0459 13.7673C32.0246 13.7241 32.0016 13.6815 31.9785 13.6395C31.9324 13.5567 31.878 13.4834 31.8259 13.4047C31.697 13.2084 31.5804 12.9836 31.4278 12.805C31.0375 12.349 30.5596 12.1088 29.9717 12.003C29.3696 11.8941 28.745 11.8971 28.1328 11.9432C28.4516 12.0361 28.7698 12.1289 29.0886 12.2218C28.0819 12.2348 27.0528 12.2514 26.107 12.5962C26.4223 12.5725 26.7375 12.5483 27.0528 12.5246C26.3531 12.8097 25.6788 13.1522 24.9424 13.3184C24.5888 13.3982 24.2451 13.5254 23.9245 13.6957C24.1316 13.7212 24.3439 13.7046 24.5438 13.6466C24.4255 13.6809 24.2901 13.8051 24.1783 13.8649C24.0523 13.9323 23.9151 13.9867 23.7997 14.0707C23.3319 14.4102 22.909 14.8047 22.3329 14.9325L22.3317 14.9331Z" fill="#282726"/>
<path d="M31.1938 14.3316C31.1453 13.6762 30.4758 13.2734 29.8867 12.983C30.1606 12.9901 30.4326 13.0676 30.6698 13.2054C29.8009 12.5229 28.5583 12.7127 27.4765 12.9363C27.6184 12.6938 27.9006 12.5412 28.1815 12.5542C27.8828 12.4377 27.5835 12.3709 27.2772 12.3194C26.8779 12.3732 26.4846 12.4578 26.1049 12.5962C26.4201 12.5725 26.7354 12.5483 27.0506 12.5246C26.3509 12.8097 25.6767 13.1522 24.9403 13.3184C24.5866 13.3982 24.243 13.5254 23.9224 13.6957C24.1294 13.7212 24.3417 13.7046 24.5416 13.6466C24.4234 13.6809 24.2879 13.8052 24.1761 13.8649C24.0501 13.9323 23.9129 13.9867 23.7976 14.0701C23.3297 14.4096 22.9068 14.8041 22.3308 14.9319C22.6425 14.9845 22.9678 14.9532 23.2635 14.8414C23.189 14.8698 23.0949 14.9922 23.0145 15.036C22.9222 15.0863 22.8252 15.1318 22.7306 15.1774C22.5058 15.285 22.2716 15.3714 22.0309 15.4364C21.54 15.5689 21.0242 15.6103 20.5191 15.5541C20.6474 15.6198 20.7752 15.686 20.9035 15.7517C20.8746 15.8339 20.7675 15.8504 20.68 15.8534C20.363 15.864 20.0465 15.8747 19.7295 15.8853C19.7579 15.9102 19.7875 15.9338 19.817 15.9575C20.4872 16.4792 21.4359 16.5833 22.2491 16.3254C22.0421 16.5152 21.7925 16.6578 21.524 16.7394C21.7718 16.7855 22.0238 16.7122 22.2704 16.6602C22.6099 16.5886 22.9825 16.5797 23.3102 16.4626C23.5586 16.3739 23.8136 16.2313 24.0572 16.1207C24.6446 15.8528 25.1834 15.4772 25.6353 15.0159C25.3803 15.3631 25.1024 15.6931 24.8037 16.003C25.4549 15.6907 26.0227 15.2075 26.4349 14.6143C26.5225 14.4877 26.6047 14.3558 26.7129 14.247C27.2304 13.7289 28.1312 13.5538 28.8327 13.5248C28.9889 13.5183 29.1355 13.5455 29.287 13.5786C29.4189 13.6076 29.5454 13.5733 29.669 13.6526C29.7655 13.7147 29.8358 13.8093 29.8985 13.9057C30.0085 14.0743 30.1002 14.2547 30.173 14.4422C30.1907 14.2564 30.2161 14.0713 30.2499 13.8874C30.2469 13.9051 30.3433 13.9921 30.3575 14.0086C30.3977 14.0548 30.4379 14.1015 30.4764 14.1494C30.5533 14.244 30.6254 14.3428 30.6881 14.4481C30.7496 14.5516 30.7952 14.6592 30.8336 14.7728C30.8739 14.8905 30.8786 15.0242 30.8951 15.1478C31.0081 14.9431 31.0773 14.7142 31.0968 14.4812C31.1193 14.5297 31.1465 14.5752 31.1743 14.6208C31.1921 14.525 31.2003 14.428 31.1932 14.3304L31.1938 14.3316Z" fill="#191918"/>
<path d="M29.1455 14.813C29.1455 14.813 29.8458 13.345 29.6133 13.0215C29.4631 12.8121 28.6498 13.5171 28.5085 13.7123C28.3665 13.9075 27.5402 14.5622 27.4959 14.9378C27.4651 15.1963 28.0069 15.4276 28.2198 15.4536C28.4558 15.4826 28.4836 15.1549 28.6362 15.0277C28.8314 14.8645 29.1218 14.8816 29.1455 14.813Z" fill="#591C0A"/>
<path d="M30.2788 17.5018C30.2788 17.5018 30.6236 17.1664 30.8791 17.3013C31.3896 17.5704 31.334 17.9454 31.334 17.9454C31.334 17.9454 31.0063 18.0016 30.8076 17.9116C30.6029 17.8194 30.3936 17.6585 30.2794 17.5018H30.2788Z" fill="#1E1D1B"/>
<path d="M31.9702 21.6379C31.9702 21.6379 32.7527 23.1479 32.8042 23.2904C32.8556 23.433 32.7575 23.5034 32.7575 23.5034L32.3517 22.7049L31.9708 21.723V21.6385L31.9702 21.6379Z" fill="#050507"/>
<path d="M12.129 15.4483C12.129 15.4483 11.408 15.7807 11.7025 16.2538C11.9977 16.727 12.9813 17.558 13.3912 17.7946C13.8011 18.0312 15.5074 19.8292 15.9664 19.9061C16.4254 19.983 16.413 19.4489 16.413 19.4489C16.413 19.4489 16.688 18.7989 16.7205 18.5168C16.7531 18.2346 16.5732 17.8484 16.5732 17.8484C16.5732 17.8484 15.5896 17.0925 14.8686 16.8642C14.1477 16.6359 12.9328 15.2347 12.7849 15.1868C12.6376 15.1395 12.129 15.4477 12.129 15.4477V15.4483Z" fill="#560607"/>
<path d="M12.6881 19.0668C12.6881 19.0668 12.0487 20.7294 13.4587 21.5622C14.8682 22.395 15.6554 21.3818 15.8193 21.0441C15.9831 20.7063 15.8193 19.5938 15.8193 19.5938L13.5883 17.4947L12.6881 19.0674V19.0668Z" fill="#1E1D1B"/>
<path d="M28.8815 20.507C28.3509 20.4071 27.3667 19.7523 27.3815 18.6238C27.3963 17.5414 27.8973 15.8729 27.9186 15.8025L27.9404 15.7304L28.015 15.7221C28.0268 15.7209 28.3119 15.6913 29.4422 15.7197C30.3944 15.744 32.3374 15.5086 32.8679 14.4481L33.0714 14.5498C32.4918 15.7097 30.5157 15.9746 29.4368 15.9468C28.6283 15.9267 28.2563 15.9368 28.1143 15.9433C28.0156 16.284 27.6211 17.7035 27.6086 18.6268C27.5956 19.608 28.4734 20.1989 28.9235 20.2834L28.8815 20.5064V20.507Z" fill="#1E1D1B"/>
<path d="M30.9413 20.9512C29.9955 19.7996 29.197 18.1832 28.6683 17.1132C28.4198 16.6105 28.1632 16.09 28.0786 16.0302C28.0159 15.9883 27.923 15.9534 27.8237 15.9167C27.6616 15.8564 27.4782 15.7883 27.3576 15.6564C27.2121 15.4973 27.1896 15.2797 27.2902 15.0088L27.5031 15.088C27.4102 15.3371 27.4711 15.4441 27.5256 15.5033C27.609 15.5943 27.7586 15.6499 27.9029 15.7038C28.0147 15.7458 28.1206 15.7848 28.2057 15.8428C28.3317 15.9285 28.5009 16.2633 28.8717 17.0133C29.3958 18.0738 30.1871 19.676 31.1163 20.8075L30.9407 20.9518L30.9413 20.9512Z" fill="#1E1D1B"/>
<path d="M30.6252 21.5184C30.5868 21.4817 29.673 20.6004 29.1034 19.3737C28.5456 18.1731 27.8406 15.9977 27.811 15.9054L28.2434 15.7658C28.2505 15.7883 28.9691 18.0069 29.5156 19.1821C30.048 20.3284 30.931 21.1813 30.9399 21.1895L30.6258 21.5178L30.6252 21.5184Z" fill="#1E1D1B"/>
<path d="M30.6927 21.875L30.481 21.7928L30.5188 21.6952C30.9701 20.5271 31.0198 20.4875 32.2897 20.2828C33.1922 20.1373 33.7926 19.7334 33.9191 19.4098C33.9529 19.3235 33.9481 19.2549 33.9044 19.1993L34.083 19.0591C34.1764 19.178 34.1936 19.3323 34.1303 19.4926C33.9848 19.8647 33.3578 20.3408 32.3251 20.507C31.5397 20.6336 31.008 21.0568 30.73 21.7769L30.6921 21.8744L30.6927 21.875Z" fill="#1E1D1B"/>
<path d="M24.9883 24.2989C24.0272 24.2989 22.9614 24.0718 21.808 23.4602C19.2263 22.0916 18.1812 19.8878 17.3413 18.1163L17.5465 18.0193C18.3716 19.76 19.399 21.9266 21.9145 23.2597C25.2379 25.0211 27.8268 23.4762 29.2179 22.6458C29.5929 22.4222 29.8632 22.2601 30.0554 22.2205C30.8024 22.065 30.8125 21.7089 30.8314 21.0003V20.9879L31.0591 20.9944V21.0068C31.039 21.729 31.0248 22.2507 30.1021 22.4435C29.9472 22.476 29.6769 22.6375 29.3344 22.8416C28.3845 23.4082 26.8917 24.3001 24.9883 24.3001V24.2989Z" fill="#1E1D1B"/>
<path d="M27.6943 15.547C27.6943 15.7564 27.8422 16.0119 28.025 16.1172C28.2077 16.2225 28.3556 16.1385 28.3556 15.9285C28.3556 15.7185 28.2077 15.4636 28.025 15.3583C27.8422 15.253 27.6943 15.3376 27.6943 15.547Z" fill="#C0BFBD"/>
<path d="M3.91572 25.292C3.91572 25.9633 4.5267 29.2997 4.5267 29.547C4.5267 29.7942 4.40072 31.5307 4.42615 31.9542C4.45159 32.3777 4.71952 32.7497 4.71952 32.7497C4.71952 32.7497 4.87567 33.5849 4.84964 33.8475C4.82539 34.1101 5.05311 34.643 5.16726 34.8104C5.28141 34.979 5.54461 35.7059 5.54461 35.7059C5.54461 35.7059 6.87836 35.4983 6.87836 35.2505C6.87836 35.073 6.64474 34.2751 6.40046 33.618C6.30287 33.356 6.10295 33.2537 6.08876 33.2129C6.03789 33.0668 5.99294 32.5185 6.01837 32.2257C6.04381 31.9341 5.84271 31.4036 5.76641 30.9363C5.69011 30.4697 5.77469 28.5882 5.86459 28.3475C5.95331 28.1068 6.3425 27.3379 6.3425 26.857C6.3425 26.3761 6.93988 25.0122 7.04161 24.9247C7.14334 24.8377 7.8945 23.6944 8.09796 23.3295C8.30143 22.9658 8.83079 22.0484 8.8994 21.6894C8.96801 21.3315 8.96446 18.2311 8.2269 16.7542C7.48875 15.2767 5.33228 14.2618 4.63257 14.6462C3.93228 15.0301 3.90803 15.7168 3.90803 15.7168C3.8134 16.8394 3.71167 17.9389 4.12806 20.358C4.26646 21.1636 4.56633 22.822 4.47879 23.3265C4.30372 24.3374 3.9169 24.8431 3.9169 25.2908L3.91572 25.292Z" fill="#72301B"/>
<path d="M6.21463 33.1205C6.16376 32.9745 6.11289 32.4776 6.13833 32.1854C6.16376 31.8944 6.01116 31.3527 5.93486 30.886C5.85856 30.4193 5.8077 28.9146 5.89701 28.6745C5.96444 28.4906 6.1886 27.808 6.29033 27.2816C5.83727 27.7424 4.90276 27.7944 4.03271 26.5458C4.1794 27.7648 4.41125 29.3801 4.41125 29.5499C4.41125 29.7977 4.25865 31.5348 4.28409 31.9583C4.30952 32.3818 4.61472 32.8503 4.61472 32.8503C4.61472 32.8503 4.78092 33.6174 4.7543 33.88C4.73005 34.1426 5.05299 34.6448 5.16714 34.8121C5.2813 34.9807 5.5445 35.7076 5.5445 35.7076C5.5445 35.7076 6.87825 35.5 6.87825 35.2522C6.87825 35.0747 6.64462 34.2769 6.40034 33.6197C6.30275 33.3577 6.22941 33.1625 6.21522 33.1217L6.21463 33.1205Z" fill="#D9D9D9"/>
<path d="M8.43329 17.2806C8.4256 17.3072 8.41732 17.3332 8.412 17.364C8.37533 17.5745 8.47587 17.8413 8.4812 18.056C8.48948 18.4197 8.46345 18.7882 8.45458 19.1526C8.4398 19.7724 8.23988 21.0139 8.12395 21.6231C7.91398 22.7291 6.94398 23.8375 6.32117 24.7762C5.92903 25.3671 5.42688 25.9023 5.24826 26.6062C5.16131 26.9481 5.69304 26.6973 5.67115 27.0374C5.64927 27.3846 5.50022 27.7241 5.34112 28.0287C5.09921 28.4924 5.05958 28.7372 5.04893 29.2666C5.04184 29.6114 5.00871 29.9805 5.06372 30.3164C5.13647 30.763 5.29498 31.1865 5.37897 31.6271C5.46237 32.0654 5.42984 32.512 5.41741 32.9544C5.41091 33.1827 5.71729 34.8837 5.02941 34.4236C4.975 34.6229 4.91408 34.821 4.84961 35.0186C4.97323 35.2936 5.54458 35.7076 5.54458 35.7076C5.54458 35.7076 6.87833 35.5 6.87833 35.2522C6.87833 35.0748 6.6447 34.2769 6.40043 33.6198C6.30284 33.3577 6.10292 33.2554 6.08873 33.2146C6.03786 33.0685 5.99291 32.5202 6.01834 32.2275C6.04378 31.9359 5.94086 31.3953 5.86456 30.928C5.78826 30.4614 5.71019 28.862 5.7995 28.6213C5.88822 28.3806 6.34246 27.3402 6.34246 26.8587C6.34246 26.3773 6.93984 25.014 7.04157 24.9264C7.14331 24.8389 7.89447 23.6962 8.09793 23.3313C8.30139 22.9675 8.81774 22.0478 8.89936 21.6911C9.2643 20.0918 8.93189 18.8604 8.43329 17.2812V17.2806Z" fill="#591C0A"/>
<path d="M6.21481 33.1205C6.16395 32.9745 6.11308 32.4776 6.13851 32.1854C6.16395 31.8939 6.01135 31.3527 5.93505 30.886C5.85875 30.4193 5.80788 28.9146 5.8972 28.6745C5.96462 28.4906 6.18879 27.808 6.29052 27.2816C6.10776 27.4673 5.8481 27.5862 5.54468 27.5809C5.48672 27.7359 5.32643 27.8536 5.25191 27.9961C5.01 28.4598 4.99048 28.7159 4.97983 29.2453C4.97274 29.5901 4.91477 29.9769 4.96978 30.3129C5.04253 30.7594 5.20814 31.1817 5.29213 31.6224C5.37552 32.0601 5.34536 32.5498 5.33235 32.9922C5.32584 33.2205 5.7168 34.8831 5.02893 34.423C4.97451 34.6223 4.91359 34.8204 4.84912 35.018C4.97274 35.293 5.54409 35.707 5.54409 35.707C5.54409 35.707 6.87784 35.4994 6.87784 35.2516C6.87784 35.0742 6.64421 34.2763 6.39994 33.6192C6.30235 33.3571 6.22901 33.1619 6.21481 33.1211V33.1205Z" fill="#C4C4C4"/>
<path d="M4.74188 34.8926C4.64843 35.1162 4.8306 35.4397 5.54391 35.7058C6.33529 36.0016 6.87766 35.4982 6.87766 35.2504C6.87766 35.073 6.64403 34.2751 6.39976 33.618C6.39976 33.618 6.23178 34.1385 5.42384 34.1042C4.93825 34.0835 4.75431 33.8788 4.75431 33.8788C4.73006 34.1414 4.81996 34.7057 4.74188 34.8926Z" fill="#222021"/>
<path d="M32.4772 21.6379C32.0159 21.4965 31.9307 22.0082 31.7816 22.5334C31.6326 23.0586 31.742 23.1012 31.9709 23.3425C32.2004 23.5838 32.4464 23.7299 33.0876 23.6832C33.7287 23.6365 34.3651 22.7392 34.3651 22.7392L32.4772 21.6379Z" fill="#471505"/>
<path d="M33.2094 23.7577C33.9972 23.6731 34.5763 23.0965 34.7939 22.8741C35.0116 22.6517 35.0784 22.476 35.0027 21.7426C34.927 21.0092 34.4964 20.6064 34.4248 20.4538C34.5236 20.7667 34.468 20.8838 34.2752 21.0115C33.4673 21.5462 32.9663 21.3516 32.557 21.2854C32.1477 21.2192 31.8756 21.1707 31.6899 21.593C31.5036 22.0153 32.1246 22.34 32.2335 22.6807C32.3423 23.0213 32.5996 23.6867 33.2094 23.7583V23.7577Z" fill="#471505"/>
<path d="M33.4615 22.2258C33.5821 22.1424 33.7418 22.2524 33.7046 22.3938C33.6862 22.463 33.6655 22.5488 33.6413 22.6523C33.6159 22.7629 33.8004 22.9374 33.8045 23.0154C33.8158 23.2266 33.7223 23.255 33.5816 23.2621C33.3562 23.2733 32.9422 22.9155 32.9936 22.7806C33.0285 22.6889 33.235 22.3826 33.4615 22.2258Z" fill="#1E1D1B"/>
<path d="M19.8942 42.3959C19.9859 43.318 17.6661 43.024 17.6206 42.5491C17.5751 42.0741 17.6206 41.31 17.6206 41.31C17.6206 41.31 17.6094 41.2609 17.5898 41.1793C17.8625 41.6371 19.0762 41.4679 19.2879 41.1804C19.4944 41.5702 19.7605 41.9369 19.8942 42.3959Z" fill="#222021"/>
<path d="M26.938 37.6192C26.9415 37.5968 26.9439 37.5713 26.9439 37.5441C26.964 37.55 26.9611 37.5713 26.938 37.6192Z" fill="#222021"/>
<path d="M27.6339 39.0429C27.5748 39.2073 26.6539 39.6912 26.6539 39.6912C26.6539 39.6912 25.6419 39.7314 25.6099 38.9583C25.5668 37.9043 26.0027 37.8499 26.0027 37.8499C26.0027 37.8499 26.3138 37.8251 26.5504 37.8363C26.6675 37.8422 26.7728 37.8316 26.8455 37.7795C26.564 38.2634 27.0082 39.0808 27.6339 39.0429Z" fill="#222021"/>
<path d="M12.9588 26.4163C12.8872 26.3519 12.8269 26.2868 12.7808 26.2235C12.8535 26.2803 12.9138 26.3442 12.9588 26.4163Z" fill="#9A4025"/>
<path d="M18.2351 23.2739C18.2286 23.2875 18.2091 23.3247 18.1807 23.3809C18.2067 23.3218 18.2274 23.2875 18.2351 23.2739Z" fill="#9A4025"/>
<path d="M16.3373 19.7659C16.5555 19.5103 16.7732 19.2548 16.9914 18.9993C17.2623 18.6817 17.6237 18.4688 17.878 18.1512C18.1956 17.7543 18.5884 17.4006 18.9397 17.0333C19.0077 16.9623 19.0781 16.8896 19.1668 16.8476C19.1964 16.8334 19.2307 16.8204 19.2437 16.7902C19.2632 16.7441 19.2189 16.6962 19.1769 16.669C18.7806 16.4087 18.3914 16.5909 18.0028 16.7435C17.713 16.8576 17.4226 16.9712 17.1328 17.0853C17.0216 17.1291 16.8997 17.1818 16.8483 17.29C16.5384 17.0061 15.2762 16.0769 14.9686 15.7906C14.6327 15.4777 14.4523 14.9993 14.0501 14.7775C13.9436 14.7189 13.8218 14.6781 13.7437 14.5852C13.6887 14.5202 13.6621 14.4368 13.6213 14.3622C13.545 14.2221 13.3906 14.0488 13.2191 14.1038C13.0464 14.1594 12.8595 14.335 12.6992 14.4267C12.4295 14.5811 12.1426 14.6964 11.8835 14.8573C11.6505 15.0022 11.3571 15.0324 11.1395 15.2033C10.8136 15.4594 10.8065 15.9444 10.8562 16.3561C10.9195 16.8771 11.0271 17.3935 11.1779 17.8962C11.2826 18.2452 11.492 18.5327 11.6115 18.8692C11.7552 19.2738 12.6862 20.488 12.8328 20.8908C12.8825 21.028 12.944 21.1641 13.0422 21.2729C13.2486 21.5024 13.5994 21.6432 13.8945 21.5675C14.276 21.4699 14.6575 21.3717 15.039 21.2741C15.1342 21.2498 15.2306 21.225 15.314 21.1735C15.3868 21.1292 15.4465 21.0665 15.5039 21.0032C15.6695 20.8204 15.7156 20.6217 15.8144 20.4106C15.9203 20.184 16.1592 19.9758 16.3219 19.786C16.3272 19.7801 16.3325 19.7735 16.3379 19.7676L16.3373 19.7659Z" fill="#191918"/>
<path d="M13.487 26.8806C13.4829 26.8818 13.4782 26.8824 13.474 26.8836C13.4172 26.8972 13.3055 26.9297 13.2966 26.9983C13.2889 27.0569 13.348 27.1633 13.367 27.2189C13.3936 27.2976 13.422 27.3757 13.4539 27.4531C13.474 27.5022 13.4935 27.5862 13.5344 27.6235C13.5846 27.6702 13.6787 27.6519 13.7414 27.6507C13.8336 27.6489 13.9259 27.643 14.0182 27.6341C14.1974 27.6164 14.3754 27.5856 14.5505 27.5413C14.5948 27.53 14.6422 27.5153 14.667 27.4774C14.7498 27.3502 14.5558 27.216 14.4807 27.1426C14.3979 27.061 14.2879 26.9019 14.1779 26.8723C14.0566 26.8404 13.9022 26.8599 13.7774 26.8599C13.6799 26.8599 13.5817 26.8599 13.4864 26.8806H13.487Z" fill="#B1B1B1"/>
<path d="M15.247 27.5986C15.3239 27.5223 15.7675 26.6127 15.7675 26.6127L15.5877 26.0567L15.5073 26.1608V26.6245L14.9282 27.4159L15.2476 27.5992L15.247 27.5986Z" fill="#B1B1B1"/>
<path d="M13.3062 25.3523C13.3062 25.3523 13.0903 25.3795 13.0336 25.4741C12.9774 25.5688 12.8958 25.7639 12.9017 25.8207C12.9076 25.8775 13.0211 26.1537 13.1241 26.2614C13.227 26.369 13.3825 26.7156 13.3979 26.783C13.4133 26.8505 13.5641 27.4076 13.7634 27.6755C13.9628 27.9435 14.32 28.2096 14.7636 28.3581C15.2072 28.5066 15.4325 28.3528 15.4325 28.3528C15.4325 28.3528 15.6141 28.2439 15.5627 28.0121C15.5112 27.7802 13.1323 25.7917 13.3074 25.3517L13.3062 25.3523Z" fill="#000002"/>
<path d="M15.0642 25.968C15.0642 25.968 15.192 26.6399 15.2494 26.812C15.3067 26.9847 15.6172 27.6436 15.5853 27.8713C15.5534 28.099 15.496 28.3031 15.124 28.2912C14.7519 28.2794 14.2669 28.0056 14.015 27.6974C13.7624 27.3892 13.5779 26.8321 13.5708 26.7611C13.5637 26.6901 13.2437 25.8763 13.2301 25.8574C13.2165 25.8384 13.0698 25.5226 13.0952 25.4569C13.1201 25.3913 13.4022 24.9027 13.6264 24.9607C13.8505 25.0187 15.0642 25.9674 15.0642 25.9674V25.968Z" fill="#2D1610"/>
<path d="M15.8819 24.0741C15.4188 24.966 15.1349 26.0354 15.1349 26.0354C15.1349 26.0354 14.7906 26.3288 14.1513 26.0993C13.9549 26.0283 13.8106 25.9266 13.7047 25.8201C13.4664 25.5806 13.4232 25.315 13.4232 25.315C13.4232 25.315 14.1182 23.6347 14.3618 22.8516C14.6061 22.0679 14.9101 21.2404 14.9101 21.2404C14.9101 21.2404 14.5759 20.8134 13.5515 19.3666C12.5277 17.9205 11.5051 16.8778 11.3897 16.116C11.2992 15.5204 11.776 14.0157 11.9587 13.7732C12.0013 13.7164 12.4727 13.8725 12.4727 13.8725L15.3567 14.1251C15.3567 14.1251 15.5868 14.7266 15.8943 15.0596C16.2013 15.392 16.2267 15.9811 16.2013 16.1467C16.1759 16.3135 15.8003 16.5667 15.8003 16.6944C15.8003 16.8222 16.3639 18.124 16.5822 18.6232C16.7993 19.1224 17.1949 20.4413 17.2358 20.7459C17.3375 21.5137 16.345 23.1822 15.8819 24.0741Z" fill="#F0F0F0"/>
<path d="M15.3933 20.963C14.5606 20.6413 12.5543 17.5751 12.1947 16.9582C11.8351 16.3419 11.854 15.3411 12.4786 14.0914C12.4786 14.0914 12.2118 14.0872 11.7872 14.1393C11.579 14.6894 11.3211 15.6641 11.3897 16.116C11.505 16.8778 12.5277 17.9205 13.5515 19.3667C14.5759 20.8134 14.9101 21.2404 14.9101 21.2404C14.9101 21.2404 14.6061 22.0679 14.3618 22.8516C14.3399 22.9214 14.3145 22.9988 14.2861 23.0816C14.4582 23.026 14.5712 22.9166 14.5795 22.7256C14.6173 21.8195 15.5637 21.5308 15.3933 20.963Z" fill="#B8B8B8"/>
<path d="M14.5913 22.1471C14.5913 22.1471 14.4038 22.1926 14.3399 22.2766C14.2761 22.3606 13.5367 24.8424 13.503 25.0222C13.4699 25.2014 13.2717 25.435 13.296 25.5805C13.3202 25.726 14.056 26.3565 14.2997 26.3968C14.5434 26.437 15.1431 26.3636 15.1431 26.3636C15.1431 26.3636 15.5932 25.0323 15.8588 24.303C16.125 23.5737 16.3864 23.2792 16.3941 23.2407C16.4018 23.2023 16.4367 23.0331 16.4367 23.0331C16.4367 23.0331 15.928 23.4779 15.1934 22.9882C14.4594 22.499 14.5913 22.1477 14.5913 22.1477V22.1471Z" fill="#2D1610"/>
<path d="M15.0526 25.6711C14.6303 25.6522 14.0081 25.6303 13.7236 25.9804C13.4391 26.3306 13.3055 26.8901 13.3149 27.0238C13.3244 27.1568 13.671 27.5283 13.671 27.5283L13.6651 26.8925C13.6651 26.8925 13.949 26.0786 13.9963 26.0407C14.0436 26.0029 15.1124 25.981 15.1124 25.981C15.1124 25.981 15.4063 26.1827 15.4347 26.2963C15.4631 26.4098 15.4347 26.7032 15.4347 26.7032L15.6086 26.8865C15.6086 26.8865 15.6098 26.1419 15.5879 26.0567C15.5654 25.9715 15.0532 25.6711 15.0532 25.6711H15.0526Z" fill="#A1A1A1"/>
<path d="M17.9442 9.82158C17.8856 10.1883 17.8164 10.5686 17.7366 10.9418V10.9489C17.4497 12.301 17.0659 13.5803 16.9411 13.9819C16.9168 14.0647 16.9032 14.1097 16.9032 14.1097C16.9032 14.1097 16.7577 14.2309 16.6199 14.3415C16.5193 14.4243 16.4265 14.5006 16.3987 14.5107C16.1603 14.6284 15.9249 14.7183 15.6895 14.7875C15.6203 14.8082 15.5547 14.8254 15.489 14.8396C15.3542 14.8739 15.2229 14.8981 15.0916 14.9159C15.036 14.9265 14.9774 14.933 14.9224 14.9401C14.7083 14.9644 14.4971 14.9715 14.2966 14.9644H14.2931C13.5774 14.9508 12.951 14.7775 12.4915 14.6047C12.4637 14.5941 12.4394 14.5876 12.4152 14.5769H12.4116C12.3667 14.5598 12.3253 14.5391 12.2839 14.5213C12.2289 14.5006 12.1804 14.4764 12.1319 14.4557H12.1283C11.945 14.3729 11.8137 14.3001 11.7445 14.2587C11.7102 14.2416 11.6895 14.2274 11.6895 14.2274C11.6895 14.2274 11.7102 14.0647 11.7445 13.7643C11.7581 13.7749 11.7723 13.7779 11.7894 13.785C11.8308 13.8021 11.8722 13.8228 11.9172 13.8406H11.9207C11.945 13.8512 11.9692 13.8577 11.997 13.8684C12.4572 14.0411 13.0829 14.2144 13.7986 14.228H13.8022C14.0027 14.2351 14.2138 14.228 14.4279 14.2037C14.4835 14.1966 14.5421 14.1901 14.5971 14.1795C14.7284 14.1623 14.8597 14.1381 14.9946 14.1032C15.0602 14.0896 15.1259 14.0718 15.1951 14.0511C15.4305 13.9819 15.6653 13.892 15.9042 13.7743C15.932 13.7637 16.0255 13.688 16.1254 13.6052C16.2638 13.4946 16.3561 13.3863 16.3561 13.3863C16.3561 13.3863 16.4229 13.329 16.4472 13.2456C16.5714 12.8445 16.9553 11.5646 17.2427 10.2125V10.2054C17.322 9.83222 17.3912 9.45132 17.4503 9.0852C17.5923 8.15483 17.6372 7.30076 17.461 6.80274C17.416 6.67794 17.3782 6.49518 17.3297 6.31183C17.3575 6.31538 17.3782 6.32247 17.4024 6.33253C17.4048 6.3349 17.4071 6.33608 17.4095 6.33608C17.7827 6.50228 17.8383 7.20731 17.956 7.53971C18.1323 8.03772 18.0873 8.89179 17.9454 9.82217L17.9442 9.82158Z" fill="#2F8E36"/>
<path d="M17.4497 9.08521C17.3912 9.45192 17.322 9.83223 17.2421 10.2054V10.2125C16.9553 11.5646 16.5714 12.844 16.4466 13.2456C16.4223 13.3284 16.3555 13.3863 16.3555 13.3863C16.3555 13.3863 16.2632 13.4946 16.1248 13.6052C16.0243 13.688 15.9013 13.7791 15.8735 13.7891C15.6351 13.9068 15.4299 13.9819 15.1945 14.0511C15.1253 14.0718 15.0596 14.089 14.994 14.1032C14.8591 14.1375 14.7278 14.1617 14.5965 14.1795C14.5415 14.1901 14.4823 14.1966 14.4273 14.2037C14.2132 14.228 14.0021 14.2351 13.8016 14.228H13.798C13.0824 14.2144 12.456 14.0411 11.9964 13.8684C11.9686 13.8577 11.9444 13.8512 11.9201 13.8406H11.9166C11.8716 13.8234 11.8302 13.8027 11.7888 13.785C11.7717 13.7779 11.7575 13.7743 11.7439 13.7643C11.7545 13.6779 11.7646 13.5774 11.7788 13.4668C11.8202 13.0965 11.8722 12.6021 11.9308 12.0076C11.9308 11.9905 11.9343 11.9733 11.9343 11.9556C11.9864 11.4162 12.0414 10.7969 12.097 10.1126C12.1041 10.0298 12.0763 9.85648 12.0349 9.64237L12.9859 9.52112L13.0865 9.33067C13.0865 9.33067 13.2349 9.15796 13.1178 8.55585C13.09 8.421 13.0108 8.29324 12.9037 8.17554L12.8103 8.1442L12.6683 8.2755L12.0491 8.83917L11.8864 8.98762C11.8758 8.94622 11.8657 8.90482 11.8586 8.86342C11.7723 8.49316 11.696 8.1442 11.6895 7.97799C11.6895 7.93659 11.6895 7.90879 11.6966 7.89164C11.7309 7.80174 11.835 7.69823 11.9905 7.58704C12.0112 7.57639 12.0219 7.56988 12.0219 7.56988C12.5063 7.23452 13.4224 6.85421 14.1346 6.60166C14.2801 6.54961 14.4149 6.50466 14.5356 6.4668H14.5391C14.5563 6.45971 14.5734 6.45616 14.5876 6.44965C14.6432 6.4325 14.6947 6.4183 14.7432 6.40115C14.7674 6.3976 14.7917 6.3905 14.8159 6.384C14.8502 6.37335 14.8816 6.36685 14.9129 6.3633C14.9786 6.3426 15.0407 6.32899 15.1034 6.31835C15.169 6.30119 15.2347 6.287 15.2968 6.28049C15.9368 6.16634 16.5383 6.18704 17.2853 6.30119C17.2924 6.30119 17.2989 6.30474 17.306 6.30474C17.3166 6.30829 17.3231 6.30829 17.3302 6.31184C17.3787 6.49519 17.4166 6.67855 17.4615 6.80276C17.6378 7.30077 17.5929 8.15484 17.4509 9.08521H17.4497Z" fill="#44B74F"/>
<path d="M12.9299 11.8272C12.591 11.8964 12.287 11.9514 12.0138 11.9934C11.986 11.997 11.9588 12.004 11.931 12.007C11.388 12.0863 10.9728 12.1141 10.6339 12.104H10.5889C10.153 12.0869 9.85256 12.007 9.58581 11.8863H9.58226C9.50596 11.855 9.4338 11.8171 9.36105 11.7793C9.2262 11.7101 9.09489 11.6308 8.94939 11.551C8.94584 11.5474 8.9423 11.5474 8.93875 11.5439C8.11898 11.0808 8.61048 10.4059 8.94939 9.82155C9.2676 9.27503 11.6885 7.77449 11.9889 7.58759C12.0096 7.57694 12.0203 7.57043 12.0203 7.57043C12.0203 7.57043 12.5768 7.81944 12.9021 8.1755L12.8087 8.14415L11.8854 8.98817L11.0349 9.76654L12.0345 9.64233L12.9855 9.52108C12.9855 9.52108 13.0719 9.51753 13.276 9.50393C13.3416 9.49683 13.4215 9.49033 13.5179 9.48323C14.6209 9.38978 15.0705 9.71863 15.1154 9.75649L15.119 9.76003L15.0639 10.6005L15.0604 10.6561C15.0604 10.6561 15.6761 11.2754 12.9299 11.8284V11.8272Z" fill="#2F8E36"/>
<path d="M12.4489 5.9244C12.4489 5.9244 12.4335 5.18388 12.7269 5.15313C13.0202 5.12237 13.4514 5.49263 13.6064 5.39977L13.7613 5.30691C13.7613 5.30691 13.9612 5.55414 13.6838 5.7854C13.4059 6.01666 12.9741 6.03323 12.8659 6.02495C12.7576 6.01666 12.4495 5.9238 12.4495 5.9238L12.4489 5.9244Z" fill="#BC2C0F"/>
<path d="M13.1972 6.95358C13.1972 6.95358 12.6626 6.44078 12.8483 6.21188C13.034 5.98298 13.6006 5.93981 13.645 5.76473L13.6887 5.58966C13.6887 5.58966 14.0046 5.62278 13.9721 5.98298C13.9395 6.34319 13.6456 6.66021 13.5634 6.73059C13.4811 6.80098 13.1972 6.95417 13.1972 6.95417V6.95358Z" fill="#BC2C0F"/>
<path d="M19.8945 1.71436L16.3066 9.98775L21.5488 15.89" stroke="#FF6D00" stroke-width="0.295732" stroke-miterlimit="10"/>
<path d="M15.1113 10.7354C15.1113 10.7354 16.603 11.1222 16.6875 10.8992C16.7721 10.6763 17.0951 9.51581 16.6875 9.35256C16.28 9.18873 15.1077 9.76067 15.1077 9.76067C15.0663 9.86359 15.0042 10.0552 15.0149 10.3001C15.0232 10.4911 15.0723 10.642 15.1113 10.736V10.7354Z" fill="#FF9670"/>
<path d="M14.3853 6.81931V7.28243C14.3853 7.28243 15.2878 8.05784 15.6812 7.97681C16.0745 7.89578 16.3063 7.2706 16.3063 7.2706L15.1607 6.59929L14.5934 6.33313L14.3853 6.81931Z" fill="#FF9670"/>
<path d="M17.6488 5.00234V5.42997C17.6488 5.42997 17.4874 5.4418 17.3135 6.19414C17.1402 6.94648 16.4908 7.53736 16.3056 7.53736C16.2843 7.53736 16.2489 7.52139 16.2021 7.49477C15.8538 7.29072 15.1002 6.68033 15.1002 6.68033L15.0967 4.8527L15.5604 4.69774L15.8106 4.61316L17.6488 5.00234Z" fill="#FF9670"/>
<path d="M16.2025 7.49531C16.1085 7.56688 16.0304 7.60533 15.9825 7.60533C15.7986 7.60533 14.5825 6.48332 14.5825 6.48332L14.773 4.92067L15.4869 4.68231L15.5596 4.69828L15.0959 4.85325L14.9055 6.41471C14.9055 6.41471 15.8536 7.29126 16.2019 7.49531H16.2025Z" fill="#D87F64"/>
<path d="M13.812 5.89012L14.2461 6.8548C14.2461 6.8548 14.2911 6.96718 14.5005 6.95416C15.2528 6.90685 15.322 6.13735 15.322 6.13735C15.322 6.13735 15.0328 5.81323 15.1949 5.63993C15.3569 5.46663 15.5651 5.58966 15.5651 5.58966L15.8094 5.08336L15.7355 4.92249H14.3384L13.812 5.89071V5.89012Z" fill="#1E1D1B"/>
<path d="M17.7088 5.27735C17.7088 5.27735 17.4947 5.17029 17.0895 5.10464V5.10109C16.8299 5.05969 16.4916 5.03189 16.0835 5.05614H16.0799C15.6718 5.08394 15.1945 5.16674 14.6551 5.33945C13.8288 5.60206 13.8075 5.89306 13.8075 5.92027C13.8004 5.88892 13.7732 5.70261 13.7661 5.43941V5.39091C13.8732 5.2667 14.0914 5.1076 14.5409 4.95145C15.101 4.761 15.5955 4.66814 16.0178 4.63679H16.0214C16.4295 4.60899 16.7719 4.63679 17.0345 4.68174C17.0452 4.68174 17.0552 4.68174 17.0659 4.68529V4.68884C17.4013 4.7474 17.6089 4.8373 17.6816 4.86865C17.7159 5.11055 17.7094 5.27676 17.7094 5.27676L17.7088 5.27735Z" fill="#BC2C0F"/>
<path d="M17.0658 4.68941V4.68586C17.0551 4.68231 17.0451 4.68231 17.0344 4.68231C17.0273 4.64446 17.0173 4.60601 17.0066 4.56816C16.996 4.5303 16.9859 4.49186 16.9723 4.45046C16.9481 4.3641 16.9138 4.27775 16.8753 4.18785C16.8617 4.1636 16.8511 4.1358 16.8375 4.11155C16.7925 4.02164 16.7369 3.92819 16.6748 3.84184C16.647 3.80399 16.6198 3.76554 16.5849 3.73124C16.5536 3.69338 16.5193 3.65849 16.4814 3.62063C16.4158 3.55498 16.3465 3.49642 16.2673 3.44438C16.2152 3.41007 16.1638 3.37517 16.1082 3.34738C16.0526 3.31603 15.994 3.28882 15.9284 3.26457C15.8763 3.24387 15.8249 3.22317 15.7657 3.20897C15.7072 3.18827 15.6409 3.17467 15.5753 3.16047C15.5096 3.14628 15.4404 3.13622 15.3677 3.12913C15.4298 3.12203 15.4954 3.11848 15.5646 3.11552C16.0177 3.10192 16.3738 3.17763 16.6541 3.30893C17.3976 3.66144 17.6188 4.40491 17.6815 4.86862C17.6087 4.83727 17.4011 4.74737 17.0658 4.68882V4.68941Z" fill="#BC2C0F"/>
<path d="M17.0346 4.6829C16.772 4.63795 16.4295 4.61015 16.0214 4.63795H16.0179C15.5962 4.6693 15.1017 4.76216 14.541 4.95261C14.0915 5.10817 13.8738 5.26727 13.7662 5.39207C13.749 4.62435 13.9324 3.28941 15.3673 3.13031C15.44 3.13741 15.5092 3.14746 15.5749 3.16166C15.6405 3.17585 15.7062 3.18946 15.7653 3.21016C15.8239 3.22376 15.8759 3.24446 15.928 3.26576C15.9936 3.29001 16.0522 3.3178 16.1078 3.34856C16.1628 3.37636 16.2148 3.41066 16.2669 3.44556C16.3461 3.50116 16.4189 3.55971 16.481 3.62182C16.5188 3.65967 16.5537 3.69457 16.5845 3.73242C16.6158 3.76673 16.6466 3.80517 16.6744 3.84302C16.7365 3.92938 16.7921 4.02283 16.837 4.11273C16.8507 4.14053 16.8613 4.16478 16.8749 4.18903C16.9128 4.27893 16.9477 4.36529 16.9719 4.45164C16.9855 4.48949 16.9962 4.53149 17.0062 4.56934C17.0163 4.6072 17.0269 4.64564 17.034 4.68349L17.0346 4.6829Z" fill="#E5461C"/>
<path d="M13.0854 9.33064L12.9848 9.52109L12.0338 9.64234L11.0342 9.76655L11.8847 8.98818L12.808 8.14417L12.9014 8.17551C13.0085 8.29321 13.0883 8.42097 13.1155 8.55582C13.2332 9.15734 13.0842 9.33064 13.0842 9.33064H13.0854Z" fill="#247227"/>
<path d="M24.3018 3.59461C23.1118 2.47023 21.545 1.77586 19.9593 1.65401C19.7848 1.49905 19.5713 1.25773 19.7469 1.12525C20.4667 0.581099 19.379 -0.400731 19.049 0.324404C18.3061 1.95625 19.3193 1.96039 19.851 1.86812C21.3705 2.24489 22.7397 3.03153 23.7695 4.13047C27.2709 7.80997 25.9419 13.6513 21.5491 15.8894C21.0606 15.7841 19.8552 15.6735 20.6471 17.4142C20.9772 18.1393 22.0649 17.1575 21.3451 16.6133C21.1966 16.5009 21.3273 16.3111 21.477 16.1609C23.0231 15.6989 24.4242 14.6692 25.3576 13.2952C27.449 10.3793 26.9829 5.99713 24.3024 3.59402L24.3018 3.59461Z" fill="#FFCB00"/>
<path d="M19.4215 1.80011C19.4594 1.81076 19.4943 1.81726 19.5321 1.83146C19.4529 1.83501 19.3766 1.82791 19.3003 1.8143C19.3417 1.8143 19.3831 1.80721 19.4215 1.8007V1.80011Z" fill="#FFCB00"/>
<path d="M21.12 15.8225C21.0579 15.8089 20.9851 15.7947 20.9023 15.7882C21.0029 15.7711 21.1099 15.7675 21.2135 15.7746C21.1821 15.7918 21.1513 15.806 21.12 15.8231V15.8225Z" fill="#FFCB00"/>
<path d="M25.356 13.229C24.4256 14.6018 23.0215 15.6327 21.476 16.0922C21.3276 16.2442 21.1957 16.4347 21.3447 16.5453C21.974 17.0226 21.2205 17.8353 20.7982 17.5413C21.12 17.3722 21.3548 16.8771 20.9159 16.5453C20.7674 16.4347 20.8987 16.2442 21.0472 16.0922C22.5933 15.6321 23.9933 14.6018 24.9272 13.229C27.0192 10.3136 26.5526 5.92852 23.8726 3.52541C22.6832 2.40162 21.1164 1.70961 19.5289 1.5854C19.3562 1.42985 19.1415 1.1909 19.3178 1.05604C19.7537 0.727782 19.5254 0.236276 19.2036 0.0600193C19.6253 -0.226841 20.3759 0.582282 19.7466 1.05604C19.5703 1.1909 19.7844 1.42926 19.9577 1.5854C21.5452 1.70961 23.1114 2.40162 24.3014 3.52541C26.9814 5.92912 27.4486 10.3136 25.356 13.229Z" fill="#FFCB00"/>
<path d="M24.9271 13.2289C23.9932 14.6017 22.5926 15.6327 21.0471 16.0922C20.8987 16.2442 20.7668 16.4347 20.9158 16.5453C21.3553 16.8771 21.1199 17.3716 20.7981 17.5413C20.7396 17.4999 20.6875 17.4378 20.6461 17.3479C20.1274 16.207 20.4663 15.861 20.9022 15.7882C20.985 15.7953 21.0578 15.8089 21.1199 15.8225C21.1512 15.8054 21.182 15.7912 21.2133 15.774C21.3375 15.7811 21.4552 15.8018 21.5487 15.8225C25.9403 13.585 27.2717 7.7443 23.769 4.0648C22.7387 2.96527 21.3689 2.17685 19.8512 1.79949C19.7542 1.81665 19.6471 1.82729 19.533 1.83084C19.4951 1.81724 19.4602 1.81014 19.4224 1.79949C19.3845 1.80659 19.3431 1.8131 19.3011 1.8131C18.8687 1.7439 18.5298 1.39789 19.0486 0.256955C19.09 0.163504 19.1456 0.1014 19.2041 0.0599976C19.5259 0.236254 19.7542 0.727169 19.3183 1.05602C19.142 1.19088 19.3561 1.42924 19.5294 1.58538C21.1169 1.70959 22.6831 2.4016 23.8731 3.52538C26.553 5.92909 27.0203 10.3136 24.9277 13.2289H24.9271Z" fill="#EDB70A"/>
<path d="M24.679 8.71375C24.679 8.71375 25.6999 9.15971 25.749 8.94679C25.7981 8.73386 25.6431 7.60712 25.5721 7.42377L24.679 7.9478C24.6577 8.00813 24.6465 8.11637 24.6465 8.31865C24.6465 8.52862 24.6577 8.65401 24.679 8.71434V8.71375Z" fill="#FF9670"/>
<path d="M26.3389 7.42374C26.3389 7.42374 26.5204 7.22796 26.621 7.3155C26.7215 7.40304 26.6813 7.63489 26.7115 7.70173C26.7417 7.76856 26.8174 7.84072 26.8073 7.97498C26.7973 8.10865 26.7535 8.14473 26.7854 8.19678C26.8174 8.24883 26.8978 8.51085 26.8676 8.67587C26.8375 8.84088 26.8073 9.05204 26.621 9.01596C26.4347 8.97988 26.6133 8.50316 26.4447 8.01638C26.3436 7.72361 26.3389 7.42374 26.3389 7.42374Z" fill="#FF9670"/>
<path d="M28.1013 7.96257C28.1013 7.97322 28.1049 7.97972 28.1013 7.99037C28.0735 7.96257 28.0321 7.94897 27.9907 7.95252L16.634 9.88897C16.5719 9.89961 16.5305 9.95107 16.527 10.0102C16.5063 9.99307 16.4921 9.96882 16.4891 9.93747C16.4755 9.86827 16.524 9.80261 16.5962 9.78901L27.9529 7.85611C28.0221 7.84546 28.0877 7.89041 28.1013 7.96316V7.96257Z" fill="#515150"/>
<path d="M28.1012 7.98975C28.0977 8.0483 28.0563 8.0968 27.9942 8.111L16.6375 10.0439C16.6304 10.0474 16.6239 10.0474 16.6168 10.0474C16.5819 10.0474 16.5511 10.0338 16.5269 10.0096C16.5304 9.95104 16.5718 9.89899 16.6339 9.88834L27.9906 7.95189C28.032 7.94834 28.0734 7.96254 28.1012 7.98975Z" fill="#191918"/>
<path d="M29.0767 7.80643L28.7691 8.01404L27.8494 7.73368L27.2272 7.54323C27.1166 7.40838 27.0095 7.27353 26.9019 7.13867L27.9878 7.47403L29.0773 7.80584L29.0767 7.80643Z" fill="#B7341A"/>
<path d="M28.7692 8.01404L28.1364 8.44285L27.1924 9.08281C27.3308 8.7303 27.4727 8.3772 27.6111 8.02468C27.4834 7.86558 27.355 7.70648 27.2273 7.54382L27.8495 7.73427L28.7692 8.01463V8.01404Z" fill="#E5461C"/>
<path d="M25.5723 7.42315C25.5723 7.42315 26.0312 7.32674 26.1217 7.5373C26.2122 7.74787 26.4039 7.94541 26.2625 7.98268C26.1211 8.01994 26.0247 7.73781 25.9425 7.74787C25.8603 7.75792 25.5723 8.07731 25.5723 8.07731L25.4268 7.73958L25.5723 7.42374V7.42315Z" fill="#FF9670"/>
<path d="M17.9667 9.55304L17.3445 9.66009L16.6909 9.06922L17.3338 8.97577L17.9667 9.55304Z" fill="#FFCB00"/>
<path d="M19.0285 9.37323L17.9668 9.55303L17.334 8.97576L18.3336 8.83026L19.0285 9.37323Z" fill="#FF6D00"/>
<path d="M18.0212 9.80908L17.5717 10.5384L16.9004 10.6496L17.3505 9.92324L18.0212 9.80908Z" fill="#FFCB00"/>
<path d="M19.0516 9.63287L18.5365 10.3828L17.5718 10.5384L18.0213 9.80913L19.0516 9.63287Z" fill="#FF6D00"/>
</svg>
