<svg width="36" height="33" viewBox="0 0 36 33" fill="none" xmlns="http://www.w3.org/2000/svg">
<path d="M29.0858 0.0913443C29.2792 0.0180303 29.5039 -0.013196 29.789 0.00513252C30.474 0.0499355 31.1175 0.221001 31.6966 0.601827C32.0122 0.80955 32.3028 1.06683 32.5539 1.34922C32.6924 1.50535 32.8214 1.67031 32.9382 1.84273C33.0135 1.95338 33.1072 2.22899 33.2104 2.30095C32.9334 2.10748 32.6564 1.91469 32.3795 1.72122C32.9986 2.43671 33.3746 3.34092 33.5491 4.27092C33.634 4.72234 33.5708 5.19753 33.7724 5.6089C33.9673 6.00669 34.2076 6.37394 34.418 6.76224C34.5979 7.09419 34.8504 7.37997 35.0432 7.70853C34.7785 7.49402 34.5463 7.24013 34.3556 6.95774C34.3841 7.39151 34.6508 7.76623 34.8613 8.14705C35.2849 8.91346 35.5028 9.79323 35.4858 10.6689C35.3324 10.2569 35.2021 9.83667 35.0941 9.41036C35.0941 10.0892 35.2448 10.7993 35.1247 11.4659C35.012 12.0911 34.9821 12.7631 35.2448 13.3564C35.1573 13.1589 34.9719 13.0414 34.8606 12.8629C34.7493 12.6844 34.6447 12.4773 34.5619 12.2818C34.4974 12.457 34.4594 12.6423 34.4479 12.829C34.4411 12.9478 34.4133 13.2159 34.4703 13.3204C34.2917 12.9946 34.1954 12.6246 34.1913 12.2533C34.0406 12.6728 34.0053 13.1874 33.9761 13.6313C33.9435 14.1316 34.0005 14.6353 34.1112 15.1234C34.08 14.9856 33.915 14.8132 33.8505 14.6801C33.7738 14.522 33.7215 14.3557 33.6523 14.1955C33.5124 13.8744 33.3814 13.5254 33.3387 13.1731C33.3176 12.9966 33.2375 12.8432 33.1961 12.6701C33.1269 12.3837 32.9246 10.4082 32.8838 10.1163C32.7881 9.42937 32.6429 8.74375 32.3903 8.09614C32.2668 7.77981 32.1174 5.95035 31.9328 5.66524C31.7692 5.41204 31.4936 5.1792 31.4685 4.85879C31.495 5.19685 31.497 5.53626 31.4739 5.87432C31.2533 5.35773 31.0904 4.8167 30.9899 4.26413C30.8955 3.74618 30.8501 3.20244 30.5894 2.7449C30.3172 2.26633 29.8379 1.8373 29.2921 1.68796C29.0328 1.61668 28.724 1.60582 28.4653 1.72122C28.1653 1.85563 28.0234 2.17808 27.7335 2.32538C27.1375 2.62814 26.8137 1.78571 27.2129 1.38792C27.4158 1.18494 27.6996 1.09127 27.9623 0.974506C28.0424 0.938528 28.1239 0.898477 28.1823 0.833309C28.4952 0.485067 28.7409 0.223717 29.0844 0.0940596L29.0858 0.0913443Z" fill="#492E17"/>
<path d="M27.1817 1.42053C27.1919 1.40831 27.2028 1.39677 27.2136 1.38523C27.4166 1.18226 27.7004 1.08858 27.9631 0.971818C28.0432 0.93584 28.1246 0.895789 28.183 0.830621C28.4029 0.586241 28.5903 0.385307 28.8014 0.241394C28.8863 0.499351 29.1035 0.715898 29.3696 0.779709C29.4864 0.807541 29.6045 0.822475 29.7233 0.831979C30.0973 0.862526 30.4781 0.842161 30.8352 1.02002C31.0864 1.14492 31.2805 1.35943 31.4563 1.57802C32.0157 2.2745 32.4542 3.06805 32.7475 3.91184C32.5975 3.9166 32.4474 3.92135 32.2967 3.9261C32.4542 4.89208 32.9138 5.80579 33.594 6.50906C33.4093 7.00053 33.8017 7.5341 34.262 7.7873C34.4289 7.87894 34.6061 7.94886 34.7853 8.01471C34.8104 8.05883 34.8362 8.10296 34.86 8.14708C35.2836 8.91349 35.5015 9.79325 35.4845 10.6689C35.3311 10.2569 35.2008 9.8367 35.0928 9.41039C35.0928 10.0892 35.2435 10.7993 35.1234 11.4659C35.0107 12.0911 34.9808 12.7631 35.2435 13.3564C35.156 13.1589 34.9707 13.0415 34.8593 12.8629C34.748 12.6844 34.6435 12.4774 34.5606 12.2819C34.4961 12.457 34.4581 12.6423 34.4466 12.829C34.4398 12.9478 34.412 13.2159 34.469 13.3205C34.2905 12.9946 34.1941 12.6247 34.19 12.2533C34.0393 12.6729 34.004 13.1881 33.9748 13.6314C33.9422 14.1317 33.9992 14.6354 34.1099 15.1234C34.0787 14.9856 33.9137 14.8132 33.8492 14.6802C33.7725 14.522 33.7202 14.355 33.651 14.1955C33.5112 13.8744 33.3801 13.5255 33.3374 13.1732C33.3163 12.9973 33.2362 12.8432 33.1948 12.6701C33.1256 12.3837 32.9233 10.4083 32.8826 10.1164C32.7868 9.4294 32.6416 8.74378 32.3891 8.09617C32.2655 7.77983 32.1162 5.95038 31.9315 5.66527C31.7679 5.41207 31.4923 5.17923 31.4672 4.85882C31.4937 5.19688 31.4957 5.53629 31.4726 5.87435C31.252 5.35776 31.0891 4.81673 30.9886 4.26416C30.8943 3.74621 30.8488 3.20246 30.5881 2.74493C30.3159 2.26635 29.8366 1.83733 29.2909 1.68799C29.0315 1.61739 28.7227 1.60585 28.464 1.72125C28.164 1.85566 28.0221 2.1781 27.7323 2.32541C27.6583 2.36275 27.5883 2.38311 27.5239 2.38854C27.3385 2.09664 27.2075 1.76537 27.1797 1.42324L27.1817 1.42053Z" fill="#2A1909"/>
<path d="M31.4726 5.28782C31.3796 5.14866 31.2832 5.00543 31.2499 4.84115C31.2404 4.79567 31.2316 4.67144 31.2832 4.64497C31.2941 4.63954 31.3063 4.63818 31.3185 4.6375C31.3857 4.63275 31.459 4.62732 31.5201 4.66126C31.571 4.68977 31.6057 4.72303 31.6606 4.74543C31.8005 4.80246 31.8996 4.9294 31.9953 5.04073C32.1996 5.27968 32.3788 7.06229 32.5302 7.3379C32.8364 7.89454 33.0285 8.51431 33.0848 9.14699C33.1228 9.57329 33.1011 10.0023 33.1276 10.4293C33.1941 11.4842 33.7311 14.1751 34.0888 15.1696C33.2898 14.0108 33.0251 12.5758 32.8024 11.1855C32.8269 11.3376 32.7631 11.5446 32.7631 11.7042C32.7631 11.8895 32.7766 12.0748 32.7984 12.2588C32.8438 12.6396 32.9321 13.0116 33.0095 13.3863C32.706 12.8195 32.4026 12.3192 32.2594 11.677C32.1175 11.0409 32.1012 10.3764 32.2214 9.73554C32.0476 10.0492 31.9362 10.3974 31.8948 10.7538C31.8521 10.261 31.8819 9.76269 31.9838 9.27868C32.0951 8.74715 32.1596 8.19934 32.1304 7.65627C32.1114 7.29649 32.0231 6.94485 31.9179 6.60136C31.8432 6.35698 31.793 6.09835 31.6959 5.86211C31.6199 5.67815 31.5839 5.45549 31.4726 5.2885V5.28782Z" fill="#492E17"/>
<path d="M20.9742 21.366C21.0903 21.9403 22.7575 21.5465 22.862 21.0591C22.9584 20.6104 22.7989 20.3219 22.9435 19.9085H22.9448C22.9564 19.8725 22.9713 19.8352 22.9897 19.7972C23.2103 19.322 23.5639 16.9155 23.7038 16.0731C23.8429 15.2307 25.0594 12.7977 24.699 12.0442C24.3378 11.2907 25.0784 8.92635 24.9983 8.35817C24.9189 7.78999 26.785 6.18251 26.785 2.02262C26.785 1.36823 25.4457 -0.349898 23.9088 1.89975C22.3726 4.14873 22.2565 4.51462 22.1289 6.39227C21.9999 8.26856 22.0508 10.3302 22.6326 12.7448C22.6326 12.7448 22.5627 14.6951 22.3298 15.4703C22.0963 16.2469 22.509 17.9677 21.8927 19.0864C21.7406 19.3614 21.6008 19.6051 21.4772 19.8237L21.4759 19.825C21.1018 20.4937 20.8859 20.9342 20.9735 21.3666L20.9742 21.366Z" fill="#A1A1A1"/>
<path d="M6.05048 21.7C6.37564 22.554 6.68519 26.1287 6.89427 27.0492C7.10335 27.9697 7.32194 27.3581 7.62741 28.2039C7.68715 28.3709 8.48614 28.9859 8.48614 28.9859C8.48614 28.9859 9.51117 29.0266 9.54308 28.2433C9.58652 27.1755 9.14528 27.1205 9.14528 27.1205C9.14528 27.1205 8.8303 27.0954 8.59068 27.1069C8.47256 27.1123 8.3653 27.1021 8.29131 27.0492C8.28995 27.0492 8.22003 27.1687 8.22003 27.1687C8.17387 27.1354 8.03743 27.0248 8.02453 26.9487C8.02114 26.9256 8.21596 26.758 8.00892 26.8109C7.86093 26.8489 8.00824 26.6562 8.02453 26.5815C8.21121 25.7533 7.21129 23.1357 7.30429 22.7339C7.39729 22.3333 7.95665 21.2092 7.95665 21.2092C7.95665 21.2092 9.81258 19.3512 11.0039 17.3819C11.6963 16.2395 11.9231 15.0583 12.2041 14.1806C12.2523 14.0285 12.3019 13.8859 12.3562 13.7549C12.6162 13.1236 12.792 12.2411 12.8972 11.2894C13.1572 8.91961 12.9746 6.1167 12.5415 5.66121C11.936 5.02175 9.26612 7.38544 7.91524 10.3818C6.56572 13.3789 7.61384 15.9489 7.31108 17.1118C7.00832 18.2746 6.16589 20.698 6.0498 21.7H6.05048Z" fill="#5E3D1D"/>
<path d="M8.48687 28.9859C8.48687 28.9859 7.55416 28.4958 7.49374 28.3288C7.18895 27.4829 6.8889 28.0891 6.67914 27.1693C6.46938 26.2488 6.31461 22.9273 5.98877 22.0733C6.0037 21.9423 6.03289 21.7794 6.07227 21.5941C6.43951 21.9722 6.99141 22.1731 7.49374 22.2111C7.40617 22.4182 7.33354 22.6103 7.30435 22.7338C7.21135 23.1357 8.4027 25.7892 8.2167 26.6181C8.20041 26.6928 8.19226 26.7573 8.19226 26.8116C8.19226 26.8394 8.19498 26.8645 8.19837 26.8876C8.21127 26.9636 8.24453 27.0152 8.29069 27.0485C8.29069 27.0485 8.29069 27.0498 8.29205 27.0498C8.36536 27.1028 8.47262 27.113 8.59141 27.1075C8.83036 27.096 9.14602 27.1211 9.14602 27.1211C9.14602 27.1211 9.58794 27.1761 9.54382 28.2439C9.51191 29.0273 8.48687 28.9865 8.48687 28.9865V28.9859Z" fill="#D9D9D9"/>
<path d="M7.19869 21.0185C7.15049 20.9499 7.07514 20.8793 7.10026 20.7992C7.11112 20.7652 7.13895 20.7395 7.16678 20.7157C7.56119 20.3804 8.01057 20.1502 8.37918 19.7742C8.74643 19.3994 9.0519 18.965 9.27863 18.4918C9.34448 18.354 9.4049 18.2013 9.37028 18.0533C9.3119 17.8028 9.03561 17.6399 8.88287 17.4498C8.43756 16.8925 7.98953 16.3325 7.63993 15.7107C7.5863 15.6156 7.53607 15.5192 7.48787 15.4215C7.46615 14.6361 7.46683 13.6979 7.68202 12.6423C8.34795 12.753 9.01593 13.0055 9.4626 13.5099C9.73142 13.8126 9.90112 14.1079 10.2643 14.3028C10.6302 14.4989 10.9506 14.7779 11.2174 15.0943C11.4068 15.319 11.5704 15.5634 11.715 15.82C11.5432 16.327 11.324 16.8592 11.0069 17.3826C9.81491 19.3519 7.95966 21.2099 7.95966 21.2099C7.95966 21.2099 7.26386 22.294 7.17086 22.6945C7.07786 23.0957 8.21422 25.7533 8.02822 26.5822C8.01193 26.6568 8.1572 26.8116 8.10357 26.8116C8.01329 26.8116 8.02483 26.9263 8.02822 26.9494C8.04112 27.0254 8.17757 27.1361 8.22373 27.1694C8.29704 27.2223 8.47557 27.113 8.59437 27.1076C8.834 27.096 9.14898 27.1212 9.14898 27.1212C9.14898 27.1212 9.5909 27.1761 9.54677 28.244C9.51487 29.0273 8.48983 28.9866 8.48983 28.9866C8.48983 28.9866 7.79878 28.6234 7.56865 28.4157C7.68338 28.3166 7.79335 28.2127 7.88499 28.0926C7.99021 27.9548 8.26785 27.8767 8.26582 27.6995C8.26242 27.4606 8.11647 27.3907 7.9359 27.3235C7.82186 27.2814 7.80828 27.3839 7.7757 27.223C7.7404 27.0478 7.904 26.9739 7.80217 26.7899C7.6698 26.5516 7.63314 26.5075 7.66844 26.2244C7.7051 25.9237 7.69492 25.6169 7.63789 25.3189C7.58155 25.0229 7.47973 24.7385 7.39216 24.4506C7.29916 24.1458 7.22245 23.8349 7.14303 23.5274C7.07378 23.2606 6.9224 22.9782 6.90204 22.7033C6.87692 22.3598 6.96924 22.0421 7.13013 21.7401C7.25028 21.5154 7.34871 21.2275 7.20208 21.0185H7.19869Z" fill="#4B2D13"/>
<path d="M8.48674 28.9859C8.48674 28.9859 7.79568 28.6227 7.56556 28.415C7.68028 28.3159 7.35037 28.1 7.76785 28.062C7.94096 28.0464 8.18194 27.8909 8.17923 27.7138C8.17583 27.4748 7.95996 27.4558 7.76785 27.4456C7.65856 27.4402 7.50922 27.4612 7.47663 27.3004C7.44133 27.1252 7.73391 27.0078 7.63209 26.8238C7.49971 26.5855 7.46306 26.5414 7.49836 26.2584C7.53501 25.9576 7.52483 25.6508 7.46781 25.3528C7.41147 25.0568 7.30964 24.7724 7.22207 24.4846C7.12907 24.1798 7.09513 23.8281 7.01571 23.5206C6.94646 23.2538 6.80595 22.9843 6.78626 22.7094C6.77133 22.5044 6.91184 22.3028 6.96954 22.1141C7.14401 22.1657 7.32186 22.1983 7.49428 22.2111C7.40671 22.4182 7.33408 22.6103 7.30489 22.7338C7.21189 23.1357 8.40324 25.7893 8.21724 26.6181C8.20095 26.6928 8.1928 26.7573 8.1928 26.8116C8.1928 26.8394 8.19552 26.8645 8.19891 26.8876C8.21181 26.9637 8.24507 27.0152 8.29123 27.0485C8.29123 27.0485 8.29123 27.0499 8.29259 27.0499C8.3659 27.1028 8.47316 27.113 8.59196 27.1076C8.83091 27.096 9.14656 27.1211 9.14656 27.1211C9.14656 27.1211 9.58848 27.1761 9.54436 28.2439C9.51245 29.0273 8.48742 28.9866 8.48742 28.9866L8.48674 28.9859Z" fill="#BDBDBD"/>
<path d="M0.434646 12.068C0.558873 12.0965 0.958027 11.8107 0.958027 11.8107C0.958027 11.8107 0.958027 12.0341 1.34768 11.8175C1.38773 11.7958 1.43185 11.7693 1.48005 11.7367C2.00343 11.3919 1.80996 11.0077 1.89753 10.8705C1.98374 10.7348 2.53292 9.44771 3.00539 9.01733C3.47853 8.5856 4.20285 6.92381 4.37799 6.83692C4.55177 6.75207 4.90001 7.03446 5.03849 7.48453C5.10638 7.70922 5.48856 8.25161 5.92097 8.85373C6.01873 8.99154 6.11987 9.13342 6.22102 9.27325C6.56383 9.75523 6.89985 10.2372 7.09875 10.5949C7.52777 11.3681 7.57733 11.6336 7.58208 11.9275C7.58412 11.9838 7.58344 12.0402 7.58344 12.1026C7.58344 12.2004 7.59294 12.4156 7.61331 12.6891C7.67508 13.4922 7.30851 15.2836 7.6615 15.7093C8.11225 16.2537 8.93974 16.3718 12.1255 14.7351C12.2762 14.6578 12.4323 14.5763 12.5939 14.4914C12.6136 14.4813 12.6333 14.4704 12.6516 14.4616C13.5008 14.0129 14.2794 13.6382 14.9929 13.3028C17.2561 12.2377 18.8534 11.5759 19.89 10.2969C21.2599 8.60596 21.7215 7.46824 22.3555 6.87222C22.568 6.67332 23.0425 6.3821 23.5971 6.00467C24.003 5.72839 24.4518 5.40526 24.872 5.03598C25.5942 4.40331 26.2344 3.63826 26.4285 2.75035C26.8901 0.640536 26.9886 1.33498 26.2052 0.830609C25.5189 0.391404 24.5862 0.0594549 22.0935 1.59701C21.4065 2.02128 20.7996 2.56571 20.3 3.19974C19.8275 3.79915 19.1704 4.56826 18.6538 4.92329C17.7435 5.54918 12.9795 4.56487 12.2457 4.33339C11.5105 4.09851 7.52981 2.18895 6.76952 1.82781C6.00922 1.46668 4.44112 1.31462 3.79351 1.61602C3.14591 1.91946 2.6843 2.19914 2.06181 3.78896C1.43932 5.37675 2.11951 6.28503 1.53368 7.39085C0.947844 8.49735 0.336895 10.1245 0.210632 10.8977C0.0877628 11.6695 0.31042 12.0415 0.434646 12.0694V12.068Z" fill="#8C6234"/>
<path d="M23.7755 5.20844C23.7755 5.20844 23.7069 5.51595 23.5962 6.00335C23.0423 6.38146 22.5678 6.67268 22.356 6.87158C21.7213 7.46691 21.2604 8.60531 19.8898 10.2963C18.5199 11.9879 16.1671 12.5989 12.5937 14.4908C9.01967 16.3827 8.13515 16.2782 7.662 15.7093C7.30901 15.2844 7.67558 13.4922 7.61381 12.6892C7.61381 12.6892 8.15687 14.6062 9.26676 14.8893C10.3767 15.171 11.9088 14.0007 11.9088 14.0007L13.221 10.6934C13.221 10.6934 13.0967 12.5921 12.9745 12.8935C12.8537 13.1942 13.5543 13.0924 13.5543 13.0924C13.5543 13.0924 16.3524 12.8962 18.4195 10.9887C20.4865 9.0805 21.483 6.93335 21.9562 6.65978C22.4293 6.38689 23.7748 5.20844 23.7748 5.20844H23.7755Z" fill="#942F11"/>
<path d="M3.15615 2.1564C3.15615 2.1564 2.56217 0.663644 2.57642 0.607979C2.68164 0.195249 3.48267 0.867293 3.6741 1.02003C3.80375 1.12321 4.24296 1.5054 4.51178 1.74027C4.6394 1.8516 4.66519 2.03896 4.57423 2.18219C4.51517 2.27451 4.47173 2.39942 4.39502 2.4449C4.06646 2.64041 3.82955 2.66484 3.64083 2.525C3.47859 2.40553 3.17651 2.21342 3.15683 2.15572L3.15615 2.1564Z" fill="#5E3D1D"/>
<path d="M7.58123 15.5905C7.95188 16.4777 10.8118 18.5183 13.3411 19.3491C13.6901 19.4639 14.0329 19.5548 14.3607 19.6173C14.3621 19.6173 14.3635 19.6186 14.3655 19.6186C14.4313 19.6315 14.4951 19.6417 14.559 19.6519L14.9927 13.3028L15.3342 8.30725C15.3342 8.30725 11.7595 9.67646 9.47586 10.637C9.40933 10.6648 9.34348 10.692 9.27899 10.7198C8.3008 11.1353 7.60499 11.4584 7.61314 11.5378C7.61925 11.5874 7.60499 11.7265 7.58191 11.9275C7.48755 12.7835 7.2296 14.7528 7.58055 15.5905H7.58123Z" fill="#8C6234"/>
<path d="M14.5281 6.78125C14.5281 6.78125 14.0108 10.1096 13.5553 11.3824C13.0998 12.6552 12.2397 14.6761 12.2397 14.6761C12.2397 14.6761 12.9518 14.5315 13.1752 14.3835C13.3985 14.2355 13.3836 13.9585 13.3836 13.9585C13.3836 13.9585 14.5274 10.745 14.7765 9.34316C15.0257 7.94205 15.099 6.37531 15.099 6.37531L14.5274 6.78125H14.5281Z" fill="#942F11"/>
<path d="M20.974 21.366C21.0901 21.9403 22.7573 21.5465 22.8618 21.0591C22.9582 20.6104 22.7987 20.3219 22.9433 19.9085C22.0391 20.4285 21.4431 20.5208 21.4777 19.8237L21.4763 19.825C21.1023 20.4937 20.8864 20.9342 20.974 21.3667V21.366Z" fill="#222021"/>
<path d="M25.0212 0.461991C30.1023 0.111035 30.3806 3.75433 30.3806 3.75433C30.3806 3.75433 31.9365 9.11372 28.3306 8.45186C24.7246 7.79067 23.3615 4.62663 23.6256 3.79235C23.8903 2.95806 25.0212 0.461991 25.0212 0.461991Z" fill="#8C6234"/>
<path d="M26.6396 1.17747C31.1362 0.709753 31.6257 4.21932 31.6094 6.13974C31.5992 7.31548 28.8479 10.0322 28.2268 9.96089C24.5841 9.54137 26.1224 6.22188 26.3864 5.38759C26.6512 4.55331 26.6396 1.17815 26.6396 1.17815V1.17747Z" fill="#8C6234"/>
<path d="M1.34845 11.8175C1.37696 12.402 1.67836 12.8229 1.78087 12.846C1.90509 12.8745 2.30425 12.5873 2.30425 12.5873C2.30425 12.5873 2.30425 12.7645 2.57918 12.6518C2.64502 12.624 2.72512 12.5805 2.82627 12.514C3.34965 12.1692 3.49899 11.9825 3.58656 11.8467C3.67278 11.711 4.56476 10.6201 5.03723 10.191C5.26396 9.984 5.75272 9.61336 6.22111 9.27394C6.72956 8.9033 7.21153 8.57135 7.3025 8.52587C7.47628 8.43966 7.82452 8.72409 7.963 9.17348C8.0112 9.33368 8.56241 9.94871 9.27926 10.7199C9.38719 10.8373 9.49988 10.9581 9.61664 11.081C10.5045 12.0334 11.5493 13.1345 12.1982 13.8975C12.205 13.9043 12.2111 13.9111 12.2166 13.9185C12.2295 13.9321 12.2417 13.947 12.2532 13.9613C12.4168 14.1548 12.5533 14.3251 12.651 14.4616C12.7053 14.5363 12.7474 14.6007 12.7773 14.6551C13.2891 15.5756 13.2626 15.7765 13.2626 16.1621C13.2626 16.2612 13.2722 16.475 13.2925 16.7486C13.3543 17.5516 13.5206 18.8713 13.8736 19.2969C13.9958 19.4429 14.1438 19.5589 14.3603 19.618C14.3617 19.618 14.3624 19.6194 14.3651 19.6194C14.7676 19.7266 15.4003 19.6363 16.5149 19.1788C16.6792 19.1123 16.853 19.0376 17.0397 18.9521C17.5413 18.7274 18.1244 18.4389 18.8053 18.0791C20.4033 17.2333 21.4188 16.4492 22.1764 15.6876C22.1764 15.6876 22.1778 15.6862 22.1784 15.6862C23.1125 14.746 23.6542 13.8432 24.4118 12.9077C25.781 11.2174 26.2419 10.079 26.8773 9.48371C27.0891 9.28481 27.5643 8.99359 28.1175 8.61548C29.222 7.86333 30.6428 8.59036 30.949 7.18518C31.4106 5.07536 31.5104 3.94579 30.7256 3.44141C29.9409 2.93772 28.833 2.57658 25.4328 4.99662C25.4328 4.99662 25.2081 5.00612 24.8714 5.03599C24.1233 5.10523 22.8227 5.28241 22.1954 5.71347C21.2851 6.33935 19.1916 8.15116 18.4578 7.91899C17.7226 7.68412 10.4543 3.87722 9.69334 3.51608C8.93305 3.15494 7.36495 3.00153 6.71734 3.30429C6.06973 3.60705 5.60813 3.88741 4.98564 5.47655C4.36315 7.06434 3.46845 7.88777 2.88397 8.99359C2.29814 10.1001 1.4944 10.6676 1.36882 11.4408C1.34845 11.5718 1.34234 11.6987 1.34845 11.8182V11.8175Z" fill="#8C6234"/>
<path d="M3.7437 5.98495C3.54209 6.15601 3.37374 6.36916 3.24951 6.64477C3.13004 6.91087 3.06351 7.19734 2.98477 7.47838C2.80623 8.11784 2.56389 8.73965 2.26317 9.33091C2.11247 9.62688 1.94751 9.91539 1.76898 10.1951C1.69091 10.3173 1.61896 10.4537 1.50627 10.5426C1.38204 10.6404 1.22252 10.6893 1.09761 10.7884C0.843728 10.9907 0.540969 11.6308 0.726969 11.9471C0.902108 12.2451 1.40037 12.2709 1.70109 12.3212C2.14098 12.3952 2.73496 12.3001 3.1633 12.1793C3.48846 12.0877 3.88897 11.4367 4.11706 11.1923C4.47413 10.8094 4.83051 10.4265 5.18758 10.0444C5.42789 9.78709 5.6777 9.5108 5.7483 9.16596C5.76459 9.08721 5.20523 9.24877 5.16925 9.26439C5.07557 9.30376 5.00226 9.34381 4.92962 9.40423C4.64248 9.64182 4.27591 9.82443 3.95686 10.0254C3.94192 10.0349 3.92631 10.045 3.90866 10.0484C3.86114 10.0586 3.81634 10.0213 3.79054 9.97988C3.72198 9.86923 3.73691 9.72803 3.75389 9.59905C3.83874 8.96095 3.99012 8.36222 4.42729 7.87346C4.80336 7.45258 5.21881 7.05071 5.46319 6.54227C5.55687 6.34744 5.62475 6.13225 5.60031 5.91706C5.57587 5.70255 5.44214 5.49008 5.23646 5.42219C5.06268 5.36449 4.8726 5.41676 4.6995 5.47786C4.33768 5.60548 4.01116 5.75822 3.7437 5.98495Z" fill="#5E3D1D"/>
<path d="M13.74 18.2759C15.6591 18.4042 17.7438 18.394 19.2949 17.2563C19.7158 16.9475 21.2791 16.7601 21.9491 15.8036C22.7943 14.5973 23.7949 12.6789 24.5016 11.3871C24.8226 10.8006 24.9482 10.0675 25.0582 9.40426C25.1804 8.66297 25.6434 7.89317 25.8395 7.16547C26.0092 6.53619 26.257 5.52608 26.9854 4.84521C26.8754 5.38692 26.722 6.58167 26.9372 7.07925C27.0058 7.2381 27.6466 7.02087 27.7016 7.18515C27.7464 7.31752 27.7498 7.46076 27.7423 7.6006C27.7111 8.20544 27.388 8.6331 27.2461 9.20129C27.0899 9.3099 26.9623 9.40426 26.8775 9.48368C26.2428 10.0783 25.7812 11.2174 24.4119 12.9077C23.0421 14.6 22.3788 16.1865 18.8055 18.0791C16.158 19.4788 14.987 19.785 14.3645 19.6193C14.3625 19.6193 14.3611 19.618 14.3598 19.618C14.2301 19.5827 14.127 19.525 14.0367 19.4544C13.7767 19.1048 13.628 18.688 13.7387 18.2766L13.74 18.2759Z" fill="#5E3D1D"/>
<path d="M2.27092 12.3463C2.31912 12.4868 2.44266 12.5914 2.57911 12.6511C2.64496 12.6233 2.72506 12.5798 2.8262 12.5133C3.34958 12.1685 3.49893 11.9818 3.5865 11.846C3.67271 11.7103 4.5647 10.6194 5.03716 10.1904C5.26389 9.98331 5.75265 9.61267 6.22105 9.27325C6.56386 9.75523 6.89988 10.2372 7.09878 10.5949C7.5278 11.3681 7.39747 11.641 7.40222 11.9343C7.30786 12.7903 6.97252 14.2057 7.58075 15.5898C7.96769 16.4696 10.8113 18.5176 13.3406 19.3485C13.1866 18.5556 12.97 17.775 12.7562 16.995C12.7032 16.8063 12.6503 16.6155 12.5641 16.439C12.2606 15.8192 12.0706 15.137 12.1126 14.4351C11.9497 14.634 11.7379 14.7922 11.501 14.892C11.2356 15.0033 10.9226 15.0379 10.664 14.913C10.5479 14.8567 10.4481 14.7711 10.364 14.6734C10.1175 14.3855 10.0123 13.9816 10.087 13.6103C10.1936 13.0801 10.6219 12.683 11.0258 12.3226C11.0774 12.2764 11.1344 12.2174 11.1236 12.1488C11.1127 12.0789 11.038 12.0409 10.9722 12.013C10.6599 11.8807 10.3504 11.7347 10.0816 11.529C9.8691 11.3661 9.68038 11.1618 9.56023 10.9208C9.43872 10.6778 9.27104 10.4673 9.14003 10.2257C8.85628 9.70092 8.67639 9.12663 8.38992 8.60325C8.15912 8.18237 7.68393 7.58839 7.14358 7.76489C6.63378 7.9312 6.25092 8.46205 5.92033 8.85441C5.77166 9.03023 5.64065 9.18433 5.53475 9.27801C5.38201 9.41241 5.20483 9.52306 5.06975 9.67716C4.89393 9.87945 4.80636 10.1422 4.66924 10.373C4.57148 10.5372 4.44929 10.6873 4.32846 10.8346C4.0963 11.1176 3.85667 11.4075 3.53694 11.5881C3.20363 11.7754 2.80991 11.827 2.42569 11.8365C2.48339 11.9655 2.29128 12.0687 2.25734 12.2058C2.24444 12.252 2.25259 12.3015 2.26888 12.347L2.27092 12.3463Z" fill="#5E3D1D"/>
<path d="M12.1986 13.8975C12.2006 13.9898 12.2033 14.0848 12.2053 14.1805C12.225 14.856 12.2746 15.5952 12.3839 16.2734C12.7267 18.4029 14.119 21.2207 14.5779 22.3096C15.0612 23.4568 16.5763 27.6459 16.6734 28.0179C16.7284 28.231 16.5281 29.5663 16.2451 30.2546C16.2037 30.3571 16.0007 30.3972 15.9491 30.4949C15.74 30.8893 15.4705 31.2613 15.3348 31.7257C15.2418 32.6597 17.5919 32.3617 17.638 31.8811C17.6428 31.8343 17.6462 31.7834 17.6482 31.7318C17.6761 31.2552 17.638 30.6259 17.638 30.6259C17.638 30.6259 17.6496 30.5764 17.6693 30.4936C17.6706 30.4936 17.6706 30.4922 17.6706 30.4922C17.7371 30.2105 17.8926 29.5371 17.9639 29.0429C18.0569 28.4021 17.4256 28.1801 17.1459 26.9793C17.1357 26.9345 16.7929 24.4336 16.7814 24.3773C16.6673 23.8261 17.1194 22.611 16.9436 21.4223C16.8377 20.7055 16.9069 19.8081 17.0413 18.9514C17.283 17.4043 17.7331 15.9856 17.7331 15.9856C17.7331 15.9856 17.6306 15.0454 17.4032 13.9654C17.1214 12.6206 16.6449 11.0593 15.9328 10.8244C14.5819 10.3804 13.5284 10.8441 12.8991 11.2894C12.4748 11.5894 12.242 11.8834 12.242 11.8834C12.242 11.8834 12.1809 12.7692 12.1992 13.8975H12.1986Z" fill="#8C6234"/>
<path d="M14.9937 23.3658C15.6385 23.6849 16.6466 23.3387 16.9697 22.6055C16.9399 23.3502 16.855 24.0026 16.9304 24.3678C16.9419 24.4241 17.3397 26.7939 17.3506 26.8387C17.6302 28.0396 18.0572 28.4021 17.9635 29.0429C17.8923 29.5378 17.7368 30.2105 17.6703 30.4922C17.6703 30.4922 17.6703 30.4936 17.6689 30.4936C17.6492 30.5764 17.6377 30.6259 17.6377 30.6259C17.6377 30.6259 17.6757 31.2552 17.6479 31.7318C17.6459 31.7834 17.6425 31.8343 17.6377 31.8811C17.5915 32.3617 15.2414 32.6597 15.3344 31.7256C15.4702 31.2606 15.7397 30.8893 15.9488 30.4949C16.0004 30.3972 16.0486 30.2994 16.0906 30.1969C16.3737 29.5093 16.4688 28.8006 16.4138 28.5874C16.3377 28.2982 15.5965 25.1668 14.9937 23.3658Z" fill="#D9D9D9"/>
<path d="M16.8678 31.6435C17.1339 31.6761 17.3939 31.7046 17.6478 31.7324C17.6757 31.2559 17.6376 30.6266 17.6376 30.6266C17.6376 30.6266 17.6492 30.5771 17.6689 30.4942C17.6702 30.4942 17.6702 30.4929 17.6702 30.4929C17.7367 30.2112 17.7042 29.4814 17.7754 28.9866C17.8684 28.3457 17.5345 28.0885 17.2548 26.8869C17.2446 26.8421 16.8529 24.4798 16.8414 24.4234C16.7273 23.8722 17.1183 22.611 16.9425 21.423C16.8366 20.7062 16.9059 19.8087 17.0403 18.9521C17.5419 18.7274 18.125 18.4389 18.8059 18.0791C20.4039 17.2332 21.4194 16.4492 22.177 15.6875C21.0495 16.515 18.3273 17.2061 18.2248 15.8973C18.1271 14.6401 17.3301 12.9783 17.0824 12.4896C17.1706 12.6919 17.3206 13.1385 17.4007 13.9667C17.4258 14.2233 17.4442 14.5152 17.4523 14.8492C17.4849 16.2286 16.7979 17.8517 16.5149 19.1795C16.4001 19.7157 16.3513 20.2031 16.4422 20.6084C16.7599 22.0163 16.4572 21.8588 16.3248 23.6421C16.1938 25.4254 17.1543 27.8122 17.1625 28.1862C17.1692 28.5603 17.4129 28.6397 17.4503 29.2146C17.4863 29.7896 17.0973 30.2214 16.8672 31.6442L16.8678 31.6435Z" fill="#5E3D1D"/>
<path d="M17.3467 29.1678C17.31 28.5928 17.1043 28.5467 17.0969 28.1733C17.0887 27.7993 16.0976 25.5333 16.2293 23.75C16.2382 23.6333 16.3488 23.3699 16.3583 23.2687C16.6326 23.0997 16.8389 22.9069 16.9686 22.6123C16.9475 23.1411 16.9095 23.6163 16.9041 23.9829C16.9041 23.9897 16.9041 23.9964 16.9041 24.0039C16.9034 24.0915 16.9055 24.1716 16.9122 24.2442C16.9129 24.2524 16.9136 24.2612 16.915 24.2693C16.919 24.304 16.9238 24.3379 16.9299 24.3684C16.9414 24.4248 17.3392 26.7946 17.3501 26.8394C17.6298 28.0403 18.0568 28.4028 17.9631 29.0436C17.8918 29.5384 17.7363 30.2112 17.6698 30.4929C17.6698 30.4929 17.6698 30.4942 17.6685 30.4942C17.6488 30.5771 17.6372 30.6266 17.6372 30.6266C17.6372 30.6266 17.6752 31.2559 17.6474 31.7324C17.3935 31.7046 17.1335 31.6761 16.8674 31.6435C17.0976 30.2207 17.382 29.7434 17.346 29.1685L17.3467 29.1678Z" fill="#C4C4C4"/>
<path d="M12.865 3.90572C12.5493 3.95935 12.2194 3.92744 11.92 3.81408C11.9954 3.84259 12.0904 3.96681 12.1725 4.01162C12.2655 4.06253 12.3647 4.10869 12.4604 4.15485C12.6878 4.26414 12.9254 4.35171 13.1691 4.41756C13.6667 4.55197 14.1887 4.59338 14.7005 4.53636C14.5709 4.60288 14.4412 4.66941 14.3109 4.73661C14.3401 4.82011 14.4487 4.83708 14.5369 4.83979C14.858 4.85065 15.1784 4.86152 15.4995 4.87238C15.4703 4.89749 15.4411 4.92193 15.4106 4.94501C14.7317 5.47314 13.7705 5.57904 12.9471 5.31769C13.1562 5.5098 13.4094 5.65439 13.6816 5.73721C13.4304 5.78405 13.1752 5.71006 12.9254 5.65711C12.5819 5.58447 12.2038 5.57565 11.8718 5.45685C11.6207 5.36725 11.362 5.22265 11.1156 5.11065C10.5203 4.83979 9.97516 4.45897 9.51695 3.99125C9.77491 4.34289 10.0566 4.67687 10.3594 4.99117C9.69956 4.67484 9.12459 4.1854 8.7071 3.58463C8.61818 3.45701 8.53536 3.3226 8.42539 3.21263C7.90133 2.68789 6.98898 2.51004 6.27756 2.48085C6.11939 2.47406 5.97073 2.50189 5.81799 2.53515C5.68494 2.56434 5.55596 2.52972 5.43106 2.60983C5.3333 2.67296 5.26203 2.76867 5.19822 2.86643C5.08689 3.03749 4.99389 3.2201 4.9199 3.41017C4.90225 3.22213 4.87645 3.0341 4.84183 2.8481C4.84522 2.86575 4.74747 2.95399 4.73254 2.97097C4.69181 3.01781 4.65108 3.06532 4.61238 3.11352C4.535 3.20992 4.461 3.3097 4.39787 3.4156C4.33542 3.52082 4.28994 3.62943 4.25057 3.74416C4.20984 3.86295 4.20508 3.99872 4.18811 4.1243C4.07407 3.91658 4.00415 3.6851 3.98378 3.44886C3.87721 3.67492 3.70207 3.86092 3.57716 4.07746C3.4285 4.33474 3.35519 4.628 3.28323 4.91718C3.29002 4.89138 3.26286 4.83165 3.25743 4.80449C3.24793 4.75901 3.23843 4.71421 3.23028 4.66873C3.21399 4.57776 3.20041 4.48612 3.18955 4.39448C3.17054 4.22952 3.14339 4.05303 3.17054 3.88807C3.01848 4.07543 2.88 4.27433 2.75781 4.48273C2.76053 4.10597 2.88 3.7394 3.01916 3.38913C3.08365 3.22621 3.15357 3.06397 3.25132 2.9187C3.33482 2.79515 3.43868 2.68654 3.55748 2.59557C3.48824 2.59897 3.42239 2.59014 3.35519 2.61458C3.23164 2.66006 3.11284 2.7198 3.00355 2.79311C2.98929 2.80262 2.97436 2.81483 2.96893 2.82977C2.96689 2.8352 2.96621 2.84131 2.96757 2.84742C2.96282 2.82162 3.01305 2.74967 3.02527 2.72523C3.047 2.68178 3.07008 2.63834 3.09383 2.59625C3.14067 2.51275 3.19566 2.43808 3.24793 2.35798C3.37827 2.15908 3.49638 1.93167 3.65116 1.75042C4.04692 1.28814 4.53092 1.04512 5.12626 0.937861C5.73653 0.82789 6.3692 0.830606 6.98898 0.877445C6.66653 0.971803 6.34341 1.06548 6.02096 1.15984C7.04057 1.17274 8.08326 1.18971 9.04177 1.53863C8.72204 1.51419 8.40299 1.49043 8.08326 1.46599C8.79196 1.7545 9.47486 2.10138 10.2209 2.27041C10.5793 2.35187 10.9269 2.48017 11.252 2.65259C11.0423 2.67839 10.8278 2.66142 10.6241 2.60304C10.7436 2.63766 10.8814 2.76392 10.9941 2.82434C11.1217 2.89222 11.2609 2.94789 11.3776 3.03274C11.8515 3.37691 12.2805 3.77606 12.8636 3.90572H12.865Z" fill="#492E17"/>
<path d="M3.888 3.29609C3.93688 2.63219 4.61503 2.22421 5.21173 1.93028C4.93408 1.93774 4.65848 2.01581 4.41817 2.15565C5.29862 1.46392 6.55717 1.65671 7.65281 1.88344C7.5089 1.6377 7.22311 1.48293 6.93868 1.4965C7.24144 1.37839 7.5442 1.3105 7.8551 1.25891C8.25969 1.31322 8.65816 1.39943 9.04238 1.53927C8.72265 1.51483 8.4036 1.49107 8.08387 1.46663C8.79257 1.75514 9.47548 2.10202 10.2215 2.27105C10.5799 2.35251 10.9275 2.48081 11.2527 2.65323C11.0429 2.67903 10.8284 2.66206 10.6247 2.60368C10.7442 2.6383 10.882 2.76456 10.9947 2.82498C11.1223 2.89286 11.2615 2.94853 11.3782 3.03338C11.8521 3.37755 12.2811 3.7767 12.8642 3.90636C12.5486 3.95999 12.2186 3.92808 11.9193 3.81472C11.9946 3.84323 12.0897 3.96746 12.1718 4.01226C12.2655 4.06317 12.3639 4.10933 12.4596 4.15549C12.687 4.26478 12.9246 4.35235 13.1683 4.4182C13.6659 4.55261 14.1879 4.59402 14.6998 4.537C14.5701 4.60352 14.4405 4.67005 14.3108 4.73725C14.34 4.82075 14.4486 4.83772 14.5369 4.84043C14.8579 4.8513 15.1784 4.86216 15.4994 4.87302C15.4703 4.89814 15.4411 4.92257 15.4105 4.94565C14.7317 5.47379 13.7705 5.57968 12.947 5.31833C13.1568 5.51044 13.4093 5.65503 13.6815 5.73785C13.4304 5.78469 13.1751 5.7107 12.9253 5.65775C12.5818 5.58511 12.2037 5.57629 11.8718 5.45749C11.6206 5.36789 11.362 5.2233 11.1155 5.11129C10.5202 4.84043 9.9751 4.45961 9.51688 3.99189C9.77484 4.34353 10.0566 4.67751 10.3593 4.99181C9.69949 4.67548 9.12452 4.18604 8.70704 3.58527C8.61811 3.45697 8.53529 3.32324 8.42532 3.21327C7.90126 2.68853 6.98891 2.51068 6.27749 2.48149C6.11933 2.4747 5.97066 2.50253 5.81792 2.5358C5.68487 2.56499 5.55589 2.53037 5.43099 2.61047C5.33324 2.6736 5.26196 2.76931 5.19815 2.86707C5.08682 3.03813 4.99382 3.22074 4.91983 3.41081C4.90218 3.22278 4.87638 3.03474 4.84176 2.84874C4.84516 2.86639 4.7474 2.95464 4.73247 2.97161C4.69174 3.01845 4.65101 3.06596 4.61232 3.11416C4.53425 3.21056 4.46094 3.31034 4.39781 3.41624C4.33535 3.52146 4.28987 3.63007 4.2505 3.7448C4.20977 3.86359 4.20502 3.99936 4.18805 4.12494C4.074 3.91722 4.00408 3.68574 3.98372 3.44951C3.96064 3.49838 3.93348 3.54522 3.90497 3.5907C3.88732 3.49363 3.8785 3.39588 3.88597 3.29677L3.888 3.29609Z" fill="#2A1909"/>
<path d="M5.96267 3.78417C5.96267 3.78417 5.25329 2.29684 5.48884 1.96965C5.6409 1.75717 6.465 2.47198 6.60824 2.66952C6.75147 2.86706 7.58915 3.53028 7.63395 3.91111C7.66518 4.17314 7.116 4.40734 6.90081 4.43381C6.66119 4.463 6.63335 4.13105 6.47926 4.00207C6.28104 3.83712 5.98778 3.85409 5.96334 3.78417H5.96267Z" fill="#5E3D1D"/>
<path d="M4.81448 6.50832C4.81448 6.50832 4.46489 6.16891 4.20625 6.30535C3.68898 6.57824 3.746 6.95771 3.746 6.95771C3.746 6.95771 4.07795 7.01473 4.27956 6.92377C4.48729 6.83009 4.69908 6.66717 4.81516 6.50832H4.81448Z" fill="black"/>
<path d="M3.10131 10.6974C3.10131 10.6974 2.30844 12.2269 2.25685 12.3715C2.20458 12.516 2.30436 12.5866 2.30436 12.5866L2.71506 11.7775L3.10131 10.783V10.6974Z" fill="#050507"/>
<path d="M31.5206 14.3991C31.5206 15.0793 30.9015 18.4585 30.9015 18.7097C30.9015 18.9609 31.0291 20.719 31.0033 21.1481C30.9775 21.5771 30.706 21.9538 30.706 21.9538C30.706 21.9538 30.5478 22.7997 30.5743 23.0658C30.5987 23.3319 30.3679 23.8715 30.2525 24.0412C30.1371 24.2123 29.8704 24.9482 29.8704 24.9482C29.8704 24.9482 28.5195 24.7377 28.5195 24.4872C28.5195 24.3074 28.7564 23.4995 29.0035 22.8336C29.1026 22.5682 29.3049 22.4643 29.3191 22.4229C29.3707 22.2749 29.4162 21.719 29.3904 21.423C29.3646 21.1277 29.5683 20.5901 29.6457 20.1169C29.7231 19.6438 29.6368 17.7383 29.5466 17.4946C29.4569 17.2509 29.0619 16.4723 29.0619 15.9849C29.0619 15.4975 28.4563 14.116 28.3538 14.0278C28.2507 13.9395 27.4897 12.7814 27.2833 12.4122C27.077 12.0436 26.5414 11.1142 26.4714 10.7511C26.4022 10.3886 26.4056 7.24828 27.153 5.75145C27.9004 4.2553 30.0849 3.22687 30.7943 3.61584C31.5036 4.00481 31.5281 4.70061 31.5281 4.70061C31.6238 5.83766 31.727 6.95163 31.3054 9.40221C31.1649 10.2182 30.8615 11.8983 30.9497 12.4094C31.1269 13.4331 31.5192 13.9456 31.5192 14.3991H31.5206Z" fill="#8C6234"/>
<path d="M29.1916 22.3292C29.2432 22.1812 29.2948 21.6782 29.269 21.3816C29.2432 21.0863 29.3979 20.5385 29.4753 20.0653C29.5527 19.5922 29.6043 18.0682 29.5133 17.8252C29.4448 17.6385 29.218 16.9474 29.1149 16.4139C29.5738 16.8809 30.5201 16.9332 31.4019 15.6685C31.2532 16.9033 31.0183 18.54 31.0183 18.711C31.0183 18.9615 31.1731 20.7217 31.1473 21.1508C31.1215 21.5798 30.8119 22.0543 30.8119 22.0543C30.8119 22.0543 30.6436 22.8316 30.6708 23.0977C30.6952 23.3638 30.368 23.8722 30.2526 24.0419C30.1372 24.213 29.8704 24.9488 29.8704 24.9488C29.8704 24.9488 28.5195 24.7384 28.5195 24.4879C28.5195 24.308 28.7564 23.5002 29.0035 22.8343C29.1026 22.5689 29.1766 22.3713 29.1909 22.3299L29.1916 22.3292Z" fill="#D9D9D9"/>
<path d="M26.9446 6.28363C26.9528 6.31078 26.9609 6.33726 26.9663 6.36781C27.003 6.58096 26.9012 6.85113 26.8964 7.06904C26.8883 7.43765 26.9141 7.811 26.9236 8.17961C26.9385 8.80753 27.1415 10.0647 27.2582 10.6825C27.4707 11.8032 28.4537 12.926 29.085 13.8764C29.4821 14.4744 29.9912 15.0168 30.1718 15.7303C30.2594 16.0765 29.7217 15.8226 29.7435 16.1668C29.7659 16.5191 29.9166 16.8619 30.0781 17.1708C30.3232 17.6405 30.3632 17.889 30.3741 18.4246C30.3809 18.7735 30.4148 19.1475 30.3592 19.4876C30.2852 19.9397 30.125 20.3687 30.0401 20.8154C29.9552 21.2594 29.9885 21.7115 30.0014 22.1602C30.0082 22.391 29.6973 24.1145 30.3945 23.6489C30.4494 23.8511 30.5112 24.0514 30.5764 24.2517C30.4508 24.5307 29.8724 24.9495 29.8724 24.9495C29.8724 24.9495 28.5216 24.7391 28.5216 24.4886C28.5216 24.3087 28.7585 23.5009 29.0056 22.8349C29.1047 22.5695 29.307 22.4657 29.3212 22.4242C29.3728 22.2763 29.4183 21.7203 29.3925 21.4243C29.3667 21.129 29.4712 20.5812 29.5486 20.1081C29.626 19.6349 29.7054 18.0152 29.6145 17.7715C29.5249 17.5278 29.0646 16.4736 29.0646 15.9862C29.0646 15.4988 28.4591 14.1174 28.3559 14.0291C28.2527 13.9409 27.4918 12.7828 27.2861 12.4135C27.0797 12.0449 26.5563 11.1135 26.4742 10.7524C26.1049 9.13201 26.4416 7.885 26.946 6.28499L26.9446 6.28363Z" fill="#5E3D1D"/>
<path d="M29.1914 22.3292C29.243 22.1812 29.2946 21.6782 29.2688 21.3816C29.243 21.0863 29.3977 20.5385 29.4751 20.0653C29.5525 19.5922 29.6041 18.0682 29.5132 17.8252C29.4446 17.6385 29.2179 16.9474 29.1147 16.4139C29.2993 16.6019 29.5634 16.7227 29.8702 16.7173C29.9293 16.8741 30.0915 16.9936 30.1669 17.1382C30.4119 17.6079 30.4316 17.8673 30.4425 18.4035C30.4493 18.7525 30.5083 19.1448 30.4527 19.4849C30.3787 19.937 30.211 20.3654 30.1261 20.8114C30.0413 21.2553 30.0725 21.7509 30.0854 22.1989C30.0922 22.4297 29.6958 24.1139 30.3929 23.6482C30.4479 23.8505 30.5097 24.0508 30.5748 24.251C30.4493 24.53 29.8709 24.9488 29.8709 24.9488C29.8709 24.9488 28.52 24.7384 28.52 24.4879C28.52 24.308 28.7569 23.5002 29.004 22.8343C29.1031 22.5689 29.1771 22.3713 29.1914 22.3299V22.3292Z" fill="#C4C4C4"/>
<path d="M30.6835 24.1248C30.7778 24.3508 30.5932 24.6787 29.8709 24.9489C29.0692 25.2482 28.52 24.7384 28.52 24.4879C28.52 24.308 28.7569 23.5002 29.004 22.8343C29.004 22.8343 29.1744 23.3617 29.9924 23.3264C30.4846 23.3054 30.6706 23.0984 30.6706 23.0984C30.695 23.3645 30.604 23.936 30.6828 24.1254L30.6835 24.1248Z" fill="#222021"/>
<path d="M2.58824 10.6974C3.05596 10.5542 3.14217 11.0722 3.29287 11.6044C3.44357 12.1366 3.33292 12.1793 3.10076 12.4237C2.8686 12.6681 2.61947 12.8161 1.96983 12.7686C1.32018 12.721 0.675293 11.8121 0.675293 11.8121L2.58757 10.6968L2.58824 10.6974Z" fill="#2A1B0C"/>
<path d="M1.84693 12.8446C1.0493 12.759 0.462787 12.1746 0.242167 11.9492C0.021546 11.7238 -0.0463373 11.546 0.0303708 10.8026C0.107079 10.0593 0.543569 9.65135 0.615525 9.49725C0.515736 9.81427 0.57208 9.93306 0.766905 10.062C1.58558 10.6038 2.09267 10.4062 2.50743 10.339C2.92152 10.2718 3.19781 10.2229 3.38584 10.6506C3.57456 11.0783 2.94528 11.4075 2.83463 11.7523C2.72466 12.0972 2.46399 12.7713 1.84625 12.8439L1.84693 12.8446Z" fill="#2A1B0C"/>
<path d="M1.59167 11.2935C1.46948 11.2093 1.30792 11.3199 1.34526 11.4638C1.36359 11.5344 1.38531 11.6207 1.40975 11.7259C1.43554 11.8379 1.24818 12.0144 1.24411 12.0938C1.23257 12.3076 1.32761 12.3368 1.47016 12.3436C1.69825 12.3545 2.11777 11.9927 2.0655 11.8562C2.0302 11.7632 1.82112 11.453 1.59167 11.2941V11.2935Z" fill="black"/>
<path d="M15.3347 31.7256C15.2417 32.6597 17.5918 32.3617 17.638 31.8811C17.6842 31.3998 17.638 30.6259 17.638 30.6259C17.638 30.6259 17.6495 30.5763 17.6692 30.4935C17.3929 30.9572 16.1636 30.7854 15.9491 30.4949C15.74 30.8893 15.4705 31.2613 15.3347 31.7256Z" fill="#222021"/>
<path d="M7.49414 28.3294C7.55388 28.4964 8.48727 28.9865 8.48727 28.9865C8.48727 28.9865 9.51231 29.0272 9.54422 28.2439C9.58766 27.1761 9.14642 27.1211 9.14642 27.1211C9.14642 27.1211 8.83144 27.096 8.59181 27.1075C8.4737 27.1129 8.36644 27.1028 8.29245 27.0498C8.57756 27.5399 8.12817 28.3674 7.49414 28.3294Z" fill="#222021"/>
</svg>
