<svg width="42" height="41" viewBox="0 0 42 41" fill="none" xmlns="http://www.w3.org/2000/svg">
<path d="M18.2922 4.75428L12.8826 9.82612L10.5443 12.1247L9.19971 11.5124L9.24992 11.2079L9.95938 11.5326L12.2977 9.23403L17.56 4.30304C17.9212 4.43672 18.1657 4.64081 18.2929 4.75493L18.2922 4.75428Z" fill="#373A39"/>
<path d="M17.5596 4.30308L12.2973 9.23407L9.95897 11.5326L9.24951 11.2079L9.34015 10.6491C9.34015 10.6491 11.535 8.93934 12.0534 7.76886C12.669 6.38711 14.2281 4.94863 14.2281 4.94863C14.3885 4.85473 16.4862 4.04551 17.2694 4.2157C17.3731 4.23918 17.4702 4.26917 17.5602 4.30243L17.5596 4.30308Z" fill="#494D4B"/>
<path d="M24.8538 15.9902C26.9033 14.1677 27.5782 12.975 28.6039 14.4937C28.8067 14.4852 29.1295 18.4844 29.4992 18.2868C29.8689 18.0893 30.1428 18.2836 30.1428 18.2836C30.1428 18.2836 30.7544 18.1036 31.0042 17.9184C31.2526 17.7358 31.8284 17.2598 31.9242 17.3368C32.0208 17.4124 32.2685 18.0782 32.2685 18.0782C32.2685 18.0782 32.3983 19.2376 32.1746 19.3752C32.0149 19.4736 31.2272 19.4873 30.7531 19.4893C30.564 19.4893 30.4238 19.4893 30.3938 19.4906C30.2869 19.4958 29.8637 19.6966 29.5879 19.8968C29.3127 20.0964 28.8986 20.1707 28.5145 20.3161C28.1305 20.4622 26.977 16.2635 26.795 16.6117C25.6943 18.7198 23.4492 21.1912 21.3111 22.0219C20.8827 22.1882 20.5005 21.4911 20.4745 21.3151C20.4484 21.139 20.2984 19.6392 20.3903 19.0413C20.4816 18.4446 20.7072 16.9084 20.8305 16.4865C20.9537 16.0659 21.5191 13.2261 22.1862 11.6722C22.8539 10.1176 23.1154 9.29016 24.503 8.64004C25.7687 8.0473 26.3542 8.98498 26.3542 8.98498C26.5557 10.0707 26.8074 10.9621 26.3946 12.5903C26.2864 13.0181 25.9467 14.3718 24.8544 15.9909L24.8538 15.9902Z" fill="#942F11"/>
<path d="M2.55392 30.9873C2.6126 31.4366 2.64716 31.6257 2.80953 31.794C2.80953 31.794 4.39342 32.0359 5.19939 31.6264C5.53586 31.4562 5.8645 31.7946 5.92254 31.7946C6.77154 31.79 6.79958 31.7183 6.79958 31.7183C6.79958 31.7183 7.86964 31.6381 7.86703 30.7056C7.86442 30.0705 7.23125 29.6695 7.23125 29.6695C7.23125 29.6695 6.79827 29.2626 6.334 29.5365C5.47652 30.0431 4.09412 30.5902 4.2917 30.0314C4.22714 29.1517 3.23599 27.5561 4.14694 26.3674C4.4195 26.01 6.29292 24.1203 6.29292 24.1203C6.29292 24.1203 9.04924 23.0855 10.4897 21.098C10.4955 21.0908 10.5014 21.083 10.5073 21.0745C11.9432 19.072 11.2937 16.1005 11.0648 15.0271C10.8353 13.9538 10.0867 12.8844 8.04961 15.5364C6.01318 18.1877 5.96949 19.8649 5.79799 20.6056C5.68844 21.0797 4.35756 22.5025 3.44856 24.0929C2.93603 24.9928 2.28461 24.9537 2.10855 25.8379C2.07594 26.9882 2.11311 27.5698 2.55457 30.9867L2.55392 30.9873Z" fill="#942F11"/>
<path d="M2.7142 27.3813C2.99263 28.1456 3.80903 29.7732 3.58798 30.7526C3.44126 31.4007 3.27302 31.8983 2.84591 31.7939C2.84918 31.7985 2.92873 31.8481 2.93329 31.8533C3.11001 32.0274 4.45654 31.9485 5.26251 31.539C5.59898 31.3688 5.86437 31.7946 5.92175 31.7946C6.77076 31.79 6.7988 31.7183 6.7988 31.7183C6.7988 31.7183 7.86885 31.6381 7.86624 30.7056C7.86364 30.0705 7.23047 29.6695 7.23047 29.6695C7.23047 29.6695 6.71794 29.2482 6.33126 29.6238C5.48943 30.4422 3.83903 30.5987 4.0366 30.0405C3.97205 29.1609 3.23455 27.5561 4.14615 26.3674C4.41872 26.01 6.29213 24.1203 6.29213 24.1203C6.29213 24.1203 9.04846 23.0855 10.4889 21.0979C8.10556 19.9842 6.13107 20.0846 6.13107 20.0846C6.20606 22.1882 6.16759 22.539 5.93219 22.9714C5.69679 23.403 3.36497 24.775 3.32519 25.7349C3.28672 26.6954 2.43511 26.6165 2.71354 27.3813H2.7142Z" fill="#82260A"/>
<path d="M2.83683 31.9426H2.83553C2.67316 31.7744 2.56622 31.5227 2.50753 31.0734C2.06673 27.6565 1.85741 27.172 1.89002 26.0218C1.98718 25.536 2.293 25.2732 2.63469 24.9856C2.93595 24.9843 3.24699 25.0495 3.44196 25.3547C3.64019 25.6644 3.9734 26.0994 4.32422 26.1607C4.24401 26.25 4.18206 26.3211 4.14685 26.3674C3.23525 27.5561 4.22706 29.1517 4.29161 30.0314C4.09403 30.5902 5.47708 30.0431 6.33391 29.5364C6.79819 29.2626 7.23117 29.6695 7.23117 29.6695C7.23117 29.6695 7.86499 30.0705 7.86694 30.7056C7.86955 31.6381 6.79949 31.7183 6.79949 31.7183C6.79949 31.7183 6.77146 31.79 5.92245 31.7946C5.86507 31.7946 5.59315 31.5468 5.25668 31.717C4.45137 32.1265 3.02593 32.1311 2.84987 31.957C2.84531 31.9524 2.84074 31.9478 2.83683 31.9426Z" fill="#D9D9D9"/>
<path d="M3.32604 25.7348C3.33125 25.6136 3.37299 25.4864 3.44211 25.3547C3.64034 25.6644 3.97355 26.0993 4.32436 26.1606C4.30545 26.1815 4.28785 26.2017 4.27089 26.2206C4.26959 26.2219 4.26828 26.2232 4.26763 26.2245C4.25394 26.2402 4.24155 26.2545 4.22981 26.2682C4.2259 26.2728 4.22199 26.2774 4.21808 26.2813C4.20895 26.2917 4.20112 26.3015 4.1933 26.3106C4.18808 26.3165 4.18286 26.323 4.1783 26.3289C4.17243 26.336 4.16787 26.3419 4.16265 26.3484C4.15743 26.3543 4.15222 26.3615 4.14765 26.3667C3.23605 27.5554 4.22786 29.1511 4.29241 30.0307C4.25524 30.1357 4.27415 30.2016 4.33414 30.2361C4.59497 30.3861 5.6383 29.9479 6.33471 29.5358C6.59619 29.3819 6.84724 29.4432 7.01678 29.526C7.14915 29.5906 7.23197 29.6688 7.23197 29.6688C7.23197 29.6688 7.86579 30.0698 7.86774 30.705C7.87035 31.6374 6.80029 31.7176 6.80029 31.7176C6.80029 31.7176 6.77225 31.7894 5.92325 31.7939C5.91608 31.7939 5.90565 31.79 5.89195 31.7835C5.87174 31.7737 5.84435 31.7581 5.8111 31.7418C5.68981 31.6798 5.48897 31.599 5.25748 31.7163C4.50238 32.0997 3.20279 32.1278 2.89762 31.9869C2.87741 31.9778 2.86111 31.9674 2.85067 31.9563C2.84611 31.9517 2.84154 31.9472 2.83763 31.9419C3.26474 32.0469 3.44211 31.4001 3.58882 30.7519C3.80988 29.7725 2.99413 28.1449 2.71504 27.3807C2.43661 26.6164 3.28756 26.6953 3.32669 25.7342L3.32604 25.7348Z" fill="#BDBDBD"/>
<path d="M6.28551 30.1057C6.15706 30.0281 5.9523 29.914 5.75146 29.8468C5.95556 29.7483 6.1564 29.6414 6.33377 29.5364C6.79739 29.2619 7.23037 29.6688 7.23037 29.6688C7.23037 29.6688 7.86419 30.0705 7.86615 30.7049C7.86941 31.6381 6.79935 31.717 6.79935 31.717C6.79935 31.717 6.77001 31.7887 5.92166 31.7933C7.14886 31.6387 6.48114 30.2231 6.28486 30.105L6.28551 30.1057Z" fill="#331108"/>
<path d="M30.0761 5.23815C30.4198 5.10447 30.7608 4.99036 31.0979 4.85147C31.482 4.69301 31.9104 4.6878 32.2899 4.5013C32.6694 4.31481 33.0581 4.10549 33.3339 3.7762C33.5784 3.48472 33.7656 3.12868 34.0108 2.82873C34.5298 2.19361 34.833 1.5637 35.5712 1.19593C35.3743 1.42612 35.4016 1.60413 35.577 1.88192C36.2865 1.07791 36.846 0.404313 38.158 0.172826C38.6979 0.0776234 39.1282 0.0345864 39.6747 0.0111117C39.9453 -0.000625655 40.2159 -0.00192981 40.4865 0.00198265C40.6874 0.00459095 41.0082 0.0704506 41.2514 0.11414C40.6091 0.36258 40.0627 0.757086 39.7418 1.36678C40.0014 1.23506 40.285 1.15159 40.5739 1.1216C40.3718 1.14246 40.2863 1.79193 40.2231 1.93343C40.1018 2.20404 39.9466 2.53464 39.781 2.77591C39.7092 2.8809 39.2417 3.37386 39.1054 3.32692C39.376 3.41951 39.6845 3.39538 39.9375 3.26236C39.7627 3.3543 39.5697 3.64513 39.3878 3.77554C39.1165 3.97051 38.8694 4.15701 38.5609 4.29525C37.9486 4.56977 37.2796 4.69236 36.623 4.80843C36.7808 4.88081 36.9594 4.90624 37.1309 4.88016C36.784 5.23619 36.4339 5.59549 36.0205 5.87131C35.4792 6.23256 34.7574 6.40993 34.1164 6.46927C34.3361 6.58208 34.5996 6.62707 34.8461 6.62381C34.2299 7.09722 33.4089 7.19437 32.6316 7.21394C31.855 7.23415 31.0556 7.19763 30.3252 7.46433C29.7358 7.67952 29.2421 8.07468 28.7368 8.43462C28.427 8.65502 27.8539 9.1819 27.5272 8.78479C27.1085 8.27617 27.5226 7.38739 27.8389 6.93746C28.384 6.16149 29.1958 5.58049 30.0742 5.23945L30.0761 5.23815Z" fill="#491C0E"/>
<path d="M27.7581 7.09847C27.7052 7.1076 27.6805 7.15846 27.6068 7.26149C27.5201 7.38213 27.4353 7.50406 27.3544 7.62861C27.1314 7.97225 26.6626 8.66411 26.9958 9.0697C27.104 9.20142 27.2977 9.20011 27.5214 9.1323C27.5259 9.13099 27.5305 9.12969 27.5344 9.12773C27.5494 9.12317 27.5637 9.1186 27.5781 9.11208C27.5937 9.10752 27.6061 9.10165 27.6205 9.09708C27.6498 9.08665 27.6792 9.07491 27.7072 9.06318C27.7476 9.04557 27.7887 9.02601 27.8298 9.00579C28.0671 8.89233 28.2908 8.74888 28.5073 8.59759C28.5862 8.54347 28.6638 8.48805 28.7401 8.43327C29.2448 8.07333 29.7384 7.67817 30.3285 7.46298C31.0589 7.19694 31.857 7.23345 32.6343 7.21389C33.4116 7.19368 34.2325 7.09652 34.8487 6.62376C34.6029 6.62637 34.3382 6.58138 34.1184 6.46857C34.7607 6.40988 35.4812 6.23186 36.0231 5.87127C36.4359 5.59479 36.786 5.23614 37.133 4.88011C36.9615 4.90619 36.7828 4.88142 36.625 4.80838C37.281 4.69297 37.9513 4.56972 38.563 4.29585C38.8707 4.15696 39.1179 3.96981 39.3898 3.77615C39.5717 3.64573 39.7647 3.35491 39.9401 3.26231C39.6858 3.39664 39.378 3.42011 39.1074 3.32817C39.2437 3.37382 39.7106 2.8815 39.7823 2.77652C39.948 2.53394 40.1032 2.20399 40.2244 1.93338C40.2877 1.79253 40.3725 1.14307 40.5746 1.1222C40.2851 1.15285 40.0021 1.23631 39.7419 1.36673C39.7843 1.34521 39.8391 1.20306 39.871 1.14959C39.9004 1.10394 39.9304 1.05895 39.963 1.01526C39.9877 0.980048 40.0145 0.944836 40.0432 0.91158C40.0464 0.905712 40.0516 0.899843 40.0562 0.893974C40.0634 0.885497 40.0706 0.877672 40.0771 0.869195C40.1168 0.820942 40.1592 0.772688 40.2029 0.727043C40.2688 0.652054 40.3301 0.575109 40.3783 0.475342C40.1573 0.535333 39.9408 0.622059 39.7504 0.747909C39.5926 0.851589 39.4537 0.979396 39.3187 1.10916C39.1374 1.28196 38.9555 1.46519 38.8388 1.69016C38.7338 1.8923 38.8244 2.05923 38.7697 2.26725C38.7247 2.43092 38.6392 2.55742 38.5512 2.69761C38.4795 2.81042 38.4475 2.93627 38.3758 3.04908C38.2063 3.31839 37.9102 3.5114 37.622 3.63139C37.266 3.77941 36.8799 3.83744 36.4991 3.89352C36.6354 3.90982 36.76 3.99785 36.8193 4.12175C36.2481 4.10153 35.673 4.23586 35.1683 4.50517C35.3645 4.6571 35.5856 4.87555 35.5138 5.1129C35.4812 5.21984 35.3952 5.30005 35.3091 5.37178C34.912 5.70368 34.4275 5.93452 33.9247 6.05254C33.6698 6.11253 33.4005 6.15035 33.1377 6.14383C32.8645 6.13666 32.5919 6.01407 32.3317 5.93387C32.5065 6.07602 32.6812 6.21752 32.856 6.35967C32.826 6.33554 32.5254 6.4014 32.4687 6.40206C32.3141 6.40466 32.1596 6.39097 32.007 6.37076C31.7286 6.33424 31.4677 6.31663 31.1854 6.31729C30.6448 6.31859 30.0755 6.35119 29.6008 6.62833C28.9748 6.99349 28.3762 7.84901 28.1226 7.97356C27.8344 8.11441 27.7085 8.13266 27.404 8.02964C27.3264 8.00355 27.7913 7.09326 27.7574 7.09912L27.7581 7.09847Z" fill="#331108"/>
<path d="M0.60615 20.2907C0.742434 20.2991 1.14216 19.9601 1.14216 19.9601C1.14216 19.9601 1.15715 20.114 1.40299 19.9979C1.47732 19.964 1.57253 19.904 1.69446 19.8075C2.22264 19.3934 2.01398 18.9891 2.09549 18.8444C2.1757 18.6996 2.63997 17.3759 3.10556 16.8875C3.33965 16.6417 3.62396 16.0646 3.8724 15.5364C4.07128 15.1145 4.24603 14.7252 4.35232 14.5641C4.3771 14.5263 4.39797 14.5015 4.41492 14.4911C4.4221 14.4865 4.43122 14.4852 4.44427 14.4852C4.75596 14.5041 6.77022 16.0013 7.00431 16.4232C7.00692 16.4291 7.01018 16.4349 7.01279 16.4408C7.02127 16.4597 7.02909 16.4773 7.03496 16.4962C7.17581 16.8757 6.89607 17.1392 6.59155 18.0697C6.27269 19.0432 6.26812 19.1893 6.19509 19.6158C6.17618 19.7253 6.14357 19.9653 6.11032 20.2757C6.10445 20.3357 6.10315 20.3983 6.10901 20.4648C6.10901 20.4693 6.10901 20.4732 6.11032 20.4765C6.11488 20.5319 6.12336 20.5893 6.1364 20.6493C6.14227 20.6773 6.14814 20.7054 6.15531 20.7341C6.15988 20.7549 6.16574 20.7765 6.17161 20.7967C6.24595 21.0601 6.37506 21.3516 6.53352 21.6457C6.54851 21.6737 6.56416 21.7018 6.57916 21.7304C6.5909 21.7513 6.60264 21.7728 6.61437 21.793C6.63524 21.8309 6.65806 21.868 6.68023 21.9059C7.03431 22.5045 7.47511 23.0842 7.77246 23.4311C7.81028 23.4767 7.85006 23.5217 7.88983 23.5654C7.93222 23.611 7.97591 23.6528 8.02025 23.6893C8.58821 24.1477 9.43916 23.9012 10.7531 23.4832C11.4234 23.2706 12.0559 23.0939 12.6506 22.9387C12.8273 22.8931 13.0001 22.8481 13.169 22.8044C13.2858 22.7751 13.4005 22.747 13.5146 22.7177C13.649 22.6851 13.7807 22.6518 13.9098 22.6199C15.7852 22.1517 17.2152 21.7826 18.2409 20.8195C19.7798 19.3765 21.3676 16.7721 22.0073 16.1396C22.2211 15.9276 22.7043 15.6081 23.269 15.198C24.3919 14.3796 25.8336 13.1987 26.103 11.7752C26.1062 11.7543 26.1114 11.7315 26.116 11.7107C26.5098 9.61423 26.5653 8.49592 25.7384 8.04208C24.9025 7.58367 23.7346 7.28632 20.2786 9.90832C20.2786 9.90832 18.5689 11.7413 17.6423 12.1495C16.7144 12.5577 14.4471 13.5215 13.8394 13.0324C13.2316 12.5421 7.346 9.52816 6.497 9.29993C5.648 9.07301 3.95325 9.17278 3.28944 9.56467C2.62367 9.95722 2.15679 10.2996 1.64099 11.9258C1.12585 13.5495 2.04724 14.3105 1.52688 15.466C1.00457 16.6221 0.507034 18.281 0.447044 19.0439C0.388357 19.8049 0.469866 20.2848 0.604846 20.292L0.60615 20.2907Z" fill="#AD4929"/>
<path d="M16.0571 13.6186C16.0571 13.6186 16.3114 15.689 14.882 16.1748C13.4527 16.6606 12.9402 15.273 12.8574 14.8413C12.7752 14.4096 13.1371 13.213 13.1371 13.213L17.0717 12.872L16.0564 13.6186H16.0571Z" fill="#942F11"/>
<path d="M13.9418 15.5442C13.9418 15.5442 12.8483 19.0707 12.2008 20.3383C11.5533 21.6059 10.4043 23.5758 10.4043 23.5758C10.4043 23.5758 11.0648 23.6397 11.2911 23.5458C11.5174 23.452 11.5572 23.1403 11.5572 23.1403C11.5572 23.1403 13.1861 19.9379 13.6745 18.4623C14.1629 16.9873 14.5267 15.2736 14.5267 15.2736L13.9418 15.5442Z" fill="#942F11"/>
<path d="M7.79541 23.4382C7.79541 23.4382 7.87431 23.5334 8.02103 23.6873C8.67376 24.3714 10.6821 26.22 13.1679 26.0035C13.1679 26.0035 13.295 25.6344 13.4515 25.026C13.608 24.4183 13.7939 23.5713 13.9112 22.6179C14.2066 20.1981 14.0579 17.0903 11.8591 15.4451C10.2987 14.2772 9.33692 15.2971 8.74418 16.9514C7.84366 19.4632 7.79541 23.4376 7.79541 23.4376V23.4382Z" fill="#AD4929"/>
<path d="M1.40383 19.9979C1.41883 20.3115 1.52512 20.575 1.6451 20.7634C1.77356 20.9656 1.91767 21.0823 1.98288 21.0855C2.0383 21.0888 2.13807 21.034 2.23719 20.9682C2.37934 20.873 2.51953 20.7543 2.51953 20.7543C2.51953 20.7543 2.54562 21.0164 3.07184 20.6024C3.31768 20.4093 3.55764 20.3057 3.75065 20.2365C3.9704 20.1563 4.13016 20.1205 4.17385 20.0429C4.25406 19.8994 4.71833 18.5751 5.18392 18.0873C5.23347 18.0345 5.29672 17.9732 5.36845 17.9073C5.79882 17.5017 6.57153 16.8634 7.03581 16.4962C7.22296 16.3495 7.35924 16.2445 7.40488 16.2178C7.46814 16.1787 8.00219 16.4839 8.67382 16.9116C9.8919 17.6902 11.5606 18.8731 11.6832 19.1378C11.8136 19.4215 12.3052 20.2548 12.806 21.0099C12.986 21.2812 13.1673 21.5427 13.3342 21.7637C13.3779 21.8224 13.4209 21.8778 13.4627 21.9306C13.6922 22.2208 13.6459 22.423 13.4887 22.5808C13.4066 22.6655 13.2925 22.7373 13.1725 22.8044C12.8928 22.9622 12.5798 23.0913 12.5472 23.283C12.5282 23.3913 12.4956 23.6326 12.4624 23.9416C12.3639 24.8519 10.3953 24.3805 10.6268 24.9621C10.8537 25.5314 10.9476 25.8581 12.4096 26.01C12.9495 26.0655 13.6759 26.0968 14.6664 26.1091C15.7808 26.1209 16.7498 25.8848 17.6014 25.5079C18.9923 24.8943 20.0721 23.909 20.9641 23.03C21.045 22.9498 21.1239 22.8703 21.2015 22.794L21.4389 22.5566C21.5425 22.4543 21.6436 22.3545 21.7421 22.258C21.8164 22.1863 21.8888 22.1158 21.9605 22.0487C23.4994 20.6056 25.9916 19.4404 26.632 18.8079C26.6933 18.7466 26.7787 18.6761 26.8804 18.5985C27.1321 18.4042 27.4921 18.159 27.8931 17.8656C29.0173 17.0486 30.4577 15.8663 30.7283 14.4429C31.1339 12.3047 31.1978 11.1681 30.3625 10.7097C29.6348 10.3113 28.6528 10.0335 26.1188 11.7107C25.7484 11.9552 25.3441 12.2421 24.9027 12.576C24.9027 12.576 23.1942 14.4103 22.2663 14.8171C21.3397 15.2253 19.3398 16.268 18.7314 15.779C18.1237 15.2886 10.3379 11.2542 9.48892 11.026C8.63992 10.7978 6.94517 10.8988 6.28136 11.2907C5.61689 11.6833 5.1487 12.0256 4.63291 13.6506C4.53445 13.9636 4.4236 14.2466 4.30492 14.5087C4.23319 14.6685 4.15885 14.8204 4.08256 14.9652C3.63198 15.8272 3.1227 16.4773 2.76341 17.2761C2.44715 17.9771 2.03765 18.4766 1.75204 18.9304C1.5662 19.2245 1.43253 19.4997 1.4084 19.801C1.40383 19.8694 1.40253 19.9353 1.40514 19.9998L1.40383 19.9979Z" fill="#AD4929"/>
<path d="M15.4507 26.0739C18.1398 25.8926 20.07 23.9077 20.962 23.0294C21.0429 22.9492 21.1218 22.8696 21.1994 22.7933C21.2267 22.7653 21.2535 22.7379 21.2796 22.7131C21.3324 22.659 21.3852 22.6062 21.4374 22.5553C21.541 22.4516 21.6421 22.3519 21.7406 22.2567C21.8149 22.1849 21.8873 22.1145 21.959 22.0474C23.4979 20.6043 25.9902 19.4391 26.6305 18.8065C26.6918 18.7452 26.7772 18.6748 26.8789 18.5972C27.248 15.8715 27.008 13.2443 26.4016 13.3689C25.6022 13.5332 22.8661 16.3476 21.959 18.9389C21.2959 20.8358 17.9612 26.3243 14.7099 24.3231C14.4497 24.1627 15.7102 25.8953 15.4507 26.0733V26.0739Z" fill="#942F11"/>
<path d="M3.74919 20.2365C3.96894 20.1563 4.1287 20.1205 4.17239 20.0429C4.25259 19.8994 4.71687 18.575 5.18245 18.0873C5.23201 18.0345 5.29526 17.9732 5.36699 17.9073C5.79736 17.5017 6.57007 16.8633 7.03435 16.4962C7.17519 16.8757 6.89545 17.1392 6.59094 18.0697C6.27207 19.0432 6.26751 19.1893 6.19447 19.6158C6.17556 19.7253 6.14296 19.9653 6.1097 20.2757C6.10383 20.3356 6.10253 20.3982 6.1084 20.4648C6.1084 20.4693 6.1084 20.4732 6.1097 20.4765C6.11688 20.5339 6.1247 20.5919 6.13579 20.6493C6.14165 20.6773 6.14752 20.7054 6.1547 20.7341C6.15926 20.7549 6.16513 20.7765 6.171 20.7967C6.2499 21.0927 6.38488 21.3764 6.5329 21.6457C6.5479 21.6737 6.56355 21.7017 6.57855 21.7304C6.59028 21.7513 6.60202 21.7728 6.61376 21.793C6.63462 21.8309 6.65745 21.868 6.67962 21.9058C6.72983 21.99 6.78134 22.0741 6.83416 22.1569C7.07477 22.5429 7.34213 22.9159 7.63426 23.2648C7.68251 23.3241 7.72946 23.3802 7.7725 23.4304C7.81032 23.476 7.85009 23.521 7.88987 23.5647C7.93225 23.6104 7.97594 23.6521 8.02028 23.6886C8.60454 24.3009 10.2765 25.8489 12.4061 26.01C12.6533 26.0276 12.9082 26.0276 13.1671 26.0054C13.1906 26.0028 13.2532 25.7316 13.261 25.7081C13.3608 25.4486 13.5753 25.2569 13.6725 24.9863C13.769 24.715 13.8831 24.462 13.8629 24.1653C13.844 23.8829 13.7488 23.6136 13.6699 23.3424C13.6099 23.1363 13.559 22.927 13.5147 22.7177C13.5042 22.672 13.4945 22.627 13.4853 22.5814C13.4416 22.3675 13.4019 22.1523 13.3627 21.9371C13.3523 21.8798 13.3419 21.8217 13.3308 21.7643C13.2623 21.3953 13.1945 21.0262 13.126 20.6565C13.0321 20.768 12.9226 20.8906 12.8026 21.0105C12.324 21.4859 11.6713 21.9019 11.1261 21.2609C10.924 21.0236 10.9898 20.4328 10.5569 20.4752C10.3267 20.4974 10.1487 20.676 9.9739 20.8254C9.75611 21.0099 9.36943 21.3007 9.06817 21.3072C8.77082 21.3131 8.61433 20.899 8.57194 20.6454C8.52369 20.3546 8.56346 20.0585 8.59867 19.7657C8.68931 19.0002 8.83016 18.1349 8.7493 17.3648C8.733 17.2122 8.70562 17.0616 8.6704 16.9123C8.53608 16.343 8.28829 15.7952 8.11418 15.2423C8.08028 15.1327 7.98572 14.9965 7.88465 15.0493C7.85074 15.0656 7.83053 15.1001 7.81162 15.1327C7.59252 15.5103 7.40472 15.9139 7.13672 16.2595C7.09303 16.3169 7.04739 16.371 7.00174 16.4245C6.90393 16.534 6.8009 16.6306 6.69331 16.7114C6.46182 16.8842 6.23034 17.0583 5.98907 17.2168C5.81366 17.3322 5.61869 17.4 5.44459 17.5069C5.25548 17.6224 5.11985 17.8715 4.99074 18.0469C4.82968 18.2653 4.67449 18.489 4.54146 18.7257C4.26172 19.2206 4.0674 19.7781 3.74658 20.2378L3.74919 20.2365Z" fill="#942F11"/>
<path d="M8.77553 39.9449C9.19808 39.6058 9.6291 39.0632 9.63171 38.8005C9.63823 38.284 9.20525 37.3405 9.20525 37.3405C9.20525 37.3405 9.59389 36.9766 9.63171 36.2887C9.66888 35.6007 11.5351 33.0263 12.5295 31.7613C13.0799 31.0616 13.6544 30.8112 14.0293 30.165C15.087 28.3444 16.3676 26.7814 17.0054 25.5053C18.7947 21.9254 18.6747 20.4198 18.6747 20.4198C18.6747 20.4198 18.6499 18.2138 18.1419 17.7671C17.6418 17.327 15.4847 17.5787 15.4847 17.5787C15.4847 17.5787 13.7287 18.3918 13.0095 20.5182C12.2896 22.6453 12.4748 26.5812 12.0014 28.2147C11.8096 28.8759 10.9952 29.9048 10.4898 31.5142C9.92906 33.2989 8.25257 37.3039 8.23953 37.3411C8.02565 37.8778 7.33966 38.6518 7.16165 39.5927C7.15513 40.0877 8.36538 40.2728 8.77553 39.9455V39.9449Z" fill="#AD4929"/>
<path d="M7.98 37.2309C8.06868 36.9929 8.11303 36.8103 8.0752 36.689C8.00087 36.4523 9.78821 33.5069 10.3483 31.7222C10.4964 31.2514 10.6829 30.8138 10.8772 30.4122C11.0715 30.6456 11.6049 30.7226 12.313 30.9873C12.5615 31.0805 12.7538 31.2097 12.9032 31.3518C12.7232 31.5311 12.5504 31.7261 12.405 31.9543C11.4771 33.4156 9.99883 35.6301 9.96231 36.3187C9.92384 37.0073 9.52803 37.4539 9.52803 37.4539C9.52803 37.4539 9.63758 38.2847 9.63171 38.8005C9.6291 39.0633 9.19808 39.6051 8.77553 39.9442C8.36538 40.2716 7.15513 40.0864 7.16165 39.5914C7.33966 38.6505 7.72374 37.8765 7.93762 37.3398C7.95066 37.3033 7.965 37.2674 7.98 37.2303V37.2309Z" fill="#D8D8D8"/>
<path d="M9.31154 37.5556C9.31154 37.5556 9.63823 38.2847 9.63171 38.8011C9.6291 39.0639 9.19808 39.6058 8.77553 39.9455C8.36538 40.2729 7.15513 40.0877 7.16165 39.5927C7.24185 39.1708 7.36314 38.7848 7.49225 38.4366C7.73873 38.256 7.91805 38.1653 7.91805 38.1653C9.52803 37.4546 9.26198 37.255 9.46673 36.2756C9.67149 35.2962 11.6329 32.7577 11.8383 31.3322C13.0121 30.5413 13.3792 29.9368 13.6537 28.9887C13.9282 28.0406 15.4678 27.3696 16.7361 24.5383C18.0044 21.7076 18.5006 20.9127 18.4002 19.2884C18.3832 19.0106 18.4152 18.7602 18.4791 18.5346C18.6616 19.3367 18.674 20.4204 18.674 20.4204C18.674 20.4204 18.794 21.9261 17.0047 25.5059C16.367 26.7821 15.0863 28.3457 14.0287 30.1657C13.6537 30.8119 13.0642 31.121 12.525 31.7365C11.3838 33.0387 9.85407 35.5818 9.81755 36.2698C9.77908 36.9583 9.31089 37.5556 9.31089 37.5556H9.31154Z" fill="#A63513"/>
<path d="M9.52787 37.4539C9.52787 37.4539 9.53569 37.5133 9.54678 37.6085C9.5533 37.6652 9.56112 37.735 9.5696 37.8139C9.57742 37.8889 9.5859 37.971 9.59373 38.0584C9.6022 38.1555 9.61068 38.2566 9.6172 38.3577C9.62698 38.5135 9.6335 38.6681 9.63155 38.8011C9.63155 38.8122 9.62959 38.8239 9.62829 38.8357C9.62633 38.8526 9.62242 38.8702 9.6172 38.8891C9.61329 38.9048 9.60807 38.9211 9.60155 38.938C9.5846 38.985 9.56047 39.0359 9.53047 39.0893C9.51743 39.1128 9.50309 39.1363 9.48809 39.1604C9.4607 39.2041 9.43071 39.2484 9.39745 39.2941C9.31138 39.4127 9.20704 39.5353 9.09424 39.6521C9.09163 39.6547 9.08902 39.6579 9.08641 39.6605C8.98664 39.7629 8.88035 39.8607 8.77472 39.9455C8.58431 40.0981 8.22045 40.1392 7.88594 40.0903C7.50187 40.0335 7.15692 39.8581 7.16018 39.5934C7.16018 39.5921 7.16018 39.5908 7.16083 39.5895C7.1817 39.4799 7.20582 39.373 7.23126 39.2686C7.24495 39.2139 7.25995 39.1604 7.27494 39.1069C7.28799 39.06 7.30038 39.0124 7.31407 38.9661C7.33559 38.8924 7.35841 38.8207 7.38188 38.7502C7.38841 38.73 7.39493 38.7092 7.4021 38.6889C7.43079 38.6042 7.46013 38.5207 7.49013 38.4399C7.49013 38.4392 7.49013 38.4385 7.49078 38.4372C7.73727 38.2566 7.91659 38.166 7.91659 38.166C9.52656 37.4552 9.20313 37.1331 9.40788 36.1537C9.61264 35.1743 11.2956 32.5712 11.8049 31.2136C11.981 31.0949 12.1688 31.1007 12.3109 30.9886C12.3109 30.9886 12.3109 30.9886 12.3116 30.9886C12.56 31.0818 12.7524 31.2109 12.9017 31.3531C12.8606 31.3942 12.8202 31.4359 12.7804 31.4783C12.7706 31.4887 12.7615 31.4992 12.7517 31.5096C12.7211 31.5428 12.6911 31.5768 12.6611 31.612C12.6487 31.6263 12.637 31.6407 12.6246 31.655C12.5965 31.6889 12.5698 31.7235 12.5431 31.758C12.532 31.7724 12.5202 31.7867 12.5098 31.8017C12.4733 31.8513 12.4381 31.9021 12.4042 31.955C12.3794 31.9941 12.354 32.0339 12.3279 32.0743C12.3214 32.0847 12.3142 32.0952 12.3077 32.1062C12.1296 32.3853 11.9353 32.6872 11.7364 32.9983C11.6693 33.1033 11.6021 33.2096 11.5343 33.3158C11.4671 33.4221 11.3993 33.5291 11.3322 33.636C11.265 33.743 11.1991 33.8499 11.1333 33.9555C10.9044 34.3266 10.6879 34.6898 10.5047 35.0204C10.4264 35.1619 10.3534 35.2982 10.2888 35.426C10.0945 35.81 9.97062 36.1243 9.96019 36.318C9.95432 36.4275 9.93802 36.5306 9.91715 36.6271C9.805 37.137 9.52656 37.4533 9.52656 37.4533L9.52787 37.4539Z" fill="#C4C4C4"/>
<path d="M8.77553 39.9449C9.19808 39.6058 9.6291 39.0633 9.63171 38.8005C9.63823 38.284 9.52803 37.4539 9.52803 37.4539C9.42305 37.81 8.81922 38.1177 8.293 38.2364C7.79677 38.3486 7.72634 37.9169 7.93762 37.3411C7.72374 37.8778 7.33966 38.6518 7.16165 39.5927C7.15513 40.0877 8.36538 40.2729 8.77553 39.9455V39.9449Z" fill="#331108"/>
<path d="M2.34201 10.0524C2.34201 10.0524 1.73493 8.52718 1.74927 8.4698C1.85687 8.04856 2.67587 8.73519 2.87084 8.89104C3.00321 8.99668 3.45184 9.38727 3.72702 9.62723C3.85743 9.74135 3.88417 9.93306 3.79092 10.0791C3.73093 10.1737 3.68594 10.3008 3.60769 10.3478C3.27187 10.5473 3.02995 10.5721 2.83694 10.4299C2.67131 10.3073 2.36222 10.1111 2.34201 10.0524Z" fill="#82260A"/>
<path d="M0.898926 20.0631C0.90023 20.1054 0.90349 20.1465 0.908055 20.1876C0.917184 20.2639 0.935442 20.3395 0.956308 20.4132C1.0952 20.5143 1.25757 20.618 1.4421 20.706C1.62077 20.794 1.81966 20.8671 2.03354 20.9108C2.17569 20.8156 2.31589 20.6969 2.31589 20.6969C2.31589 20.6969 2.34197 20.959 2.86819 20.5449C3.39637 20.1296 3.88869 20.1309 3.9702 19.9855C4.05041 19.842 4.51468 18.5176 4.98027 18.0299C5.02982 17.9771 5.09308 17.9158 5.1648 17.8499C4.99526 17.863 4.82833 17.8454 4.68618 17.7567C4.40188 17.578 4.34254 17.1665 4.46513 16.8522C4.58902 16.5392 4.84724 16.3019 5.09568 16.075C5.26066 15.9269 5.42368 15.7776 5.58865 15.6296V15.6283C5.60626 15.6133 5.62386 15.5977 5.64147 15.5813C5.92708 15.3225 6.49178 13.8762 6.19182 13.6329C5.99555 13.4751 5.72233 13.4399 5.47715 13.4908C5.47454 13.4921 5.46997 13.4921 5.46671 13.4934C5.21762 13.5475 4.99266 13.6812 4.78595 13.8299C4.57402 13.9825 4.29428 14.2042 4.10127 14.4506C3.98585 14.5974 3.90108 14.7526 3.87891 14.9071C3.8763 14.9201 3.87565 14.9319 3.87435 14.9449C3.86261 15.0916 3.67546 15.7431 3.5933 15.9302C3.38985 16.3945 3.27705 16.8333 2.95622 17.2885C2.78082 17.5376 2.59171 17.8564 2.3824 18.0775C2.2259 18.2425 1.79357 18.6748 1.61817 18.8137C1.59339 18.8326 1.56991 18.8515 1.54905 18.8724C1.53144 18.8887 1.51514 18.9056 1.49949 18.9219C1.32669 19.1104 1.28561 18.9878 1.16106 19.2147C1.0176 19.4768 0.894361 19.7592 0.90023 20.0637L0.898926 20.0631Z" fill="#A63513"/>
<path d="M4.25 14.9775C4.25 14.9775 4.62233 15.3081 4.88056 15.1562C5.3957 14.8536 5.32071 14.4689 5.32071 14.4689C5.32071 14.4689 4.97902 14.4265 4.77753 14.5282C4.57017 14.6332 4.36085 14.8099 4.25 14.9775Z" fill="#350E07"/>
<path d="M14.3242 13.1198C16.9449 14.062 17.2618 15.7907 17.8076 16.9657C18.4082 18.2594 18.3273 20.3024 18.6749 21.3633C18.9233 22.1223 19.8864 22.3492 20.4492 21.7826C24.0904 18.114 24.1353 16.4388 24.0128 15.0323C23.851 13.1804 22.3154 10.6386 18.8268 10.8525C18.4088 11.2007 16.6006 12.8792 14.3242 13.1198Z" fill="#942F11"/>
<path d="M14.7964 13.0311C17.4171 13.9733 17.734 15.702 18.2798 16.877C18.8803 18.1707 18.7995 20.2137 19.147 21.2746C19.3955 22.0336 20.3586 22.2606 20.9213 21.6939C24.5625 18.0253 24.6075 16.3501 24.4849 14.9436C24.3232 13.0917 22.7876 10.5499 19.299 10.7638C18.881 11.112 17.0728 12.7905 14.7964 13.0311Z" fill="#4C1509"/>
<path d="M20.7044 18.6259C21.2339 21.2127 20.8459 23.2804 19.7172 24.1673C18.9947 24.7163 18.9712 24.7326 18.9712 24.7326C18.9712 24.7326 19.8913 23.9788 20.3177 22.7073C20.7442 21.4357 20.4208 19.2532 20.2956 18.8711C20.1704 18.489 20.7044 18.6259 20.7044 18.6259Z" fill="#1E1D1B"/>
<path d="M3.54286 19.0152C3.54286 19.0152 2.48911 20.4074 2.44672 20.5547C2.40499 20.7015 2.51845 20.7543 2.51845 20.7543L2.88165 19.9125L3.55134 19.098L3.54286 19.0159V19.0152Z" fill="#050507"/>
<path d="M4.87421 18.9102C4.78096 18.8841 4.72488 18.7955 4.64794 18.6729C4.45688 18.369 4.1015 17.8043 2.88082 17.61C2.73149 17.5865 2.59586 17.5669 2.47196 17.5487C1.66926 17.4333 1.30279 17.3804 0.855469 16.6886L1.05305 16.5608C1.44299 17.1633 1.73186 17.2044 2.50587 17.3159C2.63107 17.3342 2.76801 17.3537 2.91864 17.3778C4.24496 17.5891 4.65185 18.2366 4.84748 18.5477C4.88269 18.6037 4.92703 18.6742 4.94659 18.6872L4.87421 18.9102Z" fill="#350E07"/>
<path d="M6.93933 16.9527L6.81674 16.7519C7.3384 16.4336 7.43556 15.957 7.51577 15.3186C7.58684 14.7546 6.93281 13.0005 6.73067 12.7227C6.69545 12.7292 6.61068 12.7735 6.54156 12.8101C6.16858 13.007 5.39261 13.4158 3.73308 13.1817C2.66889 13.0318 1.97508 12.7207 1.67121 12.2584C1.45342 11.9265 1.52841 11.6396 1.53167 11.6272L1.75859 11.6898C1.75663 11.697 1.70968 11.8945 1.87336 12.1378C2.05789 12.4123 2.53586 12.7755 3.76568 12.949C5.34957 13.1726 6.07989 12.7872 6.43136 12.602C6.61655 12.5042 6.79196 12.4123 6.91586 12.5779C7.11865 12.8485 7.83202 14.6861 7.74856 15.3479C7.66574 16.0059 7.54772 16.581 6.93868 16.9527H6.93933Z" fill="#350E07"/>
<path d="M4.03539 17.9288L3.88867 17.7449C4.38099 17.3504 5.22282 15.745 5.67471 14.8823C5.76926 14.7017 5.84881 14.5498 5.90815 14.4409C6.07378 14.1383 6.18789 13.8475 6.29809 13.5671C6.42264 13.2495 6.54001 12.9502 6.72129 12.6535C7.30555 11.6956 6.64304 10.6067 5.78034 10.0009L5.91532 9.80853C6.8654 10.4756 7.58529 11.6891 6.92213 12.7761C6.75194 13.0552 6.63782 13.346 6.51719 13.6532C6.40438 13.9407 6.28766 14.2381 6.11486 14.5537C6.05617 14.6613 5.97662 14.8126 5.88337 14.9912C5.39105 15.9309 4.56683 17.503 4.03604 17.9282L4.03539 17.9288Z" fill="#350E07"/>
<path d="M4.52846 18.5079L4.23633 18.1395C4.24285 18.1342 4.93796 17.5669 5.58612 16.221C6.24537 14.8517 6.50946 12.6007 6.51207 12.5786L6.97961 12.632C6.96852 12.7272 6.70378 14.9847 6.01063 16.4251C5.3116 17.878 4.56106 18.4831 4.52911 18.5079H4.52846Z" fill="#350E07"/>
<path d="M7.16225 12.3529C7.18247 12.557 7.04684 12.829 6.85839 12.9607C6.67059 13.0924 6.5017 13.0337 6.48149 12.8296C6.46127 12.6255 6.5969 12.3536 6.78535 12.2219C6.97315 12.0902 7.14204 12.1488 7.16225 12.3529Z" fill="#C0BFBD"/>
<path d="M24.3874 23.6103C24.4735 24.2468 25.6316 24.7065 26.0606 24.5402C28.1981 23.7088 30.3924 21.8217 31.4944 19.7129C31.6757 19.3647 32.4588 22.329 33.1839 22.4301C33.5908 22.4868 33.879 22.6303 34.1542 22.4301C34.4307 22.2305 34.9673 21.8928 35.0743 21.8875C35.1036 21.8849 34.9249 21.9267 35.386 22.0101C35.7237 21.868 35.9761 22.1595 36.1626 22.1477C36.2826 22.1406 36.3882 22.121 36.4788 22.0916C36.8988 21.9586 37.0292 21.6293 36.9999 21.4011C36.9555 21.0516 36.666 20.1863 35.8913 19.9228C35.7746 19.8831 35.2197 20.3213 34.9706 20.5051C34.7215 20.6897 34.8904 20.8684 34.8904 20.8684C34.8904 20.8684 34.4952 20.9675 34.0955 20.912C33.5993 20.8051 33.2902 17.205 33.0868 17.2141C32.5214 16.3769 32.2012 16.3117 31.5615 16.7727C31.497 16.8196 31.4344 16.8666 31.3744 16.9148C31.2107 17.0491 31.0347 17.2063 30.8417 17.3863C30.4608 17.741 30.0161 18.1772 29.4756 18.6585C30.5678 17.0394 30.9075 15.6844 31.0158 15.2579C31.4285 13.629 31.1768 12.7383 30.976 11.6526C30.976 11.6526 30.3904 10.7142 29.1254 11.3083C27.934 11.8658 27.0511 12.2786 26.4017 13.3682C26.4004 13.3708 26.3997 13.3714 26.3997 13.3741C26.2928 13.5514 26.193 13.7477 26.0998 13.9655C25.432 15.52 24.703 18.307 24.5811 18.7276C24.4578 19.1495 24.3333 20.7321 24.3046 21.3346C24.274 21.9384 24.3646 23.431 24.3881 23.609L24.3874 23.6103Z" fill="#AD4929"/>
<path d="M3.2377 19.2187C3.76654 19.6986 4.23407 19.6517 4.17213 20.0429C4.11018 20.4342 3.93673 20.5587 3.37529 20.6689C2.8132 20.7791 2.41478 21.4918 1.45493 20.9239C0.49442 20.3553 3.23835 19.2187 3.23835 19.2187H3.2377Z" fill="#82260A"/>
<path d="M0.78293 17.507C0.707941 17.9021 0.520143 18.3031 0.784886 18.4355C1.04963 18.5679 1.17091 18.6677 1.64106 18.7863C2.11121 18.905 2.05252 18.4825 2.78741 18.5392C3.5223 18.5959 3.461 18.6527 3.55034 19.1756C3.63967 19.6986 3.14149 20.7569 2.36943 21.051C1.59737 21.3451 0.628388 20.5939 0.223449 20.2861C-0.18149 19.9783 -0.059552 18.5601 0.78293 17.507Z" fill="#82260A"/>
<path d="M2.40521 19.0615C2.32044 19.1072 2.23828 19.175 2.14047 19.1887C2.07135 19.1978 2.00223 19.1711 1.9455 19.2232C1.81509 19.3439 1.90116 19.5884 1.91551 19.7351C1.92137 19.7971 1.92594 19.8649 1.88812 19.9144C1.84639 19.9699 1.76227 19.9855 1.72901 20.0468C1.69119 20.1166 1.74662 20.2079 1.82095 20.2353C1.89529 20.2626 1.9781 20.245 2.05505 20.2242C2.16525 20.1935 2.27806 20.1544 2.35892 20.0735C2.43065 20.0025 2.47042 19.906 2.50172 19.8094C2.57149 19.5936 2.60345 19.3576 2.53824 19.1404C2.52454 19.0948 2.49324 19.0413 2.44564 19.0459C2.43065 19.0472 2.4176 19.0543 2.40456 19.0615H2.40521Z" fill="#350E07"/>
<path d="M25.0109 7.76819C27.2312 8.16074 28.1128 8.36679 28.9507 9.86592C29.7886 11.365 28.6423 14.0614 27.2019 13.2058C25.7614 12.3503 23.9976 10.5695 23.9976 10.5695L25.0109 7.76884V7.76819Z" fill="#AD4929"/>
<path d="M31.0158 11.9969C30.8749 10.4046 29.5682 8.95435 26.9664 8.27814C24.3646 7.60194 26.9664 14.4077 26.9664 14.4077L31.0158 11.9969Z" fill="#AD4929"/>
<path d="M24.3874 23.6104C24.4735 24.2468 25.6316 24.7065 26.0606 24.5402C28.1981 23.7088 30.3924 21.8217 31.4944 19.7129C31.6757 19.3647 32.4105 22.8833 33.1357 22.9844C33.5426 23.0411 33.9338 22.7646 34.209 22.5644C34.4855 22.3649 34.9086 22.1634 35.0156 22.1588C35.0449 22.1562 34.9621 22.1386 35.4231 22.2221C35.7609 22.0799 35.9754 22.1595 36.1626 22.1478C36.2826 22.1406 36.3882 22.121 36.4788 22.0917C36.4521 21.3059 36.2121 20.9427 36.2121 20.9427C34.625 22.0754 34.9628 21.4487 34.1092 21.9039C33.2582 22.359 33.2276 19.2878 32.5807 18.5235C31.9339 17.7593 32.0232 18.1414 30.288 20.5084C28.5548 22.8742 26.7016 23.3743 25.5566 23.1826C24.84 23.0639 25.1549 19.441 26.178 16.8777C26.7923 15.3394 26.0059 14.2016 26.3997 13.376C26.2928 13.5534 26.193 13.7497 26.0998 13.9675C25.432 15.522 24.703 18.309 24.5811 18.7296C24.4578 19.1515 24.3333 20.7341 24.3046 21.3366C24.274 21.9404 24.3646 23.433 24.3881 23.611L24.3874 23.6104Z" fill="#A63513"/>
<path d="M32.4065 18.3299C32.4978 17.4789 31.9064 16.9631 31.3052 16.9736C31.328 16.954 31.3515 16.9344 31.3743 16.9155C31.4343 16.8673 31.4969 16.8203 31.5614 16.7734C32.2011 16.3124 32.6595 16.3254 33.2255 17.1627C33.429 17.1535 33.6181 20.7126 34.1143 20.8195C34.514 20.8749 34.7423 20.7641 34.7423 20.7641C34.7423 20.7641 34.7214 20.6897 34.9711 20.5052C35.2202 20.322 35.7752 19.8831 35.8919 19.9229C36.6665 20.1863 36.9561 21.0516 37.0004 21.4011C37.0297 21.6294 36.8993 21.9587 36.4794 22.0917C36.3888 22.121 36.2831 22.1413 36.1631 22.1478C35.976 22.1595 35.7608 22.08 35.4237 22.2221C34.9627 22.1386 35.0455 22.1563 35.0161 22.1589C34.9092 22.1634 34.486 22.3649 34.2095 22.5644C33.9343 22.7646 33.5431 23.0405 33.1362 22.9844C32.4104 22.8833 31.6756 19.3647 31.4949 19.7129C31.6508 19.2219 32.3094 19.2486 32.4072 18.3299H32.4065Z" fill="#D8D8D8"/>
<path d="M31.4941 19.7129C31.65 19.2219 32.3086 19.2486 32.407 18.3298C32.4592 18.3827 32.5166 18.4466 32.5812 18.5228C33.228 19.2871 33.2587 22.3584 34.1096 21.9032C34.9632 21.4481 34.6254 22.0747 36.2126 20.942C36.2126 20.942 36.4525 21.3053 36.4793 22.091C36.3886 22.1203 36.283 22.1406 36.163 22.1471C35.9759 22.1588 35.7607 22.0793 35.4235 22.2214C35.1066 22.164 35.0466 22.1543 35.031 22.1549C35.0238 22.1549 35.0258 22.1575 35.016 22.1582C34.9091 22.1627 34.4859 22.3642 34.2094 22.5638C33.9342 22.7639 33.543 23.0398 33.1361 22.9837C33.1132 22.9804 33.0904 22.9739 33.0683 22.9648C32.411 22.6863 31.7602 19.7879 31.5352 19.6907C31.5196 19.6842 31.5065 19.6907 31.4948 19.7122L31.4941 19.7129Z" fill="#C4C4C4"/>
<path d="M35.4711 20.9805C35.2064 20.5958 35.1731 20.571 34.8901 20.558C35.1634 20.3532 35.7874 19.8883 35.8911 19.9235C36.667 20.187 36.9559 21.0529 37.0003 21.4024C37.0355 21.6802 36.8353 22.108 36.1636 22.1491C36.105 22.153 35.5683 22.2071 35.4229 22.2227C35.6576 22.0519 35.9028 21.6078 35.4711 20.9805Z" fill="#331108"/>
<path d="M28.0396 20.7536C29.4891 19.9881 29.5224 18.7002 30.8415 17.387C30.4607 17.7417 30.016 18.1779 29.4754 18.6592C29.4754 18.6592 28.275 19.2578 28.0396 20.7536Z" fill="#942F11"/>
<path d="M3.87256 15.5364C4.07144 15.1145 4.2462 14.7252 4.35249 14.5641C4.27032 14.6417 4.19599 14.7265 4.13274 14.8217C3.99058 15.0349 3.91299 15.2814 3.87256 15.5364Z" fill="#9A4025"/>
<path d="M21.5761 10.2063C22.5901 10.5584 23.0955 11.2046 23.1809 12.3366C23.2663 13.4686 22.4584 14.8752 21.8924 15.7959C21.3264 16.7166 20.8347 17.6576 19.1843 17.1137C17.5339 16.5699 17.3429 15.4529 17.0051 15.1738C16.6673 14.8947 14.2579 13.8129 14.2279 13.5671C14.1979 13.3213 16.0791 12.9587 16.829 12.9489C17.5789 12.9391 17.6428 12.5766 18.1547 12.9489C18.6666 13.3213 19.6629 13.9257 19.6629 13.9257L21.5768 10.2063H21.5761Z" fill="#350E07"/>
<path d="M16.7644 9.72115C15.4557 9.86787 15.1623 10.1 13.4741 11.1766C13.1174 11.4042 12.7672 11.6422 12.4307 11.8984C12.3375 11.9695 12.104 12.0934 12.0643 12.2036C12.0075 12.3614 12.1934 12.559 12.2886 12.6588C12.3734 12.7474 12.4575 12.8361 12.5422 12.9241C12.6048 12.99 12.6694 13.0565 12.7503 13.0976C12.8089 13.1276 12.8735 13.1419 12.9374 13.1563C13.2406 13.2234 13.5464 13.2808 13.8536 13.3278C14.1118 13.3676 14.2409 13.3291 14.4835 13.2554C14.9647 13.1087 15.4642 13.022 15.9643 12.9737C17.8234 12.7944 19.5847 12.336 19.3238 11.3989C19.063 10.4619 16.7638 9.71985 16.7638 9.71985L16.7644 9.72115Z" fill="#F5DDC1"/>
<path d="M11.953 13.1217C12.0378 13.2098 12.1225 13.2991 12.2067 13.3878C12.2693 13.4537 12.3338 13.5208 12.4134 13.5619C12.4721 13.5912 12.5366 13.6069 12.6018 13.6206C12.905 13.6877 13.2109 13.7451 13.518 13.7921C13.6236 13.8084 13.7071 13.811 13.786 13.8038C13.9001 13.7947 14.0044 13.7627 14.1479 13.719C14.6291 13.5723 15.1286 13.4863 15.6281 13.438C16.4217 13.3617 17.1976 13.2332 17.806 13.0402C18.2162 12.9085 18.5507 12.7488 18.762 12.5525C18.762 12.5512 18.7633 12.5525 18.7633 12.5525C18.9726 12.3582 19.0619 12.1306 18.9876 11.8632C18.7268 10.9262 16.4275 10.1841 16.4275 10.1841C16.1217 10.2181 15.8713 10.2572 15.6457 10.3113C14.9049 10.4854 14.4309 10.8147 13.1378 11.6402C12.7805 11.8672 12.431 12.1058 12.0939 12.3608C12.0013 12.4325 11.7678 12.5557 11.728 12.6666C11.6707 12.8244 11.8571 13.022 11.9524 13.1217H11.953Z" fill="#F5DDC1"/>
<path d="M13.7857 13.8038C13.8998 13.7947 14.0041 13.7627 14.1476 13.7191C14.6288 13.5723 15.1283 13.4863 15.6278 13.438C16.4214 13.3617 17.1973 13.2333 17.8057 13.0402C18.1233 13.1746 18.5784 13.3024 18.8321 13.2743C18.9156 13.2652 19.0427 13.1544 19.1836 12.9861C19.1823 12.9711 19.181 12.9555 19.179 12.9392C19.0499 12.7931 18.9097 12.6607 18.763 12.5525C18.763 12.5525 18.7617 12.5512 18.7617 12.5525C18.3346 12.2336 17.318 12.1026 16.782 12.3693C16.7585 12.3797 16.782 12.3693 16.7565 12.379C15.9564 12.6894 13.3462 12.8883 13.1616 13.1446C13.1408 13.1739 13.7648 13.7458 13.785 13.8038H13.7857Z" fill="#E0C5A2"/>
<path d="M19.9198 18.4498L22.1793 20.3311C22.1793 20.3311 21.9191 20.3865 21.7724 20.3767C21.6256 20.3669 19.9009 18.8952 19.8618 18.7674C19.8227 18.6402 19.9205 18.4498 19.9205 18.4498H19.9198Z" fill="#121621"/>
<path d="M12.2651 11.8404C11.9423 11.8952 11.6052 11.8626 11.2993 11.7465C11.3763 11.7759 11.4741 11.9024 11.5576 11.948C11.6528 12.0002 11.7538 12.0471 11.8517 12.0947C12.0844 12.2062 12.327 12.2956 12.5761 12.3627C13.0841 12.4997 13.6181 12.5427 14.1417 12.4847C14.0094 12.5525 13.8764 12.621 13.744 12.6894C13.774 12.7748 13.8848 12.7918 13.9755 12.7951C14.3035 12.8061 14.6315 12.8172 14.9595 12.8283C14.9301 12.8537 14.8995 12.8785 14.8688 12.9026C14.175 13.4426 13.1923 13.5502 12.3505 13.2835C12.5644 13.4797 12.8233 13.6278 13.101 13.7119C12.8448 13.7601 12.5833 13.6838 12.3283 13.6297C11.9769 13.5554 11.5908 13.5462 11.2517 13.425C10.9948 13.333 10.7307 13.1857 10.4784 13.0709C9.87 12.7938 9.31248 12.4045 8.84429 11.9265C9.10838 12.2858 9.39594 12.6275 9.70568 12.9483C9.03143 12.6249 8.44326 12.1241 8.0168 11.5105C7.92616 11.3794 7.84139 11.2431 7.72859 11.1303C7.19258 10.5937 6.26011 10.4124 5.5337 10.3824C5.37264 10.3759 5.22005 10.4039 5.06355 10.4378C4.92727 10.4678 4.79555 10.4319 4.6684 10.5141C4.56863 10.5787 4.49559 10.6765 4.43039 10.7762C4.31693 10.951 4.22107 11.1375 4.14608 11.3318C4.12782 11.1394 4.10174 10.9477 4.06653 10.7573C4.06979 10.7756 3.97002 10.8662 3.95502 10.8832C3.91329 10.9314 3.87221 10.9797 3.83178 11.0292C3.75223 11.1277 3.67724 11.2294 3.61268 11.3383C3.54878 11.4459 3.50183 11.5568 3.46206 11.6748C3.42032 11.7967 3.41576 11.935 3.39815 12.0634C3.28143 11.8515 3.2097 11.6148 3.18949 11.3735C3.08059 11.6044 2.90127 11.7948 2.77346 12.0158C2.62153 12.2793 2.54654 12.5786 2.47286 12.874C2.47938 12.8472 2.45199 12.7866 2.44612 12.7592C2.43634 12.7129 2.42721 12.6666 2.41873 12.6203C2.40178 12.5271 2.38809 12.4338 2.377 12.3399C2.35744 12.1717 2.33005 11.991 2.35744 11.8228C2.20159 12.0145 2.06075 12.218 1.93555 12.4305C1.93816 12.0452 2.06075 11.6709 2.2029 11.3129C2.26876 11.1466 2.33983 10.9803 2.44025 10.8323C2.52568 10.7058 2.63196 10.595 2.7526 10.5024C2.68152 10.5056 2.61436 10.4965 2.54589 10.5219C2.41939 10.5682 2.2981 10.6295 2.1866 10.7045C2.17225 10.7143 2.1566 10.7267 2.15138 10.7423C2.14943 10.7482 2.14878 10.7541 2.14943 10.7599C2.14421 10.7332 2.19572 10.6595 2.20811 10.6347C2.23028 10.5904 2.25376 10.546 2.27789 10.5024C2.32614 10.4169 2.38222 10.3406 2.43569 10.2591C2.56936 10.0557 2.68935 9.8229 2.8478 9.63836C3.25209 9.16626 3.74701 8.91782 4.3554 8.80762C4.97944 8.69481 5.62564 8.69807 6.25946 8.74567C5.92951 8.84152 5.60021 8.93803 5.27026 9.03389C6.31228 9.04693 7.37842 9.06453 8.35784 9.42122C8.03115 9.39644 7.70511 9.37166 7.37842 9.34688C8.10288 9.64162 8.8006 9.99635 9.56287 10.1691C9.92934 10.252 10.2847 10.3837 10.6166 10.5597C10.4021 10.5865 10.1823 10.5689 9.97499 10.5089C10.0976 10.5441 10.2378 10.6732 10.3532 10.7352C10.4836 10.8049 10.6258 10.8617 10.7451 10.9477C11.2296 11.2992 11.6678 11.7074 12.2638 11.8404H12.2651Z" fill="#491C0E"/>
<path d="M4.43028 10.7775C4.31682 10.9523 4.22096 11.1388 4.14598 11.3331C4.12772 11.1407 4.10163 10.949 4.06642 10.7586C4.06968 10.7769 3.96991 10.8675 3.95492 10.8845C3.91318 10.9327 3.8721 10.981 3.83167 11.0305C3.75212 11.129 3.67713 11.2307 3.61258 11.3396C3.54867 11.4472 3.50172 11.5581 3.46195 11.6761C3.45347 11.7022 3.44695 11.7289 3.44043 11.7557C3.4639 11.4407 3.50629 11.1277 3.60345 10.8278C3.75147 10.3706 4.04295 9.93897 4.47593 9.73031C4.3905 9.91484 4.30508 10.0994 4.21966 10.2839C4.67872 9.93767 5.28319 9.83138 5.85637 9.87507C6.42954 9.91876 6.9825 10.0994 7.52829 10.278C7.31115 10.04 7.03923 9.85159 6.73993 9.73161C7.22312 9.59337 7.74478 9.59402 8.22797 9.73357C8.23253 9.72705 8.23775 9.72183 8.24231 9.71596C8.67268 9.89789 9.10631 10.0674 9.56342 10.1705C9.92988 10.2533 10.2853 10.385 10.6172 10.5611C10.4026 10.5878 10.1835 10.5702 9.97553 10.5102C10.0981 10.5454 10.2383 10.6745 10.3537 10.7365C10.4841 10.8062 10.6263 10.863 10.7456 10.949C11.2301 11.3005 11.6683 11.7087 12.2643 11.8417C11.9415 11.8965 11.6044 11.8639 11.2986 11.7478C11.3755 11.7772 11.4733 11.9037 11.5568 11.9493C11.652 12.0015 11.7531 12.0484 11.8509 12.096C12.0837 12.2075 12.3263 12.2969 12.5754 12.364C13.084 12.501 13.6174 12.544 14.141 12.486C14.0086 12.5538 13.8756 12.6223 13.7432 12.6907C13.7732 12.7762 13.8841 12.7931 13.9747 12.7964C14.3027 12.8075 14.6307 12.8185 14.9587 12.8296C14.9293 12.8551 14.8987 12.8798 14.8681 12.904C14.1742 13.4439 13.1916 13.5515 12.3497 13.2848C12.5636 13.481 12.8225 13.6291 13.1003 13.7132C12.844 13.7614 12.5825 13.6851 12.3276 13.631C11.9761 13.5567 11.5901 13.5476 11.251 13.4263C10.9941 13.335 10.73 13.187 10.4776 13.0722C9.86924 12.7951 9.31172 12.4058 8.84353 11.9278C9.10762 12.2871 9.39518 12.6288 9.70492 12.9496C9.03067 12.6262 8.4425 12.1254 8.01604 11.5118C7.9254 11.3807 7.84063 11.2438 7.72783 11.1316C7.19182 10.595 6.25935 10.4137 5.53294 10.3837C5.37188 10.3772 5.21929 10.4052 5.06279 10.4398C4.92651 10.4698 4.79479 10.4339 4.66764 10.5161C4.56787 10.5806 4.49484 10.6784 4.42963 10.7782L4.43028 10.7775Z" fill="#331108"/>
<path d="M9.26375 20.6734C7.76919 20.6734 6.452 19.7566 4.39014 18.354L4.52251 18.1597C7.02452 19.8616 8.3065 20.5906 10.4773 20.3657C13.3327 20.0703 14.2195 19.4012 15.2465 18.414C16.2696 17.4307 16.7737 15.7653 16.67 14.7232L16.9041 14.6998C17.013 15.7979 16.4842 17.55 15.4096 18.5829C14.3473 19.6034 13.4325 20.2952 10.502 20.5984C10.0606 20.6441 9.65434 20.6721 9.2644 20.6721L9.26375 20.6734Z" fill="#350E07"/>
<path d="M22.8073 18.6024C23.1086 18.4042 23.196 18.3885 23.6094 18.562C24.0228 18.7354 24.0111 19.0862 23.9732 19.293C23.9361 19.499 23.5911 20.363 23.582 20.4034C23.5729 20.4439 23.4411 21.2681 23.1894 21.6561C22.9377 22.0441 22.6867 22.7535 21.9068 22.6231C21.1269 22.4933 20.8544 22.061 20.9522 21.8184C21.05 21.5765 21.7086 20.8332 21.8286 20.7523C21.9485 20.6714 23.0114 19.1299 22.808 18.6018L22.8073 18.6024Z" fill="#121621"/>
<path d="M22.0313 19.1495C21.8905 19.4084 21.7894 20.0409 21.8064 20.3069C21.8227 20.5723 21.0949 21.6776 21.0454 21.7891C20.9958 21.9012 21.2997 22.2221 21.586 22.3218C21.8716 22.421 22.4552 22.554 22.701 22.1986C22.9468 21.8439 23.3133 20.9714 23.3381 20.4921C23.3622 20.0128 23.7541 19.1645 23.7332 19.0106C23.7117 18.8567 23.5174 18.6109 23.2442 18.5437C22.971 18.4765 22.7225 18.4739 22.7225 18.4739L22.0326 19.1495H22.0313Z" fill="#2D1610"/>
<path d="M17.9565 16.1989C17.9565 17.042 18.6106 17.4326 18.6106 17.4326H18.6119L18.6132 17.4339C19.1648 17.6889 20.439 17.4985 20.5251 17.0707C20.5401 16.9931 20.5694 16.8907 20.6098 16.7688C20.6711 16.5817 20.7566 16.3515 20.857 16.0985C21.05 15.6127 21.2932 15.0506 21.5038 14.5759C21.8957 13.6949 22.5491 12.7677 22.4637 11.5809V11.5763C22.4004 10.7188 21.9779 10.0218 21.6597 9.61814C21.5397 9.46425 21.4354 9.35274 21.3702 9.2921C21.2926 9.21907 21.0304 9.38013 20.7155 9.62987C20.3216 9.93896 19.8456 10.385 19.5398 10.6778C19.3526 10.8577 19.2307 10.9797 19.2307 10.9797C19.1603 11.3018 18.891 12.1188 18.7377 12.9307C18.7038 13.1061 18.6751 13.2808 18.6556 13.4504C18.5454 14.4037 17.9592 15.7222 17.9585 16.1995L17.9565 16.1989Z" fill="#F5DDC1"/>
<path d="M18.6121 17.4326L18.6134 17.4339C18.6251 17.4482 18.6382 17.46 18.6532 17.4717C19.1846 17.8688 21.4962 19.6686 21.5614 19.6849C21.6273 19.7012 22.2494 20.3056 22.9758 19.5049C23.3064 19.1391 23.1395 18.3546 23.1395 18.3546C23.1395 18.3546 22.8786 18.1597 22.6654 17.9934C22.477 17.8467 21.9716 17.2383 21.6214 16.8249C21.5777 16.774 21.538 16.7264 21.5001 16.6827C21.3404 16.4956 21.1037 16.2732 20.8572 16.0985C20.6994 15.9869 20.5377 15.895 20.3871 15.8422C20.2697 15.8024 20.1588 15.7855 20.0636 15.8044C20.0636 15.8044 18.2378 17.0003 18.6128 17.4333L18.6121 17.4326Z" fill="#F5DDC1"/>
<path d="M18.5716 13.2084L18.7339 12.9359C18.7339 12.9359 18.7352 12.9326 18.7365 12.93C18.8669 12.4892 19.4453 12.1612 20.0492 12.0986C20.5662 12.0458 21.2522 12.1469 21.8274 12.6913C21.9265 12.7839 22.0217 12.8902 22.1117 13.0102C22.3595 12.8459 22.4586 12.2844 22.4631 11.5802V11.5756C22.4644 11.4276 22.4605 11.2724 22.454 11.1133C22.4129 10.2011 21.77 9.56464 21.77 9.56464C21.77 9.56464 21.7302 9.58355 21.6598 9.61746C21.5189 9.68331 21.2516 9.81047 20.9334 9.96697C20.5056 10.1763 19.982 10.4384 19.5399 10.6771C19.0247 10.9555 18.6178 11.204 18.597 11.3037C18.537 11.5848 18.5735 13.2084 18.5735 13.2084H18.5716Z" fill="#F5DDC1"/>
<path d="M20.1653 16.9181C20.196 16.656 20.4535 16.7225 20.61 16.7681C20.7215 16.8001 20.8043 16.8986 20.8396 17.1926C20.8396 17.1926 21.1382 17.0622 21.6214 16.8249C21.5777 16.774 21.5379 16.7264 21.5001 16.6827C21.3404 16.4956 21.1036 16.2732 20.8572 16.0985C21.0502 15.6127 21.2934 15.0506 21.504 14.5759C21.8959 13.6949 22.5493 12.7677 22.4639 11.5809V11.5763C22.4652 11.4283 22.4613 11.2731 22.4547 11.114C22.4137 10.2017 21.7707 9.56532 21.7707 9.56532C21.7707 9.56532 21.7309 9.58423 21.6605 9.61814C21.5405 9.46425 21.4362 9.35274 21.371 9.2921C21.2934 9.21907 21.0313 9.38013 20.7163 9.62987C20.7848 9.75312 20.8585 9.86853 20.9341 9.96765C21.1154 10.2089 21.296 10.3595 21.3925 10.3335C21.8229 10.2161 22.0876 11.2555 22.0661 11.7648C22.0602 11.9187 21.9683 12.2636 21.8288 12.6927C21.5027 13.691 20.9152 15.1419 20.5142 15.6805C20.4705 15.7392 20.4281 15.7933 20.3883 15.8428C19.898 16.446 20.1477 17.0857 20.1673 16.9194L20.1653 16.9181Z" fill="#E0C5A2"/>
<path d="M21.9289 20.1511C22.4584 20.5287 23.2741 20.0572 23.5988 19.4384C23.6706 19.3008 23.7188 19.1548 23.7332 19.0107C23.8134 18.2145 23.1756 18.6344 22.3879 17.5846C21.7046 16.6756 21.0427 16.2172 20.8771 16.1102C20.9168 16.1513 20.9697 16.2622 20.9332 16.5556C20.9182 16.6828 20.8001 16.8393 20.6195 16.9892C20.1572 17.3759 19.2782 17.7254 18.6111 17.4326C18.4768 17.7209 21.2827 19.6914 21.9295 20.1511H21.9289Z" fill="#2D1610"/>
<path d="M20.6187 16.9892C20.8527 17.4594 21.3346 17.938 21.8406 18.3064C22.612 18.8698 23.2367 18.7707 23.5986 19.4391C23.6704 19.3015 23.7186 19.1554 23.733 19.0113C23.8132 18.2151 23.1754 18.6351 22.3877 17.5852C21.7044 16.6762 21.0425 16.2178 20.8769 16.1109C20.9167 16.152 20.9695 16.2628 20.933 16.5563C20.918 16.6834 20.7999 16.8399 20.6193 16.9899L20.6187 16.9892Z" fill="#190D0B"/>
<path d="M21.8048 20.2202C22.2424 20.2007 22.886 20.1778 23.1807 20.541C23.4755 20.9036 23.6137 21.4833 23.6039 21.6209C23.5941 21.7591 23.0516 21.8882 23.0516 21.8882L23.2414 21.4846C23.2414 21.4846 22.9473 20.6421 22.8984 20.603C22.8495 20.5639 21.7422 20.541 21.7422 20.541C21.7422 20.541 21.4377 20.7497 21.4084 20.8677C21.379 20.9851 21.4084 21.289 21.4084 21.289L21.2284 21.4787C21.2284 21.4787 21.2056 20.9558 21.2284 20.8671C21.2512 20.779 21.8042 20.2202 21.8042 20.2202H21.8048Z" fill="#A1A1A1"/>
<path d="M21.8117 11.0071C21.4472 12.1443 20.5708 12.7064 20.2363 12.9137C19.7648 13.2046 18.9184 13.7301 18.0584 13.4889C18.0584 13.4889 17.9345 13.4556 17.6534 13.1909C18.2357 13.1074 18.7606 12.7827 19.0952 12.5753C19.4297 12.3679 20.3093 11.8059 20.6706 10.6686C20.9281 9.87245 20.8075 9.17994 20.7273 8.85521C20.5499 8.24291 20.1554 7.17937 19.2621 6.12888C18.6198 5.37313 17.9338 4.87429 17.3887 4.55347C17.6867 4.55673 17.9208 4.58998 18.031 4.62063C18.5963 4.90168 19.5399 5.45333 20.3993 6.46731C21.2959 7.5178 21.6904 8.58134 21.8678 9.19364C21.9447 9.51837 22.0654 10.2109 21.811 11.0071H21.8117Z" fill="#EDB70A"/>
<path d="M20.6711 10.6693C20.3098 11.8065 19.4302 12.3686 19.0956 12.5759C18.7611 12.7833 18.2356 13.108 17.6539 13.1915C17.3057 12.8668 16.7169 12.188 15.8307 10.7893L14.3251 8.11314C14.3251 8.11314 13.8067 7.14612 14.5461 5.82175C15.1519 4.738 16.5402 4.53716 17.3898 4.55412C17.9349 4.87559 18.6209 5.37377 19.2632 6.12953C20.1566 7.18002 20.5511 8.24356 20.7284 8.85586C20.8086 9.18059 20.9293 9.8731 20.6717 10.6693H20.6711Z" fill="#FFCB00"/>
<path d="M20.1926 7.59413C20.1926 7.05356 19.772 6.76208 19.5053 6.33497C19.2562 5.9359 19.2216 5.79114 18.7625 5.68029C17.7062 5.42533 17.8725 5.22449 17.3815 5.22449C17.0867 5.22449 16.6805 5.42207 16.4151 5.5101C15.3046 5.87982 15.81 5.73637 15.495 6.0598C15.2537 6.30824 14.7425 6.48299 14.7862 6.83185C14.8071 7.00139 14.6095 7.43241 14.5749 7.65673C14.5527 7.79758 14.6284 7.96451 14.6284 8.11123C14.6284 8.39749 14.4908 8.69809 14.571 8.95827C14.6656 9.26279 14.8123 9.58622 14.9981 9.83662C15.2922 10.2318 15.6704 10.2983 16.1301 10.4926C16.4627 10.6335 16.91 10.9791 17.2941 10.9791C17.5223 10.9791 17.8601 10.8662 18.0727 10.8141C18.3191 10.7541 18.5278 10.8036 18.7436 10.6824C18.921 10.5832 19.2809 10.2559 19.4316 10.1216C19.62 9.95334 19.6859 9.55231 19.8228 9.33843C19.9441 9.14998 20.1195 9.07825 20.1926 8.86242C20.2878 8.58202 20.1926 7.90517 20.1926 7.59283V7.59413Z" fill="#231F20"/>
<path d="M19.3492 7.97296C19.3492 8.99345 18.4728 9.82289 17.389 9.82289C16.9541 9.82289 16.5596 9.69248 16.2349 9.4649C16.4455 9.54185 16.6763 9.58228 16.9176 9.58228C18.0013 9.58228 18.8816 8.7561 18.8816 7.7356C18.8816 7.11678 18.5602 6.57165 18.0652 6.24365C18.8145 6.49796 19.3498 7.17677 19.3498 7.97296H19.3492Z" fill="#EDB70A"/>
<path d="M18.881 7.7356C18.881 8.7561 18.0013 9.58228 16.9169 9.58228C16.6763 9.58228 16.4455 9.54185 16.2342 9.46491C15.7425 9.13365 15.4243 8.58852 15.4243 7.97296C15.4243 6.95246 16.3007 6.12628 17.3884 6.12628C17.6257 6.12628 17.8533 6.16671 18.0639 6.24366C18.5588 6.57165 18.8803 7.11678 18.8803 7.7356H18.881Z" fill="#FFCB00"/>
<path d="M20.7312 21.6861L20.0622 21.7566C20.1724 21.2414 20.9686 17.5181 20.8316 17.2103C20.681 16.8758 20.1522 12.1684 20.1522 12.1684C20.1522 12.1684 19.6638 11.9441 19.0312 11.9643C19.0815 11.9409 19.1349 11.9239 19.1884 11.9109C20.055 11.68 20.8375 12.038 20.8375 12.038C20.8375 12.038 21.3663 16.7454 21.5131 17.0799C21.6637 17.4111 20.7299 21.6868 20.7299 21.6868L20.7312 21.6861Z" fill="#373A39"/>
<path d="M20.0621 21.7559L19.5065 21.8126C19.5065 21.8126 19.4628 17.059 19.1655 16.2087C18.8714 15.359 17.6533 13.1909 17.6533 13.1909C17.6533 13.1909 18.2389 12.2708 19.0285 11.963H19.0318C19.6643 11.9428 20.1527 12.1671 20.1527 12.1671C20.1527 12.1671 20.6816 16.8745 20.8322 17.209C20.9691 17.5167 20.1729 21.2401 20.0627 21.7552L20.0621 21.7559Z" fill="#494D4B"/>
<path d="M19.5052 21.8133C19.5052 21.8133 19.47 22.5189 19.3852 22.7869C19.3005 23.0549 19.2444 23.4357 19.202 23.6893C19.1596 23.943 18.8355 24.4229 18.9196 24.5357C19.0044 24.6485 19.5437 24.479 19.5913 24.3245C19.6389 24.1699 19.8228 23.4357 19.8228 23.4357V24.4796C19.8228 24.4796 19.7243 25.1004 20.0764 25.0861C20.4292 25.0717 20.9085 24.4092 21.2469 24.1125C21.5853 23.8158 21.5006 23.0966 21.2469 22.8286C20.9932 22.5606 20.7318 21.6862 20.7318 21.6862L19.5045 21.8133H19.5052Z" fill="#FF9670"/>
<path d="M29.995 23.032C29.995 23.032 28.4666 22.3395 27.092 22.8794C25.7174 23.4193 26.3891 24.1216 26.6616 24.2514C27.0535 24.4378 27.7095 24.3453 27.6176 23.8908C27.6176 23.8908 27.8249 23.8229 27.7291 24.4405C27.6743 24.7952 26.5084 24.9908 25.9887 24.9152C25.6574 24.8669 25.6711 24.1575 25.7689 23.9677C25.9985 23.5204 25.707 23.1076 25.2662 22.8866C24.5991 22.5527 23.857 22.5892 23.3256 23.0652C23.0185 23.3404 22.8848 23.673 22.7837 23.9755C22.7563 23.7949 22.7205 23.6351 22.7009 23.5817C22.5927 23.2772 22.3449 23.1109 22.0404 23.0065C21.2233 22.7268 20.0652 23.15 19.869 23.2132C18.8113 23.5523 18.4161 24.7169 18.3007 25.2503C18.2101 25.669 18.2961 26.3113 18.6509 26.7077C18.3333 26.709 18.0301 26.7299 17.7569 26.9288C17.4158 27.1766 17.2952 27.5763 17.2737 27.9904C17.2489 28.4638 17.4015 29.0943 17.8664 29.2684C17.4954 29.3095 17.2991 29.8918 17.2144 30.2146C17.0729 30.7525 17.185 31.4998 17.768 31.76C18.1051 31.9106 18.5446 31.6857 18.8817 31.4366C19.0878 31.6165 19.1634 31.9928 19.3642 32.1904C19.5794 32.4023 19.85 32.4773 20.1461 32.4864C20.7916 32.5053 21.3237 32.4049 21.8773 32.058C21.998 31.9824 22.3071 31.9478 22.4649 31.8519C23.1691 32.3743 24.1009 32.4473 24.8586 32.0143C24.9799 31.9452 25.094 31.8682 25.1964 31.7861C25.4481 31.5852 25.6724 31.3016 25.8185 31.0056C25.9626 30.7147 25.9091 30.3822 26.0324 30.0972C26.138 29.8533 26.3532 29.8312 26.5788 29.8181C26.9211 29.7986 27.3144 29.586 27.5856 29.3721C27.8197 29.1882 27.9077 28.8583 27.8373 28.5707C27.7754 28.319 27.7036 28.079 27.9045 27.8717C28.1986 27.5678 28.5859 27.6617 28.9563 27.6363C29.4753 27.6011 30.0035 27.3076 30.4202 27.0012C30.7527 26.7566 31.1779 26.1691 31.2985 25.7342C31.4779 25.086 31.8417 23.9123 29.9937 23.0333L29.995 23.032Z" fill="#AC9648"/>
<path d="M22.7023 23.7538C22.5941 23.4623 22.3508 23.1976 22.0515 23.0828C21.1823 22.7503 20.1194 23.0568 19.7086 23.2726C18.7292 23.7871 18.4175 24.8395 18.3021 25.3501C18.1424 26.0556 18.5297 27.4244 19.9695 27.0044C20.3783 26.8851 20.6972 26.3549 20.4996 25.8978C20.3222 25.489 19.9173 25.474 19.7582 25.5738" stroke="#F7BB7F" stroke-width="0.334515" stroke-linecap="round" stroke-linejoin="round"/>
<path d="M18.5614 26.7442C18.2262 26.7442 18.0456 26.7559 17.7587 26.9561C17.4177 27.1935 17.297 27.5756 17.2755 27.9721C17.2507 28.4253 17.4033 29.0284 17.8682 29.1947C18.251 29.3316 18.9305 29.4647 19.265 29.1843C19.546 28.9482 19.6536 28.2661 19.1822 28.0855" stroke="#F7BB7F" stroke-width="0.334515" stroke-linecap="round" stroke-linejoin="round"/>
<path d="M18.093 29.2639C17.7219 29.303 17.3007 29.7914 17.2153 30.1005C17.0738 30.6156 17.122 31.4457 17.705 31.6948C18.4692 32.0208 19.7055 31.0492 19.2778 30.2178C19.1702 30.0085 18.9178 29.8422 18.6792 29.8481C18.5155 29.852 18.2579 29.9987 18.2214 30.1702" stroke="#F7BB7F" stroke-width="0.334515" stroke-linecap="round" stroke-linejoin="round"/>
<path d="M18.8833 31.5142C18.9479 31.7587 19.0776 31.9263 19.2785 32.1154C19.4936 32.3182 19.8516 32.4773 20.1477 32.4858C20.7932 32.504 21.3762 32.3599 21.9298 32.028C22.0504 31.9556 22.4456 31.7633 22.4665 31.6674" stroke="#F7BB7F" stroke-width="0.334515" stroke-linecap="round" stroke-linejoin="round"/>
<path d="M23.4321 30.0965C23.5489 29.7601 23.3963 29.5573 23.2561 29.4816C23.0168 29.3525 22.7911 29.3369 22.5355 29.4418C22.1169 29.614 21.7596 30.1057 21.9167 30.5595C22.1638 31.2729 22.5838 32.2086 23.4491 32.2562C24.1109 32.2927 24.6854 31.996 25.1986 31.6041C25.4503 31.4118 25.6746 31.1405 25.8207 30.8569C25.9648 30.5784 25.9113 30.2609 26.0346 29.9876C26.1402 29.7542 26.3554 29.7333 26.581 29.7203C26.9233 29.7014 27.3165 29.4979 27.5878 29.2938C27.8219 29.1178 27.9099 28.8022 27.8395 28.527C27.7776 28.2864 27.7058 28.0568 27.9067 27.858C28.2008 27.5678 28.5881 27.6571 28.9585 27.633C29.4775 27.5997 30.0057 27.318 30.4224 27.0253C30.7549 26.7912 31.1801 26.2291 31.3007 25.813C31.4801 25.1929 31.8185 23.954 29.9705 23.1128C29.9705 23.1128 28.4675 22.3629 27.0929 22.8794C25.7183 23.3958 26.3691 24.327 26.6625 24.3954C27.2761 24.5389 27.7104 24.3257 27.6185 23.8907" stroke="#F7BB7F" stroke-width="0.334515" stroke-linecap="round" stroke-linejoin="round"/>
<path d="M21.2195 24.8297C21.4177 24.3531 21.9492 24.3035 22.7023 24.4385C22.9768 24.488 23.1835 24.4809 23.4548 24.3909C23.6296 24.3328 23.8721 24.1248 23.8936 23.9129C24.0449 24.0987 24.1956 24.3335 24.1708 24.7319C24.1486 25.0958 23.9047 25.4648 23.4105 25.6624C23.0655 25.8007 22.5002 25.607 22.2511 25.8972C21.9635 26.2323 22.2511 26.5532 21.9433 26.9131C21.6714 27.2307 20.9567 27.2672 20.5909 26.994C20.6026 26.9842 20.3933 26.8616 20.4063 26.8512" stroke="#F7BB7F" stroke-width="0.334515" stroke-linecap="round" stroke-linejoin="round"/>
<path d="M22.7329 23.9135C23.3002 22.5846 24.6011 22.6263 25.2682 22.9465C25.7096 23.1578 25.915 23.6612 25.7703 24.1242C25.692 24.3739 25.7103 24.8154 25.9672 25.0227" stroke="#F7BB7F" stroke-width="0.334515" stroke-linecap="round" stroke-linejoin="round"/>
<path d="M29.3851 25.7289C29.6739 25.5738 29.9354 24.833 29.3218 24.5937C28.7082 24.3537 28.4526 24.9901 27.6271 25.0227C26.8022 25.0553 26.1716 24.7632 25.5078 25.5464" stroke="#F7BB7F" stroke-width="0.334515" stroke-linecap="round" stroke-linejoin="round"/>
<path d="M5.20969 11.7165C5.20969 11.7165 4.48458 10.1965 4.72519 9.86137C4.88104 9.64489 5.72287 10.3746 5.86959 10.5767C6.0163 10.7788 6.87183 11.457 6.91812 11.8456C6.95008 12.1136 6.38864 12.3523 6.16824 12.3797C5.92371 12.4097 5.89502 12.0706 5.73722 11.9389C5.53507 11.77 5.23447 11.7876 5.20969 11.7165Z" fill="#82260A"/>
<path d="M18.344 6.88136C18.344 7.11806 17.9182 6.90092 17.3907 6.90092C16.8631 6.90092 16.4341 7.31303 16.4341 7.07633C16.4341 6.83962 16.8618 6.45294 17.3887 6.45294C17.9156 6.45294 18.3434 6.64465 18.3434 6.88136H18.344Z" fill="#EDB70A"/>
<path d="M17.3906 8.21159C17.4893 8.21159 17.5693 8.13159 17.5693 8.03292C17.5693 7.93424 17.4893 7.85425 17.3906 7.85425C17.2919 7.85425 17.2119 7.93424 17.2119 8.03292C17.2119 8.13159 17.2919 8.21159 17.3906 8.21159Z" fill="#231F20"/>
</svg>
