<svg width="382" height="830" viewBox="0 0 382 830" fill="none" xmlns="http://www.w3.org/2000/svg">
<rect width="381.548" height="829" transform="translate(0 0.45752)" fill="#2B654D"/>
<path d="M128.521 413.86H136.937C136.937 413.86 136.937 419.47 143.794 419.47C148.469 419.47 149.716 417.288 149.716 415.418C149.716 408.561 129.144 413.86 129.144 401.392C129.144 395.781 134.443 391.106 143.171 391.106C155.638 391.106 157.509 398.275 157.509 401.392H149.093C149.093 401.392 149.093 397.028 143.171 397.028C139.742 397.028 137.872 398.774 137.872 400.768C137.872 406.379 158.444 402.327 158.444 414.483C158.444 420.717 153.145 425.393 143.794 425.393C131.014 425.393 128.521 417.6 128.521 413.86ZM160.299 408.249C160.299 398.774 165.848 391.106 176.508 391.106C187.168 391.106 192.093 398.774 192.093 408.249C192.093 408.997 192.03 410.119 192.03 410.119H169.089C169.463 415.107 171.583 418.847 176.819 418.847C182.118 418.847 183.053 413.86 183.053 413.86H191.781C191.781 413.86 189.911 425.393 176.508 425.393C165.598 425.393 160.299 417.725 160.299 408.249ZM176.508 397.651C172.206 397.651 170.087 400.519 169.339 404.509H183.116C182.555 400.519 180.809 397.651 176.508 397.651ZM219.51 417.6V424.458H194.886V392.041H203.613V417.6H219.51ZM228.505 408.249C228.505 414.109 230.749 418.847 236.298 418.847C241.846 418.847 244.09 414.109 244.09 408.249C244.09 402.389 241.846 397.651 236.298 397.651C230.749 397.651 228.505 402.389 228.505 408.249ZM219.778 408.249C219.778 398.774 225.638 391.106 236.298 391.106C246.958 391.106 252.818 398.774 252.818 408.249C252.818 417.725 246.958 425.393 236.298 425.393C225.638 425.393 219.778 417.725 219.778 408.249Z" fill="white"/>
<path d="M87.6929 448.662C85.8909 448.662 84.4006 448.067 83.2219 446.877C82.0433 445.687 81.4539 444.23 81.4539 442.508C81.4539 440.785 82.0433 439.329 83.2219 438.139C84.4006 436.949 85.8909 436.354 87.6929 436.354C88.7923 436.354 89.8009 436.62 90.7189 437.153C91.6369 437.674 92.3453 438.382 92.8439 439.278L91.7899 439.89C91.4159 439.164 90.8606 438.586 90.1239 438.156C89.3873 437.725 88.5769 437.51 87.6929 437.51C86.2083 437.51 84.9956 437.991 84.0549 438.955C83.1143 439.918 82.6439 441.102 82.6439 442.508C82.6439 443.913 83.1143 445.097 84.0549 446.061C84.9956 447.024 86.2083 447.506 87.6929 447.506C88.5769 447.506 89.3873 447.29 90.1239 446.86C90.8606 446.429 91.4159 445.851 91.7899 445.126L92.8439 445.721C92.3566 446.616 91.6483 447.33 90.7189 447.863C89.8009 448.395 88.7923 448.662 87.6929 448.662ZM102.011 447.387C101.15 448.237 100.096 448.662 98.8489 448.662C97.6022 448.662 96.5426 448.237 95.6699 447.387C94.8086 446.525 94.3779 445.466 94.3779 444.208C94.3779 442.95 94.8086 441.896 95.6699 441.046C96.5426 440.184 97.6022 439.754 98.8489 439.754C100.096 439.754 101.15 440.184 102.011 441.046C102.884 441.896 103.32 442.95 103.32 444.208C103.32 445.466 102.884 446.525 102.011 447.387ZM96.4689 446.605C97.1149 447.251 97.9082 447.574 98.8489 447.574C99.7896 447.574 100.583 447.251 101.229 446.605C101.875 445.947 102.198 445.148 102.198 444.208C102.198 443.267 101.875 442.474 101.229 441.828C100.583 441.17 99.7896 440.842 98.8489 440.842C97.9082 440.842 97.1149 441.17 96.4689 441.828C95.8229 442.474 95.4999 443.267 95.4999 444.208C95.4999 445.148 95.8229 445.947 96.4689 446.605ZM110.943 444.089C111.873 444.429 112.337 445.092 112.337 446.078C112.337 446.769 112.105 447.341 111.64 447.795C111.187 448.237 110.53 448.458 109.668 448.458H105.537V439.958H109.328C110.156 439.958 110.796 440.173 111.249 440.604C111.703 441.023 111.929 441.567 111.929 442.236C111.929 443.086 111.601 443.703 110.943 444.089ZM109.328 441.046H106.659V443.63H109.328C110.314 443.63 110.807 443.188 110.807 442.304C110.807 441.907 110.677 441.601 110.416 441.386C110.167 441.159 109.804 441.046 109.328 441.046ZM109.668 447.37C110.167 447.37 110.547 447.251 110.807 447.013C111.079 446.775 111.215 446.44 111.215 446.01C111.215 445.613 111.079 445.301 110.807 445.075C110.547 444.837 110.167 444.718 109.668 444.718H106.659V447.37H109.668ZM118.933 439.754C120.146 439.754 121.177 440.184 122.027 441.046C122.889 441.907 123.319 442.961 123.319 444.208C123.319 445.454 122.889 446.508 122.027 447.37C121.177 448.231 120.146 448.662 118.933 448.662C117.426 448.662 116.281 448.038 115.499 446.792V451.858H114.377V439.958H115.499V441.624C116.281 440.377 117.426 439.754 118.933 439.754ZM116.468 446.605C117.114 447.251 117.908 447.574 118.848 447.574C119.789 447.574 120.582 447.251 121.228 446.605C121.874 445.947 122.197 445.148 122.197 444.208C122.197 443.267 121.874 442.474 121.228 441.828C120.582 441.17 119.789 440.842 118.848 440.842C117.908 440.842 117.114 441.17 116.468 441.828C115.822 442.474 115.499 443.267 115.499 444.208C115.499 445.148 115.822 445.947 116.468 446.605ZM129.452 439.754C130.71 439.754 131.724 440.201 132.495 441.097C133.277 441.981 133.668 443.029 133.668 444.242C133.668 444.366 133.657 444.542 133.634 444.769H126.171C126.284 445.63 126.647 446.316 127.259 446.826C127.882 447.324 128.647 447.574 129.554 447.574C130.2 447.574 130.755 447.443 131.22 447.183C131.696 446.911 132.053 446.559 132.291 446.129L133.277 446.707C132.903 447.307 132.393 447.783 131.747 448.135C131.101 448.486 130.364 448.662 129.537 448.662C128.2 448.662 127.112 448.242 126.273 447.404C125.434 446.565 125.015 445.5 125.015 444.208C125.015 442.938 125.429 441.879 126.256 441.029C127.083 440.179 128.149 439.754 129.452 439.754ZM129.452 440.842C128.568 440.842 127.826 441.108 127.225 441.641C126.636 442.162 126.284 442.842 126.171 443.681H132.512C132.399 442.785 132.053 442.088 131.475 441.59C130.897 441.091 130.223 440.842 129.452 440.842ZM144.123 439.958V448.458H143.001V441.675L140.026 446.503H139.89L136.915 441.675V448.458H135.793V439.958H137.085L139.958 444.616L142.831 439.958H144.123ZM150.768 439.754C152.026 439.754 153.04 440.201 153.811 441.097C154.593 441.981 154.984 443.029 154.984 444.242C154.984 444.366 154.973 444.542 154.95 444.769H147.487C147.6 445.63 147.963 446.316 148.575 446.826C149.198 447.324 149.963 447.574 150.87 447.574C151.516 447.574 152.071 447.443 152.536 447.183C153.012 446.911 153.369 446.559 153.607 446.129L154.593 446.707C154.219 447.307 153.709 447.783 153.063 448.135C152.417 448.486 151.68 448.662 150.853 448.662C149.516 448.662 148.428 448.242 147.589 447.404C146.75 446.565 146.331 445.5 146.331 444.208C146.331 442.938 146.745 441.879 147.572 441.029C148.399 440.179 149.465 439.754 150.768 439.754ZM150.768 440.842C149.884 440.842 149.142 441.108 148.541 441.641C147.952 442.162 147.6 442.842 147.487 443.681H153.828C153.715 442.785 153.369 442.088 152.791 441.59C152.213 441.091 151.539 440.842 150.768 440.842ZM163.127 439.958H164.249V448.458H163.127V444.752H158.231V448.458H157.109V439.958H158.231V443.664H163.127V439.958ZM172.979 439.958H174.101V448.458H172.979V444.752H168.083V448.458H166.961V439.958H168.083V443.664H172.979V439.958ZM180.265 443.188C181.058 443.188 181.727 443.437 182.271 443.936C182.826 444.423 183.104 445.052 183.104 445.823C183.104 446.593 182.826 447.228 182.271 447.727C181.727 448.214 181.058 448.458 180.265 448.458H176.814V439.958H177.936V443.188H180.265ZM184.294 439.958H185.416V448.458H184.294V439.958ZM180.265 447.37C180.741 447.37 181.143 447.228 181.472 446.945C181.812 446.661 181.982 446.287 181.982 445.823C181.982 445.358 181.812 444.984 181.472 444.701C181.143 444.417 180.741 444.276 180.265 444.276H177.936V447.37H180.265ZM189.504 438.598V437.612H193.924V438.598H189.504ZM194.332 439.958H195.284V448.458H194.162V441.913L189.096 448.458H188.144V439.958H189.266V446.503L194.332 439.958ZM210.679 448.458L209.574 445.534H203.93L202.825 448.458H201.567L206.14 436.558H207.364L211.937 448.458H210.679ZM204.355 444.412H209.149L206.752 438.037L204.355 444.412ZM219.075 439.958V441.046H214.757V448.458H213.635V439.958H219.075ZM225.338 439.754C226.55 439.754 227.582 440.184 228.432 441.046C229.293 441.907 229.724 442.961 229.724 444.208C229.724 445.454 229.293 446.508 228.432 447.37C227.582 448.231 226.55 448.662 225.338 448.662C223.83 448.662 222.686 448.038 221.904 446.792V451.858H220.782V439.958H221.904V441.624C222.686 440.377 223.83 439.754 225.338 439.754ZM222.873 446.605C223.519 447.251 224.312 447.574 225.253 447.574C226.193 447.574 226.987 447.251 227.633 446.605C228.279 445.947 228.602 445.148 228.602 444.208C228.602 443.267 228.279 442.474 227.633 441.828C226.987 441.17 226.193 440.842 225.253 440.842C224.312 440.842 223.519 441.17 222.873 441.828C222.227 442.474 221.904 443.267 221.904 444.208C221.904 445.148 222.227 445.947 222.873 446.605ZM239.052 447.387C238.191 448.237 237.137 448.662 235.89 448.662C234.643 448.662 233.584 448.237 232.711 447.387C231.85 446.525 231.419 445.466 231.419 444.208C231.419 442.95 231.85 441.896 232.711 441.046C233.584 440.184 234.643 439.754 235.89 439.754C237.137 439.754 238.191 440.184 239.052 441.046C239.925 441.896 240.361 442.95 240.361 444.208C240.361 445.466 239.925 446.525 239.052 447.387ZM233.51 446.605C234.156 447.251 234.949 447.574 235.89 447.574C236.831 447.574 237.624 447.251 238.27 446.605C238.916 445.947 239.239 445.148 239.239 444.208C239.239 443.267 238.916 442.474 238.27 441.828C237.624 441.17 236.831 440.842 235.89 440.842C234.949 440.842 234.156 441.17 233.51 441.828C232.864 442.474 232.541 443.267 232.541 444.208C232.541 445.148 232.864 445.947 233.51 446.605ZM250.909 439.958V448.458H249.787V441.675L246.812 446.503H246.676L243.701 441.675V448.458H242.579V439.958H243.871L246.744 444.616L249.617 439.958H250.909ZM260.937 439.958H262.059V448.458H260.937V446.792C260.155 448.038 259.01 448.662 257.503 448.662C256.29 448.662 255.253 448.231 254.392 447.37C253.542 446.508 253.117 445.454 253.117 444.208C253.117 442.961 253.542 441.907 254.392 441.046C255.253 440.184 256.29 439.754 257.503 439.754C259.01 439.754 260.155 440.377 260.937 441.624V439.958ZM255.208 446.605C255.854 447.251 256.647 447.574 257.588 447.574C258.528 447.574 259.322 447.251 259.968 446.605C260.614 445.947 260.937 445.148 260.937 444.208C260.937 443.267 260.614 442.474 259.968 441.828C259.322 441.17 258.528 440.842 257.588 440.842C256.647 440.842 255.854 441.17 255.208 441.828C254.562 442.474 254.239 443.267 254.239 444.208C254.239 445.148 254.562 445.947 255.208 446.605ZM269.33 439.754C270.543 439.754 271.574 440.184 272.424 441.046C273.286 441.907 273.716 442.961 273.716 444.208C273.716 445.454 273.286 446.508 272.424 447.37C271.574 448.231 270.543 448.662 269.33 448.662C267.823 448.662 266.678 448.038 265.896 446.792V451.858H264.774V439.958H265.896V441.624C266.678 440.377 267.823 439.754 269.33 439.754ZM266.865 446.605C267.511 447.251 268.305 447.574 269.245 447.574C270.186 447.574 270.979 447.251 271.625 446.605C272.271 445.947 272.594 445.148 272.594 444.208C272.594 443.267 272.271 442.474 271.625 441.828C270.979 441.17 270.186 440.842 269.245 440.842C268.305 440.842 267.511 441.17 266.865 441.828C266.219 442.474 265.896 443.267 265.896 444.208C265.896 445.148 266.219 445.947 266.865 446.605ZM282.79 448.458H281.294L277.044 444.361V448.458H275.922V439.958H277.044V443.715L281.09 439.958H282.62L278.234 444.038L282.79 448.458ZM287.743 439.754C289.001 439.754 290.015 440.201 290.786 441.097C291.568 441.981 291.959 443.029 291.959 444.242C291.959 444.366 291.947 444.542 291.925 444.769H284.462C284.575 445.63 284.938 446.316 285.55 446.826C286.173 447.324 286.938 447.574 287.845 447.574C288.491 447.574 289.046 447.443 289.511 447.183C289.987 446.911 290.344 446.559 290.582 446.129L291.568 446.707C291.194 447.307 290.684 447.783 290.038 448.135C289.392 448.486 288.655 448.662 287.828 448.662C286.49 448.662 285.402 448.242 284.564 447.404C283.725 446.565 283.306 445.5 283.306 444.208C283.306 442.938 283.719 441.879 284.547 441.029C285.374 440.179 286.439 439.754 287.743 439.754ZM287.743 440.842C286.859 440.842 286.116 441.108 285.516 441.641C284.926 442.162 284.575 442.842 284.462 443.681H290.803C290.689 442.785 290.344 442.088 289.766 441.59C289.188 441.091 288.513 440.842 287.743 440.842ZM299.871 439.958V441.046H296.862V448.458H295.74V441.046H292.731V439.958H299.871Z" fill="white"/>
</svg>
