<svg width="10" height="12" viewBox="0 0 10 12" fill="none" xmlns="http://www.w3.org/2000/svg">
<path d="M9.31451 4.87228C9.31451 7.99022 5.15726 11.1082 5.15726 11.1082C5.15726 11.1082 1 7.99022 1 4.87228C1 3.76971 1.438 2.7123 2.21763 1.93266C2.99727 1.15302 4.05468 0.715027 5.15726 0.715027C6.25983 0.715027 7.31724 1.15302 8.09688 1.93266C8.87652 2.7123 9.31451 3.76971 9.31451 4.87228Z" stroke="white" stroke-width="0.799472" stroke-linecap="round" stroke-linejoin="round"/>
<path d="M5.15726 6.43125C6.01825 6.43125 6.71623 5.73328 6.71623 4.87228C6.71623 4.01129 6.01825 3.31331 5.15726 3.31331C4.29626 3.31331 3.59829 4.01129 3.59829 4.87228C3.59829 5.73328 4.29626 6.43125 5.15726 6.43125Z" stroke="white" stroke-width="0.799472" stroke-linecap="round" stroke-linejoin="round"/>
</svg>
