<svg width="16" height="14" viewBox="0 0 16 14" fill="none" xmlns="http://www.w3.org/2000/svg">
<path d="M6.86755 14.0009H6.75919C6.52244 13.9863 6.28015 13.9637 6.14622 13.7378C6.11734 13.6891 6.19929 13.5687 6.24011 13.4863C6.26868 13.4286 6.31573 13.3825 6.20152 13.3747C6.18034 13.3733 6.14445 13.3245 6.14561 13.299C6.16116 12.9652 6.43488 12.7411 6.8838 12.6894C6.9411 12.6828 6.99863 12.6714 7.05585 12.6727C7.20811 12.6761 7.31563 12.6353 7.43593 12.512C7.59535 12.3487 7.82 12.2457 8.02456 12.1309C8.42773 11.9046 8.52369 11.6659 8.32992 11.1941C8.11335 10.6668 7.85427 10.1571 7.63663 9.63016C7.56092 9.44682 7.55453 9.23493 7.51479 9.03646C7.48298 8.87764 7.45279 8.79287 7.22945 8.85712C6.41093 9.09254 5.64801 8.86823 4.94316 8.45332C4.54677 8.21999 4.19203 7.91585 3.8165 7.64642C3.79902 7.63385 3.75366 7.63871 3.73487 7.65313C3.58607 7.76713 3.44567 7.97601 3.29295 7.98473C2.89455 8.00749 2.48121 7.93359 2.1951 7.61927C2.05809 7.4687 2.01473 7.56782 1.95057 7.63986C1.67578 7.94863 1.68079 8.31564 1.73154 8.69753C1.75472 8.87201 1.73508 9.05227 1.73554 9.22991C1.73554 9.23701 1.74194 9.25035 1.74548 9.25043C2.0845 9.25352 2.11731 9.49942 2.12778 9.7488C2.13502 9.92058 2.13156 10.0961 2.10391 10.2652C2.07657 10.4326 1.88295 10.4782 1.77336 10.3262C1.65399 10.1607 1.59545 9.95205 1.50196 9.76654C1.41863 9.60116 1.34007 9.42923 1.22994 9.28236C1.07737 9.07912 1.07236 8.88003 1.14145 8.64562C1.26868 8.21397 1.37211 7.77539 1.4854 7.33966C1.48293 7.33742 1.48055 7.33518 1.47808 7.33287C1.09347 7.33811 0.803811 7.60523 0.676735 8.12288C0.605958 8.41105 0.58786 8.71226 0.546579 9.00761C0.545116 9.01795 0.548274 9.03762 0.552817 9.03877C0.873818 9.1193 0.812591 9.40948 0.866425 9.62878C0.919488 9.84521 0.848095 10.0401 0.690829 10.1988C0.547811 10.343 0.338714 10.3153 0.286652 10.1197C0.211023 9.8355 0.186147 9.53814 0.129848 9.24827C0.0962694 9.07526 0.0438988 8.90587 0 8.73486C0 8.62919 0 8.52344 0 8.41776C0.128462 8.13807 0.266474 7.86232 0.381689 7.57731C0.451157 7.40537 0.491975 7.22064 0.533795 7.03899C0.615354 6.68494 0.918872 6.49488 1.33707 6.56654C1.82488 6.65007 2.31031 6.74233 2.80329 6.61197C2.82501 6.60618 2.85435 6.57039 2.8542 6.5488C2.8485 5.92061 2.9842 5.34349 3.33084 4.80008C3.65523 4.29153 3.82752 3.71472 3.64006 3.1059C3.59123 2.94746 3.42165 2.82621 3.30605 2.68906C3.30204 2.68428 3.27609 2.68829 3.27108 2.69562C3.05213 3.01318 2.77749 3.25338 2.39595 3.35905C2.34035 3.37448 2.2839 3.44097 2.25709 3.49774C2.11901 3.78993 1.95496 3.88241 1.6891 3.80335C1.38374 3.71256 1.23602 3.51286 1.32166 3.20548C1.40153 2.91869 1.53977 2.64641 1.66808 2.37528C1.8667 1.95551 2.12116 1.55673 2.26988 1.12092C2.36453 0.843543 2.31077 0.515413 2.32294 0.210037C2.32333 0.200858 2.31732 0.191371 2.31424 0.182037C2.32494 0.184429 2.33727 0.18412 2.34605 0.189597C2.39349 0.219293 2.44078 0.249453 2.48668 0.281541C2.51779 0.30337 2.54652 0.328593 2.57632 0.35235C2.57609 0.31224 2.57833 0.271899 2.57486 0.232021C2.57178 0.196462 2.563 0.161288 2.55568 0.126115C2.5469 0.0839223 2.53712 0.0420383 2.52773 0C2.57155 0.0192836 2.62438 0.028694 2.65773 0.0593936C2.84434 0.231172 3.01454 0.423623 3.21609 0.574575C3.28456 0.625869 3.42873 0.585065 3.53678 0.572801C4.32042 0.484096 5.00917 0.701538 5.60842 1.21039C5.63646 1.23423 5.65402 1.27033 5.67651 1.30072C5.64116 1.29679 5.60565 1.29347 5.57038 1.28876C5.46379 1.27434 5.35735 1.25868 5.25061 1.24518C5.22604 1.2421 5.20063 1.24564 5.1756 1.24618C5.19285 1.26578 5.20756 1.28845 5.22774 1.30442C5.51986 1.53575 5.82245 1.75481 6.10248 1.99994C6.36949 2.23374 6.62534 2.48574 6.70867 2.85475C6.71275 2.87287 6.7116 2.89224 6.71283 2.91098C6.69681 2.90373 6.68079 2.8964 6.66469 2.8893C6.50358 2.81826 6.34246 2.7473 6.18134 2.67634L6.17341 2.67772C6.17449 2.67934 6.17564 2.68089 6.17672 2.68251C6.52329 3.06332 6.79985 3.48725 6.88149 4.00367C6.93317 4.33048 6.93471 4.66517 6.96213 4.996C6.96451 5.02477 6.98531 5.06349 7.00926 5.07722C7.40751 5.30608 7.85312 5.33038 8.29465 5.3644C9.03939 5.42171 9.75702 5.56047 10.3554 6.05035C10.4613 6.13705 10.5233 6.27975 10.6327 6.35904C10.7021 6.40941 10.8215 6.39214 10.9188 6.40216C11.7202 6.48454 12.3338 6.88017 12.7873 7.53496C13.0698 7.94277 13.3868 8.31294 13.865 8.49081C14.009 8.54434 14.1769 8.53316 14.3339 8.55159L14.3364 8.56C13.9832 8.72291 13.6258 8.85003 13.2323 8.70208C13.173 8.67979 13.1106 8.6659 13.0496 8.64809C13.0512 8.65171 13.0528 8.65542 13.0544 8.65904C13.3505 9.07426 13.7922 9.27334 14.2489 9.43023C14.6718 9.57555 15.1096 9.67706 15.5408 9.79793C15.5463 9.79947 15.5515 9.80194 15.5568 9.80395C15.5462 9.81259 15.5368 9.82578 15.5247 9.82932C15.2113 9.92096 14.9013 10.0273 14.5834 10.0988C14.0489 10.219 13.5071 10.2605 12.9663 10.1351C12.2238 9.96284 11.8179 9.42985 11.7747 8.62348C11.7567 8.28903 11.7225 7.94963 11.6418 7.62598C11.5681 7.33009 11.3818 7.25843 11.0838 7.33264C11.077 7.33433 11.0693 7.35277 11.0704 7.36249C11.1622 8.19292 10.8173 8.83884 10.2204 9.37709C10.1359 9.45337 10.0476 9.52896 9.95048 9.58728C9.43972 9.89404 9.37772 10.3574 9.49809 10.8807C9.53575 11.0446 9.60183 11.2019 9.6549 11.3621C9.77774 11.7335 9.61962 12.0627 9.24533 12.1694C8.62158 12.3471 8.15918 12.7186 7.80984 13.2627C7.73852 13.3738 7.54198 13.4004 7.41013 13.4777C7.32541 13.5274 7.24678 13.592 7.177 13.6616C7.06872 13.7696 6.97029 13.8875 6.86763 14.0012L6.86755 14.0009Z" fill="#990000"/>
</svg>
