<svg width="50" height="50" viewBox="0 0 50 50" fill="none" xmlns="http://www.w3.org/2000/svg">
<path d="M44.9059 26.2811V42.5778C44.9059 43.8127 44.4153 44.997 43.5421 45.8702C42.6689 46.7434 41.4846 47.234 40.2497 47.234H7.65621C6.42131 47.234 5.23698 46.7434 4.36377 45.8702C3.49056 44.997 3 43.8127 3 42.5778V9.98432C3 8.74941 3.49056 7.56509 4.36377 6.69188C5.23698 5.81867 6.42131 5.32811 7.65621 5.32811H23.953M33.2654 9.98432H47.234M40.2497 3V16.9686M44.9059 33.2652L37.7214 26.0807C36.8482 25.2078 35.6641 24.7174 34.4294 24.7174C33.1948 24.7174 32.0107 25.2078 31.1375 26.0807L9.98432 47.2339M21.6248 19.2967C21.6248 21.8683 19.5402 23.953 16.9686 23.953C14.3971 23.953 12.3124 21.8683 12.3124 19.2967C12.3124 16.7252 14.3971 14.6405 16.9686 14.6405C19.5402 14.6405 21.6248 16.7252 21.6248 19.2967Z" stroke="white" stroke-width="4.65621" stroke-linecap="round" stroke-linejoin="round"/>
</svg>
