<svg width="16" height="16" viewBox="0 0 16 16" fill="none" xmlns="http://www.w3.org/2000/svg">
<path d="M2.34785 4.23829C2.2158 4.69071 2.20011 5.16914 2.30225 5.62923C1.90335 5.88168 1.57477 6.23092 1.34708 6.64446C1.1194 7.05801 1 7.52242 1 7.9945C1 8.46658 1.1194 8.93099 1.34708 9.34453C1.57477 9.75808 1.90335 10.1073 2.30225 10.3598C2.20011 10.8199 2.2158 11.2983 2.34785 11.7507C2.4799 12.2031 2.72405 12.6149 3.05765 12.9478C3.39125 13.2807 3.80351 13.524 4.2562 13.6551C4.70889 13.7862 5.18735 13.8008 5.64723 13.6977C5.90001 14.0951 6.24899 14.4223 6.66183 14.649C7.07467 14.8756 7.53803 14.9945 8.009 14.9945C8.47997 14.9945 8.94333 14.8756 9.35617 14.649C9.76901 14.4223 10.118 14.0951 10.3708 13.6977C10.8309 13.7999 11.3093 13.7842 11.7617 13.6522C12.2141 13.5201 12.6259 13.276 12.9588 12.9424C13.2917 12.6087 13.535 12.1965 13.6661 11.7438C13.7972 11.2911 13.8118 10.8127 13.7087 10.3528C14.1046 10.0997 14.4304 9.75096 14.6561 9.33882C14.8817 8.92668 15 8.46437 15 7.9945C15 7.52463 14.8817 7.06232 14.6561 6.65018C14.4304 6.23804 14.1046 5.88934 13.7087 5.63623C13.8123 5.17565 13.7977 4.69637 13.6663 4.24295C13.5348 3.78954 13.2909 3.37674 12.9571 3.04293C12.6233 2.70912 12.2105 2.46516 11.757 2.33374C11.3036 2.20232 10.8244 2.1877 10.3638 2.29125C10.1107 1.89539 9.76196 1.56961 9.34982 1.34394C8.93769 1.11828 8.47537 1 8.0055 1C7.53563 1 7.07332 1.11828 6.66118 1.34394C6.24904 1.56961 5.90034 1.89539 5.64723 2.29125C5.18735 2.18815 4.70889 2.20283 4.2562 2.33394C3.80351 2.46504 3.39125 2.70832 3.05765 3.04123C2.72405 3.37413 2.4799 3.78588 2.34785 4.23829Z" stroke="black" stroke-linecap="round" stroke-linejoin="round"/>
<path d="M7.5 12C7.5 12.2761 7.72386 12.5 8 12.5C8.27614 12.5 8.5 12.2761 8.5 12H7.5ZM7.5 7V12H8.5V7H7.5Z" fill="black"/>
<path d="M5 7H11M5 5H11" stroke="black" stroke-linecap="round"/>
</svg>
